<svg xmlns="http://www.w3.org/2000/svg" height="1024" preserveAspectRatio="none" style="display: block;" version="1.1" viewBox="0 0 2048 2048" width="1024">
<path d="M 0 0 L 2048 0 L 2048 2048 L 0 2048 L 0 0 z" fill="rgb(249,249,243)" transform="translate(0,0)"></path>
<path d="M 1110.4 260.533 C 1128.52 262.531 1137.05 265.219 1150.6 277.645 C 1166.04 254.381 1199.66 256.812 1215.04 279.049 C 1243.03 262.442 1263.51 274.593 1278.96 300.895 C 1284.7 310.674 1286.79 331.272 1287.33 342.951 C 1309.02 349.868 1335.77 351.593 1355.92 359.085 C 1376.55 366.756 1413.27 377.581 1431.3 387.727 C 1459.63 403.665 1499.28 426.262 1523.29 447.738 C 1529.85 440.804 1535.35 436.048 1542.52 429.848 C 1521.1 388.032 1558.92 340.809 1600.42 355.617 C 1614.68 360.784 1626.22 371.553 1632.36 385.429 C 1638.11 398.2 1636.9 413.128 1632.02 425.917 C 1619.85 457.81 1584 459.37 1558.36 444.229 C 1553.5 451.315 1549.29 456.913 1543.96 463.664 C 1556.78 474.936 1568.86 487.433 1580.58 499.919 C 1588 507.822 1593.42 518.383 1599.58 527.304 C 1605.71 536.17 1611.99 544.969 1617.91 553.978 C 1627.01 570.205 1636.88 591.047 1644.45 608.137 C 1648.82 620.075 1651.54 632.456 1654.16 644.84 C 1656.09 652.569 1659.77 659.34 1660.31 667.395 C 1660.58 671.476 1662.46 677.455 1663.79 681.367 C 1678.4 724.029 1674.25 767.843 1664.48 811.061 C 1662.83 818.386 1662.73 827.111 1660.63 834.449 C 1656.94 846.346 1652.71 858.839 1648.19 870.473 C 1643.83 881.243 1638.1 890.886 1633.99 901.819 C 1628.26 917.354 1624.02 934.371 1614.19 947.981 C 1611.48 951.722 1608.04 954.915 1605.56 958.834 C 1598.09 970.642 1592.57 982.458 1582.89 992.7 C 1573.77 1002.27 1565.75 1013.37 1556.87 1023.05 C 1548.73 1031.91 1536.78 1042.48 1526.63 1049.16 C 1515.52 1056.46 1503.12 1067.73 1492.59 1074.87 C 1479.37 1083.83 1460.87 1090.67 1446.82 1098.71 C 1440.21 1101.78 1432.38 1107.83 1425.61 1110.06 C 1377.07 1126.05 1326.91 1140.97 1276.26 1148.44 C 1261.96 1150.55 1250.8 1151.3 1236.65 1155.54 C 1221.61 1186.2 1190.3 1221.49 1157.41 1232.62 C 1153.15 1234.03 1148.88 1235.38 1144.59 1236.68 C 1134.47 1219.64 1140.22 1214.18 1138.86 1196.09 C 1138.1 1185.86 1134.63 1173.24 1133.49 1162.21 C 1107.59 1162.9 1074.77 1166.15 1048.44 1168.26 C 1045.91 1168.46 1028.95 1177.19 1022.77 1179.27 C 1053.69 1197.11 1062.52 1205.22 1086.66 1232.55 C 1093.6 1240.4 1100.55 1247.09 1107.43 1256.47 C 1113.67 1264.98 1125.47 1300.85 1125.98 1300.95 C 1133.77 1302.42 1174 1293.86 1182.15 1291.29 C 1201.67 1285.13 1218.23 1279.76 1237.87 1277.25 C 1239.87 1279.82 1242.11 1282.55 1243.89 1285.23 C 1259.08 1285.08 1283.73 1281.1 1290.35 1297.52 C 1309.28 1307.57 1316.74 1307.35 1331.92 1323.09 C 1332.89 1330.65 1325.79 1327.9 1333.12 1333.07 C 1341.89 1339.25 1352.55 1343.63 1359.96 1351.5 C 1365.32 1357.19 1365.53 1359.33 1362.69 1366.44 C 1366.22 1369.97 1369.64 1372.89 1373.33 1376.18 C 1383.45 1385.23 1398.12 1387.45 1393.33 1403.92 C 1399.93 1408.13 1426.23 1422.35 1428.52 1426.66 C 1424.45 1437.47 1372.4 1445.76 1361.39 1442.34 C 1359.54 1441.77 1349.49 1440.31 1348.57 1440.53 C 1348.24 1443.06 1349.08 1444.76 1349.88 1447.21 C 1342.95 1461.12 1310.7 1449.94 1299.89 1445.86 C 1290.52 1473.17 1266.53 1440.86 1252.5 1442.55 L 1251.54 1443.61 C 1249.27 1446.09 1248.31 1447.82 1245.14 1448.43 C 1233.88 1446.3 1202.43 1417.31 1191.54 1408.98 C 1188.59 1412.23 1187.66 1413.95 1183.64 1415.09 C 1180.84 1414.88 1177.47 1414.66 1175.94 1412.1 C 1166.37 1396.06 1141.52 1361.38 1135.68 1346.08 L 1132.63 1347.18 C 1135.01 1372.28 1129.89 1401.09 1123.47 1425.54 C 1121.06 1434.69 1112.62 1446.46 1108.11 1455.77 L 1108.99 1456.8 C 1117.24 1458.59 1128.62 1454.03 1136 1455.09 C 1161.8 1458.83 1185.19 1483.89 1182.51 1510.62 C 1181.32 1522.52 1172.23 1538.75 1162.5 1545.55 C 1138.41 1562.38 1106.59 1554.28 1090.6 1530.36 C 1083.35 1519.5 1080.42 1505.23 1085.16 1493.03 C 1087.93 1485.89 1091.65 1480.49 1092.66 1472.98 C 1084.8 1479.09 1079.67 1487.81 1071.91 1494.1 C 1047.17 1514.14 1013.83 1529.72 983.825 1539.8 C 980.939 1540.77 961.489 1542.58 952.571 1544.89 C 957.251 1591.43 955.413 1601.85 988.796 1637.95 C 996.833 1646.65 1000.56 1647.47 1009.39 1653.48 C 1030.98 1668.19 1044.09 1671.94 1069.37 1676.66 C 1085.55 1679.68 1084.77 1682.22 1101.86 1679.81 C 1114.83 1677.98 1132.09 1667.16 1141.3 1667.69 C 1144.28 1673.63 1140.98 1675.91 1139.46 1681.71 C 1135.68 1696.12 1137.67 1708.69 1139.37 1723.06 C 1140.35 1731.42 1138.93 1740.78 1141.68 1749.52 C 1142.5 1752.13 1142.12 1754.87 1140.49 1757.09 C 1131.94 1759.41 1117.97 1758.82 1108.7 1759.16 C 1093.93 1759.7 1074.44 1763.9 1060.19 1762.83 C 1042.98 1761.53 1018.71 1755.33 1001.63 1756.28 C 989.406 1756.97 966.657 1756.48 955.554 1757.84 C 932.152 1760.7 926.118 1761.99 902.02 1760.55 C 875.395 1758.95 842.459 1746.92 817.969 1747.07 C 797.003 1749.13 773.879 1750.65 753.145 1754.09 C 733.005 1757.42 716.689 1761.35 695.787 1761.45 C 671.131 1761.57 648.001 1756.01 623.649 1755.13 C 612.8 1754.74 600.397 1755.62 589.491 1755.98 C 579.03 1756.81 566.992 1762.3 556.07 1761.77 C 551.687 1761.62 548.552 1761.74 545.466 1758.59 C 542.044 1750.72 549.634 1739.77 549.974 1730.72 C 550.333 1721.2 538.742 1679 545.938 1674.07 C 555.907 1673.2 569.132 1675.17 578.54 1679.17 C 623.816 1671.72 645.355 1667.41 679.633 1632.21 C 688.018 1622.51 699.863 1608.21 703.958 1595.83 C 718.006 1553.4 719.589 1502.2 717.99 1458.66 C 685.494 1447.19 661.272 1427.91 646.783 1397.17 C 644.796 1392.95 639.707 1379.67 636.885 1377.2 C 605.944 1378.06 599.234 1346.6 595.515 1322.68 C 590.295 1320.8 588.931 1319.91 584.197 1316.92 C 566.997 1351.63 564.862 1379.12 556.313 1416.14 C 555.881 1418 553.02 1419.13 551.355 1419.53 C 548.118 1418.48 546.447 1415.76 544.393 1413.13 C 542.21 1415.64 538.889 1425.58 537.191 1429.46 C 533.895 1437 522.823 1459.7 516.603 1463.71 C 512.975 1464.7 511.857 1463.98 508.012 1462.86 L 506.699 1462.46 C 498.092 1463.76 490.273 1490.91 475.111 1492.21 C 470.569 1490.49 471.823 1490.76 468.292 1486.45 C 462.93 1491.28 437.333 1516.03 431.36 1515.46 C 428.043 1513.19 426.953 1510.5 424.88 1506.94 C 409.447 1518.7 377.856 1570.16 365.061 1572.56 C 353.779 1566.61 364.814 1526.13 361.322 1523.46 C 347.829 1513.14 365.871 1477.75 363.613 1472.18 L 358.845 1471.29 C 357.757 1470.15 356.175 1468.95 356.117 1467.64 C 355.666 1457.4 370.073 1433.63 374.719 1425.21 C 372.461 1423.15 370.435 1420.78 368.383 1418.51 C 368.49 1418.15 368.597 1417.79 368.704 1417.43 L 369.27 1415.64 C 373.793 1401.02 387.371 1384.78 398.291 1374.42 C 396.567 1371.51 395.121 1368.01 393.723 1364.88 C 400.267 1357.59 401.514 1356.92 409.048 1351.85 C 415.026 1347.83 438.044 1339.64 440.912 1335.68 C 438.156 1333.45 435.919 1332.23 434.879 1328.94 C 438.904 1315.13 487.184 1309.51 492.769 1303.93 C 493.84 1301.11 495.231 1297.2 498.076 1296.01 C 516.051 1288.46 550.555 1293.79 567.929 1298.96 C 564.105 1290.08 557.111 1281.4 552.949 1272.03 C 549.137 1263.45 546.422 1254.38 542.796 1245.96 C 501.755 1150.67 543.921 1055.21 624.644 993.289 C 612.927 981.29 601.171 965.236 591.127 951.798 C 586.963 946.227 579.99 924.928 575.021 923.379 L 573.312 924.807 C 569.984 931.641 575.592 945.635 569.758 956.968 C 564.43 969.525 555.347 976.008 543.13 981.674 C 500.263 1001.56 459.25 960.155 481.247 917.23 C 499.059 882.469 528.626 884.873 559.384 900.414 C 562.594 898.748 567.083 895.627 570.23 893.579 C 560.627 882.024 556.878 802.87 556.922 785.519 C 549.149 791.168 543.43 795.34 536.227 801.757 C 530.833 806.564 519.035 820.516 513.783 823.307 C 510.887 823.3 509.849 821.99 507.469 820.151 L 506.497 819.388 C 495.991 824.53 471.676 846.043 461.009 842.055 C 460.263 841.005 457.469 836.791 456.129 837.168 C 440.06 841.693 432.111 850.238 413.954 847.715 C 410.857 845.88 408.998 839.755 407.797 839.665 C 395.503 838.745 387.851 843.227 375.237 839.789 C 371.799 836.632 372.088 834.445 371.316 829.431 C 365.663 825.005 347.794 833.534 339.95 828.884 C 337.059 827.171 337.009 823.318 336.227 819.577 C 331.621 818.325 322.964 821.695 320.065 820.982 C 312.605 819.148 275.734 816.139 272.839 811.737 C 274.419 801.505 299.573 787.368 308.02 781.221 C 313.246 777.417 307.517 771.897 313.124 767.123 C 319.291 761.871 335.495 756.123 339.782 750.047 C 341.606 738.75 345.426 738.191 355.115 733.27 C 360.748 730.41 366.446 728.089 371.913 724.856 C 375.994 705.774 397.033 716.38 408.345 707.513 L 408.285 700.709 C 414.639 693.181 437.994 699.947 448.362 698.744 C 449.137 698.074 451.384 696.17 452.064 695.688 C 460.838 689.466 480.601 703.426 489.552 704.684 C 490.727 703.837 495.008 700.716 496.122 700.853 C 514.297 703.389 526.869 720.383 540.78 730.799 C 546.725 735.25 553.708 736.578 560.709 738.484 C 564.429 708.342 572.664 690.578 590.27 666.485 C 598.285 656.048 606.135 637.242 615.019 627.975 C 643.773 597.981 678.064 567.724 715.152 549.252 C 713.445 536.525 711.951 522.787 707.952 510.448 C 698.151 478.949 680.522 442.411 650.013 426.002 C 629.509 414.974 603.56 402.358 579.639 403.738 C 570.969 404.239 544.922 411.76 540.122 409.261 C 539.201 399.531 542.624 387.278 542.609 376.836 C 543.286 364.508 540.157 351.233 540.309 339.283 C 541.659 324.335 566.644 335.399 576.092 335.04 C 610.982 333.718 641.937 340.101 676.768 330.986 C 684.921 328.852 701.126 329.961 710.503 328.331 C 715.344 327.49 726.936 327.129 731.536 327.821 L 732.306 328.839 C 754.764 329.993 774.764 337.407 795.485 338.004 C 819.485 338.695 848.064 333.756 872.629 334.671 C 882.049 335.021 895.113 330.896 905.018 331.579 C 932.909 331.632 955.61 334.113 983.918 332.972 C 982.895 304.872 1002.7 288.956 1029.89 289.227 C 1038.94 289.317 1058.27 294.247 1067.28 291.752 C 1082.04 278.56 1092.52 269.473 1110.4 260.533 z" fill="rgb(31,27,29)" transform="translate(0,0)"></path>
<path d="M 731.536 327.821 L 732.306 328.839 C 736.422 342.351 751.066 331.483 751.188 337.066 C 749.988 339.263 737.223 338.012 734.986 337.223 C 731.183 335.882 726.098 339.676 724.274 337.741 L 724.347 336.541 C 724.669 336.211 725.03 335.92 725.421 335.675 C 729.642 333.067 729.572 332.301 731.536 327.821 z" fill="rgb(63,52,49)" transform="translate(0,0)"></path>
<path d="M 1132.63 1347.18 C 1132.49 1342.44 1133.16 1343.05 1135.68 1346.08 L 1132.63 1347.18 z" fill="rgb(254,254,254)" transform="translate(0,0)"></path>
<path d="M 558.678 344.274 C 573.86 347.287 584.161 346.064 598.649 347.485 C 635.487 351.098 671.602 346.01 708.493 344.867 C 721.438 344.686 734.389 346.651 747.29 347.421 C 798.124 350.454 848.838 349.927 899.743 349.279 C 919.077 349.034 937.324 346.03 956.676 347.037 C 975.81 348.033 995.583 345.622 1014.7 345.298 C 1024.5 345.136 1034.86 348.728 1044.72 349.07 C 1060.23 349.52 1083.02 343.279 1097.63 344.882 C 1103.73 350.58 1093.2 365.317 1089.32 370.805 C 1083.81 380.894 1078.01 388.012 1081.77 400.099 C 1085.65 412.574 1091.97 419.626 1102.94 425.833 C 1113 426.109 1130.48 425.225 1140.76 420.935 C 1141.05 420.816 1143.43 417.447 1143.84 416.844 C 1146.58 415.971 1159.36 420.741 1164.41 421.583 C 1168.61 422.24 1172.86 422.491 1177.11 422.332 C 1189.71 421.888 1201.47 414.024 1212.27 408.603 C 1214.63 407.423 1221.15 413.287 1228.94 412.945 L 1230.83 412.871 C 1252.49 411.922 1271.55 401.001 1281.79 381.46 C 1283.25 373.411 1284.8 365.379 1286.45 357.365 C 1293.75 358.769 1306.06 360.317 1312.94 362.558 C 1350.69 374.852 1389.98 384.538 1426.44 400.229 C 1441.13 406.551 1453.86 418.34 1467.3 426.805 C 1494.4 445.518 1522.79 460.904 1546.95 483.635 C 1553.11 489.427 1558.92 497.535 1564.74 502.899 C 1577.82 514.95 1582.78 525.397 1591.7 540.188 C 1601.86 557.02 1614.23 573.597 1622.84 591.503 C 1638.58 624.691 1646.04 660.234 1650.39 696.485 C 1651.79 708.097 1654.92 723.123 1654.51 735.087 C 1653.66 759.892 1651.55 793.812 1647.13 817.776 C 1635.45 880.968 1607.26 947.292 1561.92 993.733 C 1552.64 1003.24 1542.51 1009.38 1532.69 1018.22 C 1525.65 1024.56 1518.06 1034.34 1511.12 1040.31 C 1496.88 1052.55 1482.18 1064.22 1466.69 1074.8 C 1451.37 1085.26 1449.88 1084.31 1433.38 1090.07 C 1427.01 1092.29 1416.2 1097.81 1408.44 1100.76 C 1389.49 1107.83 1369.84 1113.03 1350.49 1118.75 C 1333.19 1123.86 1312.98 1133.14 1295.09 1135.39 C 1277.25 1137.63 1260.57 1140.03 1242.74 1142.94 C 1247.44 1135.22 1251.06 1126.11 1253.87 1117.53 C 1252.81 1112.46 1257.69 1104.21 1258.85 1096.26 C 1260.92 1082 1262.22 1068.53 1263.3 1054.19 C 1262.55 1046.07 1261.01 1039.68 1259.22 1031.71 C 1312.21 1022.07 1375.39 955.849 1395.82 908.31 C 1413.5 867.175 1430.1 783.225 1426.24 738.402 C 1438.69 725.977 1432.34 720.276 1452.36 713.66 L 1454.05 714.699 C 1453.74 700.442 1468.93 678.886 1469.69 667.262 C 1462.47 657.057 1481.35 649.916 1481.89 641.778 C 1483.34 619.824 1499.88 620.281 1511.76 604.793 L 1510.67 603.082 C 1501.83 599.333 1470.14 600.747 1459.47 601.614 C 1458.15 600.652 1453.64 595.928 1452.29 594.568 C 1446.69 596.418 1432.63 602.045 1427.02 599.96 C 1425.73 599.478 1425.55 597.118 1425.08 595.389 C 1415.23 596.642 1411.03 601.751 1401.6 606.291 C 1397.9 598.209 1394.7 591.096 1390.75 583.045 C 1387.43 576.138 1382.33 570.026 1378.7 563.522 C 1352.65 516.799 1303.39 489.422 1254.3 472.712 C 1243.15 468.915 1221.8 468.516 1211.41 463.391 C 1189.58 462.329 1168.61 456.319 1147.48 455.375 C 1109.87 453.695 1070.09 456.492 1032.47 458.516 C 1027.12 458.804 1020.76 455.282 1015.3 455.527 C 996.555 456.546 978.363 461.008 959.899 463.293 C 950.519 464.454 939.182 457.515 929.519 462.007 L 928.006 463.982 L 928.279 465.547 C 930.139 476.849 928.98 485.815 927.031 497.034 C 917.868 497.052 908.092 496.853 899.008 497.062 L 898.12 497.209 C 881.911 499.767 859.848 499.228 844.468 502.803 C 825.672 507.173 804.799 512.324 786.153 517.396 C 777.198 519.832 763.827 527.31 753.888 529.814 C 748.931 534.775 732.384 544.263 725.462 544.626 C 719.672 538.984 724.797 519.467 718.585 510.617 C 713.809 503.811 709.048 484.802 705.586 475.987 C 691.499 434.686 664.463 422.259 628.262 403.537 C 599.972 388.907 579.402 390.667 549.631 397.286 C 554.038 378.986 560.63 365.149 558.678 344.274 z" fill="rgb(10,10,11)" transform="translate(0,0)"></path>
<path d="M 1286.45 357.365 C 1293.75 358.769 1306.06 360.317 1312.94 362.558 C 1350.69 374.852 1389.98 384.538 1426.44 400.229 C 1441.13 406.551 1453.86 418.34 1467.3 426.805 C 1494.4 445.518 1522.79 460.904 1546.95 483.635 C 1553.11 489.427 1558.92 497.535 1564.74 502.899 C 1577.82 514.95 1582.78 525.397 1591.7 540.188 C 1601.86 557.02 1614.23 573.597 1622.84 591.503 C 1638.58 624.691 1646.04 660.234 1650.39 696.485 C 1651.79 708.097 1654.92 723.123 1654.51 735.087 C 1653.66 759.892 1651.55 793.812 1647.13 817.776 C 1635.45 880.968 1607.26 947.292 1561.92 993.733 C 1552.64 1003.24 1542.51 1009.38 1532.69 1018.22 C 1525.65 1024.56 1518.06 1034.34 1511.12 1040.31 C 1496.88 1052.55 1482.18 1064.22 1466.69 1074.8 C 1451.37 1085.26 1449.88 1084.31 1433.38 1090.07 C 1427.01 1092.29 1416.2 1097.81 1408.44 1100.76 C 1389.49 1107.83 1369.84 1113.03 1350.49 1118.75 C 1333.19 1123.86 1312.98 1133.14 1295.09 1135.39 C 1277.25 1137.63 1260.57 1140.03 1242.74 1142.94 C 1247.44 1135.22 1251.06 1126.11 1253.87 1117.53 C 1293.39 1115.18 1364.56 1094.52 1401.42 1079.16 C 1418.82 1071.91 1457.91 1045.66 1474.39 1033.2 C 1506.29 1009.08 1538.7 976.893 1560.21 942.92 C 1565.18 937.259 1569.21 925.127 1573.39 919.689 C 1587.96 900.719 1591.14 891.966 1597.36 869.053 C 1605.12 840.505 1616.2 813.149 1620.12 783.086 C 1622.99 761.141 1621.52 733.104 1620.22 710.505 C 1616.2 691.747 1612.14 666.25 1607.53 648.007 C 1597.74 609.261 1577.59 572.224 1555.4 539.332 C 1543.77 527.819 1533.21 509.653 1520.61 499.591 C 1505.29 487.362 1490.04 473.108 1474.77 460.884 C 1469.7 456.31 1458.61 454.047 1453.77 450.531 C 1425.51 430.034 1397.41 418.576 1364.85 407.025 C 1337.14 397.191 1311.76 385.867 1281.79 381.46 C 1283.25 373.411 1284.8 365.379 1286.45 357.365 z" fill="rgb(192,151,102)" transform="translate(0,0)"></path>
<path d="M 558.678 344.274 C 573.86 347.287 584.161 346.064 598.649 347.485 C 635.487 351.098 671.602 346.01 708.493 344.867 C 721.438 344.686 734.389 346.651 747.29 347.421 C 798.124 350.454 848.838 349.927 899.743 349.279 C 919.077 349.034 937.324 346.03 956.676 347.037 C 975.81 348.033 995.583 345.622 1014.7 345.298 C 1024.5 345.136 1034.86 348.728 1044.72 349.07 C 1060.23 349.52 1083.02 343.279 1097.63 344.882 C 1103.73 350.58 1093.2 365.317 1089.32 370.805 C 1078.23 367.012 1042.23 370.447 1027.77 369.962 C 1007.1 369.27 990.55 366.034 970.244 363.615 C 959.303 362.311 945.668 365.485 934.965 365.291 C 922.578 365.067 910.29 362.759 897.625 362.886 C 864.323 363.219 833.85 372.48 800.201 371.757 C 775.759 371.21 751.612 366.79 727.474 363.655 C 694.469 359.368 661.419 360.074 628.379 363.56 C 619.215 364.527 595.707 364.26 590.915 372.159 C 594.742 380.931 618.853 377.673 627.673 380.055 C 649.302 385.895 679.641 392.312 695.236 409.732 C 708.122 424.126 724.282 451.011 734.17 468.025 C 741.794 481.141 751.463 514.381 753.888 529.814 C 748.931 534.775 732.384 544.263 725.462 544.626 C 719.672 538.984 724.797 519.467 718.585 510.617 C 713.809 503.811 709.048 484.802 705.586 475.987 C 691.499 434.686 664.463 422.259 628.262 403.537 C 599.972 388.907 579.402 390.667 549.631 397.286 C 554.038 378.986 560.63 365.149 558.678 344.274 z" fill="rgb(192,151,102)" transform="translate(0,0)"></path>
<path d="M 1426.24 738.402 C 1438.69 725.977 1432.34 720.276 1452.36 713.66 L 1454.05 714.699 C 1454.05 715.061 1454.04 715.422 1454.05 715.784 C 1454.26 730.161 1457.93 744.388 1457.72 758.8 C 1456.93 810.83 1445.84 872.388 1422.93 919.373 C 1418.89 927.667 1413.65 935.501 1408.8 943.341 C 1403.15 952.463 1397.79 961.512 1390.35 969.331 C 1378.72 981.538 1335.92 1026.32 1322.73 1027.75 C 1310.66 1029.05 1301.23 1039.53 1290.71 1044.9 C 1282.23 1049.22 1272.18 1050.67 1263.3 1054.19 C 1262.55 1046.07 1261.01 1039.68 1259.22 1031.71 C 1312.21 1022.07 1375.39 955.849 1395.82 908.31 C 1413.5 867.175 1430.1 783.225 1426.24 738.402 z" fill="rgb(165,80,92)" transform="translate(0,0)"></path>
<path d="M 902.483 435.942 C 919.75 438.595 934.812 432.197 950.99 433.039 C 1039.23 437.628 1127.78 426.994 1215.43 441.765 C 1214.22 449.101 1213.13 456.149 1211.41 463.391 C 1189.58 462.329 1168.61 456.319 1147.48 455.375 C 1109.87 453.695 1070.09 456.492 1032.47 458.516 C 1027.12 458.804 1020.76 455.282 1015.3 455.527 C 996.555 456.546 978.363 461.008 959.899 463.293 C 950.519 464.454 939.182 457.515 929.519 462.007 L 928.006 463.982 L 928.279 465.547 C 930.139 476.849 928.98 485.815 927.031 497.034 C 917.868 497.052 908.092 496.853 899.008 497.062 C 900.161 480.962 900.31 449.419 902.483 435.942 z" fill="rgb(165,80,92)" transform="translate(0,0)"></path>
<path d="M 1215.43 441.765 C 1233.59 446.806 1253.76 450.114 1271 455.146 C 1312.55 467.272 1352.61 493.556 1381.51 525.495 C 1391.09 536.073 1406.99 550.42 1410.28 564.384 C 1403.29 576.733 1402.05 574.427 1390.75 583.045 C 1387.43 576.138 1382.33 570.026 1378.7 563.522 C 1352.65 516.799 1303.39 489.422 1254.3 472.712 C 1243.15 468.915 1221.8 468.516 1211.41 463.391 C 1213.13 456.149 1214.22 449.101 1215.43 441.765 z" fill="rgb(192,151,102)" transform="translate(0,0)"></path>
<path d="M 1410.28 564.384 C 1418.93 575.489 1421.37 582.356 1425.08 595.389 C 1415.23 596.642 1411.03 601.751 1401.6 606.291 C 1397.9 598.209 1394.7 591.096 1390.75 583.045 C 1402.05 574.427 1403.29 576.733 1410.28 564.384 z" fill="rgb(165,80,92)" transform="translate(0,0)"></path>
<path d="M 895.58 511.412 C 916.337 508.317 938.206 514.039 956.819 513.546 C 988.807 512.699 993.205 515.09 1021.99 523.89 C 1043.89 530.583 1069.76 533.341 1092.27 542.871 C 1103.06 547.436 1120.12 548.906 1131.15 554.197 C 1185.44 577.968 1238.89 611.064 1282.6 651.238 C 1289.24 657.396 1297.39 672.785 1302.38 680.592 C 1302.56 683.405 1312.27 685.799 1311.62 687.992 C 1309.53 695.073 1302.84 725.765 1312.22 729.162 C 1318.28 723.501 1312.62 691.999 1322.45 686.387 L 1325.84 687.371 C 1332.42 684.658 1348.56 648.018 1353.48 640.198 C 1359.5 630.634 1360.15 635.781 1366.74 633.315 C 1368.7 632.584 1374.79 620.743 1380.45 619.205 C 1382.24 621.594 1382.65 622.625 1385.27 624.008 C 1391.66 623.348 1410.28 608.054 1418.07 603.868 C 1426.86 616.345 1433.9 609.185 1445 603.134 C 1448.8 604.457 1451.99 606.028 1455.61 607.722 C 1472.76 605.629 1478.92 605.578 1495.98 607.487 C 1486.9 617.644 1475.31 624.545 1464.68 636.07 L 1470.47 644.744 C 1462.29 655.824 1461.09 660.989 1459.99 674.508 C 1459.74 677.573 1450.43 684.623 1451.44 690.371 C 1454.35 691.946 1453.76 691.081 1455.38 693.501 C 1453.26 698.84 1449.67 698.355 1446.03 704.019 L 1446.96 707.442 C 1443.23 712.806 1437.13 713.096 1431.57 715.214 C 1424.24 718.006 1424.82 723.587 1421.55 729.009 C 1418.53 734.009 1407.99 735.242 1402.34 736.731 L 1401.4 738.572 C 1402.43 742.282 1405.01 744.525 1407.61 747.396 C 1393.33 752.648 1378.52 754.785 1363.43 756.062 C 1355.26 765.2 1337.89 754.589 1324.63 756.752 L 1323.83 758.272 C 1326.62 761.929 1328.03 762.089 1332.46 763.982 C 1339.72 793.419 1334.75 834.888 1327.44 864.589 C 1319.68 887.355 1300.12 918.14 1284.9 936.215 C 1274.47 948.606 1245.73 977.19 1232.82 984.674 C 1221.96 975.19 1215.88 972.55 1202.58 966.868 C 1239.16 947.669 1267.04 912.62 1282.9 875.699 C 1285.32 870.079 1289.92 863.706 1291.92 858.071 C 1305.9 818.631 1305.65 772.454 1290.65 733.315 C 1264.55 671.829 1202.36 628.513 1145.11 598.039 C 1130.1 590.045 1111.66 584.826 1096.6 575.715 C 1092.86 573.453 1076.31 571.258 1071.13 570.087 C 1061.93 568.007 1052.3 565.228 1043.07 563.01 C 1031.67 560.872 1019.51 561.061 1008.16 559.023 C 982.475 554.412 956.924 553.931 931.527 547.696 C 926.593 546.485 906.625 545.436 901.52 545.786 C 854.87 548.988 806.622 562.115 762.987 578.807 C 746.38 585.273 730.003 596.906 716.029 604.913 C 678.635 626.34 647.431 650.175 623.483 686.692 C 618.278 694.628 609.547 716.793 606.197 726.627 C 593.538 763.787 591.382 791.013 593.351 829.325 C 596.709 894.651 623.68 938.692 671.599 981.41 C 683.233 991.781 696.342 999.381 708.276 1008.67 C 724.859 1021.59 739.055 1037.33 758.015 1047.7 C 769.527 1053.76 782.111 1062.52 794.009 1067.49 C 816.228 1076.77 837.515 1085.71 858.177 1098.25 C 870.616 1105.8 884.06 1115.45 896.99 1121.88 C 914.256 1128.83 932.063 1139.73 949.174 1146.43 C 967.948 1153.8 972.298 1156.71 988.56 1168.1 C 1005.28 1179.03 1024.32 1189.36 1040.13 1201.49 C 1059.03 1215.99 1077.96 1238.15 1094.98 1255.08 C 1106.16 1266.2 1111.63 1297.77 1118.25 1312.32 C 1121.33 1312.28 1122.44 1311.59 1125.25 1310.43 C 1143.51 1306.63 1159.83 1303.37 1177.96 1298.79 C 1194.52 1294.61 1214.71 1288.5 1231.03 1285.91 C 1233.05 1288.38 1235.22 1291.45 1237.15 1294.04 C 1244.31 1292.94 1270.41 1290.38 1274.92 1296.12 C 1274.99 1297.59 1275.11 1303.08 1275.95 1303.82 C 1282.81 1309.9 1314.67 1314.91 1318.45 1323.97 L 1316.31 1328.15 C 1317.77 1339.51 1340.69 1345.36 1351.58 1356.53 C 1350.41 1361.19 1349.82 1362.41 1350.31 1367.05 C 1352.27 1370.3 1373.07 1390.23 1377.31 1393.49 L 1378.56 1394.45 C 1376.44 1398.59 1374.98 1400.39 1375.59 1404.76 C 1380.87 1411.71 1399.66 1420.79 1407.99 1425.26 C 1397.51 1428.66 1386.69 1430.88 1375.72 1431.88 C 1366.14 1432.66 1344.03 1429.89 1338.65 1432.52 C 1335.91 1435.4 1336.26 1438.66 1335.32 1443.01 C 1323.98 1445.65 1305.57 1436.01 1294.38 1434.45 C 1287.18 1433.44 1285.83 1438.95 1284.09 1444.39 L 1283.64 1445.81 C 1278.19 1444.59 1252.14 1427.32 1245.68 1423.24 C 1239.48 1428.08 1238.97 1427.44 1239.63 1434.88 C 1227.89 1429.51 1196.94 1398.61 1189.13 1398.66 C 1185.21 1400.44 1183.69 1403.53 1181.13 1407.15 C 1170.38 1372.7 1156.23 1363.58 1135.19 1335.67 C 1132.69 1332.36 1127.75 1326.51 1123.65 1326.14 L 1121.48 1328.61 C 1120.99 1337.25 1124.43 1345.62 1124.79 1353.96 C 1125.33 1369.22 1124.22 1385.31 1121.84 1400.36 C 1118.58 1420.95 1109.2 1439.72 1099.21 1457.76 C 1099.36 1458.36 1099.51 1458.96 1099.65 1459.56 L 1103.59 1461.89 L 1103.82 1463.82 C 1101.71 1467.51 1101.82 1467.31 1098.33 1469.8 C 1094.63 1470.2 1093.46 1468.18 1089.7 1465.39 C 1080.12 1472.41 1075.16 1479.78 1067.92 1487.04 C 1051.4 1503.6 973.573 1540.06 952.22 1533.1 C 949.722 1530.78 949.833 1531 948.714 1527.79 C 951.453 1517.7 973.865 1515.33 984.179 1509.71 C 1005.48 1498.11 1029.86 1486.61 1049.09 1471.61 C 1052.51 1468.94 1060.95 1456.22 1064.7 1451.89 C 1070.72 1444.92 1076.99 1437.4 1081.51 1429.44 C 1086.66 1420.39 1088.38 1413.03 1091.26 1403.64 C 1097.7 1382.63 1099.56 1369.99 1096.03 1348 C 1094.75 1342.55 1094.61 1332.36 1092.44 1327.27 C 1088.66 1318.44 1085.6 1308.36 1082.13 1299.64 C 1077.99 1289.24 1067.06 1280 1060.43 1271.09 C 1053.06 1261.18 1046.51 1250.3 1038 1241.32 C 1018.45 1222.65 996.628 1207.69 972.588 1195.39 C 965.497 1191.99 957.767 1185.58 950.674 1182.53 C 925.908 1171.89 903.627 1158.46 880.483 1144.87 C 870.177 1138.81 856.186 1134.77 845.659 1128.85 C 827.985 1119.54 809.963 1108.87 792.081 1100.09 C 757.253 1083 723.651 1063.88 692.229 1041.03 C 685.239 1035 670.708 1027.76 664.884 1021.08 C 654.521 1009.19 643.796 998.169 632.63 987.122 C 620.646 975.267 610.379 958.141 602.497 943.432 C 597.346 933.82 588.996 925.258 586.4 914.395 C 585.799 911.634 585.794 911.585 584.34 909.371 C 576.39 908.681 572.688 917.23 568.212 917.022 C 566.426 913.443 566.667 909.442 566.487 905.378 C 570.669 901.724 576.629 897.525 577.724 891.806 C 578.952 885.395 573.104 875.785 571.963 868.95 C 570.205 858.425 561.876 786.882 564.775 780.783 C 565.716 778.805 565.891 778.386 565.666 776.25 C 562.344 773.123 564.191 773.863 560.305 773.177 C 549.352 776.949 526.471 800.573 517.979 809.231 C 513.743 808.744 509.292 807.933 505.439 810.116 C 492.677 817.349 483.006 827.33 468.428 831.076 C 466.914 829.197 465.429 827.294 463.973 825.369 C 458.155 823.316 452.004 826.757 446.251 828.849 C 437.839 831.908 429.646 834.386 421.055 836.854 C 420.122 834.685 418.782 831.135 417.064 829.61 C 411.814 824.946 400.32 830.033 394.435 831.065 C 390.442 831.765 386.326 831.927 382.357 832.16 C 383.811 826.263 385.287 823.643 382.927 818.52 C 376.212 814.222 366.794 819.353 359.256 819.765 C 354.76 820.01 350.475 820.228 345.971 820.292 L 347.304 808.843 C 327.99 811.258 312.472 807.755 293.07 805.509 C 306.188 791.369 317.107 789.695 325.432 781.135 C 326.625 776.426 325.555 777.324 324.312 771.86 C 332.094 766.14 355.015 761.757 355.154 750.054 L 352.239 747.095 C 355.642 741.227 377.583 738.834 383.422 732.788 C 385.861 730.263 385.171 728.097 385.336 724.174 C 394.262 716.114 413.501 722.651 421.752 716.725 C 422.985 712.922 422.315 713.507 420.828 708.783 L 422.192 707.628 C 428.548 706.862 448.403 710.547 450.205 709.853 C 468.652 702.747 472.445 710.584 489.544 716.764 C 492.547 717.849 495.468 714.945 498.446 713.363 C 513.905 717.362 523.745 732.898 536.776 740.692 C 545.798 746.088 557.958 747.031 568.41 750.408 C 571.578 716.182 592.995 679.455 613.747 652.096 C 617.428 647.124 623.306 642.684 627.041 637.888 C 673.333 578.463 743.266 547.753 812.632 523.95 C 823.393 520.257 841.094 519.422 852.718 517.329 C 866.468 514.854 881.613 512.712 895.58 511.412 z" fill="rgb(11,106,101)" transform="translate(0,0)"></path>
<path d="M 1145.07 1320.01 C 1148.36 1320.46 1151.62 1321.95 1154.92 1322.34 C 1177.3 1325.01 1197.36 1326.98 1218.21 1336.54 C 1228.74 1333.63 1241.55 1327.66 1252.11 1327.69 L 1253.06 1328.69 C 1249.72 1332.75 1233.75 1338.03 1227.83 1340.27 C 1249.13 1349.22 1271.21 1360.64 1291.15 1372.37 C 1288.8 1370.98 1317.21 1394.14 1315.12 1391.55 C 1310.94 1393.23 1307.87 1391.52 1304.1 1389.65 C 1287.48 1378.86 1262.36 1364.58 1243.96 1357.16 C 1254.73 1374.72 1258.67 1375.69 1270.07 1390.19 C 1250.79 1381.13 1246.16 1372.41 1236.96 1354.66 C 1221.84 1347.6 1208.17 1341.03 1192.03 1335.78 C 1177.41 1331.03 1163.28 1328.34 1148.4 1325.08 C 1145.93 1324.54 1145.59 1322.11 1145.07 1320.01 z" fill="rgb(31,27,29)" transform="translate(0,0)"></path>
<path d="M 436.795 744.317 C 458.353 741.926 469.905 751.993 488.805 754.441 C 503.564 756.353 537.849 753.649 550.842 761.002 L 550.74 762.197 C 540.556 766.64 516.874 760.88 504.824 764.121 C 500.835 765.195 492.648 764.708 488.408 763.943 C 481.845 771.332 468.445 783.95 459.133 787.129 L 458.683 786.228 C 461.141 781.731 464.479 779.539 468.451 776.22 C 472.865 772.708 477.225 769.128 481.529 765.482 C 460.927 767.839 447.973 771.759 428.474 777.944 C 421.15 780.268 403.426 789.881 400.696 789.737 L 399.69 788.072 L 400.403 786.078 C 410.912 775.813 459.954 759.999 475.343 756.845 C 463.044 751.415 452.052 750.144 439.059 747.026 C 438.305 746.123 437.55 745.22 436.795 744.317 z" fill="rgb(31,27,29)" transform="translate(0,0)"></path>
<path d="M 1430.48 657.953 L 1433.58 658.526 C 1435.64 661.521 1435.29 659.942 1434.9 663.363 C 1431.36 667.867 1421.02 670.332 1415.55 672.085 C 1401.16 676.693 1388.76 683.922 1376.78 693.291 C 1382.56 693.502 1399.76 693.232 1403.36 696.915 C 1398.08 700.426 1374.24 701.215 1367.34 700.817 C 1353.89 716.153 1338.89 729.34 1325.7 745.032 L 1324.23 746.511 L 1322.7 746.307 C 1322.61 745.956 1322.49 745.612 1322.45 745.252 C 1321.63 737.523 1353.71 703.428 1359.72 696.811 C 1360.52 688.474 1363.3 673.604 1368.2 666.788 L 1369.16 667.77 C 1369.55 676.039 1367.78 681.05 1366.28 689.09 C 1393.38 671.496 1400.44 668.085 1430.48 657.953 z" fill="rgb(31,27,29)" transform="translate(0,0)"></path>
<path d="M 730.613 1078.16 C 740.501 1083.9 752.632 1089.79 762.46 1095.91 C 764.182 1096.98 763.164 1101.36 762.959 1104.01 C 774.543 1100.6 792.738 1118.46 802.429 1122.17 C 821.926 1129.62 837.29 1140.4 855.267 1150.16 C 870.442 1158.4 888.651 1163.72 904.137 1171.92 C 904.963 1175.62 904.964 1176.6 905.06 1180.44 C 905.544 1177.72 905.552 1174.78 907.052 1173.03 C 914.321 1175.65 933.154 1186.21 939.078 1190.79 C 936.575 1195.43 934.084 1199.84 931.976 1204.68 C 941.045 1221.79 933.882 1246.82 932.882 1266.64 C 930.841 1307.11 932.824 1347.27 933.285 1387.52 C 932.291 1435.25 935.984 1481.51 938.899 1529.07 C 939.976 1546.63 943.152 1557.65 945.153 1574.92 C 948.297 1602.07 965.294 1633.53 986.321 1651.16 C 999.569 1662.27 1024.23 1676.95 1040.74 1682.1 C 1071.29 1690.48 1098.57 1694.57 1129.89 1687.55 C 1118.14 1712.73 1130.45 1719.51 1124.81 1745.75 C 1116.12 1744.5 1109.84 1746.61 1102.36 1746.43 C 1088.89 1746.09 1070.61 1748.59 1057.96 1748.37 C 1040.81 1748.08 1021.93 1744.38 1003.9 1745 C 1001.14 1744.65 999.569 1744.33 996.844 1743.71 C 978.6 1749.25 904.059 1747.47 885.309 1741.02 C 837.823 1724.7 819.278 1733.72 771.379 1739.4 C 734.17 1743.82 691.308 1748.59 653.515 1746.97 C 641.462 1746.45 628.309 1744.64 615.924 1743.77 C 588.057 1745.59 584.036 1745.35 555.337 1750.75 C 561.331 1730.03 559.03 1712.38 561.298 1689.85 C 602.034 1696.46 647.35 1679.25 678.057 1652.54 C 703.253 1630.56 711.895 1595.16 722.767 1564.96 C 729.097 1547.38 729.59 1532.25 730.735 1514.1 C 731.825 1496.82 727.627 1480.49 728.569 1463.81 L 728.678 1462.11 C 729.536 1462.41 730.394 1462.7 731.253 1463 L 732.413 1463.36 C 742.093 1466.45 750.364 1463.45 760.861 1466.86 C 804.019 1464.41 859.608 1450.57 842.741 1393.76 C 852.298 1384.82 860.275 1377.12 863.736 1363.88 C 867.917 1347.9 861.581 1323.15 843.695 1319.16 C 843.819 1313.09 857.254 1305.15 853.415 1288.18 C 851.289 1278.78 844.15 1259.69 835.847 1254.58 C 817.405 1243.74 794.48 1246.43 775.446 1254.24 C 770.364 1256.32 759.761 1263.13 755.482 1260.16 L 754.122 1262.22 C 745.21 1265.79 737.947 1264.37 729.131 1261.38 C 728.651 1253.03 727.297 1242.91 727.316 1234.73 C 727.409 1194.04 731.305 1153.3 730.668 1112.59 C 730.477 1100.39 729.597 1090.47 730.613 1078.16 z" fill="rgb(10,10,11)" transform="translate(0,0)"></path>
<path d="M 905.06 1180.44 C 905.544 1177.72 905.552 1174.78 907.052 1173.03 C 914.321 1175.65 933.154 1186.21 939.078 1190.79 C 936.575 1195.43 934.084 1199.84 931.976 1204.68 C 941.045 1221.79 933.882 1246.82 932.882 1266.64 C 930.841 1307.11 932.824 1347.27 933.285 1387.52 C 932.291 1435.25 935.984 1481.51 938.899 1529.07 C 939.976 1546.63 943.152 1557.65 945.153 1574.92 C 948.297 1602.07 965.294 1633.53 986.321 1651.16 C 999.569 1662.27 1024.23 1676.95 1040.74 1682.1 C 1071.29 1690.48 1098.57 1694.57 1129.89 1687.55 C 1118.14 1712.73 1130.45 1719.51 1124.81 1745.75 C 1116.12 1744.5 1109.84 1746.61 1102.36 1746.43 C 1088.89 1746.09 1070.61 1748.59 1057.96 1748.37 C 1040.81 1748.08 1021.93 1744.38 1003.9 1745 C 1001.14 1744.65 999.569 1744.33 996.844 1743.71 C 996.716 1735.35 996.382 1734.08 999.019 1726.76 C 1003.06 1725.47 1015.94 1726.27 1020.43 1726.85 C 1047.45 1727.49 1075.83 1728.46 1098.78 1711.89 C 1066.19 1705.56 1042.24 1706.5 1008.25 1695.49 C 951.446 1677.1 921.729 1625.01 912.469 1568.24 C 911.227 1560.63 907.164 1553.51 906.297 1545.83 C 902.765 1507.92 907.303 1468.67 905.497 1431.05 C 903.726 1394.18 902.012 1365.11 905.954 1328.08 C 909.03 1299.18 899.616 1268.98 906.153 1238.51 C 908.575 1227.22 907.243 1191.59 905.06 1180.44 z" fill="rgb(192,151,102)" transform="translate(0,0)"></path>
<path d="M 999.019 1726.76 C 1003.06 1725.47 1015.94 1726.27 1020.43 1726.85 C 1013.94 1727.26 1006.92 1727.12 1000.32 1727.19 C 1000.22 1735.17 997.194 1741.96 1003.9 1745 C 1001.14 1744.65 999.569 1744.33 996.844 1743.71 C 996.716 1735.35 996.382 1734.08 999.019 1726.76 z" fill="rgb(146,70,81)" transform="translate(0,0)"></path>
<path d="M 728.678 1462.11 C 729.536 1462.41 730.394 1462.7 731.253 1463 L 732.413 1463.36 C 742.093 1466.45 750.364 1463.45 760.861 1466.86 C 761.734 1489.44 758.116 1512.06 757.42 1533.81 C 756.111 1574.7 739.39 1609.72 720.457 1645.18 C 711.951 1661.12 692.933 1677.33 677.504 1686.42 C 665.801 1694.12 594.043 1713.62 590.605 1718.87 C 594.667 1725.84 607.336 1725.05 614.472 1725.21 C 617.37 1725.51 621.957 1725.37 623.501 1727.05 C 625.195 1733.75 625.92 1735.81 623.073 1741.98 C 620.981 1743.85 618.844 1743.57 615.924 1743.77 C 588.057 1745.59 584.036 1745.35 555.337 1750.75 C 561.331 1730.03 559.03 1712.38 561.298 1689.85 C 602.034 1696.46 647.35 1679.25 678.057 1652.54 C 703.253 1630.56 711.895 1595.16 722.767 1564.96 C 729.097 1547.38 729.59 1532.25 730.735 1514.1 C 731.825 1496.82 727.627 1480.49 728.569 1463.81 L 728.678 1462.11 z" fill="rgb(192,151,102)" transform="translate(0,0)"></path>
<path d="M 614.472 1725.21 C 638.127 1724.38 653.51 1725.99 676.577 1727.41 C 707.712 1729.33 743.059 1721.08 772.868 1713.18 C 781.548 1710.83 792.657 1710.64 801.112 1708.28 C 820.976 1702.4 838.275 1706.12 858.034 1707.24 C 875.948 1708.26 887.709 1709.59 905.401 1713.66 C 934.004 1720.24 969.865 1726.62 999.019 1726.76 C 996.382 1734.08 996.716 1735.35 996.844 1743.71 C 978.6 1749.25 904.059 1747.47 885.309 1741.02 C 837.823 1724.7 819.278 1733.72 771.379 1739.4 C 734.17 1743.82 691.308 1748.59 653.515 1746.97 C 641.462 1746.45 628.309 1744.64 615.924 1743.77 C 618.844 1743.57 620.981 1743.85 623.073 1741.98 C 625.92 1735.81 625.195 1733.75 623.501 1727.05 C 621.957 1725.37 617.37 1725.51 614.472 1725.21 z" fill="rgb(165,80,92)" transform="translate(0,0)"></path>
<path d="M 730.613 1078.16 C 740.501 1083.9 752.632 1089.79 762.46 1095.91 C 764.182 1096.98 763.164 1101.36 762.959 1104.01 C 762.849 1111.59 761.584 1118.28 761.031 1125.79 C 758.529 1159.81 756.214 1194.19 758.355 1228.27 C 758.935 1237.49 754.965 1250.43 755.482 1260.16 L 754.122 1262.22 C 745.21 1265.79 737.947 1264.37 729.131 1261.38 C 728.651 1253.03 727.297 1242.91 727.316 1234.73 C 727.409 1194.04 731.305 1153.3 730.668 1112.59 C 730.477 1100.39 729.597 1090.47 730.613 1078.16 z" fill="rgb(192,151,102)" transform="translate(0,0)"></path>
<path d="M 755.567 596.769 C 760.729 594.353 768.54 592.027 773.952 589.89 C 805.675 577.359 839.757 562.112 874.396 562.098 C 880.393 562.095 888.075 559.284 894.39 560.497 L 895.398 568.047 C 895.862 563.095 894.965 563.607 897.711 561.199 C 907.705 558.876 914.711 559.923 924.918 560.266 C 925.308 577.129 924.775 592.673 924.065 609.511 C 923.377 625.805 925.447 642.761 924.403 659.121 C 921.315 707.532 921.491 755.951 921.207 804.427 C 921.062 829.354 923.835 854.315 923.181 879.276 C 923.786 926.784 916.087 972.974 926.545 1019.89 C 927.981 1026.34 923.549 1045.57 927.733 1051.09 C 963.574 1055.66 981.511 1054.45 1015.4 1056.16 C 1041.39 1055.13 1047.45 1046.55 1070.18 1068.4 C 1073.89 1071 1078.09 1072.27 1076.97 1076.83 C 1084.01 1077.52 1090.32 1085.46 1094.92 1090.83 C 1078.09 1097.4 1056.36 1113.17 1040.06 1122.33 C 1030.96 1127.44 1024.32 1134.86 1013.78 1136.07 C 1013.6 1136.19 1013.42 1136.3 1013.24 1136.41 C 1013.69 1136.79 1014.13 1137.18 1014.58 1137.56 C 1007.13 1143.15 997.684 1149.09 989.52 1155.17 L 988.882 1154.75 C 982.887 1150.66 961.325 1140.33 959.532 1137.5 C 961.664 1136.48 966.548 1136.5 969.231 1136.1 C 966.939 1135.78 956.891 1136.21 956.974 1136.24 C 933.092 1124.91 899.43 1108.74 877.213 1095.39 C 855.715 1082.48 773.501 1042.21 760.564 1024.98 C 756.672 1024.24 732.743 1012.06 727.878 1009.63 C 729.23 978.116 730.109 946.999 728.832 915.5 C 728.337 903.291 729.13 885.604 729.512 873.089 L 732.608 789.514 C 733.015 779.417 734.925 766.701 734.63 756.906 C 734.083 738.697 728.979 715.356 729.034 697.309 C 729.122 668.177 729.844 639.313 727.906 610.12 C 735.006 604.832 746.836 598.155 755.567 596.769 z" fill="rgb(10,10,11)" transform="translate(0,0)"></path>
<path d="M 895.398 568.047 C 895.862 563.095 894.965 563.607 897.711 561.199 C 907.705 558.876 914.711 559.923 924.918 560.266 C 925.308 577.129 924.775 592.673 924.065 609.511 C 923.377 625.805 925.447 642.761 924.403 659.121 C 921.315 707.532 921.491 755.951 921.207 804.427 C 921.062 829.354 923.835 854.315 923.181 879.276 C 923.786 926.784 916.087 972.974 926.545 1019.89 C 927.981 1026.34 923.549 1045.57 927.733 1051.09 C 963.574 1055.66 981.511 1054.45 1015.4 1056.16 L 1014.88 1060.5 C 1014.17 1066.17 1012.28 1071.74 1011.33 1077.35 C 994.946 1075.14 972.012 1076.13 955.05 1075.46 C 940.07 1074.87 909.254 1079.09 895.933 1073.03 C 895.106 1064.73 897.159 1051.77 897.249 1042.62 L 897.673 948.983 C 897.745 935.882 894.564 922.682 894.892 908.981 C 896.609 837.112 894.703 764.517 895.441 692.782 C 895.648 672.511 896.036 652.242 896.605 631.977 C 897.109 614.237 898.261 585.114 895.398 568.047 z" fill="rgb(192,151,102)" transform="translate(0,0)"></path>
<path d="M 727.906 610.12 C 735.006 604.832 746.836 598.155 755.567 596.769 C 758.472 616.58 758.988 653.696 758.094 673.665 C 754.466 754.743 761.369 833.943 759.66 914.984 C 758.964 947.985 756.438 993.611 760.564 1024.98 C 756.672 1024.24 732.743 1012.06 727.878 1009.63 C 729.23 978.116 730.109 946.999 728.832 915.5 C 728.337 903.291 729.13 885.604 729.512 873.089 L 732.608 789.514 C 733.015 779.417 734.925 766.701 734.63 756.906 C 734.083 738.697 728.979 715.356 729.034 697.309 C 729.122 668.177 729.844 639.313 727.906 610.12 z" fill="rgb(192,151,102)" transform="translate(0,0)"></path>
<path d="M 1015.4 1056.16 C 1041.39 1055.13 1047.45 1046.55 1070.18 1068.4 C 1070.09 1069.65 1070.31 1071 1070.45 1072.26 C 1064.74 1080.34 1055.94 1078.42 1046.54 1078.57 C 1034.96 1078.76 1022.88 1078.29 1011.33 1077.35 C 1012.28 1071.74 1014.17 1066.17 1014.88 1060.5 L 1015.4 1056.16 z" fill="rgb(165,80,92)" transform="translate(0,0)"></path>
<path d="M 969.231 1136.1 L 971.175 1136.1 C 984.79 1135.94 1000.12 1137.46 1013.24 1136.41 C 1013.69 1136.79 1014.13 1137.18 1014.58 1137.56 C 1007.13 1143.15 997.684 1149.09 989.52 1155.17 L 988.882 1154.75 C 982.887 1150.66 961.325 1140.33 959.532 1137.5 C 961.664 1136.48 966.548 1136.5 969.231 1136.1 z" fill="rgb(192,151,102)" transform="translate(0,0)"></path>
<path d="M 1070.18 1068.4 C 1073.89 1071 1078.09 1072.27 1076.97 1076.83 C 1072.32 1076.4 1074.31 1076.02 1071.55 1073.32 L 1070.45 1072.26 C 1070.31 1071 1070.09 1069.65 1070.18 1068.4 z" fill="rgb(146,70,81)" transform="translate(0,0)"></path>
<path d="M 707.3 1207.99 C 709.057 1207.9 714.508 1207.66 714.681 1209.9 C 715.15 1216.03 717.675 1253.72 715.867 1257.71 C 712.055 1257.36 709.067 1256.71 705.44 1257.81 L 705.222 1259.25 C 723.5 1282.88 755.582 1276.71 781.518 1271.09 C 799.35 1267.22 808.005 1260.55 827.874 1259.82 C 867.465 1313.84 819.407 1323.11 774.623 1331.29 C 763.01 1333.41 716.815 1322.15 710.132 1328.5 C 711.483 1336.11 720.748 1335.15 726.711 1336.72 C 753.875 1343.83 782.342 1342.22 809.629 1336.8 C 818.464 1335.05 830.108 1327.28 837.856 1327.3 C 850.613 1327.26 852.77 1345.21 850.125 1354.7 C 835.982 1405.45 760.325 1391.37 721.283 1388.68 C 720.568 1389.13 719.853 1389.58 719.137 1390.02 L 719.134 1392.22 C 724.693 1401.58 740.643 1399.35 751.243 1402.46 C 772.204 1409.91 807.936 1403.42 829.056 1397.43 C 831.853 1400.2 834.396 1403.67 836.844 1406.8 C 827.124 1435.8 819.705 1444.47 788.331 1449.72 C 751.003 1455.98 720.585 1455.86 689.824 1430.69 C 665.938 1410.72 648.487 1380.75 640.846 1350.63 C 638.941 1343.12 642.412 1317.9 632.863 1320.15 C 625.561 1330.79 637.295 1361.08 628.829 1365.79 C 610.189 1360.79 607.047 1319.17 611.153 1303.49 C 613.827 1293.28 640.476 1247.37 653.952 1257.38 C 653.515 1264.88 648.58 1272.79 649.366 1284.1 L 650.289 1284.54 C 653.215 1280.67 659.353 1268.76 661.445 1263.97 C 674.244 1234.65 680.014 1224.32 707.3 1207.99 z" fill="rgb(254,254,254)" transform="translate(0,0)"></path>
<path d="M 970.368 1207.15 C 981.852 1210.66 990.595 1219.81 999.78 1226.59 C 1026.56 1246.36 1047.52 1270.84 1064.67 1299.71 C 1094.3 1349.6 1089.16 1418.57 1044.1 1458.18 C 1037.23 1464.21 1027.32 1470.24 1019.52 1475.44 C 1009.85 1481.44 1007.97 1485.28 993.956 1492.2 C 977.248 1500.44 964.668 1502.67 948.039 1509.67 C 946.599 1480.48 942.787 1453.43 943.021 1424.05 C 943.205 1400.93 942.493 1378.19 943.246 1354.96 C 941.539 1330.25 944.42 1305.86 944.717 1281.49 C 944.979 1259.93 947.312 1232.07 946.344 1211.12 C 957.141 1211.25 960.426 1210.46 970.368 1207.15 z" fill="rgb(249,249,243)" transform="translate(0,0)"></path>
<path d="M 715.417 615.921 L 716.912 616.955 C 717.15 626.49 718.35 637.459 718.727 647.502 C 720.275 688.65 721.443 730.071 721.951 771.249 C 720.152 788.605 722.636 809.978 720.324 826.996 C 715.567 862.015 718.874 896.506 716.558 931.262 C 709.604 936.324 701.662 939.999 694.146 944.482 C 684.845 950.126 675.927 956.379 667.45 963.199 C 657.722 953.505 650.428 947.551 644.047 935.254 C 631.837 917.652 625.481 904.036 620.173 883.205 C 617.689 871.915 607.294 852.977 606.145 841.983 C 600.301 786.059 612.082 723.874 644.871 677.408 C 651.26 668.355 669.364 652.098 677.288 643.641 C 684.065 636.409 706.672 621.383 715.417 615.921 z" fill="rgb(249,249,243)" transform="translate(0,0)"></path>
<path d="M 1178.27 977.361 C 1187.62 976.444 1197.22 982.237 1207.81 984.431 C 1219.82 986.92 1235.07 1006.43 1240.58 1017.54 C 1256.56 1049.46 1248.92 1079.99 1239.33 1112.02 C 1232.84 1133.71 1234.71 1132.72 1222.29 1152.59 C 1202.42 1184.37 1184.71 1202.29 1150.39 1218.01 C 1156.35 1188.1 1146.03 1151.84 1133 1124.65 C 1112.39 1081.68 1072.62 1043.45 1026.3 1028.41 L 1009.15 1025.7 C 1039.2 992.459 1090.77 977.276 1134.23 992.106 C 1156.44 999.685 1178.74 1025.72 1187.03 1047.27 C 1196.73 1072.48 1200.47 1108.66 1193.94 1135.43 C 1191.92 1143.13 1185.93 1157.45 1182.84 1165.24 L 1183.66 1164.59 C 1209.55 1143.53 1211.09 1072.45 1198.1 1043.97 C 1190.83 1028.03 1180.25 1011.61 1166.66 999.95 C 1162.31 996.212 1150.48 988.921 1148.44 986.402 C 1152.1 981.778 1172.01 978.251 1178.27 977.361 z" fill="rgb(254,254,254)" transform="translate(0,0)"></path>
<path d="M 509.935 1302.09 C 537.81 1301.34 547.965 1305.24 575.037 1310.06 C 561.96 1346.95 558.171 1361.13 550.535 1400.35 C 547.749 1398.93 539.361 1394.24 537.602 1399.09 C 531.862 1414.92 527.514 1432.11 516.853 1445.52 L 509.385 1440.5 C 501.077 1447.64 489.654 1465.09 481.06 1474.87 L 472.441 1468.69 C 460.147 1477.99 451.406 1489.73 439.877 1497.58 C 434.629 1498.1 437.04 1492.72 431.448 1491.63 C 422.334 1495.44 405.414 1513.67 398.087 1521.37 C 390.079 1530.96 382.433 1537.25 373.465 1545.82 C 373.603 1534.04 378.349 1516.71 377.566 1507.91 C 374.778 1506.38 370.367 1506.39 367.013 1506.12 C 368.683 1483.41 376.616 1476.37 378.257 1460.52 C 376.584 1457.13 376.453 1457.98 372.129 1455.85 C 372.604 1452.36 385.857 1424.89 388.401 1418.36 C 385.651 1415.87 384.273 1413.94 381.964 1411 C 388.887 1397.55 414.842 1373.05 415.26 1369.31 C 412.865 1366.61 410.315 1366.22 406.832 1365.07 C 416.544 1359.15 426.106 1353.31 436.122 1347.9 C 443.513 1343.9 453.583 1340.43 460.187 1335.74 C 461.724 1330.66 459.51 1332.7 459.507 1326.49 C 466.511 1319.31 494.732 1316.05 504.385 1311.39 C 508.173 1309.56 508.806 1306.04 509.935 1302.09 z" fill="rgb(11,106,101)" transform="translate(0,0)"></path>
<path d="M 480.225 1368.56 C 496.925 1351.56 530.498 1321.16 553.905 1316.36 L 555.641 1316.81 C 554.005 1325.07 511.137 1347.59 501.237 1360.36 C 500.038 1367.55 495.152 1399.99 490.724 1403.37 C 484.89 1396.13 497.742 1375.64 494.361 1368.38 C 486.05 1371.09 448.237 1426.07 447.815 1439.28 C 447.727 1442.04 445.582 1447.23 444.041 1449.36 L 441.698 1450 C 429.827 1441.86 470.2 1382.02 476.962 1371.84 C 478.779 1370.47 478.779 1370.38 480.225 1368.56 z" fill="rgb(31,27,29)" transform="translate(0,0)"></path>
<path d="M 476.962 1371.84 C 469.911 1370.23 468.744 1371.52 461.982 1372.9 C 461.91 1372.71 443.58 1378.4 447.627 1373.27 C 451.579 1368.26 474.843 1367.66 480.225 1368.56 C 478.779 1370.38 478.779 1370.47 476.962 1371.84 z" fill="rgb(31,27,29)" transform="translate(0,0)"></path>
<path d="M 1212.45 732.588 C 1225.92 738.694 1245.04 756.864 1244.5 772.751 C 1243.93 789.654 1233.72 806.025 1229.84 822.481 C 1225.36 841.52 1231.09 861.431 1220.2 878.926 C 1213.05 890.716 1196.29 896.536 1186.79 905.412 C 1176.77 914.763 1169.59 930.748 1159.6 940.623 C 1154.51 945.652 1150.46 946.751 1144.66 949.477 C 1118.57 961.752 1095.01 940.981 1068.65 939.38 C 1052.4 938.392 1039.77 940.205 1023.72 941.24 C 1017.5 941.641 1007.3 941.027 1000.31 941.058 C 994.47 937.658 989.96 935.291 984.865 930.813 C 971.492 920.983 962.666 912.785 955.646 897.803 C 968.461 891.842 977.849 893.107 987.685 884.118 C 988.54 883.337 994.533 878.492 995.498 878.819 C 999.944 880.33 1015.18 888.16 1018.59 888.867 C 1037.95 892.866 1071.91 890.964 1089.95 884.609 C 1110.81 877.259 1121.51 862.443 1130.47 843.708 C 1149.05 831.134 1160.35 828.179 1169.96 806.537 C 1166.21 792.319 1165.44 787.411 1151.58 780.454 C 1180.58 770.043 1200.29 763.647 1212.45 732.588 z" fill="rgb(254,254,254)" transform="translate(0,0)"></path>
<path d="M 1101.75 468.501 C 1148.46 470.229 1167.95 462.585 1217.32 478.22 C 1221.24 485.484 1234.28 505.515 1236.47 510.707 C 1244.8 530.436 1257.56 592.575 1256.75 612.579 C 1246.98 601.446 1228.96 595.962 1217.92 587.735 C 1197.46 572.478 1172.21 565.498 1151.78 551.771 C 1144.35 549.894 1132.04 543.004 1122.87 540.026 C 1112.97 536.809 1100.7 536.352 1092.93 533.753 C 1077.59 528.62 1062.27 522.04 1046.3 517.956 C 1040.24 516.406 1029.71 517.162 1024.72 515.751 C 1005.54 510.336 987.204 505.319 967.557 501.919 C 962.446 501.035 940.937 499.835 938.969 498.684 C 938.993 488.726 939.103 478.769 939.299 468.813 C 956.921 472.059 974.723 469.323 992.042 469.995 C 1016.76 470.954 1038.95 471.616 1063.61 469.237 C 1075.6 468.081 1089.29 469.359 1101.75 468.501 z" fill="rgb(249,249,243)" transform="translate(0,0)"></path>
<path d="M 1414.42 751.027 L 1415.49 751.389 C 1416.04 755.969 1414.4 764.039 1414.07 769.077 C 1412.62 790.82 1409.86 812.024 1405.79 833.438 C 1403.98 842.894 1400.44 852.564 1398.72 862.025 C 1395.76 878.249 1392.27 887.375 1384.73 901.921 C 1373.93 922.788 1361.01 946.31 1346.42 964.783 C 1326.99 989.385 1288.12 1018.1 1256.83 1022.69 C 1254.84 1017.61 1253.68 1014.98 1251.08 1010.21 C 1247.3 1003.88 1244.41 999.684 1240.05 993.709 C 1263.41 977.982 1282.82 957.981 1299.66 935.248 C 1339.94 880.878 1354.48 834.582 1342.5 766.626 C 1348.9 767.218 1364.46 769.22 1370.25 766.713 C 1371.49 766.173 1371.63 764.105 1372.16 762.269 C 1374.76 760.34 1390.5 759.472 1395.85 758.168 C 1404.26 756.115 1406.64 754.794 1414.42 751.027 z" fill="rgb(249,249,243)" transform="translate(0,0)"></path>
<path d="M 678.605 1044.87 C 684.99 1047.1 707.386 1065.07 716.662 1070.31 C 720.593 1096.11 718.238 1127 718.966 1153.34 C 719.358 1167.56 716.864 1183.09 716.771 1197.76 C 691.494 1199.61 679.76 1214.4 666.028 1234.4 C 663.707 1237.78 661.456 1244.68 658.09 1246.63 C 655.447 1246.26 653.779 1246 651.083 1246.12 L 649.293 1246.22 C 646.214 1247.11 645.343 1247.52 642.056 1247.48 C 633.079 1242.61 628.578 1230.3 623.481 1221.81 C 610.071 1199.48 603.128 1182.86 606.188 1156.49 C 609.852 1124.92 626.879 1100.71 647.5 1077.58 C 659.136 1064.22 664.436 1056.69 678.605 1044.87 z" fill="rgb(249,249,243)" transform="translate(0,0)"></path>
<path d="M 629.141 1003.86 C 630.632 1003.86 634.673 1003.85 635.663 1004.72 C 645.722 1013.57 654.905 1024.75 664.645 1034.17 C 662.722 1035.76 660.832 1037.38 658.976 1039.05 C 647.517 1049.33 642.016 1059.21 633.124 1070.79 C 585.43 1132.9 576.287 1192.33 631.185 1252.98 C 619.888 1264.22 609.093 1277.89 602.765 1292.61 L 599.936 1302.58 C 591.923 1295.67 583.259 1287.68 577.08 1278.45 C 554.864 1245.28 535.255 1191.17 540.335 1151.13 C 541.02 1145.73 546.731 1121.15 548.735 1116.34 C 560.023 1089.24 576.79 1061.13 595.87 1038.8 C 600.83 1032.99 606.487 1028.25 611.369 1022.93 C 618.9 1014.73 619.543 1010.75 629.141 1003.86 z" fill="rgb(254,254,254)" transform="translate(0,0)"></path>
<path d="M 1197.36 642.591 C 1222.54 659.592 1248.21 686.598 1266.3 711.439 C 1270.1 716.671 1280.02 740.382 1282.67 746.968 C 1282.95 748.13 1283.22 749.102 1283.55 750.246 C 1290.04 769.552 1296.75 809.57 1288.98 829.286 C 1279.3 854.682 1270.72 881.706 1255.55 904.354 C 1248.31 915.171 1194.04 974.328 1182.31 965.493 C 1178.95 958.255 1176.99 947.114 1176.54 939.106 C 1190.16 924.706 1199.54 909.651 1216.12 896.978 C 1226.48 887.053 1234.81 874.57 1237.9 860.658 C 1242.63 840.642 1244.88 818.981 1250.58 799.257 C 1255.7 781.532 1253.95 768.995 1248.28 751.427 C 1242.43 733.33 1230.77 728.747 1215.18 721.43 C 1211.5 716.07 1210.96 697.19 1208.13 691.64 C 1197.4 670.577 1195.84 665.99 1197.36 642.591 z" fill="rgb(249,249,243)" transform="translate(0,0)"></path>
<path d="M 971.556 787.073 C 981.677 786.757 993.917 786.217 1003.68 789.054 C 1025.72 795.458 1044.25 808.844 1068.1 808.65 C 1090.65 808.76 1107.5 792.836 1129.44 789.995 C 1137.48 788.255 1160.11 790.531 1159.96 802.487 C 1159.78 816.572 1140.79 821.911 1131.52 828.978 C 1125.83 833.309 1122.79 836.518 1118.26 841.575 C 1098.54 879.737 1073.83 879.186 1035.9 880.228 C 1002.55 881.144 990.394 859.098 971.151 837.08 C 966.361 831.598 952.391 826.508 949.501 818.859 C 943.43 802.794 959.362 792.804 971.556 787.073 z" fill="rgb(254,254,254)" transform="translate(0,0)"></path>
<path d="M 1005.61 691.226 C 1037.55 689.806 1057.62 717.38 1089.89 692.27 C 1101.74 693.753 1108.94 695.214 1118.1 703.407 C 1123.48 720.866 1130.32 730.232 1124.14 749.332 C 1119.45 763.848 1114.17 776.605 1100.44 784.293 C 1062.45 797.278 1024.94 784.165 988.147 772.782 C 982.41 761.287 975.679 757.078 973.063 742.453 C 969.686 723.573 976.619 705.234 992.965 694.383 C 995.242 692.871 1002.62 691.764 1005.61 691.226 z" fill="rgb(254,254,254)" transform="translate(0,0)"></path>
<path d="M 1019.97 707.911 C 1034.66 707.082 1040.64 723.624 1045.33 734.906 C 1041.33 756.935 1040.46 761.016 1020.45 769.37 C 1005.67 771.419 999.029 758.061 998.244 744.994 C 996.884 722.373 1000.14 718.343 1019.97 707.911 z" fill="rgb(31,27,29)" transform="translate(0,0)"></path>
<path d="M 1025.52 722.957 C 1032.91 723.324 1040.34 726.141 1035.85 735.027 L 1035.25 736.283 C 1023.6 738.508 1021.15 734.563 1025.52 722.957 z" fill="rgb(254,254,254)" transform="translate(0,0)"></path>
<path d="M 1078.82 713.9 C 1090.61 713.842 1097.58 720.501 1103.81 729.645 C 1105.35 749.58 1103.61 763.319 1083.33 772.443 C 1051.38 778.217 1044.99 725.975 1078.82 713.9 z" fill="rgb(31,27,29)" transform="translate(0,0)"></path>
<path d="M 1084.39 723.891 C 1095.67 724.166 1100.5 727.842 1095.06 739.581 C 1084.54 739.689 1081.05 733.877 1084.39 723.891 z" fill="rgb(254,254,254)" transform="translate(0,0)"></path>
<path d="M 1115.86 275.238 C 1117.34 275.152 1118.82 275.115 1120.3 275.126 C 1129.15 275.263 1141.3 282.593 1147.05 289.041 C 1157.47 300.73 1163.03 314.263 1162.69 330.049 C 1162.09 358.285 1164.4 377.943 1142.74 399.758 C 1135.06 407.485 1122.95 411.13 1112.28 410.981 C 1105.04 410.88 1101.29 407.008 1096.7 401.933 L 1094.25 388.396 C 1100.89 371.29 1115.25 352.535 1108.81 330.275 C 1104.87 324.663 1103.56 317.137 1097.38 313.918 L 1095.63 314.566 C 1095.01 320.404 1101.87 327.284 1101.19 334.056 C 1095.46 337.944 1009.3 333.19 994.818 332.964 C 995.629 328.336 996.72 323.434 997.66 318.802 C 1023.11 290.689 1043.11 309.271 1065.73 303.553 C 1078.87 300.228 1091.38 279.291 1115.86 275.238 z" fill="rgb(254,254,254)" transform="translate(0,0)"></path>
<path d="M 1088.39 622.086 C 1100.02 622.896 1108.65 625.233 1119.95 626.857 C 1134.97 629.017 1151.38 625.709 1166.11 622.809 C 1173.33 626.25 1177.02 628.573 1183.56 633.064 C 1168.17 669.854 1207.07 693.988 1198.87 726.507 C 1195.14 741.289 1182.8 752.901 1169.81 760.167 C 1164.29 761.946 1144.13 772.533 1137.8 775.717 C 1139.27 771.78 1140.58 767.788 1141.74 763.751 C 1148.29 740.143 1141.36 705.124 1122.14 688.631 C 1113.94 681.592 1105.3 679.427 1095.19 676.798 C 1093.89 667.588 1072.5 646.216 1065.93 636.768 C 1072.8 629.365 1079.33 625.714 1088.39 622.086 z" fill="rgb(254,254,254)" transform="translate(0,0)"></path>
<path d="M 1233.99 483.789 C 1243.11 485.898 1252.14 487.585 1260.92 490.865 C 1272.3 495.116 1284.21 501.71 1295.88 504.601 C 1299.93 512.337 1303.2 523.434 1306.87 530.914 C 1323.75 564.192 1329.51 596.924 1328.86 633.943 C 1328.67 645.011 1325.83 662.938 1327.48 672.925 C 1324.01 674.387 1320.8 676.02 1317.44 677.689 C 1308.08 658.762 1287.32 637.772 1271.22 624.403 C 1270.6 586.964 1258.62 512.513 1233.99 483.789 z" fill="rgb(254,254,254)" transform="translate(0,0)"></path>
<path d="M 935.213 897.961 C 937.801 897.908 940.421 897.907 943.012 897.883 C 947.018 900.083 950.22 911.453 952.621 915.869 C 968.825 945.673 986.782 954.338 1019.21 953.484 C 1045.84 953.477 1065.67 954.547 1091.15 962.451 C 1118.01 970.786 1142.13 963.982 1165.51 951.889 C 1167.95 957.908 1169.93 961.583 1173.01 967.274 C 1162.29 972.549 1152.83 973.695 1141.16 980.099 C 1134.53 982.235 1125.15 974.595 1118.93 973.985 C 1070.4 969.234 1031.32 983.356 996.914 1016.2 C 988.488 1004.02 977.811 995.215 967.637 985.133 C 957.007 974.598 949.408 966.314 937.469 960.074 C 933.576 958.04 935.146 903.713 935.213 897.961 z" fill="rgb(254,254,254)" transform="translate(0,0)"></path>
<path d="M 981.313 612.351 C 987.041 615.241 989.558 617.926 994.218 622.188 C 1007.94 623.863 1017.65 618.823 1030.15 621.924 C 1049.14 627.267 1049.71 649.662 1061.3 662.406 C 1063.84 665.198 1097.83 674.785 1075.65 687.054 C 1062.04 694.589 1038.74 681.57 1024.24 675.848 C 1020.54 674.361 1014.48 674.941 1010.45 675.548 C 985.928 679.24 969.009 688.669 961.045 712.931 C 921.306 679.6 969.695 648.926 981.313 612.351 z" fill="rgb(254,254,254)" transform="translate(0,0)"></path>
<path d="M 1175.92 277.278 C 1184.42 276.575 1199.73 279.934 1205.56 285.729 C 1232.1 312.098 1227.22 368.819 1205.01 396.655 C 1200.87 401.844 1191.33 409.625 1185.25 410.228 C 1177.39 410.047 1163.38 410.329 1157.81 404.514 C 1158 401.714 1166.21 389.51 1168.11 384.849 C 1181.97 350.877 1180.07 312.246 1154.17 284.174 C 1160.38 281.655 1169.44 278.172 1175.92 277.278 z" fill="rgb(254,254,254)" transform="translate(0,0)"></path>
<path d="M 1123.06 1464.11 C 1136.04 1462.61 1151.07 1467.67 1160.43 1477.19 C 1174.29 1491.27 1172.81 1494.36 1173.06 1512.8 C 1165.2 1524.52 1158.46 1536.02 1144.83 1541.53 L 1143.27 1541.9 C 1140.37 1542.63 1138.75 1542.66 1136 1543.14 C 1113.18 1547.13 1088.69 1518.07 1096.65 1495.99 C 1102.84 1478.78 1107.18 1472.9 1123.06 1464.11 z" fill="rgb(165,80,92)" transform="translate(0,0)"></path>
<path d="M 1595.12 365.445 C 1618.71 364.748 1633.44 411.804 1619.58 429.363 C 1609.47 442.175 1594.18 442.09 1579.67 442.052 C 1564.23 439.132 1553.33 430.201 1550.37 414.411 C 1543.49 377.73 1565.42 367.802 1595.12 365.445 z" fill="rgb(165,80,92)" transform="translate(0,0)"></path>
<path d="M 517.239 895.865 C 542.608 901.138 544.154 901.64 561.639 922.508 C 565.477 950.665 560.012 955.802 538.987 973.97 C 537.793 975.002 532.299 975.189 530.779 975.33 C 513.343 975.897 518.829 978.831 501.392 969.205 L 498.18 967.431 C 495.03 961.718 491.638 955.057 488.397 949.673 C 484.76 943.632 487.362 927.198 490.535 920.558 C 497.512 905.958 503.377 902.012 517.239 895.865 z" fill="rgb(165,80,92)" transform="translate(0,0)"></path>
<path d="M 1230.74 285.137 C 1237.35 284.301 1247.39 286.57 1254.23 287.799 C 1260.08 293.088 1262.32 295.235 1265.51 302.72 C 1276.84 329.279 1280.8 384.707 1248.38 397.282 C 1241.39 400.013 1231.48 401.755 1224.04 400.505 C 1222.65 399.53 1221.26 399.12 1222.28 396.973 C 1231.9 376.624 1239.26 354.882 1235.24 332.014 C 1232.88 318.544 1225.96 303.867 1221.63 290.444 C 1223.32 287.608 1227.46 286.486 1230.74 285.137 z" fill="rgb(254,254,254)" transform="translate(0,0)"></path>
<path d="M 1049.5 574.985 C 1070.65 576.9 1080.12 579.997 1099.36 588.482 C 1115.44 595.577 1136.1 600.881 1150.65 611.252 C 1150.29 612.828 1150.58 612.792 1149.03 613.41 C 1133.51 619.6 1128.05 619.291 1113.33 615.395 L 1108.01 613.714 C 1075.66 603.341 1064.68 623.716 1055.27 623.536 C 1048.99 623.416 1044.62 614.546 1039.03 611.909 C 1033.37 609.239 1026.38 608.795 1020.24 607.911 C 1026.01 583.881 1029.82 586.148 1049.5 574.985 z" fill="rgb(249,249,243)" transform="translate(0,0)"></path>
<path d="M 1317.14 515.223 C 1317.47 515.334 1317.81 515.434 1318.14 515.558 C 1338.03 523.105 1373.1 575.58 1382.2 595.24 C 1384.28 599.727 1388.99 607.748 1387.18 612.682 C 1374.38 611.157 1374.74 614.024 1366.5 623.459 C 1351.55 626.029 1349.09 637.651 1341.39 649.332 C 1347.82 601.833 1339.85 577.74 1325.66 533.877 C 1322.43 523.92 1318.39 525.626 1317.14 515.223 z" fill="rgb(249,249,243)" transform="translate(0,0)"></path>
<path d="M 940.707 560.918 C 950.943 561.273 961.56 565.71 969.508 564.06 C 981.034 561.666 977.794 564.688 986.999 564.977 C 994.839 565.223 998.376 565.619 1006.51 566.859 L 1025.51 569.823 C 1025.52 569.824 1026.84 570.191 1026.52 570.498 C 1020.09 576.64 1011.04 583.275 1008.12 592.011 C 1007.19 594.779 1007.28 595.28 1006.86 596.695 C 1005.83 598.403 1003.55 601.345 1003.99 603.48 C 1005.94 610.036 997.932 607.989 995.094 606.474 C 980.863 598.872 975.852 597.664 970.876 613.066 C 966.794 607.926 956.764 595.798 952.429 594.13 C 936.552 588.023 939.317 593.889 939.188 576.491 C 939.146 570.837 939.537 567.738 940.707 560.918 z" fill="rgb(249,249,243)" transform="translate(0,0)"></path>
<path d="M 1098.86 1096.81 C 1103.32 1100.66 1108.11 1109.31 1110.92 1114.41 C 1080.24 1127.75 1046.27 1154.19 1016.31 1170.33 C 1014.25 1171.44 1014.94 1170.97 1012.42 1170.93 L 997.038 1160.46 C 1001.98 1157.08 1008.78 1152.58 1014.09 1149.79 C 1043.84 1134.11 1070.86 1115.36 1098.86 1096.81 z" fill="rgb(11,106,101)" transform="translate(0,0)"></path>
<path d="M 937.396 976.376 C 945.284 979.513 955.634 995.523 963.67 1001.31 C 968.088 1004.49 971.011 1014.54 978.785 1017.22 C 978.807 1017.23 987.227 1028.16 987.859 1028.95 C 984.918 1034.55 983.518 1037.01 979.972 1042.3 C 975.989 1046.24 975.848 1044.11 971.006 1044.4 C 959.856 1045.08 949.967 1043.52 939.045 1042.48 C 936.349 1030.89 938.612 1035.43 938.973 1025.35 C 939.545 1009.34 936.69 992.545 937.396 976.376 z" fill="rgb(249,249,243)" transform="translate(0,0)"></path>
<path d="M 935.073 709.347 C 943.066 713.06 950.661 718.133 958.726 721.518 C 958.305 742.022 958.816 755.703 973.488 772.365 C 960.326 775.029 956.71 775.815 945.258 782.963 C 941.781 787.583 938.456 792.883 936.843 798.501 C 936.028 799.851 936.637 808.864 933.586 808.206 C 931.15 807.681 932.52 795.646 932.622 793.004 C 933.318 775.018 933.575 756.975 934.521 738.999 C 935.045 729.039 934.642 719.32 935.073 709.347 z" fill="rgb(249,249,243)" transform="translate(0,0)"></path>
<path d="M 933.263 808.433 C 938.257 811.306 935.588 822.576 941.413 827.389 C 957.643 840.799 970.618 855.95 984.314 871.811 C 981.365 874.203 980.072 875.087 976.926 877.131 C 968.615 880.451 944.922 884.311 936.054 878.521 C 935.411 878.101 932.992 875.356 933.026 874.459 C 933.581 859.632 931.579 845.235 931.275 830.499 C 931.173 821.933 929.89 816.325 933.263 808.433 z" fill="rgb(254,254,254)" transform="translate(0,0)"></path>
<path d="M 709.01 955.997 C 717.242 955.532 715.968 996.254 716.068 1002.03 C 709.038 996.061 705.043 993.301 697.604 988.038 C 691.484 982.99 683.434 976.706 677.69 971.501 C 688.722 962.41 695.52 960.875 709.01 955.997 z" fill="rgb(249,249,243)" transform="translate(0,0)"></path>
<path d="M 939.847 603.998 C 945.49 605.882 948.857 607.748 953.224 611.748 C 971.886 628.839 955.946 633.537 947.699 646.446 L 945.902 649.311 L 937.026 662.239 C 937.047 654.222 937.311 610.866 939.232 605.71 L 939.847 603.998 z" fill="rgb(249,249,243)" transform="translate(0,0)"></path>
<path d="M 1091.25 1136.52 C 1100.41 1135.97 1111.29 1135.51 1120.44 1135.22 C 1125.13 1142.18 1126.02 1145.12 1129.62 1152.27 C 1118.19 1153.41 1097.68 1153.83 1086.06 1153.12 C 1084.24 1153.4 1066.33 1155.13 1066.04 1154.53 C 1066.42 1153.8 1069.55 1152.06 1070.32 1151.61 C 1076.75 1146.67 1084.53 1141.9 1090.49 1137.11 L 1091.25 1136.52 z" fill="rgb(192,151,102)" transform="translate(0,0)"></path>
<path d="M 1070.32 1151.61 C 1074.9 1153.52 1079.84 1152.35 1086.06 1153.12 C 1084.24 1153.4 1066.33 1155.13 1066.04 1154.53 C 1066.42 1153.8 1069.55 1152.06 1070.32 1151.61 z" fill="rgb(192,151,102)" transform="translate(0,0)"></path>
<path d="M 1545.45 435.705 C 1561.45 436.761 1540.08 454.748 1536.59 457.762 C 1534.14 456.26 1531.66 454.717 1529.45 452.864 L 1528.53 452.117 C 1534.28 446.039 1538.87 441.036 1545.45 435.705 z" fill="rgb(11,106,101)" transform="translate(0,0)"></path>
<path d="M 1004.79 1037.24 C 1013.84 1037.58 1020.53 1039.37 1029.21 1041.67 C 1024.39 1042.72 1020.52 1043.57 1015.72 1044.75 C 1009.38 1045.58 1002.89 1045.02 996.458 1045.22 C 995.313 1045.25 994.392 1043.72 995.003 1042.65 C 996.878 1039.36 1001.5 1038.49 1004.79 1037.24 z" fill="rgb(254,254,254)" transform="translate(0,0)"></path>
<path d="M 1282.67 746.968 L 1284.11 745.906 C 1285.48 744.883 1287.87 736.956 1289.37 742.478 C 1290.1 745.149 1285.4 748.679 1283.55 750.246 C 1283.22 749.102 1282.95 748.13 1282.67 746.968 z" fill="rgb(63,52,49)" transform="translate(0,0)"></path>
<metadata><recraft-signature>{"signed_by": "recraft", "signature_b64": "oB4SqT9TM/tym0gp8Yrsb3G6z+DTEwn8+ItMSGNecsCmUwj7tpYZh7S/6KcGa05vO3mcglCdXlJz+sbAmIP4AA==", "signing_algo": "Ed25519", "generation_timestamp": 1782152041, "identifier": "67bb914e-74d9-4f03-9cf9-51e7c74197fb"}</recraft-signature></metadata></svg>