<svg xmlns="http://www.w3.org/2000/svg" height="1024" preserveAspectRatio="none" style="display: block;" version="1.1" viewBox="0 0 2048 2048" width="1024">
<path d="M 0 0 L 2048 0 L 2048 2048 L 0 2048 L 0 0 z" fill="rgb(244,244,232)" transform="translate(0,0)"></path>
<path d="M 1569.55 54.1253 C 1579.99 53.5181 1603.19 53.8589 1610.21 57.9896 C 1652.37 82.8036 1656.46 74.8171 1698.3 59.1463 C 1721.31 50.5282 1754.47 64.8037 1773.4 80.1695 C 1796.76 99.1323 1827.48 76.0387 1851.91 71.335 C 1880.43 66.3334 1907.19 78.3654 1930.64 92.7413 C 1975.11 119.128 1995.01 164.993 1991.99 215.977 C 1990.66 238.459 1982.77 292.258 1967.67 310.567 C 1959.12 320.94 1941.28 319.035 1930.76 335.518 L 1930.07 336.622 C 1935.13 369.172 1964.34 408.797 1974.18 440.154 C 1988.73 486.489 1990.39 542.458 1977.61 589.552 C 1968.44 623.307 1937.23 667.057 1906.75 685.676 C 1872.41 703.664 1824.45 718.472 1790.42 692.376 C 1784.2 687.605 1768.04 674.847 1761.02 674.268 C 1731.47 671.832 1711.77 702.088 1678.99 692.761 C 1648.78 686.366 1641.61 664.499 1613.04 656.606 C 1594.12 661.803 1590.04 670.429 1566.85 667.97 C 1545.6 667.156 1528.23 654.365 1513.53 640.148 C 1493.55 620.824 1480.09 622.342 1457.21 635.086 C 1447.53 640.482 1433.68 640.172 1422.66 640.175 C 1393.47 640.186 1372.33 622.15 1352.13 603.304 C 1346.87 598.504 1338.94 589.756 1331.86 587.796 C 1313.76 583.957 1285.87 606.935 1270.51 615.047 C 1226.45 638.316 1204.58 602.741 1167.7 597.335 C 1149.89 594.725 1113.97 620.238 1087.29 611.152 C 1067.38 604.374 1061.3 597.302 1043.31 587.644 C 1034.37 583.954 1019.82 594.912 1010.45 599.874 C 983.593 614.091 959.113 608.657 934.387 593.005 C 927.995 588.959 914.804 575.545 907.747 576.249 C 891.978 577.822 871.829 589.989 856.22 595.884 C 836.059 603.881 791.007 606.827 770.968 601.537 C 746.116 594.977 743.977 574.068 712.801 597.511 C 708.16 601 698.727 601.575 692.424 601.699 C 674.101 602.062 662.955 588.219 646.849 582.816 C 630.846 577.9 622.299 592.654 607.317 597.01 C 582.906 604.107 559.537 590.01 537.029 594.555 C 528.148 596.348 510.93 606.457 502.473 610.924 C 454.626 635.229 444.833 602.822 424.95 609.964 C 413.966 613.909 404.607 628.901 395.648 636.555 C 388.751 642.447 380.631 647.444 372.475 651.382 C 345.772 664.278 321.522 651.532 294.949 660.814 C 261.163 672.616 245.398 708.061 204.074 711.016 C 177.724 712.901 142.336 702.312 122.304 684.802 C 101.987 667.043 83.3639 636.944 79.9407 609.832 C 77.1885 588.035 85.131 561.447 92.2696 540.79 C 94.972 532.97 98.3347 525.318 100.492 517.322 C 107.329 491.976 111.209 467.366 114.412 441.383 C 115.657 431.289 117.482 420.972 117.442 410.79 C 117.397 399.42 114.769 388.814 112.988 377.682 C 109.984 358.911 107.34 339.936 102.854 321.444 C 100.901 313.389 97.8614 305.623 95.6076 297.651 C 93.1928 289.109 91.2189 280.365 88.2371 272.002 C 79.0416 246.211 67.4335 235.624 65.6687 206.341 C 63.455 169.607 75.2886 132.777 100.01 105.391 C 106.043 98.5937 113.105 92.7837 120.938 88.1726 C 136.575 78.9816 182.599 62.5686 200.993 60.6415 C 225.189 58.1067 253.934 64.3302 276 74.1889 C 287.733 79.4306 320.509 98.9911 330.479 97.643 C 357.802 93.9483 387.152 67.1127 416.831 64.2246 C 447.729 61.2179 472.216 81.5419 501.601 82.7227 C 515.602 83.2853 529.579 74.4239 541.909 70.938 C 563.909 64.7184 599.044 59.9504 621.419 62.6333 C 628.742 63.5114 657.307 72.0621 666.558 74.554 C 679.051 77.9192 689.622 85.6201 705.467 85.4875 C 725.653 85.3187 738.216 74.9755 756.083 68.169 C 777.836 59.8819 798.228 57.1069 821.383 59.9948 C 842.434 62.6202 863.567 66.447 883.557 73.9071 C 900.751 80.3234 935.623 112.512 950.254 113.133 C 984.561 111.137 997.689 71.9667 1032.95 67.2489 C 1070.13 62.2756 1088.46 80.4409 1120.46 88.8744 C 1136.74 93.1639 1158.03 66.423 1179.51 66.1224 C 1204.88 65.7673 1218.13 75.1364 1241.45 82.7683 C 1243.65 83.4264 1251.9 83.0027 1254.68 82.8775 C 1265.48 77.1229 1266.1 70.4004 1283.99 65.8466 C 1315.32 57.8701 1332.81 63.9126 1359.44 80.2958 C 1364.08 83.1524 1374.74 86.6444 1379.96 85.6294 C 1405.19 80.7316 1423.77 62.9305 1452.39 63.703 C 1477.17 64.1464 1495.57 82.246 1520.73 78.203 C 1540.7 74.9925 1550.92 59.2143 1569.55 54.1253 z" fill="rgb(207,148,49)" transform="translate(0,0)"></path>
<path d="M 201.725 111.387 C 202.453 111.274 203.183 111.176 203.915 111.092 C 226.363 108.651 291.818 130.783 307.395 145.094 C 363.542 196.68 350.603 305.458 289.599 348.264 C 253.224 373.788 239.376 379.676 228.653 421.843 C 207.413 505.364 296.649 569.195 232.979 646.383 C 223.633 654.833 214.329 661.195 201.419 662.846 C 196.048 663.533 190.535 663.421 185.131 663.347 C 168.917 663.124 164.275 661.007 151.6 651.326 C 128.223 633.472 120.769 602.545 124.908 574.545 C 128.23 552.076 137.191 530.527 142.469 508.455 C 154.978 456.14 161.187 374.375 146.786 322.147 C 141.165 301.759 137.852 280.136 131.033 260.247 C 128.747 253.579 125.134 247.292 122.006 240.991 C 115.056 226.992 110.548 214.071 108.558 198.507 C 106.094 179.231 114.28 160.628 125.977 145.558 C 144.444 121.764 173.426 114.985 201.725 111.387 z" fill="rgb(151,28,45)" transform="translate(0,0)"></path>
<path d="M 232.907 187.189 C 250.021 185.27 257.067 190.688 267.707 204.257 C 278.124 217.541 276.95 231.223 275.21 247.007 C 274.271 255.526 270.489 263.03 266.407 270.47 C 260.696 280.924 257.152 283.322 245.975 285.825 C 227.034 288.779 211.405 282.666 206.14 261.991 C 203.062 249.905 199.907 233.894 203.476 221.765 C 207.182 209.17 221.117 193.416 232.907 187.189 z" fill="rgb(207,148,49)" transform="translate(0,0)"></path>
<path d="M 1582.22 104.204 C 1604.68 102.518 1627.86 133.528 1627.54 154.464 C 1627.29 170.779 1622.76 189.841 1619.62 205.957 C 1614.04 234.509 1609.43 255.037 1612.73 284.951 C 1612.09 300.847 1625.62 346.147 1648.12 332.653 C 1657.51 327.022 1676.13 286.545 1676.73 275.204 C 1677.53 260.151 1675.02 234.765 1672.43 220.001 C 1668.18 195.815 1661.82 174.492 1667.15 149.78 C 1673.2 119.058 1698.65 103.312 1728.61 107.272 C 1737.41 108.554 1747.56 119.314 1751.58 127.526 C 1772.34 170.638 1746.22 217.079 1735.33 259.701 C 1719.56 321.442 1718.3 388.933 1719.48 452.464 C 1720.01 480.819 1728.06 510.459 1730.54 538.928 C 1732.33 559.44 1742.22 581.727 1736.14 603.052 C 1731.22 618.328 1719.59 632.312 1705.11 639.477 L 1704.23 639.768 C 1670.14 650.766 1644.48 624.566 1641.37 591.978 C 1638.16 558.318 1658.89 519.437 1663.98 486.143 C 1666.02 472.861 1670.83 458.45 1666.22 444.815 C 1661.94 434.145 1659.73 420.525 1649.56 415.939 C 1643.45 413.18 1634.42 408.456 1627.68 411.83 C 1598.33 429.165 1615.78 485.505 1618.61 512.019 C 1621.77 541.697 1629.5 565.539 1615.77 593.605 C 1609.28 607.011 1597.5 617.107 1583.26 621.464 C 1557.5 629.44 1530.09 608.616 1524.08 584.371 C 1516.32 553.017 1538.73 516.376 1546.89 486.818 C 1552.56 466.288 1553.77 444.131 1556.57 422.983 C 1559.61 393.374 1558.01 362.671 1559.53 333.113 C 1561.39 296.877 1562.53 263.106 1554.01 227.398 C 1545.81 192.524 1534.09 155.212 1554.89 122.182 C 1562.23 110.533 1569.3 107.07 1582.22 104.204 z" fill="rgb(151,28,45)" transform="translate(0,0)"></path>
<path d="M 795.949 101.169 C 802.914 100.534 831.527 105.839 838.369 107.9 C 884.385 121.757 924.377 148.563 925.549 200.876 C 926.221 230.844 916.298 253.823 893.059 273.768 C 875.441 288.889 858.936 293.858 852.26 318.029 L 851.893 319.401 C 852.677 322.469 853.92 328.407 855.72 330.798 C 864.165 342.011 879.706 349.298 891.287 357.292 C 898.083 362.051 904.433 367.418 910.257 373.327 C 952.226 416.174 939.082 485.675 899.121 524.71 C 866.339 556.283 770.014 591.116 749.323 526.737 C 741.995 503.935 753.204 476.257 754.661 453.03 C 756.148 425.418 757.088 397.78 757.479 370.132 C 758.075 317.658 756.63 286.539 745.103 234.899 C 739.181 208.371 723.196 160.022 736.054 136.668 C 748.779 113.557 772.835 107.563 795.949 101.169 z" fill="rgb(151,28,45)" transform="translate(0,0)"></path>
<path d="M 830.32 393.164 C 838.401 392.396 843.366 391.723 849.496 398.502 C 868.729 419.77 865.16 465.232 837.998 478.817 L 834.22 480.692 C 816.286 483.294 814.511 474.723 807.538 459.732 C 800.562 444.736 801.997 422.359 810.044 407.99 C 814.827 399.45 821.446 396.237 830.32 393.164 z" fill="rgb(207,148,49)" transform="translate(0,0)"></path>
<path d="M 822.589 170.985 C 829.996 171.162 834.564 173.371 840.851 177.247 C 855.563 186.316 856.299 206.316 853.209 221.522 C 849.862 237.991 838.763 245.797 823.236 249.961 C 808.596 251.696 792.969 240.613 791.005 225.999 C 787.548 200.263 799.547 182.184 822.589 170.985 z" fill="rgb(207,148,49)" transform="translate(0,0)"></path>
<path d="M 416.415 110.137 C 444.457 109.107 466.892 120.001 478.643 146.427 C 502.551 200.187 485.607 271.796 488.918 329.495 C 490.814 362.532 496.126 395.813 506.748 426.979 C 516.387 458.262 527.268 492.547 516.484 524.353 C 507.691 552.201 484.939 581.133 451.899 568.842 C 409.564 553.094 427.006 494.094 434.341 461.375 C 437.909 445.457 444.621 368.507 411.054 383.857 C 400.854 388.521 394.547 408.295 392.151 418.59 C 389.089 436.065 387.615 459.114 388.393 476.937 C 388.777 485.922 393.53 495.774 394.201 504.534 C 397.355 545.704 396.74 593.27 352.015 611.203 C 342.304 615.097 330.404 614.681 321.231 609.584 C 269.024 580.578 282.899 526.789 300.901 480.886 C 306.475 466.835 314.633 455.674 319.674 441.689 C 329.547 414.298 337.362 386.888 344.403 358.703 C 348.293 339.745 354.289 311.07 356.598 291.529 C 362.112 244.872 364.176 187.409 379.769 142.986 C 383.255 133.055 404.933 113.815 416.415 110.137 z" fill="rgb(151,28,45)" transform="translate(0,0)"></path>
<path d="M 425.164 222.065 C 427.807 221.962 432.774 221.453 435.008 223.087 C 449.209 233.477 449.103 270.126 446.311 284.513 C 445.447 289.397 443.821 294.115 441.493 298.495 C 438.696 303.859 434.546 307.708 428.578 309.192 L 426.663 309.711 C 397.879 296.768 400.144 274.069 408.15 247.017 C 411.676 235.102 414.805 228.95 425.164 222.065 z" fill="rgb(207,148,49)" transform="translate(0,0)"></path>
<path d="M 1853.91 113.307 C 1939.17 105.162 1966.73 217.438 1929.51 277.315 C 1920.34 292.061 1901.19 300.969 1884.54 294.134 C 1856.13 282.473 1879.36 254.224 1881.41 234.737 C 1882.38 221.22 1866.54 202.074 1853.15 210.856 C 1830.75 225.55 1840.71 285.593 1847.52 307.216 C 1855.27 331.854 1884.38 365.263 1898.02 387.895 C 1904.05 397.894 1908.12 408.208 1913.48 418.48 C 1957.25 493.791 1954.47 601.002 1870.56 650.141 C 1846.37 664.728 1808.12 655.839 1787.48 637.829 C 1775.28 627.174 1768.98 609.98 1762.21 595.658 C 1743.93 556.982 1745.49 509.839 1754.64 468.982 C 1761.57 448.074 1790.68 429.387 1810.78 447.521 C 1830.85 465.626 1801.99 511.902 1834.54 514.009 C 1841.87 514.484 1848.2 494.454 1850.86 487.922 C 1883.9 404.581 1783.18 358.274 1775.79 279.612 C 1772.45 244.021 1765.1 240.099 1777.77 202.275 C 1790.66 163.785 1808.59 120.313 1853.91 113.307 z" fill="rgb(151,28,45)" transform="translate(0,0)"></path>
<path d="M 576.286 107.297 C 605.736 106.553 619.005 107.22 646.92 118.977 C 665.397 126.758 680.168 131.292 694.449 146.869 C 724.823 179.999 725.249 228.086 698.075 263.228 C 662.573 305.238 615.774 315.269 664.69 375.684 C 692.336 409.829 729.493 456.709 728.347 503.043 C 727.992 517.415 724.985 534.861 713.427 544.867 C 698.071 558.852 669.717 565.141 655.428 546.517 C 638.353 524.263 639.92 488.124 642.59 461.694 C 644.697 448.782 642.338 437.167 639.851 423.333 C 635.998 401.908 613.166 381.013 597.592 406.376 C 589.983 418.767 603.964 444.69 608.362 458.683 C 616.426 484.335 624.097 516.383 611.787 542.399 C 600.739 564.807 575.12 570.047 554.677 557.523 C 545.663 552 538.502 542.574 536.418 532.358 C 531.45 507.999 537.519 482.79 538.917 458.36 C 540.738 432.558 543.059 406.735 543.883 380.991 C 545.134 355.461 542.723 330.231 541.518 304.873 C 540.561 284.734 538.539 270.387 534.854 250.851 C 530.036 225.317 523.718 198.979 521.462 173.276 C 520.452 161.765 524.858 146.998 530.684 137.256 C 538.85 122.672 560.65 111.383 576.286 107.297 z" fill="rgb(151,28,45)" transform="translate(0,0)"></path>
<path d="M 610.972 180.123 C 624.507 181.319 633.688 186.152 639.846 198.582 C 652.523 224.166 639.287 240.267 616.378 251.542 C 609.628 251.355 606.718 250.067 600.589 247.295 C 570.37 233.625 585.147 190.435 610.972 180.123 z" fill="rgb(207,148,49)" transform="translate(0,0)"></path>
<path d="M 1301.66 109.032 C 1334.34 108.303 1348.38 129.971 1354.32 159.453 C 1358.89 183.513 1347.82 203.725 1340.34 225.489 C 1326.17 266.726 1322.14 312.167 1322.5 355.527 C 1322.94 408.256 1333.69 459.685 1313.03 510.597 C 1308.27 522.305 1305.93 532.004 1298.21 542.468 C 1287.71 556.771 1271.94 566.284 1254.39 568.889 C 1234.68 571.873 1213.54 570.213 1197.6 557.595 C 1190.92 552.308 1180.15 543.692 1175.89 536.154 C 1161.02 509.834 1153.66 464.024 1155.14 433.573 C 1156.18 412.175 1159.91 389.713 1161.1 367.992 C 1162.93 334.756 1161.22 316.023 1156.52 283.763 C 1154.36 261.034 1148.37 247.735 1142.09 226.851 C 1137.84 211.365 1138.12 196.191 1137.79 180.396 C 1137.15 149.7 1158.34 113.535 1192.22 114.508 C 1200.25 114.739 1207 117.469 1212.15 123.975 C 1230.53 147.2 1235.9 173.026 1229.34 201.802 C 1227.23 212.47 1221.79 225.824 1220.01 235.422 C 1216.21 256.321 1211.8 273.783 1209.52 295.35 C 1206.57 323.246 1197.98 402.943 1236.68 409.005 C 1263.84 413.26 1273.69 377.46 1274.75 354.668 C 1276.53 316.482 1274.61 275.789 1269.42 237.592 C 1267.91 230.762 1266.08 223.09 1264.04 216.456 C 1254.07 184.093 1256.75 144.185 1282.59 119.737 C 1288.19 114.443 1294.3 112.263 1301.66 109.032 z" fill="rgb(151,28,45)" transform="translate(0,0)"></path>
<path d="M 1452.42 109.182 C 1467.12 109.367 1482.73 114.468 1492.99 125.903 C 1528.48 165.418 1545.46 232.742 1503.91 274.347 C 1499 279.269 1493.6 281.434 1486.69 281.165 C 1457.35 280.022 1460.28 249.628 1460.11 228.555 C 1460.02 224.051 1458.72 215.258 1454.96 212.078 C 1434.92 195.141 1421.41 240.535 1417.35 250.038 C 1394.67 303.069 1395.75 359.343 1399.75 415.648 C 1401.13 435.094 1408.33 454.832 1422.72 468.254 C 1431.89 477.978 1457.14 478.329 1464.79 466.758 C 1472.4 455.254 1474.1 431.825 1472.23 418.404 C 1468.66 392.906 1442.81 413.214 1429.24 401.574 C 1410.63 385.605 1420.3 350.696 1433.06 333.533 C 1444.83 317.709 1454.64 317.29 1472.23 315.002 C 1478.36 317.591 1484.59 320.762 1490.59 323.703 C 1512.04 337.183 1521.72 350.615 1527.96 375.728 C 1536.11 408.52 1531.81 454.841 1525.17 487.737 C 1519.07 508.585 1511.47 526.122 1500.19 545.062 C 1480.61 577.934 1434.59 614.203 1395.26 591.734 C 1385.29 586.043 1364.32 558.615 1359.27 547.649 C 1350.09 527.738 1348.47 498.309 1346.91 476.384 C 1342.43 434.716 1344.26 395.777 1346.98 354.261 C 1348.83 325.968 1348.16 296.899 1353.13 268.758 C 1362.83 224.229 1378.18 178.999 1400.86 139.416 C 1410.32 123.241 1434.82 113.134 1452.42 109.182 z" fill="rgb(151,28,45)" transform="translate(0,0)"></path>
<path d="M 1042.86 111.168 C 1049.85 110.504 1057.88 114.121 1064.36 116.506 C 1096.76 128.447 1104.1 163.43 1110.4 193.729 C 1118.22 231.358 1113.78 272.359 1114.95 310.593 C 1115.61 332.348 1118.77 355.827 1119.58 377.808 C 1122.75 415.103 1142.32 452.683 1144.84 490.312 C 1145.87 505.669 1146.25 520.601 1139.75 534.901 C 1134.09 547.448 1123.59 557.164 1110.64 561.828 C 1091.35 568.751 1080.5 562.549 1067.79 548.85 C 1051.08 531.818 1054.58 515.452 1055.02 494.485 C 1055.7 461.503 1093.58 381.709 1050.45 362.529 C 1048.13 362.571 1043.72 362.702 1041.64 363.589 C 1001.68 380.592 1026 438.285 1029.22 469.021 C 1031.49 490.652 1032.33 514.404 1023.16 533.816 C 1016.97 546.926 999.215 559.129 986.189 562.946 C 978.776 565.174 970.777 564.292 964.027 560.505 C 928.69 540.229 943.521 489.181 952.263 459.637 C 966.898 410.173 970.685 357.076 973.1 305.717 C 975.61 252.364 977.765 128.339 1042.86 111.168 z" fill="rgb(151,28,45)" transform="translate(0,0)"></path>
<path d="M 1044.74 215.895 C 1070.81 215.589 1070.88 258.309 1067.23 276.013 C 1064.14 290.97 1062 301.602 1045.42 303.381 C 1022.36 300.618 1017.4 268.565 1022.25 250.016 C 1026.75 232.791 1027.99 224.034 1044.74 215.895 z" fill="rgb(207,148,49)" transform="translate(0,0)"></path>
<path d="M 583.506 619.222 C 610.048 616.9 678.153 638.562 707.679 646.322 L 991.73 719.906 C 1030.8 730.02 1087.19 748.783 1125.78 753.397 C 1132.12 740.309 1130.51 728.466 1147.26 720.531 C 1154.83 717.025 1163.5 716.727 1171.29 719.704 C 1174.61 720.932 1180 724.531 1181.48 727.611 C 1187.92 728.205 1193.29 728.889 1199.69 729.877 C 1202.46 731.923 1204.68 734.078 1207.21 736.407 C 1213.13 735.725 1218 735.418 1223.92 735.12 C 1230.61 738.958 1247.93 752.873 1253.25 758.967 C 1259.52 766.157 1259.62 758.217 1269 758.977 C 1279.16 759.801 1286 767.07 1295.92 766.43 C 1303.36 765.949 1307.51 766.623 1313.09 771.84 C 1319.19 777.499 1325.77 777.679 1332.93 781.019 C 1341.23 784.889 1355.02 791.344 1361.92 796.77 C 1371.08 803.972 1380.09 824.31 1381.03 835.831 C 1392.72 839.202 1436.75 849.02 1443.26 854.042 C 1448.1 862.845 1439.92 885.107 1433.65 890.342 C 1425.68 891.862 1380.65 876.792 1369.01 873.607 C 1365.19 878.524 1362.12 884.804 1358.37 889.892 C 1351.69 898.933 1341.07 902.786 1331.35 909.07 C 1336.57 917.347 1349.14 926.319 1352.01 934.262 C 1363.74 966.795 1330.26 1014.98 1315.41 1039.29 C 1276.29 1103.34 1232.67 1135.24 1166.65 1167.72 C 1191.45 1193.4 1232 1231.28 1235.71 1267.3 C 1237.63 1285.92 1225.22 1297.27 1213.95 1310.74 C 1218.19 1320.22 1226.81 1330.37 1234.5 1337.34 C 1237.39 1339.98 1239.46 1341.03 1243.42 1340.68 C 1264.69 1338.8 1331.99 1293.64 1353.18 1280.68 C 1368.33 1271.42 1385.22 1262.95 1399.28 1252.17 C 1410.15 1243.84 1421.54 1235.15 1431.65 1225.93 C 1439.21 1219.04 1445.95 1211.23 1453.41 1204.21 C 1464.04 1194.2 1474.68 1185.03 1484.22 1173.88 C 1515.91 1136.84 1550.82 1076.48 1546.52 1026.19 C 1545.48 1014.02 1541.47 1001.9 1537.61 990.367 C 1520.62 939.583 1498.34 928.694 1460.46 896.795 L 1460.39 894.788 C 1464.2 892.963 1472.31 899.319 1476.28 901.244 C 1512.4 918.721 1535.13 956.685 1549.53 992.773 C 1564.56 1032.49 1556.48 1076.73 1538.52 1113.85 C 1524.55 1142.72 1508.98 1163.09 1486.62 1185.46 C 1473.95 1198.14 1462.01 1216.66 1447.31 1228.07 C 1427.41 1243.5 1407.55 1258.88 1386.85 1273.14 C 1367.42 1285.62 1346.59 1296.48 1326.84 1308.55 C 1302.14 1323.65 1277.61 1342.13 1250.48 1351.75 C 1274.44 1373.13 1308.6 1410.03 1325.81 1436.09 C 1335.61 1450.93 1346.02 1469.8 1356.33 1485.63 C 1372.6 1473.71 1388.87 1462.87 1404.89 1450.27 C 1417.15 1440.89 1433.24 1432.59 1444.55 1422.35 C 1484.27 1386.42 1526.33 1352.5 1561.19 1311.68 C 1573.31 1297.49 1590.17 1283.68 1599.7 1267.12 C 1610.62 1248.15 1617.98 1231.17 1632.99 1214.5 C 1639.08 1200.32 1651.73 1181.9 1655.06 1167.09 C 1657.53 1147.56 1666.66 1126.77 1667.67 1107.45 C 1670.06 1061.83 1663.13 1021.38 1637.55 984.377 C 1600.28 930.466 1561.34 912.705 1505.97 883.327 C 1492.92 876.399 1469.68 869.223 1461.33 858.673 L 1460.42 857.495 C 1516.59 874.068 1576.61 903.094 1619.57 943.314 C 1630.59 953.638 1639.58 967.082 1648.2 979.411 C 1672.97 1014.84 1680.06 1026.62 1684.09 1070.42 C 1685.01 1080.37 1686.49 1090.57 1686.66 1100.54 C 1686.86 1112.69 1682.95 1123.87 1680.64 1135.64 C 1678.68 1145.63 1677.25 1155.79 1674.28 1165.54 C 1672.1 1172.7 1668.69 1179.61 1665.66 1186.45 C 1661.21 1196.45 1656.94 1206.69 1651.6 1216.26 C 1645.47 1227.24 1638.07 1237.5 1631.46 1248.19 C 1626.11 1256.84 1621.86 1266.46 1615.69 1274.56 C 1610.46 1281.42 1602.89 1286.37 1597.53 1293.23 C 1588.31 1305.02 1580.35 1318.7 1570.02 1329.5 C 1562.08 1337.8 1552.03 1343.8 1543.93 1351.85 C 1537.01 1358.73 1532.22 1367.83 1524.91 1374.32 C 1513.04 1384.86 1498.29 1391.48 1486.02 1401.54 C 1475.1 1410.5 1465.68 1421.37 1454.45 1429.89 C 1447.52 1435.15 1440.06 1439.73 1433.22 1445.1 C 1425.21 1451.4 1417.95 1458.79 1409.67 1464.7 C 1394.23 1475.71 1376.89 1481.27 1363.23 1495.51 C 1362.95 1495.81 1362.67 1496.11 1362.4 1496.41 C 1389.71 1553.41 1402.58 1588.35 1402.75 1651.75 C 1402.75 1672.83 1400.8 1705.85 1392.87 1725.72 C 1388.9 1735.67 1378.3 1752.83 1372.55 1762.48 C 1389.34 1793.44 1382.45 1818.14 1364.7 1845.47 C 1364.07 1846.43 1365.09 1847.73 1366.28 1848.47 C 1382.18 1858.27 1402.58 1861.35 1419.29 1870.11 C 1437.1 1879.77 1432.44 1900.5 1441.86 1919.9 C 1432.97 1951.1 1409.02 1957.64 1380.57 1965.69 C 1338.25 1977.67 1288.25 1979.5 1246.24 1965.64 C 1235.19 1961.99 1223.25 1954.8 1213.02 1949.16 C 1208.56 1956.37 1204.96 1961.91 1199.99 1968.74 C 1198.59 1968.78 1197.19 1968.81 1195.79 1968.83 C 1161.49 1969.43 1140.9 1962.51 1116.88 1939.31 C 1115.4 1935.04 1114.32 1930.65 1113.67 1926.18 C 1111.6 1911.17 1112.67 1904.53 1121.46 1893.01 C 1120.37 1880.36 1121.67 1874.16 1124.33 1861.96 C 1125.04 1858.67 1111.85 1844.18 1110.27 1839.45 C 1107.08 1829.9 1106.08 1819.92 1106.41 1809.83 C 1108.84 1774.78 1135.52 1744.3 1160.13 1722.01 C 1137.77 1690.23 1147.58 1669.21 1173.48 1644.95 C 1171.94 1640.14 1139.68 1583.33 1136.23 1578.84 C 1122.51 1583.09 1112.35 1590.36 1099.08 1594.32 C 1088.77 1613.06 1079.17 1634.42 1068.2 1652.33 C 1042.13 1694.9 1008.78 1734.7 969.329 1765.41 C 961.087 1771.83 953.32 1779.19 944.702 1785.15 C 918.475 1800.44 890.959 1816.86 862.265 1826.54 C 847.845 1846.79 844.088 1863.59 817.52 1872.15 C 801.007 1877.47 790.861 1875.9 773.931 1875.2 C 775.268 1881.53 776.652 1885.37 778.773 1891.46 C 798.755 1904.67 803.42 1920.05 793.453 1942.21 C 795.596 1949.72 794.253 1961.11 785.851 1965.47 C 713.897 2002.84 566.233 1962.73 594.831 1859.52 C 598.364 1846.77 604.133 1837.64 606.727 1822.74 C 599.69 1821.75 591.289 1821.09 584.138 1820.32 C 574.25 1791.4 573.594 1760.48 591.065 1735 C 600.409 1721.38 612.016 1711.15 628.887 1708.59 C 634.108 1707.79 642.029 1710 647.445 1708.51 C 652.671 1707.53 652.584 1695.33 654.704 1690.39 C 658.33 1681.93 662.819 1673.73 667.195 1665.46 C 649.631 1663.66 638.695 1665.26 622.034 1664.01 C 610.331 1663.48 596.713 1658.26 585.464 1657.01 C 552.536 1653.36 524.427 1645.16 494.269 1631.47 C 482.749 1625.83 463.659 1621.1 453.323 1613.89 C 430.857 1598.22 406.68 1582.79 384.933 1566.29 C 377.568 1560.71 347.816 1530.63 346.944 1522.53 C 350.599 1516.86 386.759 1522.04 394.645 1521.43 C 434.18 1518.35 473.376 1515.14 513.047 1514.51 C 551.287 1513.9 589.837 1504.76 627.745 1500.18 C 638.397 1498.9 649.451 1499.1 660.059 1497.29 C 692.587 1489.39 725.174 1483.69 758.184 1478.16 C 771.386 1475.95 784.702 1471.01 797.547 1468.72 C 826.63 1463.53 853.515 1452.97 882.185 1446.63 C 876.139 1424.27 879.638 1414.25 885.27 1392.33 C 881.937 1391.23 878.477 1390.08 875.096 1388.71 C 847.361 1377.47 846.034 1344.61 849.057 1319.29 C 851.56 1298.32 865.099 1278.55 857.434 1257.5 C 851.505 1241.21 839.471 1228.84 830.311 1214.37 C 820.261 1198.5 811.698 1183.49 803.497 1166.71 C 798.971 1157.45 791.661 1147.96 788.093 1138.19 C 774.476 1100.89 777.446 1094.73 791.474 1061.65 C 768.293 1042.36 745.078 1048.01 734.439 1010.03 C 740.676 987.265 773.527 953.309 797.762 951.699 C 787.508 923.097 774.064 838.986 824.123 838.94 C 842.283 838.923 851.72 854.954 862.997 866.506 C 862.917 849.451 865.825 822.909 885.37 817.043 C 889.134 815.913 894.792 815.535 898.807 815.155 C 908.225 819.559 913.006 822.389 920.311 830.202 C 936.549 847.567 953.123 887.692 952.128 911.171 C 961.986 911.913 984.899 913.228 991.452 919.961 C 998.401 927.101 997.508 934.255 997.878 943.493 C 1004.32 936.545 1023.14 915.74 1029.45 910.819 C 1049.63 895.077 1073.7 879.517 1095.24 864.96 C 1095.26 842.724 1101.26 831.456 1115.62 814.822 C 1108.32 801.646 1107.43 797.044 1109.27 782.632 C 1081.75 770.588 1044.85 769.252 1016 760.053 C 993.805 751.656 970.343 747.557 947.896 740.848 C 899.191 726.29 849.302 713.648 799.388 703.952 C 792.302 702.576 782.899 697.153 775.376 695.517 C 746.158 689.164 717.483 682.188 689.027 672.877 C 672.825 667.994 652.617 664.614 635.835 661.023 C 630.129 684.053 614.962 713.505 603.212 734.268 C 590.692 753.474 574.982 767.937 552.476 774.06 C 523.204 782.025 493.505 754.904 485.744 728.442 C 480.872 711.828 492.899 691.208 501.684 677.152 C 515.92 654.376 536.234 634.043 561.982 624.257 C 565.999 622.664 578.703 620.219 583.506 619.222 z" fill="rgb(0,0,0)" transform="translate(0,0)"></path>
<path d="M 1164.7 805.357 C 1192.52 802.666 1235.91 812.333 1237.4 847.654 C 1237.69 854.426 1235.91 859.867 1234.06 866.271 C 1230.06 862.607 1221.07 853.74 1215.91 853.022 C 1216.64 860.779 1232.67 872.472 1229.24 897.93 C 1225.41 926.356 1216.85 952.018 1202.38 977.204 C 1196.85 987.135 1187.99 996.956 1182.57 1006.67 C 1162.14 1043.23 1134.59 1070.04 1103.65 1097.61 C 1069.94 1127.64 1035.32 1160.28 993.742 1179.32 C 982.895 1184.29 967.86 1188.2 958.709 1195.57 L 958.647 1196.74 C 963.894 1197.71 971.745 1195.29 976.958 1193.77 C 1014.76 1182.62 1047.45 1158.57 1079.51 1136.41 C 1089.52 1129.49 1100.71 1118.44 1110.42 1110.48 C 1131.46 1136.08 1145.21 1158.5 1169.65 1181.76 C 1195.89 1206.75 1223.83 1239.41 1225.82 1277.2 C 1212.47 1306.75 1153.28 1340.37 1123.96 1353.37 C 1093.31 1366.96 1061.49 1381.27 1028.69 1388.85 C 1015.03 1392 997.022 1392.92 982.879 1393.9 C 953.352 1394.19 911.129 1395.69 884.018 1384.22 C 838.1 1364.81 854.388 1297.57 874.413 1265.17 C 879.848 1256.37 891.617 1246.63 895.749 1237.61 L 895.048 1236.53 C 883.325 1239.88 877.201 1253.78 868.581 1263.18 L 867.657 1264.17 L 864.952 1252.75 C 869.73 1247.62 890.921 1219.7 892.033 1213.88 C 881.595 1216.23 867.919 1241.52 862.81 1250.51 C 841.884 1202.96 795.707 1158.9 788.138 1105.85 C 782.634 1067.25 828.622 1033.74 860.73 1021.76 C 881.203 1014.12 908.196 1007.37 928.883 1000.57 C 944.63 995.397 1038.35 965.408 1045.08 957.316 L 1044.63 955.288 C 1040.23 954.156 997.102 970.839 988.454 973.896 L 988.879 972.81 C 1007.93 926.001 1073.68 884.824 1116.48 860.319 C 1122.73 856.744 1143.78 851.198 1145.83 846.617 L 1144.65 845.408 C 1131.17 847.138 1113.9 855.183 1101.6 861.055 C 1110.84 820.398 1123.62 811.161 1164.7 805.357 z" fill="rgb(9,92,80)" transform="translate(0,0)"></path>
<path d="M 1023.78 1225.34 C 1024.94 1225.68 1024.85 1225.94 1025.87 1226.99 C 1031.22 1244.09 1030.01 1272.01 1025.54 1289.32 C 1016.75 1323.34 996.545 1339.13 967.495 1356.19 L 957.301 1349.14 C 951.226 1344.68 949.242 1343.2 944.099 1337.72 C 990.579 1306.74 1006.85 1287.5 1000.09 1229.8 L 1023.78 1225.34 z" fill="rgb(0,0,0)" transform="translate(0,0)"></path>
<path d="M 1020.12 1231.39 L 1021.36 1232.12 C 1021.81 1233.14 1022.34 1234.22 1022.51 1235.36 C 1026.67 1264.45 1022.95 1292.92 1006.77 1317.89 C 999.045 1329.81 988.384 1336.63 976.707 1343.75 C 973.72 1345.57 970.443 1348.75 967.106 1349.18 C 965.415 1349.39 964.131 1347.97 962.452 1346.82 L 951.939 1338.88 C 973.206 1325.01 988.281 1315.15 998.56 1290.85 C 1007.23 1270.34 1007.66 1255.7 1006.17 1233.95 C 1010.67 1232.97 1015.55 1232.2 1020.12 1231.39 z" fill="rgb(9,92,80)" transform="translate(0,0)"></path>
<path d="M 1168.29 1359.84 L 1169.28 1360.08 C 1170.95 1365.5 1167.32 1377.92 1166.03 1383.87 C 1163.47 1399.6 1154.95 1414.63 1150.75 1429.53 C 1142.31 1459.48 1131.94 1486.32 1119.48 1514.83 C 1112.35 1531.2 1108.31 1552.82 1100.43 1568.56 C 1086.51 1596.38 1075.3 1625.06 1056.15 1649.87 C 1051.03 1656.51 1045.23 1666.43 1040.87 1673.73 C 1026.92 1697.06 1005.45 1714.37 986.911 1733.91 C 976.992 1745.47 962.345 1752.61 951.103 1761.76 C 918.404 1788.38 881.083 1808.61 840.869 1821.39 C 829.629 1824.96 810.444 1823.29 800.15 1829.19 L 800.084 1830.5 C 813.064 1835.66 836.73 1830.99 850.358 1828.55 C 835.39 1856.25 820.449 1868.85 787.29 1868.78 C 763.713 1868.73 727.661 1851.58 709.727 1837.17 C 682.621 1815.4 657.603 1773.33 657.464 1737.75 C 659.375 1695.35 667.451 1670.27 706.022 1647.71 C 712.807 1643.75 734.389 1636.22 741.207 1640.87 C 744.413 1650.79 720.775 1679.58 730.442 1685.86 C 735.464 1684.98 738.803 1675.07 740.736 1670.43 C 755.963 1633.91 796.392 1564.9 842.443 1564.99 C 847.027 1571.55 832.628 1611.61 841.585 1620.8 L 843.522 1620.74 C 849.581 1616.78 845.951 1611.26 846.391 1602.74 C 847.886 1573.77 854.962 1561.15 869.577 1538.01 C 873.485 1542.77 877.967 1548.79 883.787 1550.94 L 884.947 1549.87 C 884.817 1543.39 880.632 1540.48 877.413 1535.33 C 859.533 1506.75 870.959 1486.67 891.659 1466.9 C 895.695 1470.69 900.53 1475.57 905.962 1476.82 L 906.696 1475.48 C 905.311 1469.42 892.698 1460.87 889.119 1446.94 C 884.133 1427.53 885.793 1414 894.506 1396.22 C 959.821 1419.63 1110.03 1395.91 1168.29 1359.84 z" fill="rgb(151,28,45)" transform="translate(0,0)"></path>
<path d="M 1218.57 1332.9 C 1224.8 1334.35 1237.3 1352.98 1243.49 1358.18 C 1257.99 1370.36 1272.1 1384.92 1284.99 1398.68 C 1374.71 1494.49 1450.55 1686.98 1334.58 1791.72 C 1330.96 1794.98 1318.89 1800.59 1320.94 1805.59 C 1332.72 1807.39 1364.3 1782.19 1373.07 1784.42 C 1379.46 1801.28 1371.96 1828.16 1360.49 1841.08 C 1339.27 1865.01 1294.23 1880.17 1263.75 1884.88 C 1221.47 1891.42 1179.01 1889.44 1144.13 1863.81 C 1115.03 1843.13 1110.15 1830.53 1118.69 1794.18 C 1122.88 1776.37 1133.67 1765.08 1144.41 1751.16 C 1152.94 1740.11 1153.16 1735.19 1166.88 1727.84 C 1173.18 1731.84 1180.85 1741.58 1188.42 1738.91 C 1188.47 1738.23 1188.52 1737.56 1188.57 1736.88 C 1174.69 1720.72 1147.05 1709.69 1156.83 1683.1 C 1161.27 1671.03 1163.86 1660.02 1178.05 1652.45 C 1189.61 1666.22 1196.41 1681.44 1210.31 1693.52 L 1213.39 1692.59 L 1213.27 1694.67 C 1214.18 1688.46 1202.17 1676.15 1197.76 1669.88 C 1174.59 1636.91 1153.4 1597.48 1135.23 1561.51 C 1139.67 1522.92 1146.34 1494.2 1170.1 1462.63 C 1174.27 1457.09 1192.2 1434.52 1190.34 1429.18 C 1186.61 1429.3 1176.36 1442.79 1173.21 1446.34 C 1165.2 1455.31 1156.07 1463.22 1146.04 1469.88 C 1156.28 1430.41 1169.15 1395.32 1177.35 1355.42 C 1183.44 1349.6 1209.62 1337.3 1218.57 1332.9 z" fill="rgb(151,28,45)" transform="translate(0,0)"></path>
<path d="M 875.332 1459.12 C 878.95 1458.54 884.378 1457.66 885.691 1461.83 C 880.31 1474.43 873.39 1472.72 866.368 1482.98 C 856.991 1496.67 861.888 1519.33 864.999 1534.47 C 862.252 1538.81 856.277 1546.41 853.039 1550.81 C 850.055 1550.86 841.224 1551.18 838.486 1552.22 C 814.704 1561.21 786.866 1579.38 770.961 1599.11 C 766.056 1605.19 758.76 1622.48 753.531 1626.41 C 745.757 1632.26 732.935 1627.56 720.934 1631.01 C 711.284 1633.78 683.667 1651.68 679.959 1652.27 C 638.111 1658.98 555.077 1641.42 516.744 1627.68 C 492.652 1619.01 469.453 1608.03 447.469 1594.9 C 428.003 1583.47 414.974 1576.33 398.994 1560.17 C 388.413 1549.47 377.395 1545.62 368.303 1531.7 C 389.413 1533.68 418.409 1529.1 440.761 1528.66 C 464.917 1528.78 490.277 1524.78 514.223 1524.35 C 567.935 1523.4 620.777 1514.57 673.315 1503.85 C 689.46 1500.56 707.43 1499.49 723.534 1495.99 C 744.913 1491.35 765.938 1482.53 787.543 1478.32 C 817.932 1471.39 845.446 1468.4 875.332 1459.12 z" fill="rgb(244,244,232)" transform="translate(0,0)"></path>
<path d="M 1237.2 884.627 C 1243.67 889.024 1237.29 899.415 1246.54 906.078 C 1267.53 921.252 1290.8 929.747 1316 934.838 C 1323.1 936.274 1332.87 940.946 1337.29 933.52 L 1336.77 932.187 C 1333 930.584 1332.25 930.495 1329.43 927.697 C 1328.59 923.794 1329.48 923.959 1331.52 919.364 C 1345.74 931.668 1337.45 931.721 1348.68 942.472 C 1347.14 994.702 1272.48 1095.4 1229.54 1123.24 C 1216.54 1132.87 1175.54 1157.17 1160.02 1162.06 C 1149.39 1149.98 1139.53 1136.22 1128.33 1124.72 C 1136.11 1113.56 1146.53 1102.5 1155.22 1091.58 C 1181.03 1059.16 1206.57 1024.33 1218.99 984.3 C 1223.82 968.71 1224.98 950.742 1230.39 935.277 C 1236.34 918.303 1236.61 902.36 1237.2 884.627 z" fill="rgb(9,92,80)" transform="translate(0,0)"></path>
<path d="M 646.505 1719.69 L 647.916 1719.85 C 650.216 1723.18 649.643 1747.91 651.315 1753.92 C 652.328 1757.55 653.423 1764.14 654.778 1768.53 C 659.922 1785.2 668.248 1800.73 679.296 1814.24 C 684.947 1821.21 690.823 1827.26 695.765 1834.85 C 696.115 1845.2 691.995 1861.61 693.711 1867.78 L 695.472 1868.63 C 698.771 1867.55 699.566 1865.45 701.506 1862.46 C 720.706 1861.1 747.75 1863.66 765.472 1872 C 767.303 1877.26 768.484 1882.55 769.818 1887.96 C 732.893 1872.74 700.537 1876.48 664.964 1894.44 C 662.409 1895.73 662.777 1895.78 662.101 1898.15 L 663.699 1900.15 C 668.205 1899.72 678.16 1894.99 682.829 1893.08 C 703.751 1884.5 715.581 1884.04 737.449 1885.35 C 751.675 1886.76 778.4 1894.84 787.31 1906.34 C 791.578 1911.95 793.411 1919.05 792.399 1926.03 C 789.853 1943.87 774.407 1942.97 760.982 1945.3 C 736.909 1949.48 713.54 1949.9 689.265 1945.84 C 669.637 1942.56 643.661 1930.03 631.9 1913.22 C 611.327 1881.32 626.259 1850.62 627.837 1817.54 C 628.817 1797 620.254 1776.21 625.79 1754.53 C 629.69 1739.27 632.583 1728.92 646.505 1719.69 z" fill="rgb(9,92,80)" transform="translate(0,0)"></path>
<path d="M 1360.04 1851.82 C 1368.17 1856.5 1372.51 1857.46 1381.6 1860.28 C 1374.79 1863.4 1353.6 1872.11 1352.08 1879.35 C 1359.73 1881.71 1379.89 1864.85 1388.99 1866.56 C 1420.55 1872.49 1429.2 1878.94 1429.11 1909.93 C 1413.03 1931.56 1394.5 1933.11 1369.88 1938.81 C 1318.7 1950.64 1278.11 1948.16 1229.86 1926.01 C 1225.07 1924 1213.52 1919.14 1208.85 1919.11 C 1189.97 1919.01 1181.76 1923.11 1162.4 1915.97 C 1150.09 1911.43 1136.41 1904.63 1130.13 1892.03 C 1125.47 1882.7 1130.61 1874.26 1134.21 1864.96 C 1179.98 1906.59 1258.55 1897.19 1312.31 1878.24 C 1325.37 1873.64 1347.31 1859.29 1360.04 1851.82 z" fill="rgb(9,92,80)" transform="translate(0,0)"></path>
<path d="M 582.387 627.14 C 592.782 626.493 614.533 627.895 623.862 631.467 C 643.145 638.85 617.444 672.207 611.289 682.031 C 599.832 700.318 586.345 719.548 571.013 734.898 C 565.676 740.261 549.113 747.655 542.015 750.439 C 526.349 753.825 516.7 750.246 503.264 742.624 C 484.333 706.749 499.881 691.06 521.958 661.455 C 525.849 656.238 533.321 650.573 538.336 646.276 C 551.333 635.141 566.133 631.055 582.387 627.14 z" fill="rgb(244,244,232)" transform="translate(0,0)"></path>
<path d="M 620.183 642.571 C 621.305 643.873 621.079 643.828 621.776 645.488 C 620.722 651.993 610.549 664.956 606.586 671.37 C 594.358 690.802 581.148 710.601 564.309 726.396 C 547.763 741.917 526.618 743.658 507.2 732.965 C 505.813 731.846 504.436 730.567 503.098 729.376 L 503.325 728.279 C 512.779 729.535 523.221 733.394 532.967 733.207 C 556.807 732.479 570.695 708.161 584.775 692.173 C 597.127 678.149 607.622 655.451 620.183 642.571 z" fill="rgb(0,0,0)" transform="translate(0,0)"></path>
<path d="M 961.575 950.409 C 962.392 950.213 963.931 950.375 964.868 950.412 C 967.902 953.777 969.843 973.323 970.961 979.443 C 947.246 987.081 918.661 996.099 894.68 1002.52 C 848.018 1015.01 830.502 1023.91 796.089 1058.31 L 794.719 1057.27 C 774.975 1042.01 728.96 1029.49 747.191 996.284 C 759.378 981.744 779.599 959.229 799.93 958.904 L 800.995 959.986 C 797.097 966.365 758.787 987.111 763.186 995.689 C 778.491 1001.27 828.718 973.841 850.343 968.595 C 889.514 959.093 921.969 955.798 961.575 950.409 z" fill="rgb(9,92,80)" transform="translate(0,0)"></path>
<path d="M 1158.25 725.105 L 1159.46 725.006 C 1164.27 724.648 1168.05 724.046 1171.75 727.256 C 1172.68 733.558 1166.95 737.287 1162.94 744.442 L 1162.32 745.572 C 1170.22 741.151 1175.69 736.561 1184.13 733.587 C 1189.04 734.121 1194.45 734.141 1198.04 737.095 C 1200.96 744.657 1193.69 744.388 1192.31 750.75 C 1201.62 755.38 1209.51 730.632 1229.52 748.757 C 1223.91 754.581 1222.36 757.294 1218.55 764.067 C 1226.73 758.962 1240.16 750.646 1248.34 759.918 C 1249.51 764.01 1249.34 763.892 1248.71 768.208 C 1248 769.085 1244.95 772.905 1245.17 773.942 C 1248.91 791.406 1249.86 804.59 1243.15 821.406 C 1241.6 824.362 1241.77 824.469 1239.26 826.56 C 1225.16 813.656 1218.83 806.322 1199.08 801.615 C 1180.09 797.471 1154.7 796.233 1137.26 805.79 C 1131.6 808.888 1128.52 811.63 1121.6 809.526 C 1118.24 806.881 1116 803.002 1114.73 798.899 C 1108.6 783.891 1129.25 772.242 1131.11 762.035 C 1135 740.787 1133.03 731.598 1158.25 725.105 z" fill="rgb(244,244,232)" transform="translate(0,0)"></path>
<path d="M 670.528 644.163 L 995.046 727.6 C 1041.77 739.122 1076.29 751.631 1126.39 759.59 C 1123.4 763.52 1119.8 767.683 1116.63 771.526 C 1111.7 779.078 1107.06 775.016 1099.55 772.704 C 1074.88 765.106 1049.42 760.4 1024.53 753.753 L 808.943 698.067 C 778.51 690.06 747.83 681.126 717.346 673.032 C 699.314 668.245 684.956 663.527 666.175 660.332 C 667.339 654.524 668.811 649.82 670.528 644.163 z" fill="rgb(9,92,80)" transform="translate(0,0)"></path>
<path d="M 631.407 1716.94 L 633.804 1717.34 C 634.169 1719.47 623.684 1739.51 621.775 1743.64 C 611.326 1766.25 623.9 1800.11 622.102 1821.97 C 619.324 1848.55 605.57 1876.29 618.251 1902.93 C 639.706 1948.01 699.388 1958.75 744.426 1953.46 C 751.821 1952.59 781.651 1947.13 785.403 1948.65 C 789.846 1961.11 765.86 1965.4 757.757 1967.47 C 709.064 1977.77 658.949 1969.13 621.266 1934.64 C 604.609 1919.4 594.246 1888.29 600.58 1866.45 C 605.557 1849.28 612.496 1837.8 612.568 1818.94 C 608.687 1811.52 596.97 1817.09 593.478 1813.9 C 581.076 1802.57 585.5 1766.62 590.785 1753.8 C 599.599 1732.43 611.837 1722.97 631.407 1716.94 z" fill="rgb(244,244,232)" transform="translate(0,0)"></path>
<path d="M 816.561 847.028 C 839.277 846.243 852.254 861.413 862.936 880.116 C 866.677 886.667 857.148 890.877 855.016 896.789 C 850.662 908.865 855.611 953.957 876.53 943.62 C 878.818 942.485 877.456 942.621 880.58 942.374 C 882.135 945.762 881.402 950.557 881.207 954.453 C 874.543 955.759 867.895 957.147 861.265 958.618 C 852.043 960.831 821.788 972.154 816.359 970.725 C 810.283 966.255 808.28 959.68 805.502 952.504 C 795.163 925.796 789.563 887.365 801.019 860.239 C 804.367 852.31 808.979 849.585 816.561 847.028 z" fill="rgb(244,244,232)" transform="translate(0,0)"></path>
<path d="M 1124.29 1899.97 C 1125.78 1900.86 1133.95 1907.28 1136.27 1908.91 C 1152.66 1920.42 1168.98 1926.76 1189.25 1925.4 C 1196.34 1924.92 1207.84 1923.3 1214.5 1925.38 C 1222.21 1927.78 1231.52 1933.31 1239.12 1936.57 C 1252.43 1942.28 1276.24 1949.18 1290.99 1950.02 C 1326.39 1952.05 1376.33 1946.85 1409.24 1933.77 C 1413.32 1932.15 1426.83 1920.72 1430.62 1917.62 L 1433.34 1918 L 1434.46 1919.96 C 1433.6 1927.95 1426.17 1936.76 1420.42 1942.2 C 1389.1 1962.73 1320.54 1970.96 1283.74 1964.95 C 1270.29 1962.75 1252.82 1957.7 1239.43 1953.83 C 1233.07 1952 1214.86 1940.87 1211.25 1941.37 C 1204.53 1944.73 1201.68 1953.18 1197.16 1960.39 C 1165.35 1965.7 1102.75 1942.81 1124.29 1899.97 z" fill="rgb(244,244,232)" transform="translate(0,0)"></path>
<path d="M 887.089 824.079 C 908.569 820.82 924.18 843.626 930.258 861.499 C 923.042 866.095 920.287 868.94 919.03 878.145 C 917.115 892.166 919.806 920.94 936.949 924.143 C 939.564 924.631 943.222 921.223 945.243 919.606 C 945.37 926.03 946.312 937.771 944.077 943.939 C 943.134 946.54 940.759 946.739 938.307 947.525 C 929.568 949.421 920.368 948.96 911.517 949.676 C 903.418 950.331 895.065 951.467 886.988 952.515 C 885.475 950.083 885.444 938.355 885.644 934.765 C 887.319 904.604 849.149 843.498 887.089 824.079 z" fill="rgb(244,244,232)" transform="translate(0,0)"></path>
<path d="M 1247.78 829.701 C 1252.15 831.613 1249.49 838.709 1256.32 845.08 C 1264.71 852.903 1275.72 852.033 1282.74 858.243 C 1283.18 860.717 1279.74 871.319 1278.83 874.495 C 1282.97 870.543 1285.91 867.902 1289.4 863.282 C 1294.76 863.065 1300.39 862.307 1305.75 861.708 L 1317.45 868.683 C 1337.71 864.768 1341.73 864.231 1361.16 872.086 C 1351.07 895.726 1336.36 903.197 1310.93 900.864 C 1307.24 900.525 1300.98 899.051 1297.99 900.395 C 1299.03 903.151 1299.79 902.941 1302.65 905.03 C 1311.48 908.674 1317.88 907.909 1327.51 907.999 C 1326.06 912.862 1323.32 924.962 1318.19 926.302 C 1301.97 930.534 1252.87 912.167 1247.41 896.543 C 1247.56 895.632 1247.71 894.721 1247.85 893.81 C 1254.3 891.055 1265.14 893.451 1271.17 889.072 L 1271.45 887.112 L 1270.02 885.22 C 1261.34 882.921 1246.27 888.324 1239.09 880.664 C 1234.66 875.937 1242.01 861.49 1244.03 855.964 C 1247.43 846.635 1243.1 840.669 1244.01 832.621 L 1247.78 829.701 z" fill="rgb(244,244,232)" transform="translate(0,0)"></path>
<path d="M 1345.52 797.168 C 1348.47 796.423 1352.47 798.711 1355.02 800.138 C 1365.02 805.732 1371.01 823.243 1374.15 833.66 C 1368.62 832.557 1363.1 831.348 1357.62 830.034 C 1356.67 827.338 1356.15 824.572 1354.76 822.117 C 1353.86 820.537 1351.86 820.637 1351.31 822.211 C 1347.87 831.947 1344.65 841.441 1338.12 849.653 C 1330.9 856.647 1327.97 859.141 1318.8 863.263 C 1307.17 852.418 1305.78 841.626 1311.93 826 C 1315.47 816.984 1325.6 805.478 1334 800.994 C 1336.64 799.582 1342.22 798.33 1345.52 797.168 z" fill="rgb(244,244,232)" transform="translate(0,0)"></path>
<path d="M 1315.78 784.075 C 1320.11 783.922 1342.92 788.187 1335.76 793.688 C 1321.58 803.834 1306.55 817.226 1304.05 835.501 C 1303.14 842.133 1304.94 848.251 1300.19 852.469 C 1277.67 856.389 1275.53 836.983 1282.6 820.633 C 1290.7 801.869 1293.94 789.884 1315.78 784.075 z" fill="rgb(244,244,232)" transform="translate(0,0)"></path>
<path d="M 1288.64 773.217 C 1292.44 772.869 1305.17 771.475 1308.09 778.264 C 1308.26 778.643 1307.88 779.778 1307.48 780.003 C 1288.56 790.792 1278.31 810.392 1272.86 830.726 C 1271.88 834.411 1272.84 838.124 1273.39 841.794 C 1245.78 847.392 1242.57 787.092 1288.64 773.217 z" fill="rgb(244,244,232)" transform="translate(0,0)"></path>
<path d="M 1352.5 834.41 C 1358.24 837.811 1359.79 837.17 1365.99 838.346 C 1380.28 841.057 1395.34 845.648 1409.28 849.588 C 1407.78 853.43 1400.63 875.906 1396.74 874.577 C 1385.96 871.255 1372.92 867.422 1361.98 865.147 L 1352.99 863.214 C 1349.91 862.58 1345.34 861.442 1342.5 861.045 L 1336.49 860.185 C 1344.87 849.632 1347.31 847.428 1352.5 834.41 z" fill="rgb(9,92,80)" transform="translate(0,0)"></path>
<path d="M 951.613 917.26 C 966.693 915.507 978.464 918.449 991.815 925.27 C 991.759 936.773 991.887 948.326 986.592 958.276 C 983.892 963.348 984.187 973.7 981.302 976.69 L 980.445 977.618 L 979.964 977.496 C 977.022 976.78 976.402 977.079 976.04 974.075 C 974.913 964.721 973.754 955.983 970.7 946.999 C 980.154 940.29 979.14 941.207 983.977 931.067 C 976.814 925.787 972.026 922.896 962.996 922.924 C 959.139 922.936 954.875 921.831 952.547 918.539 L 951.613 917.26 z" fill="rgb(9,92,80)" transform="translate(0,0)"></path>
<path d="M 1413.54 850.435 C 1419.53 851.953 1426.6 854.127 1432.47 856.098 C 1430.3 864.69 1427.33 872.581 1424.81 881.148 C 1417.52 881.034 1412.22 879.217 1405.24 877.325 C 1408.93 866.772 1410.64 861.149 1413.54 850.435 z" fill="rgb(244,244,232)" transform="translate(0,0)"></path>
<path d="M 635.257 634.654 C 646.122 637.467 653.354 640.162 664.654 641.976 L 664.353 643.991 C 663.587 649.437 662.876 652.362 661.431 657.638 C 659.279 659.617 645.452 654.906 641.488 654.089 L 637.114 653.34 C 636.782 646.84 636.316 641.101 635.257 634.654 z" fill="rgb(244,244,232)" transform="translate(0,0)"></path>
<path d="M 1117.18 1546.84 C 1121.59 1552.96 1126.12 1560.66 1131.15 1567.61 C 1126.09 1569.83 1122.36 1571.6 1117.46 1574.13 C 1104.05 1579.44 1105.18 1573.34 1110.53 1563.54 C 1113.2 1558.64 1114.96 1552.18 1117.18 1546.84 z" fill="rgb(244,244,232)" transform="translate(0,0)"></path>
<path d="M 1261.98 764.981 L 1282.73 768.119 C 1273.07 773.53 1273.04 772.718 1264.76 780.127 C 1263.5 781.369 1257.7 787.289 1257.04 786.928 C 1252.78 784.608 1250.02 775.586 1254.38 771.765 L 1261.98 764.981 z" fill="rgb(244,244,232)" transform="translate(0,0)"></path>
<path d="M 700.579 1838.66 C 709.405 1845.45 714.856 1848.63 724.703 1853.6 L 720.462 1855.4 C 714.475 1854.77 707.204 1854.77 700.969 1854.45 C 700.789 1849.19 700.659 1843.93 700.579 1838.66 z" fill="rgb(9,92,80)" transform="translate(0,0)"></path>
<path d="M 724.703 1853.6 C 734.757 1858.26 724.112 1856.09 720.462 1855.4 L 724.703 1853.6 z" fill="rgb(21,88,85)" transform="translate(0,0)"></path>
<metadata><recraft-signature>{"signed_by": "recraft", "signature_b64": "3b0piy0z8+87RzUTO5r8g8eyAdeu2QesmdIK8GG35yLtdMbvE+cGBdehH1uSKFCLI458lhg8scj8uM8w+cVODA==", "signing_algo": "Ed25519", "generation_timestamp": 1782152053, "identifier": "5dc2b1ad-2798-43c7-9170-60f822d42c7b"}</recraft-signature></metadata></svg>