<svg xmlns="http://www.w3.org/2000/svg" height="1024" preserveAspectRatio="none" style="display: block;" version="1.1" viewBox="0 0 2048 2048" width="1024">
<defs>
	<linearGradient gradientUnits="userSpaceOnUse" id="Gradient1" x1="993.66" x2="970.152" y1="395.053" y2="420.776">
		<stop class="stop0" offset="0" stop-color="rgb(4,2,2)" stop-opacity="1"></stop>
		<stop class="stop1" offset="1" stop-color="rgb(39,27,25)" stop-opacity="1"></stop>
	</linearGradient>
</defs>
<path d="M 0 0 L 2048 0 L 2048 2048 L 0 2048 L 0 0 z" fill="rgb(244,240,221)" transform="translate(0,0)"></path>
<path d="M 289.986 821.931 C 300.976 785.807 311.76 754.063 326.913 719.381 C 411.109 531.572 565.341 384.084 756.725 308.364 C 910.658 247.768 1080.46 240.518 1239 287.771 C 1272.4 297.799 1299.61 308.731 1331.47 322.693 C 1396.51 303.275 1436.51 295.364 1504.3 298.989 L 1506.25 301.098 C 1504.18 301.331 1502.52 301.495 1500.47 301.901 C 1453.14 304.172 1396.86 316.99 1352.33 332.962 C 1380.76 347.681 1408.37 361.782 1435.39 379.116 C 1569.6 464.932 1674.22 589.898 1735.09 737.111 C 1826.59 959.289 1813.35 1226.73 1689.04 1433.5 C 1608.04 1568.22 1474.81 1688.58 1329.08 1748.35 C 1328.44 1755.51 1327.6 1762.64 1326.57 1769.75 C 1282.2 1794.38 1232.13 1806.91 1181.39 1806.09 C 1171.13 1805.85 1150.26 1800.95 1142.26 1802.21 C 1055.44 1815.91 973.808 1808.07 887.505 1790.99 C 855.751 1805.69 789.85 1793.29 762.527 1770.82 C 755.682 1765.19 748.804 1752.95 740.682 1749.02 C 715.658 1736.92 689.76 1726.7 665.095 1713.84 C 589.248 1673.62 520.779 1620.82 462.608 1557.68 C 360.113 1447.65 292.515 1309.72 268.349 1161.31 C 263.031 1127.51 259.44 1089.27 260.574 1055 C 227.131 1056.34 200.298 1043.5 189.302 1009.88 C 176.81 971.689 184.319 890.922 214.304 862.21 C 223.16 853.73 277.541 826.208 289.986 821.931 z" fill="rgb(37,27,26)" transform="translate(0,0)"></path>
<path d="M 1332.02 339.925 C 1342.61 339.642 1419.64 386.165 1432.99 395.095 C 1558.6 478.097 1657.29 595.92 1716.97 734.142 C 1793.94 915.748 1799.38 1131.57 1725.26 1315.14 C 1653.89 1491.92 1501.81 1652.58 1325.52 1727.04 C 1321.07 1709.53 1314.72 1699 1298.68 1689.26 C 1270.04 1671.88 1239.42 1679.47 1209.21 1686.92 C 1194.36 1679.95 1175.49 1667.06 1161.2 1658.07 C 1158.78 1656.55 1152.61 1648.71 1149.81 1646.82 C 1145.42 1643.87 1139.45 1643.08 1135.19 1640.01 L 1136.43 1636.75 C 1145.86 1615.18 1159.3 1586.64 1171.18 1566.57 C 1191.99 1563.87 1222.75 1552.21 1242.43 1543.93 C 1336.69 1504.12 1418.21 1439.2 1478.12 1356.25 C 1564.22 1238.99 1599.78 1092.13 1576.85 948.469 C 1556.19 820.194 1492.04 702.928 1395.16 616.342 C 1379.51 602.353 1362.7 590.016 1345.77 577.633 C 1355.59 554.095 1366.35 530.073 1357.46 504.409 C 1351.93 488.447 1337.41 475.848 1322.41 468.989 C 1254.12 437.765 1154.9 460.506 1087.45 483.48 C 1084.66 474.562 1082.7 469.777 1078.82 461.219 C 1101.06 448.499 1122.8 438.302 1145.63 426.805 C 1189.52 404.421 1233.94 383.082 1278.85 362.808 C 1296.43 354.893 1314.63 348.015 1332.02 339.925 z" fill="rgb(244,240,221)" transform="translate(0,0)"></path>
<path d="M 546.034 777.465 C 563.45 798.868 580.062 806.471 606.937 810.491 C 614.121 811.566 619.113 817.517 631.86 821.043 C 630.568 843.15 643.365 862.333 664.844 845.138 C 661.771 858.623 661.673 866.459 663.529 879.906 C 669.56 886.536 680.171 895.156 687.14 901.718 C 711.103 924.28 734.197 944.038 761.302 962.897 C 787.646 981.225 812.306 990.676 844.975 985.022 C 870.203 980.656 888.095 963.252 906.909 947.199 C 944.872 914.808 969.898 884.544 997.739 843.677 C 1030.61 871.482 1070.4 894.496 1112.4 904.41 C 1112.55 911.993 1112.14 920.063 1111.88 927.686 C 1104.67 937.444 1094.16 949.499 1086.18 959.267 C 1069.23 979.878 1052.53 1000.69 1036.07 1021.69 C 1053.45 1022.52 1085.24 1024.82 1101.94 1028.43 C 1080.89 1061.1 1075.3 1124.82 1097.96 1157.78 C 1093.09 1172.54 1090.32 1190.18 1087.47 1205.64 C 1062.46 1210.66 1053.6 1234.63 1053.55 1257.48 C 1043.75 1263.15 1041.01 1265.7 1035.07 1274.86 C 1033.55 1277.77 1031.91 1281.87 1030.55 1284.96 C 982.654 1286.68 961.247 1322.98 973.357 1366.98 L 879.481 1462.17 C 863.41 1478.19 846.621 1495.92 829.126 1510.16 C 801.556 1491.86 788.59 1491.42 757.767 1503.19 C 749.115 1494.82 733.153 1487.47 722.607 1480.35 C 524.616 1346.73 431.733 1097.7 507.772 869.143 C 518.417 837.146 532.747 808.322 546.034 777.465 z" fill="rgb(10,103,79)" transform="translate(0,0)"></path>
<path d="M 1088.62 492.071 C 1146.98 474.701 1201.62 461.668 1263.05 466.98 C 1293.32 469.598 1337.64 476.671 1347.19 511.316 C 1354.94 539.422 1332.73 580.087 1319.26 604.082 C 1290.84 654.32 1213.87 760.748 1164.94 789.318 L 1167.33 791.449 C 1194.37 779.068 1199.55 773.242 1222.1 754.881 C 1213.43 782.981 1207.45 789.633 1192.93 814.221 C 1216.23 795.652 1220.03 784.045 1232.45 759.259 L 1233.63 756.786 L 1234.96 756.652 C 1235.65 761.348 1234.99 770.235 1234.43 775.117 C 1232.51 795.554 1226.97 812.96 1215.53 829.944 C 1242.52 808.087 1250.4 765.8 1242.26 733.401 C 1249.01 722.9 1262.18 707.713 1270.31 697.88 C 1286.04 718.22 1301.96 747.739 1316.36 770.086 C 1350.65 823.273 1386.17 861.806 1432.13 905.525 C 1423.42 913.757 1413.67 922.243 1404.73 930.331 C 1394.27 912.519 1383.71 894.768 1373.04 877.077 C 1361.81 858.172 1348.88 834.618 1334.34 818.431 C 1348.43 862.76 1364.2 907.772 1363.55 955.085 C 1363.34 970.967 1338.04 1003.99 1325.26 1013.58 C 1258.63 1063.61 1168.8 1037.64 1096.67 1015.71 C 1089.08 1013.41 1068.66 1012.79 1059.9 1011.92 C 1080.04 986.137 1099.64 961.203 1121.44 936.737 C 1139.65 916.286 1158.67 897.462 1177.45 877.652 C 1165.23 883.418 1156.85 891.8 1143.54 895.89 C 1127.23 892.652 1102.44 884.764 1086.58 879.115 C 1035.59 860.955 987.531 826.293 957.932 780.584 C 950.67 769.369 945.663 758.189 940.112 746.047 C 946.611 781.01 955.597 796.694 978.033 823.383 C 952.766 813.387 929.223 790.924 915.7 767.319 L 914.289 769.755 C 930.71 805.261 948.598 822.442 984.113 838.419 C 962.383 872.085 900.554 943.704 865.779 965.447 C 858.709 969.946 850.881 973.125 842.676 974.83 C 814.969 980.734 789.154 970.534 766.704 954.98 C 736.788 934.252 696.445 899.99 671.643 873.43 C 674.884 834.709 692.056 803.683 727.835 787.063 C 748.277 798.453 777.711 813.673 797.081 825.701 C 790.856 837.309 785.416 854.402 792.14 866.994 L 793.17 866.676 C 793.71 853.384 797.786 827.693 814.769 825.901 C 816.059 826.471 817.642 826.804 817.804 827.838 C 819.918 841.372 817.316 850.209 822.511 863.885 C 824.309 860.399 823.74 859.206 824.186 854.93 C 824.466 833.531 825.724 815.976 844.878 802.912 C 845.427 811.124 845.49 828.215 850.562 833.784 C 851.526 831.87 850.908 812.353 851.529 807.26 C 852.9 796.629 856.102 786.315 860.994 776.777 C 877.762 743.331 907.808 721.578 936.632 699.23 C 972.877 671.129 1014.72 654.455 1057.83 640.379 C 1022.35 666.081 1011.89 679.482 1002.33 722.337 C 1023.12 684.64 1020.46 678.319 1059.57 651.035 C 1042.17 672.551 1033.15 687.987 1030.3 715.742 C 1030.74 721.964 1029.43 722.086 1032.67 726.605 C 1042.95 668.023 1067 653.539 1113.06 622.217 C 1152.71 595.256 1191.58 559.401 1226.34 526.491 L 1224.65 524.522 C 1208.38 535.121 1191.79 547.246 1175.87 558.506 C 1179.91 540.408 1184.14 525.903 1193.3 509.533 C 1175.76 525.417 1173.38 543.864 1165.24 564.76 C 1160.95 552.982 1158.76 544.345 1157.54 531.768 C 1155.36 527.994 1158.4 526.465 1155.46 521.056 C 1151.07 535.679 1151.46 549.005 1154.06 564.084 C 1128.89 561.819 1109.59 562.402 1084.42 563.354 C 1088.38 537.945 1090.61 518.272 1088.62 492.071 z" fill="rgb(189,50,75)" transform="translate(0,0)"></path>
<path d="M 1030.3 715.742 C 1030.74 721.964 1029.43 722.086 1032.67 726.605 C 1032.94 728.14 1033.51 735.981 1032.19 736.782 C 1028.94 736.308 1030.05 718.563 1030.3 715.742 z" fill="rgb(44,14,16)" transform="translate(0,0)"></path>
<path d="M 1155.46 521.056 C 1155.84 519.473 1156.98 514.729 1158.36 513.87 C 1158.79 514.188 1157.68 530.227 1157.54 531.768 C 1155.36 527.994 1158.4 526.465 1155.46 521.056 z" fill="rgb(97,24,37)" transform="translate(0,0)"></path>
<path d="M 1236.93 515.766 C 1232.48 520.76 1231.18 522.053 1226.34 526.491 L 1224.65 524.522 C 1229.17 521.146 1232.13 518.898 1236.93 515.766 z" fill="rgb(97,24,37)" transform="translate(0,0)"></path>
<path d="M 824.186 854.93 C 824.524 857.315 825.667 865.05 824.325 867.074 C 824.044 867.175 824.264 867.139 823.468 866.998 L 823.778 867.443 C 822.894 866.009 822.82 865.572 822.511 863.885 C 824.309 860.399 823.74 859.206 824.186 854.93 z" fill="rgb(44,14,16)" transform="translate(0,0)"></path>
<path d="M 1167.33 791.449 C 1165.67 791.888 1161.03 793.697 1159.88 793.532 C 1156.86 793.098 1164.92 789.328 1164.94 789.318 L 1167.33 791.449 z" fill="rgb(97,24,37)" transform="translate(0,0)"></path>
<path d="M 914.289 769.755 C 913.923 768.321 912.957 766.124 913.431 764.621 C 914.568 764.073 915.343 766.519 915.7 767.319 L 914.289 769.755 z" fill="rgb(97,24,37)" transform="translate(0,0)"></path>
<path d="M 531.95 738.147 C 532.144 738.448 537.987 761.772 540.093 766.801 C 539.107 768.425 538.152 770.068 537.23 771.729 C 466.564 898.962 450.091 1049.28 491.526 1188.8 C 522.236 1290.41 581.586 1381.02 662.467 1449.77 C 684.992 1469.18 714.474 1491.08 740.61 1505.27 C 728.001 1509.26 719.399 1512.52 707.189 1517.48 C 689.884 1549.09 694.876 1589.02 699.851 1623.21 C 705.891 1625.35 711.868 1627.67 717.776 1630.16 C 717.944 1670.8 718.35 1687.36 730.576 1726.7 C 681.091 1706.19 644.676 1685.85 600.492 1655.72 C 577.76 1640.65 556.012 1624.15 535.38 1606.31 C 409.324 1497.47 320.013 1350.44 283.572 1187.98 C 273.556 1143.33 269.009 1099.43 265.719 1053.91 C 286.088 1048.93 307.641 1029.17 311.982 1008.47 C 321.536 962.921 285.403 912.08 263.031 874.813 C 292.976 857.312 332.662 839.235 364.053 823.466 L 531.95 738.147 z" fill="rgb(244,240,221)" transform="translate(0,0)"></path>
<path d="M 1340.46 588.312 C 1345.43 591.077 1369.1 610.943 1374.1 615.112 C 1447.06 675.755 1502.99 754.347 1536.37 843.158 C 1549.91 878.843 1557.74 913.004 1564.01 950.588 C 1606.42 1204.56 1454.93 1450.36 1215.79 1541.1 C 1203.61 1545.18 1191.39 1549.19 1179.15 1553.11 C 1184.57 1540.43 1193.08 1526.71 1200.07 1514.55 L 1231.5 1460.14 C 1240.86 1458.59 1248.57 1458.1 1257.99 1455.54 C 1301.29 1443.75 1320.08 1412.39 1307.16 1369.08 C 1315.07 1352.1 1324.53 1334.45 1332.76 1317.05 C 1383.14 1210.57 1414.34 1103.95 1406.89 984.84 C 1413.01 976.136 1425.17 963.785 1432.43 954.446 C 1443.88 939.736 1450.58 927.966 1460.19 912.265 C 1406.67 873.245 1367.73 826.264 1329.74 772.141 C 1310.7 745.013 1295.42 715.49 1277.64 687.544 C 1302.01 652.465 1320.36 625.818 1340.46 588.312 z" fill="rgb(10,103,79)" transform="translate(0,0)"></path>
<path d="M 1370.85 924.521 C 1375.43 922.551 1379.37 920.266 1384.21 920.513 C 1387.2 922.013 1388.87 922.985 1389.82 926.796 C 1396.41 953.192 1397.02 985.669 1397.1 1012.62 C 1397.44 1120.37 1365.39 1220.39 1321.84 1317.69 C 1308.51 1347.46 1285.44 1389.54 1275.65 1418.28 C 1281.65 1408.98 1293.12 1385.57 1299.59 1379.64 L 1300.93 1380.08 C 1304.05 1389.23 1300.99 1409.55 1296.43 1417.19 C 1270.77 1460.18 1200.32 1453.11 1164.8 1427.52 C 1157.76 1422.44 1152.23 1417.65 1146.27 1412.07 C 1232.7 1332.71 1305.82 1237.95 1349.16 1128.24 C 1356.27 1110.24 1367.92 1077.58 1370.79 1058.85 C 1313.82 1203.88 1236.34 1323.77 1116.36 1424.83 C 1111.85 1428.63 1105.78 1431.67 1100.37 1434.12 C 1050.98 1453.28 1008.46 1428.83 988.694 1382.08 C 972.217 1343.11 977.503 1299.32 1027.37 1295.2 C 1028.34 1309.69 1028.8 1319.63 1035.64 1332.67 C 1036.94 1329.49 1036.61 1325.53 1037.07 1321.9 C 1036.63 1303.24 1034.93 1288.46 1049.02 1273.57 C 1050.95 1271.51 1052.97 1269.55 1055.1 1267.7 C 1060.07 1286.18 1062.77 1295.51 1074.32 1311.14 C 1065.22 1282.34 1048.9 1226.22 1091.93 1215.36 C 1114.5 1209.66 1132.66 1208.07 1153.17 1195.22 C 1136.65 1197.67 1117.57 1202.78 1101.34 1203.31 C 1102.25 1191.29 1103.2 1182.29 1106.04 1170.51 C 1111.95 1180.66 1117.18 1185.89 1125.62 1194.11 C 1118.06 1178.56 1111.07 1164.68 1107.72 1147.53 C 1100.64 1111.32 1110.18 1065.4 1137.16 1039.04 C 1196.06 1054.21 1261.6 1063.63 1318.15 1032.29 C 1340.13 1020.1 1364.92 992.21 1371.13 967.423 C 1375.02 951.931 1371.26 939.914 1370.85 924.521 z" fill="rgb(10,103,79)" transform="translate(0,0)"></path>
<path d="M 1037.07 1321.9 C 1037.56 1324.33 1038.05 1327.08 1038.03 1329.49 C 1038.02 1330.89 1039.15 1333.68 1038.39 1334.81 C 1037.46 1336.18 1035.75 1332.88 1035.64 1332.67 C 1036.94 1329.49 1036.61 1325.53 1037.07 1321.9 z" fill="rgb(23,20,19)" transform="translate(0,0)"></path>
<path d="M 951.592 274.389 C 953.084 274.069 960.014 273.703 961.935 273.562 C 950.496 281.087 937.813 290.543 928.145 300.071 C 875.797 300.297 839.486 319.953 800.108 352.305 C 781.598 345.736 764.803 351.03 758.531 372.24 C 756.425 379.36 759.629 385.68 763.64 391.59 C 757.399 399.986 751.644 408.2 746.212 417.089 C 728.428 446.185 715.326 490.85 740.71 519.635 C 747.605 527.454 755.918 532.09 764.847 537.247 C 741.038 548.216 708.727 568.771 687.954 584.998 C 679.611 584.564 678.34 585.685 670.813 586.986 C 668.126 585.941 662.465 581.406 660.058 580.968 C 634.159 576.251 623.582 594.203 617.147 615.328 C 597.932 608.305 586.626 620.885 579.356 637.035 C 567.319 628.001 549.063 629.716 540.068 641.974 C 535.704 647.922 534.508 650.937 532.157 657.69 C 502.535 658.526 491.666 686.669 504.923 711.233 C 455.842 738.007 399.193 765.251 348.723 791.055 C 331.954 799.646 315.32 808.498 298.826 817.607 C 305.975 791.117 318.162 764.342 329.161 739.224 C 439.946 486.22 675.308 305.275 951.592 274.389 z" fill="rgb(244,240,221)" transform="translate(0,0)"></path>
<path d="M 925.277 339.686 C 933.372 340.714 941.057 341.65 949.095 343.166 C 944.146 346.857 941.006 349.08 939.278 356.041 C 936.495 367.247 943.084 375.293 954.877 371.525 C 959.09 370.179 963.765 362.955 969.938 365.024 C 974.562 366.574 976.339 362.685 978.989 359.422 C 999.451 379.979 1004.36 404.179 1008.37 431.417 C 1005.91 434.435 1003.73 437.561 1000.19 439.001 C 1002.61 443.407 996.996 442.545 1004.81 442.496 L 1008.37 439.589 C 1019.47 430.38 1037.06 425.366 1045.08 440.97 C 1047.74 446.161 1048.11 452.225 1046.1 457.7 C 1044.06 463.166 1039.73 467.466 1034.25 469.469 C 1024.7 473.061 1016.26 470.296 1007.55 466.622 L 1007.23 470.535 C 1005.84 489.47 982.689 498.015 975.451 471.088 C 977.619 463.538 978.517 461.053 983.722 455.164 L 984.469 454.334 L 983.613 453.768 C 968.491 460.362 970.69 475.551 978.341 487.149 C 989.39 503.897 1006.33 487.976 1013.15 476.092 C 1013.99 474.625 1026.57 477.096 1028.42 477.015 C 1046.95 478.495 1053.12 464.553 1055.69 448.841 C 1062.23 454.169 1067.76 458.658 1071.86 466.214 C 1089.47 498.745 1079.15 558.789 1070.4 592.756 C 1002.17 603.605 978.639 604.251 916.65 639.216 C 912.188 632.976 890.778 599.838 896.934 594.04 C 904.027 594.265 916.772 605.19 924.769 608.014 C 931.493 610.389 936.382 611.095 943.367 612.295 L 943.605 611.746 C 928.219 603.217 920.74 601.192 909.088 587.19 L 908.236 586.152 C 908.239 581.158 908.17 572.902 906.558 568.32 C 904.793 569.449 901.571 580.579 893.915 586.455 C 863.457 609.831 803.647 583.713 810.603 542.473 C 814.612 518.702 845.741 514.72 863.269 526.974 C 868.429 530.582 876.229 537.286 882.227 538.656 C 885.974 537.85 884.429 538.758 886.941 535.701 C 887.234 533.821 887.644 530.059 886.057 528.707 C 827.934 479.163 844.159 457.059 883.829 397.431 C 882.439 412.544 886.729 423.019 892.126 436.969 C 891.605 425.551 888.979 408.112 896.531 398.925 C 907.395 385.708 944.219 376.893 912.396 355.887 C 916.448 350.341 920.93 345.011 925.277 339.686 z" fill="rgb(244,240,221)" transform="translate(0,0)"></path>
<path d="M 1004.81 442.496 C 1000.7 445.501 999.082 446.995 994.385 443.597 C 978.621 431.91 966.73 416.43 961.016 397.5 C 957.244 385.007 960.526 366.951 976.382 378.365 C 995.47 392.105 999.336 416.661 1000.19 439.001 C 1002.61 443.407 996.996 442.545 1004.81 442.496 z" fill="url(#Gradient1)" transform="translate(0,0)"></path>
<path d="M 964.332 379.867 C 967.272 379.905 971.423 379.402 974.27 381.68 C 989.09 393.539 995.568 418.508 994.541 436.758 C 994.495 437.567 992.301 436.024 992.261 435.996 C 991.773 435.479 991.278 434.969 990.775 434.467 C 987.067 430.798 987.652 431.175 988.642 425.485 C 989.863 417.973 986.853 408.356 978.44 406.941 C 975.329 406.418 973.273 412.818 971.417 409.686 C 965.681 400.008 962.732 391.133 964.332 379.867 z" fill="rgb(244,240,221)" transform="translate(0,0)"></path>
<path d="M 1061.65 473.712 C 1061.68 473.876 1056.98 509.208 1056.6 513.037 C 1055.27 526.281 1036.59 563.812 1045.51 575.223 L 1047.97 575.264 C 1057.56 570.467 1067.36 554.23 1073.15 545.075 C 1057.16 606.601 982.976 602.143 944.047 565.597 C 927.965 549.102 917.605 529.312 914.839 506.47 C 912.095 508.864 906.371 514.337 902.937 514.266 L 902.605 512.316 C 909.71 503.024 927.403 493.979 938.469 490.028 C 933.014 496.294 928.729 499.065 921.99 503.626 C 963.206 523.54 1017.42 526.342 1050.43 490.802 C 1054.17 486.774 1057.4 478.825 1061.65 473.712 z" fill="rgb(37,27,26)" transform="translate(0,0)"></path>
<path d="M 1047.56 502.674 C 1048.66 501.785 1052.31 498.181 1053.35 498.027 C 1055.48 499.527 1050.12 516.977 1049.09 519.717 C 1048.61 520.974 1047.95 523.704 1046.63 524.317 C 1046.23 524.276 1046.3 524.252 1045.92 523.866 L 1044.24 523.207 C 1043.35 533.021 1040.5 536.668 1029.49 537.257 C 1028.5 538.405 1028.33 538.523 1027.58 539.743 C 1022.05 541.331 1009.65 546.262 1004.76 542.575 C 1005.33 535.98 1004.14 529.648 1003.01 523.062 C 1004.89 522.471 1006.85 522.214 1008.71 521.567 C 1008.12 521.077 1007.84 520.98 1007.76 520.592 C 1007.8 520.59 1007.85 520.599 1007.88 520.584 C 1008.48 520.329 1007.89 520.414 1008.77 520.25 C 1009.42 520.129 1010.14 520.14 1010.76 519.855 C 1011.38 519.567 1011.81 519.479 1012.51 519.441 C 1013.12 519.408 1013.9 519.451 1014.5 519.215 C 1014.87 519.071 1015.21 518.877 1015.58 518.729 C 1016.86 518.21 1018.18 517.794 1019.45 517.233 C 1019.95 517.014 1021.19 516.227 1021.96 516.318 C 1022.69 516.405 1023.68 516.779 1024.36 516.274 C 1025.14 515.701 1025.82 515.003 1026.64 514.482 C 1027.19 514.141 1027.76 513.85 1028.3 513.509 C 1029.18 512.961 1030.05 512.411 1030.95 511.919 C 1031.28 511.739 1031.62 511.572 1031.95 511.395 C 1032.99 510.842 1034.02 510.289 1035.08 509.786 C 1036.51 509.11 1037.91 508.344 1039.34 507.687 C 1041.55 506.676 1045.17 501.791 1046.63 501.844 C 1046.99 501.858 1047.5 502.608 1047.56 502.674 z" fill="rgb(244,240,221)" transform="translate(0,0)"></path>
<path d="M 1008.71 521.567 C 1013.8 520.676 1018 519.4 1022.92 517.789 C 1024.06 524.968 1024.46 533.175 1027.58 539.743 C 1022.05 541.331 1009.65 546.262 1004.76 542.575 C 1005.33 535.98 1004.14 529.648 1003.01 523.062 C 1004.89 522.471 1006.85 522.214 1008.71 521.567 z" fill="rgb(244,240,221)" transform="translate(0,0)"></path>
<path d="M 1047.56 502.674 C 1048.66 501.785 1052.31 498.181 1053.35 498.027 C 1055.48 499.527 1050.12 516.977 1049.09 519.717 C 1048.61 520.974 1047.95 523.704 1046.63 524.317 C 1046.23 524.276 1046.3 524.252 1045.92 523.866 L 1044.24 523.207 C 1044.11 520.716 1043.93 511.677 1042.04 509.918 C 1041.53 509.444 1040.82 509.245 1040.14 509.383 C 1037.73 509.895 1028.61 515.031 1026.21 516.336 C 1027.27 523.973 1028.25 529.733 1029.49 537.257 C 1028.5 538.405 1028.33 538.523 1027.58 539.743 C 1024.46 533.175 1024.06 524.968 1022.92 517.789 C 1018 519.4 1013.8 520.676 1008.71 521.567 C 1008.12 521.077 1007.84 520.98 1007.76 520.592 C 1007.8 520.59 1007.85 520.599 1007.88 520.584 C 1008.48 520.329 1007.89 520.414 1008.77 520.25 C 1009.42 520.129 1010.14 520.14 1010.76 519.855 C 1011.38 519.567 1011.81 519.479 1012.51 519.441 C 1013.12 519.408 1013.9 519.451 1014.5 519.215 C 1014.87 519.071 1015.21 518.877 1015.58 518.729 C 1016.86 518.21 1018.18 517.794 1019.45 517.233 C 1019.95 517.014 1021.19 516.227 1021.96 516.318 C 1022.69 516.405 1023.68 516.779 1024.36 516.274 C 1025.14 515.701 1025.82 515.003 1026.64 514.482 C 1027.19 514.141 1027.76 513.85 1028.3 513.509 C 1029.18 512.961 1030.05 512.411 1030.95 511.919 C 1031.28 511.739 1031.62 511.572 1031.95 511.395 C 1032.99 510.842 1034.02 510.289 1035.08 509.786 C 1036.51 509.11 1037.91 508.344 1039.34 507.687 C 1041.55 506.676 1045.17 501.791 1046.63 501.844 C 1046.99 501.858 1047.5 502.608 1047.56 502.674 z" fill="rgb(41,28,21)" transform="translate(0,0)"></path>
<path d="M 1047.56 502.674 C 1048.66 501.785 1052.31 498.181 1053.35 498.027 C 1055.48 499.527 1050.12 516.977 1049.09 519.717 L 1046.06 519.443 C 1044.69 508.42 1041.79 510.124 1047.56 502.674 z" fill="rgb(244,240,221)" transform="translate(0,0)"></path>
<path d="M 1046.06 519.443 L 1049.09 519.717 C 1048.61 520.974 1047.95 523.704 1046.63 524.317 C 1046.23 524.276 1046.3 524.252 1045.92 523.866 L 1046.06 519.443 z" fill="rgb(244,240,221)" transform="translate(0,0)"></path>
<path d="M 979.165 524.705 C 983.291 524.841 999.294 523.262 1001.06 523.957 L 1003.01 523.062 C 1004.14 529.648 1005.33 535.98 1004.76 542.575 L 1002.95 543.528 C 999.575 545.938 983.827 544.281 979.521 543.15 C 978.196 542.873 977.664 542.675 976.328 542.711 L 976.019 524.574 C 977.101 524.589 978.087 524.646 979.165 524.705 z" fill="rgb(244,240,221)" transform="translate(0,0)"></path>
<path d="M 976.019 524.574 C 977.101 524.589 978.087 524.646 979.165 524.705 C 979.235 530.854 979.353 537.002 979.521 543.15 C 978.196 542.873 977.664 542.675 976.328 542.711 L 976.019 524.574 z" fill="rgb(49,41,28)" transform="translate(0,0)"></path>
<path d="M 1001.06 523.957 L 1003.01 523.062 C 1004.14 529.648 1005.33 535.98 1004.76 542.575 L 1002.95 543.528 C 1001.64 535.606 1000.83 531.948 1001.06 523.957 z" fill="rgb(37,27,26)" transform="translate(0,0)"></path>
<path d="M 956.162 522.141 C 959.908 522.808 964.697 523.559 968.502 523.909 L 976.019 524.574 L 976.328 542.711 C 970.92 542.966 962.55 540.428 957.037 539.277 C 956.843 533.484 956.475 527.92 956.162 522.141 z" fill="rgb(244,240,221)" transform="translate(0,0)"></path>
<path d="M 977.046 563.371 C 986.581 566.502 1005.35 574.94 1009.62 584.265 C 1000.85 585.863 993.141 583.985 984.641 581.774 C 982.533 573.506 981.762 570.377 977.046 563.371 z" fill="rgb(233,127,101)" transform="translate(0,0)"></path>
<path d="M 949.658 555.694 C 964.484 555.652 985.586 578.067 976.539 579.151 C 965.491 573.709 955.849 567.397 946.72 559.088 C 945.45 557.932 947.78 556.827 948.538 556.415 L 949.658 555.694 z" fill="rgb(233,127,101)" transform="translate(0,0)"></path>
<path d="M 935.362 516.221 C 936.327 516.534 937.293 516.846 938.258 517.159 C 943.156 518.939 947.147 520.06 952.174 521.44 C 952.224 526.97 952.412 532.005 952.62 537.51 C 946.937 535.124 941.087 532.153 935.564 529.948 C 935.049 529.549 934.534 529.149 934.019 528.75 C 934.032 524.628 934.913 520.498 935.362 516.221 z" fill="rgb(244,240,221)" transform="translate(0,0)"></path>
<path d="M 935.362 516.221 C 936.327 516.534 937.293 516.846 938.258 517.159 C 937.135 521.388 936.458 525.649 935.564 529.948 C 935.049 529.549 934.534 529.149 934.019 528.75 C 934.032 524.628 934.913 520.498 935.362 516.221 z" fill="rgb(41,28,21)" transform="translate(0,0)"></path>
<path d="M 918.796 506.959 C 924.058 509.706 930.54 512.817 935.362 516.221 C 934.913 520.498 934.032 524.628 934.019 528.75 C 922.87 523.459 921.932 518.273 918.796 506.959 z" fill="rgb(244,240,221)" transform="translate(0,0)"></path>
<path d="M 928.007 469.027 C 911.183 454.113 897.038 433.464 901.592 410.659 C 908.27 381.512 937.525 402.729 946.382 418.7 C 954.964 434.177 969.164 460.104 948.854 472.492 C 947.302 474.328 946.231 474.47 943.967 475.301 C 916.11 473.074 899.655 479.19 887.755 505.764 C 890.478 481.632 904.748 472 928.007 469.027 z" fill="rgb(37,27,26)" transform="translate(0,0)"></path>
<path d="M 916.181 399.8 C 937.759 402.699 953.129 433.452 954.675 453.005 C 955.398 462.151 944.7 472.129 941.46 468.598 C 941.334 467.957 945.008 461.142 945.625 459.954 C 947.576 434.548 931.426 433.409 918.624 450.736 L 917.534 452.194 C 908.234 438.203 895.522 409.893 916.181 399.8 z" fill="rgb(244,240,221)" transform="translate(0,0)"></path>
<path d="M 837.422 540.246 C 852.326 539.962 865.574 542.925 874.813 555.995 C 875.637 557.162 879.863 565.351 877.383 565.851 C 875.521 565.196 852.146 531.549 852.769 568.227 C 854.233 571.735 855.011 573.056 857.131 576.244 C 856.918 577.071 857.131 576.693 856.413 577.33 C 851.356 576.327 848.695 566.497 848.936 561.987 C 849.33 554.632 851.405 553.009 856.066 548.094 C 845.533 545.098 844.649 544.53 833.38 544.402 C 832.679 544.77 831.976 545.132 831.27 545.488 C 829.189 546.516 823.517 550.863 822.323 550.696 L 822.04 550.284 C 822.981 545.276 830.891 541.457 835.454 540.64 L 837.422 540.246 z" fill="rgb(23,20,19)" transform="translate(0,0)"></path>
<path d="M 943.967 475.301 C 946.231 474.47 947.302 474.328 948.854 472.492 C 948.217 472.403 963.735 474.523 960.065 476.748 C 958.591 477.643 946.695 475.69 943.967 475.301 z" fill="rgb(44,14,16)" transform="translate(0,0)"></path>
<path d="M 825.304 590.027 C 826.508 590.383 827.242 591.122 828.418 591.753 C 852.07 604.443 860.402 605.658 885.493 599.174 C 892.233 614.503 899.266 629.702 906.587 644.762 C 892.644 654.124 874.447 674.012 863.851 687.526 C 874.405 697.746 879.836 713.542 885.445 727.065 C 863.579 748.76 850.048 765.584 843.864 796.252 C 829.104 801.061 829.871 805.297 819.841 816.377 C 817.359 819.119 815.954 818.549 812.583 818.69 C 795.185 815.02 753.888 789.227 736.666 780.089 C 732.938 778.111 740.914 759.793 710.768 754.509 C 711.98 752.052 713.087 749.544 714.087 746.993 C 719.523 733.12 719.352 726.345 713.609 713.087 C 723.283 686.62 727.764 668.95 722.629 640.834 C 757.028 624.596 789.978 606.497 825.304 590.027 z" fill="rgb(10,103,79)" transform="translate(0,0)"></path>
<path d="M 886.546 1568.78 C 891.297 1569.13 902.161 1572.22 907.055 1573.58 C 959.363 1588.1 1010.82 1588.01 1064.81 1589.33 C 1057.7 1609 1050.04 1628.11 1043.29 1648 C 1001.4 1647.27 1000.22 1703.39 997.667 1732.32 C 993.234 1737.05 992.155 1738.52 993.048 1745.24 C 994.587 1756.82 996.392 1768.36 997.907 1779.94 L 1020.74 1785.67 C 1023.08 1786.26 1024.48 1787.11 1026.67 1788.15 C 985.894 1789.5 935.633 1784.78 896.043 1775.25 C 902.18 1766.64 907.016 1760.35 909.852 1749.87 C 913.08 1737.6 911.056 1724.54 904.267 1713.82 C 892.507 1695.01 868.45 1685.13 847.694 1680.49 C 848.782 1664.57 852.332 1647.45 855.444 1631.79 C 857.755 1630.04 860.272 1628.39 862.494 1626.63 C 867.222 1622.95 870.22 1617.48 870.783 1611.51 C 871.602 1602.34 866.323 1593.15 860.428 1586.54 C 869.011 1580.44 877.719 1574.52 886.546 1568.78 z" fill="rgb(244,240,221)" transform="translate(0,0)"></path>
<path d="M 1034.34 271.484 C 1129.99 270.243 1222.78 292.139 1310.49 329.031 C 1302.2 333.261 1277.28 341.447 1267.03 345.337 C 1243.92 354.238 1221.07 363.791 1198.5 373.986 C 1152.29 393.821 1100.49 419.69 1055.03 441.854 C 1044.82 425.266 1034.99 420.104 1015.79 425.885 C 1013.37 412.182 1010.85 402.915 1006.46 389.818 C 1029.75 362.991 1061.52 321.931 1042.19 284.464 C 1039.97 280.156 1037.16 276.702 1034.94 272.619 L 1034.34 271.484 z" fill="rgb(244,240,221)" transform="translate(0,0)"></path>
<path d="M 891.519 1765.91 C 864.468 1775.53 811.04 1767.72 787.543 1752.11 C 743.351 1722.74 739.887 1652.48 740.615 1604.47 C 741.163 1568.35 734.592 1508.56 784.484 1505.11 C 798.393 1504.08 808.186 1507.08 819.129 1515.13 C 817.78 1515.83 816.529 1516.49 815.198 1517.23 C 811.766 1517.85 807.468 1518.74 804.1 1519.16 C 780.972 1532.76 783.654 1562.71 795.537 1583.15 C 813.084 1613.33 839.618 1573.1 858.6 1598.91 C 870.43 1614.99 852.093 1620.43 848.481 1629.24 C 847.52 1631.5 847.651 1631.39 845.738 1632.93 L 846.954 1635.81 C 847.803 1637.93 847.078 1645.55 846.192 1645.96 C 844.188 1646.89 845.21 1667.6 842.703 1660.31 C 842.042 1662.33 841.753 1663.59 841.26 1665.65 C 836.031 1662.14 814.038 1641.26 807.823 1650.12 C 813.272 1657.58 840.414 1663.16 840.676 1678.09 C 840.331 1678.52 839.985 1678.95 839.64 1679.38 C 832.105 1679.05 821.599 1678.71 814.529 1679.14 C 805.027 1679.72 800.527 1680.64 791.982 1682.87 C 799.58 1684.39 809.248 1683.69 817.685 1684.36 C 849.888 1686.94 898.673 1697.54 903.092 1736.84 C 904.344 1747.97 898.508 1757.63 891.519 1765.91 z" fill="rgb(225,164,69)" transform="translate(0,0)"></path>
<path d="M 842.703 1660.31 C 842.81 1657.95 843.592 1652.43 842.258 1650.78 C 835.208 1642.04 825.836 1635.73 814.479 1634.12 C 811.249 1635.29 806.785 1630.2 810.427 1628.64 C 820.095 1624.51 840.13 1640.7 844.564 1644.56 C 845.386 1641.26 845.748 1639.15 846.954 1635.81 C 847.803 1637.93 847.078 1645.55 846.192 1645.96 C 844.188 1646.89 845.21 1667.6 842.703 1660.31 z" fill="rgb(41,28,21)" transform="translate(0,0)"></path>
<path d="M 845.738 1632.93 C 839.412 1627.23 828.839 1618.41 820.433 1617.35 C 812.171 1616.3 818.095 1610.2 820.452 1610.82 C 831.662 1613.78 841.129 1620.34 848.481 1629.24 C 847.52 1631.5 847.651 1631.39 845.738 1632.93 z" fill="rgb(37,27,26)" transform="translate(0,0)"></path>
<path d="M 1114.49 1681.33 C 1113.82 1672.86 1110.8 1660.81 1117.35 1654.63 C 1129.61 1643.05 1145.34 1653.5 1153.65 1663.22 C 1148.82 1665.95 1145.48 1667.48 1141.66 1671.61 L 1141.84 1672.74 C 1149.6 1671.98 1154.19 1669.02 1161.43 1666.38 C 1165.07 1669.14 1167.97 1671.26 1171.31 1674.44 C 1165.47 1676.91 1151.04 1681.97 1148.43 1686.9 C 1149.61 1689.49 1148.7 1688.54 1151.29 1689.81 C 1159.23 1686.9 1165.45 1681.97 1175.51 1678.22 C 1179.09 1679.76 1183.13 1681.38 1186.61 1683.04 C 1179.79 1687.46 1165.7 1695.73 1161.68 1702.09 L 1161.6 1703.21 C 1163.89 1704.67 1162.62 1704.14 1165.97 1703.86 C 1175.9 1696.22 1184.61 1686.42 1198.25 1689.03 L 1199 1691.05 C 1193.58 1699.16 1177.19 1706.38 1175.19 1713.3 L 1176.84 1714.1 C 1186.25 1708.97 1198.09 1699.43 1207.71 1696.03 C 1228.25 1688.75 1256.53 1683.36 1277.98 1689.89 C 1301.01 1696.92 1314.19 1709.11 1316.46 1733.73 C 1264.52 1762.17 1196.9 1787.21 1138.34 1768.01 C 1117.98 1761.34 1097.26 1755.32 1076.71 1749.28 C 1052.65 1742.12 1031.13 1738.92 1007.36 1733.61 C 1008.28 1710.7 1010.44 1664.33 1037.97 1656.79 L 1040.19 1657.31 C 1042.27 1660.91 1039.88 1665.1 1038.12 1668.67 L 1037.07 1668.92 L 1036.87 1668.67 L 1033.69 1668.41 C 1041.2 1702.86 1092.76 1707.09 1114.49 1681.33 z" fill="rgb(225,164,69)" transform="translate(0,0)"></path>
<path d="M 1033.69 1668.41 C 1033.78 1667.5 1033.71 1665.87 1034.44 1665.29 C 1034.58 1665.18 1034.76 1665.14 1034.93 1665.19 C 1035.94 1665.51 1036.56 1667.9 1036.87 1668.67 L 1033.69 1668.41 z" fill="rgb(49,41,28)" transform="translate(0,0)"></path>
<path d="M 681.348 592.051 C 699.563 591.549 708.615 610.22 713.028 625.381 C 724.113 663.462 714.324 699.715 696.008 733.877 C 700.796 730.078 704.18 723.211 709.317 723.209 L 710.441 724.67 C 711.748 733.89 706.436 747.231 702.618 755.576 C 686.53 760.435 682.814 762.662 671.983 775.219 C 688.492 764.612 698.211 762.227 717.823 763.172 C 720.323 764.807 733.888 774.922 727.369 778.486 C 717.92 783.65 711.193 786.404 702.417 792.9 C 683.075 807.218 670.84 828.122 654.508 844.266 C 651.686 844.878 650.463 845.062 647.886 843.532 C 627.609 831.489 645.187 801.547 652.905 788.227 C 642.83 796.664 639.034 801.976 632.892 813.339 C 626.288 811.536 624.383 811.031 618.694 807.237 C 617.338 803.221 617.543 798.358 616.066 795.557 C 610.299 801.956 605.355 804.059 595.584 801.55 C 568.6 794.624 537.162 765.326 541.041 735.431 C 541.765 729.849 553.997 732.763 562.177 729.058 L 563.291 728.543 C 585.609 739.13 595.956 731.235 607.605 712.265 C 605.377 739.515 604.912 767.836 634.371 780.448 C 629.109 774.567 624.901 769.876 621.127 762.876 C 613.161 747.967 611.53 730.48 616.602 714.355 C 622.555 694.851 638.127 680.353 656.543 671.93 C 664.117 668.466 673.573 666.887 681.537 662.666 L 681.101 661.428 L 676.176 661.212 C 674.126 659.383 671.686 653.442 670.611 650.696 C 662.837 630.845 655.011 601.542 681.348 592.051 z" fill="rgb(244,240,221)" transform="translate(0,0)"></path>
<path d="M 313.064 817.806 C 316.04 819.294 320.604 831.02 322.238 834.654 C 308.135 843.027 261.244 862.617 254.412 872.428 C 254.233 875.001 254.651 876.851 255.947 879.18 C 281.736 925.535 343.875 1005.46 272.465 1042.87 C 267.916 1045.26 262.15 1046.15 257.103 1046.97 C 173.323 1048.95 187.175 943.179 204.856 891.578 C 215.399 860.806 244.551 854.042 270.616 839.86 C 284.973 832.049 298.959 825.996 313.064 817.806 z" fill="rgb(225,164,69)" transform="translate(0,0)"></path>
<path d="M 239.997 871.096 L 240.369 871.756 C 239.027 877.363 227.71 884.816 226.745 891.234 C 220.673 931.658 202.358 993.67 238.436 1024.5 C 245.195 1030.27 261.117 1031.32 264.695 1037.66 L 263.789 1039.37 L 260.243 1040.38 C 259.961 1040.36 259.68 1040.35 259.399 1040.33 L 257.995 1040.23 C 197.931 1036.36 207.511 952.42 214.968 912.279 C 218.521 893.154 218.303 877.385 239.997 871.096 z" fill="rgb(37,27,26)" transform="translate(0,0)"></path>
<path d="M 911.845 310.404 C 914.473 310.205 914.776 309.866 916.998 311.084 L 916.611 312.93 C 872.528 357.094 810.536 472.713 801.211 534.145 C 782.023 531.355 772.648 530.689 756.309 520.56 C 755.488 519.953 754.674 519.335 753.869 518.707 C 712.916 486.583 750.249 421.305 774.426 391.503 C 809.952 347.712 854.707 316.459 911.845 310.404 z" fill="rgb(10,103,79)" transform="translate(0,0)"></path>
<path d="M 1108.9 1442.18 L 1109.51 1443.52 C 1106.97 1460.74 1096.2 1489.05 1090.59 1506.56 C 1083.56 1528.49 1076.69 1555.19 1068.29 1576.16 C 1022.1 1579.26 960.756 1573.69 915.802 1563.71 C 909.951 1562.78 904.169 1562.21 898.285 1561.56 C 910.593 1553.86 923.302 1544.34 935.892 1536.28 C 960.178 1520.73 983.936 1505.09 1008.09 1489.18 C 1023.6 1480.9 1044.53 1459.7 1060.22 1453.47 C 1072.17 1448.72 1094.03 1447.22 1108.9 1442.18 z" fill="rgb(10,103,79)" transform="translate(0,0)"></path>
<path d="M 1094.17 1530.43 C 1124.41 1547.68 1131.5 1549.37 1165.52 1555.89 C 1163.27 1561.97 1159.14 1569.6 1155.98 1575.41 C 1144.1 1597.25 1134.54 1619.15 1125.06 1642.13 C 1094.72 1649.96 1110.55 1672.69 1104.71 1679.88 C 1079.33 1697.34 1062.85 1692.75 1041.04 1673.55 C 1048.37 1659.87 1052.69 1646.86 1058.47 1632.65 C 1072.13 1599.03 1082.91 1564.91 1094.17 1530.43 z" fill="rgb(225,164,69)" transform="translate(0,0)"></path>
<path d="M 813.508 1532.48 C 833.435 1523.95 886.272 1470.04 903.202 1452.99 C 917.608 1483.82 922.189 1492.32 946.845 1516.52 L 893.478 1552.15 C 882.187 1559.7 859.51 1573.83 851.278 1583.17 C 832.598 1579.36 830.815 1581.8 813.417 1588.07 C 791.145 1573.58 785.579 1536.16 807.843 1521.09 C 806.602 1520.43 805.355 1519.79 804.1 1519.16 C 807.468 1518.74 811.766 1517.85 815.198 1517.23 C 816.529 1516.49 817.78 1515.83 819.129 1515.13 C 819.922 1515.82 820.096 1515.79 821.107 1516.16 C 825.345 1522.19 817.879 1527.7 813.508 1532.48 z" fill="rgb(225,164,69)" transform="translate(0,0)"></path>
<path d="M 815.198 1517.23 L 816.942 1518.43 C 814.423 1519.4 810.529 1520.85 807.843 1521.09 C 806.602 1520.43 805.355 1519.79 804.1 1519.16 C 807.468 1518.74 811.766 1517.85 815.198 1517.23 z" fill="rgb(41,28,21)" transform="translate(0,0)"></path>
<path d="M 819.129 1515.13 C 819.922 1515.82 820.096 1515.79 821.107 1516.16 C 819.642 1516.91 818.369 1517.61 816.942 1518.43 L 815.198 1517.23 C 816.529 1516.49 817.78 1515.83 819.129 1515.13 z" fill="rgb(212,149,63)" transform="translate(0,0)"></path>
<path d="M 1103.73 600.429 C 1109.74 599.831 1119.87 599.938 1126.2 599.824 C 1113.34 609.944 1101.6 619.955 1085.23 623.704 C 1042.23 633.55 1001.38 647.939 963.072 670.035 C 940.24 683.205 920.753 698.656 900.425 715.327 C 897.904 717.544 896.579 719.23 893.727 719.423 C 889.04 711.607 881.722 692.333 878.458 683.577 C 893.188 667.231 911.744 652.945 930.533 641.596 C 986.334 607.892 1041.09 604.563 1103.73 600.429 z" fill="rgb(189,50,75)" transform="translate(0,0)"></path>
<path d="M 1000.48 1741.52 C 1030.49 1742.96 1090.38 1762.6 1120.89 1771.52 C 1136.1 1775.96 1152.52 1781.53 1168.53 1782.9 C 1218.06 1787.12 1275.45 1766.19 1318.75 1743.4 C 1319 1751.28 1319.35 1755.35 1320.55 1763.13 L 1313.76 1766.42 C 1265.87 1789.1 1202.8 1805.71 1150.02 1792.37 C 1131.73 1787.75 1110.37 1776.67 1091.54 1771.31 L 1089.87 1770.85 C 1088.15 1776.37 1086.2 1784.31 1082.5 1788.42 C 1076.55 1789.65 1016.81 1776.02 1005.07 1773.66 C 1003.92 1762.87 1002.15 1752.24 1000.48 1741.52 z" fill="rgb(10,103,79)" transform="translate(0,0)"></path>
<path d="M 1005.5 279.205 C 1013.01 278.787 1025.14 279.96 1030.5 285.099 C 1056.99 310.472 1018.83 361.809 1003.33 380.939 C 998.704 372.011 995.151 366.828 989.518 358.599 C 985.767 352.514 979.489 340.594 972.384 339.99 C 957.371 338.713 944.691 334.887 930.121 331.404 C 949.182 308.016 974.655 284.285 1005.5 279.205 z" fill="rgb(10,103,79)" transform="translate(0,0)"></path>
<path d="M 743.332 1514.04 C 745.166 1515.78 738.185 1533.06 737.051 1538.3 C 729.268 1577.64 730.843 1622.11 734.319 1661.92 C 742.166 1751.81 800.846 1788.3 887.806 1776.4 C 878.372 1785.21 876.511 1786.61 864.082 1788.04 C 861.847 1788.11 859.61 1788.15 857.373 1788.15 C 822.416 1788.16 786.404 1782.78 760.815 1757.03 C 724.601 1720.59 726.515 1669.54 727.111 1621.66 C 721.408 1619.45 714.469 1618.61 708.346 1617.56 C 702.294 1591.65 702.154 1550.61 712.01 1525.22 C 722.091 1522 733.279 1517.68 743.332 1514.04 z" fill="rgb(10,103,79)" transform="translate(0,0)"></path>
<path d="M 783.111 541.062 C 787.557 540.991 796.094 541.816 800.844 542.15 C 800.862 553.485 801.502 557.029 805.078 567.793 C 779.324 579.474 745.765 597.844 719.42 611.025 L 717.992 611.766 C 714.405 611.437 709.496 598.875 706.299 595.747 C 703.761 593.265 701.774 591.479 699.014 589.306 C 727.376 572.324 752.684 554.988 783.111 541.062 z" fill="rgb(10,103,79)" transform="translate(0,0)"></path>
<path d="M 1342.03 327.091 L 1342.8 328.671 C 1251.31 366.118 1161.81 408.258 1074.65 454.924 C 1070.95 451.249 1067.69 449.185 1063.45 446.214 C 1086.33 433.732 1116.5 420.528 1140.46 409.057 C 1205.58 377.872 1272.78 347.788 1342.03 327.091 z" fill="rgb(225,164,69)" transform="translate(0,0)"></path>
<path d="M 510.048 709.102 C 506.617 697.045 503.938 683.51 512.727 672.76 C 516.394 668.293 521.731 665.523 527.494 665.095 C 549.991 663.395 568.257 683.76 567.935 704.5 C 567.657 722.464 552.752 731.102 539.088 718.799 C 530.835 711.368 529.943 705.736 523.473 698.965 C 522.992 700.148 522.511 701.332 522.03 702.516 C 517.551 705.505 514.774 706.701 510.048 709.102 z" fill="rgb(244,240,221)" transform="translate(0,0)"></path>
<path d="M 522.03 702.516 L 521.286 701.653 C 519.586 699.67 515.229 696.517 519.039 695.568 C 521.021 696.414 522.036 697.408 523.473 698.965 C 522.992 700.148 522.511 701.332 522.03 702.516 z" fill="rgb(41,28,21)" transform="translate(0,0)"></path>
<path d="M 650.624 587.246 C 657.865 587.955 659.514 588.675 666.075 591.833 C 648.115 614.531 658.354 637.189 667.128 661.539 C 666.502 661.73 665.877 661.925 665.254 662.125 C 657.7 664.604 653.361 665.936 646.329 670.052 C 645.618 670.513 641.272 673.654 640.408 672.61 C 621.851 650.175 612.187 595.114 650.624 587.246 z" fill="rgb(244,240,221)" transform="translate(0,0)"></path>
<path d="M 559.444 638.256 C 565.051 638.271 566.675 638.706 572.203 639.444 C 574.364 640.977 576.547 642.362 578.439 644.231 L 579.424 645.179 C 579.856 648.576 580.484 655.18 581.618 658.156 C 586.786 672.474 598.612 686.235 599.269 702 C 600.034 720.352 591.056 726.293 574.515 726.635 C 569.59 724.537 568.13 724.731 570.558 719.67 C 580.227 699.517 570.469 675.291 551.997 664.033 C 548.217 661.729 542.3 659.668 538.041 657.906 C 543.734 647.019 546.778 641.084 559.444 638.256 z" fill="rgb(244,240,221)" transform="translate(0,0)"></path>
<path d="M 1018.32 273.377 C 1016.24 272.934 1014.13 272.621 1012.01 272.439 C 947.384 266.711 867.514 404.449 840.55 454.916 C 838.622 458.525 837.691 463.359 834.512 466.063 C 830.915 466.4 832.605 466.743 829.34 464.69 C 826.824 453.795 871.298 381.99 879.018 369.939 C 901.24 335.251 974.702 248.543 1020.19 272.044 L 1018.32 273.377 z" fill="rgb(10,103,79)" transform="translate(0,0)"></path>
<path d="M 603.41 621.169 C 620.747 619.702 616.434 620.68 618.809 637.021 C 621.129 652.979 626.317 663.392 635.5 676.262 C 625.484 685.444 619.955 691.939 612.904 703.557 C 605.961 717.016 606.524 698.947 605.721 695.544 C 600.793 674.648 567.488 638.519 599.502 623.023 L 603.41 621.169 z" fill="rgb(244,240,221)" transform="translate(0,0)"></path>
<path d="M 1124.99 1429.28 C 1130.21 1431.32 1137.24 1437.69 1142.46 1441.05 C 1166.69 1456.65 1187.77 1464.21 1216.28 1467.29 C 1212.86 1473.03 1209.37 1478.66 1206.14 1484.5 C 1203.82 1487.47 1200.49 1486.33 1197.01 1485.71 C 1169.7 1480.79 1138.54 1469.9 1117.45 1451.43 C 1120.05 1444.62 1121.99 1435.05 1124.99 1429.28 z" fill="rgb(225,164,69)" transform="translate(0,0)"></path>
<path d="M 968.796 1385.82 C 970.451 1387.45 975.813 1400.45 977.752 1404.07 C 991.072 1428.91 1009.15 1443.56 1030.84 1460.48 C 1025.54 1464.09 1020.18 1467.62 1014.76 1471.08 C 1013.71 1471.73 1011.47 1473.33 1010.1 1472.38 C 987.516 1456.63 966.578 1424.38 955.826 1399.32 L 956.543 1398.5 C 960.534 1393.85 964.343 1390 968.796 1385.82 z" fill="rgb(225,164,69)" transform="translate(0,0)"></path>
<path d="M 935.725 1420.74 C 937.994 1422.8 948.994 1444.85 954.047 1451.51 C 967.413 1469.14 971.196 1474.67 987.918 1489.03 C 982.873 1492.78 977.786 1496.48 972.66 1500.12 C 969.393 1501.99 966.851 1497.23 964.493 1495.06 C 946.302 1478.26 933.373 1455.25 922.414 1433.23 C 927.073 1428.51 930.548 1424.92 935.725 1420.74 z" fill="rgb(225,164,69)" transform="translate(0,0)"></path>
<path d="M 1109.11 1481.37 C 1135.09 1499.09 1158.37 1508.67 1190.15 1512.33 C 1186.75 1517.78 1184.12 1522.81 1181.24 1528.55 C 1179.98 1529.64 1179.32 1529.95 1177.65 1529.59 L 1175.97 1529.22 C 1144.71 1522.82 1129.66 1517.38 1102.97 1500.3 L 1109.11 1481.37 z" fill="rgb(225,164,69)" transform="translate(0,0)"></path>
<path d="M 809.207 574.01 C 811.682 575.514 817.51 582.192 819.964 584.737 C 803.708 591.362 786.159 600.784 770.523 609.047 C 757.305 616.032 742.416 622.537 729.568 629.747 L 728.607 630.263 C 718.265 635.865 721.654 632.636 719.324 619.406 C 749.184 604.42 779.604 589.505 809.207 574.01 z" fill="rgb(225,164,69)" transform="translate(0,0)"></path>
<path d="M 1083.65 571.981 C 1099.03 575.08 1116.14 576.152 1127.83 588.584 C 1128.14 588.907 1127.94 589.125 1127.82 589.434 C 1127.12 589.96 1126.08 589.865 1125.25 589.915 C 1109.75 590.126 1095.66 591.44 1080.39 592.234 C 1081.31 585.457 1082.4 578.704 1083.65 571.981 z" fill="rgb(189,50,75)" transform="translate(0,0)"></path>
<path d="M 492.916 726.969 C 494.916 728.61 487.41 748.668 486.185 753.452 C 479.189 757.465 472.926 760.272 465.833 763.933 C 463.616 761.482 472.131 740.126 473.604 735.94 L 473.902 735.075 C 480.354 732.421 486.506 729.723 492.916 726.969 z" fill="rgb(10,103,79)" transform="translate(0,0)"></path>
<path d="M 465.067 739.995 C 465.447 743.441 458.577 761.918 457.246 767.501 C 450.063 771.608 443.856 774.743 436.385 778.35 C 435.829 774.036 442.993 755.734 444.729 750.446 C 451.675 746.564 458.167 743.636 465.067 739.995 z" fill="rgb(10,103,79)" transform="translate(0,0)"></path>
<path d="M 518.665 712.06 C 520.695 714.089 514.572 735.192 513.655 740.177 L 494.389 750.043 C 491.126 747.27 498.887 732.44 500.347 728.229 C 503.944 717.853 508.977 715.754 518.665 712.06 z" fill="rgb(10,103,79)" transform="translate(0,0)"></path>
<path d="M 435.933 754.931 C 438.761 757.414 431.434 768.461 431.206 773.032 C 431.151 774.14 430.004 779.798 429.753 781.552 C 423.139 784.648 415.899 788.421 409.305 791.259 C 406.184 788.579 415.239 769.148 416.925 764.621 C 423.207 761.206 429.6 758.55 435.933 754.931 z" fill="rgb(10,103,79)" transform="translate(0,0)"></path>
<path d="M 380.725 782.93 C 381.055 785.837 374.556 804.577 373.271 808.038 L 372.692 809.667 C 366.282 813.182 358.077 817.508 351.52 820.455 C 350.987 814.663 357.466 800.084 360.088 794.634 C 366.625 790.579 373.859 787.153 380.725 782.93 z" fill="rgb(10,103,79)" transform="translate(0,0)"></path>
<path d="M 408.251 769.24 C 408.356 769.324 408.761 769.618 408.865 769.788 C 409.945 771.558 402.906 788.584 402.088 791.52 C 401.741 792.765 401.4 794.012 401.018 795.247 C 394.938 799.132 387.938 802.787 381.49 806.059 C 378.647 803.524 387.141 783.852 388.607 779.131 C 395.156 776.001 401.761 772.512 408.251 769.24 z" fill="rgb(10,103,79)" transform="translate(0,0)"></path>
<path d="M 781.182 357.09 C 781.711 357.069 794.954 357.043 792.869 359.985 C 788.644 365.945 780.601 373.36 775.15 378.609 C 766.511 386.683 765.463 381.092 767.235 371.568 C 768.414 365.233 775.267 359.82 781.182 357.09 z" fill="rgb(10,103,79)" transform="translate(0,0)"></path>
<path d="M 1121.76 573.058 C 1135.75 572.867 1142.78 573.91 1156.59 576.058 C 1154.46 578.097 1152.62 580.026 1150.27 581.841 C 1146.88 584.537 1143.47 587.2 1140.03 589.831 C 1133.51 582.615 1129.75 578.443 1121.76 573.058 z" fill="rgb(189,50,75)" transform="translate(0,0)"></path>
<path d="M 349.658 798.923 C 350.472 798.966 351.058 798.864 351.66 799.238 C 352.131 800.159 345.116 821.55 343.342 824.12 C 342.146 825.851 339.899 822.192 339.441 821.449 C 336.392 817.54 333.237 813.181 330.264 809.189 C 336.727 806.029 343.224 802.293 349.658 798.923 z" fill="rgb(10,103,79)" transform="translate(0,0)"></path>
<path d="M 526.015 714.383 C 528.24 716.164 534.151 724.451 536.636 727.462 C 532.025 729.98 527.434 732.536 522.864 735.128 C 521.354 735.952 518.651 737.881 517.038 737.728 L 516.788 737.392 C 521.274 728.744 522.931 723.886 526.015 714.383 z" fill="rgb(10,103,79)" transform="translate(0,0)"></path>
<path d="M 1342.03 327.091 C 1344.49 326.168 1367.36 318.33 1367.98 318.594 C 1368.1 320.749 1345.71 328.008 1342.8 328.671 L 1342.03 327.091 z" fill="rgb(98,79,68)" transform="translate(0,0)"></path>
<path d="M 1020.19 272.044 C 1022.11 272.488 1023.87 272.747 1025.63 273.567 L 1026.12 274.751 L 1026.86 274.647 L 1026.46 274.233 C 1026.56 274.525 1026.67 274.817 1026.78 275.109 C 1025.85 276.014 1019.42 273.688 1018.32 273.377 L 1020.19 272.044 z" fill="rgb(23,20,19)" transform="translate(0,0)"></path>
<path d="M 904.25 584.898 C 904.97 584.724 904.764 584.734 905.354 585.268 C 905.131 585.316 904.909 585.365 904.687 585.413 C 904.343 585.216 904.514 585.362 904.25 584.898 z" fill="rgb(98,79,68)" transform="translate(0,0)"></path>
<path d="M 1642.61 227.834 C 1663.22 225.515 1681.77 240.417 1683.95 261.036 C 1686.13 281.654 1671.1 300.105 1650.47 302.145 C 1630.03 304.165 1611.79 289.313 1609.63 268.89 C 1607.48 248.467 1622.21 230.13 1642.61 227.834 z" fill="rgb(37,27,26)" transform="translate(0,0)"></path>
<path d="M 1640.95 234.452 C 1657.7 231.346 1673.8 242.354 1676.99 259.082 C 1680.18 275.81 1669.25 291.969 1652.53 295.237 C 1635.71 298.528 1619.41 287.507 1616.2 270.663 C 1612.99 253.82 1624.09 237.579 1640.95 234.452 z" fill="rgb(10,103,79)" transform="translate(0,0)"></path>
<path d="M 1660.39 260.25 C 1674.49 262.912 1663.59 282.077 1654.88 286.419 L 1653.62 287.066 C 1640.01 279.563 1650.97 279.59 1656.5 276.001 C 1660.64 273.313 1659.93 265.059 1660.39 260.25 z" fill="rgb(23,20,19)" transform="translate(0,0)"></path>
<path d="M 1383.97 286.594 C 1454.29 258.547 1510.28 248.614 1586.74 250.074 C 1584.62 262.882 1584.39 270.909 1586.98 283.857 C 1571.79 279.095 1555.39 274.158 1539.34 272.77 C 1495.58 268.987 1448.85 273.386 1406.1 283.315 C 1401.67 284.345 1390.18 286.927 1386.46 288.462 L 1383.97 286.594 z" fill="rgb(10,103,79)" transform="translate(0,0)"></path>
<path d="M 1504.3 298.989 C 1506.46 299.122 1513.92 299.484 1515.3 300.879 C 1510.26 302.797 1505.92 302.207 1500.47 301.901 C 1502.52 301.495 1504.18 301.331 1506.25 301.098 L 1504.3 298.989 z" fill="rgb(98,79,68)" transform="translate(0,0)"></path>
<path d="M 1506.25 301.098 C 1509.58 301.215 1512.03 300.974 1515.3 300.879 C 1510.26 302.797 1505.92 302.207 1500.47 301.901 C 1502.52 301.495 1504.18 301.331 1506.25 301.098 z" fill="rgb(178,171,152)" transform="translate(0,0)"></path>
<path d="M 1368.86 292.921 L 1372.37 291.125 C 1376.3 289.062 1379.72 288.11 1383.97 286.594 L 1386.46 288.462 C 1380.6 289.828 1374.79 291.495 1368.86 292.921 z" fill="rgb(129,161,133)" transform="translate(0,0)"></path>
<metadata><recraft-signature>{"signed_by": "recraft", "signature_b64": "6kjMF0MxYAbxrDHu+9Ru6Tk8kOSHn7COX842HeTu8H7Nq+Oc5WVYQYMmPS6gBLDNyOzVp0ATbLOR0tnkSU+DAw==", "signing_algo": "Ed25519", "generation_timestamp": 1782152006, "identifier": "d694f239-cc19-434f-a3af-4612341056b7"}</recraft-signature></metadata></svg>