<svg xmlns="http://www.w3.org/2000/svg" height="1024" preserveAspectRatio="none" style="display: block;" version="1.1" viewBox="0 0 2048 2048" width="1024">
<path d="M 0 0 L 2048 0 L 2048 2048 L 0 2048 L 0 0 z" fill="rgb(249,248,236)" transform="translate(0,0)"></path>
<path d="M 935.575 241.266 C 1006.22 237.401 1017.39 305.327 999.057 359.162 C 1202.25 359.807 1380.34 424.801 1521.63 573.924 C 1534.16 587.354 1546.12 601.319 1557.45 615.779 C 1567.23 628.026 1575.01 641.918 1590.06 647.911 C 1627.73 662.911 1653.67 642.92 1685.95 626.381 C 1716.99 610.478 1752.73 607.866 1785.51 620.611 C 1797.38 625.033 1809.02 630.71 1821.29 635.373 C 1817.45 693.709 1809.48 751.871 1811.75 810.522 C 1812.35 825.915 1813.29 841.402 1813.51 856.789 C 1797.91 851.75 1780.56 840.162 1763.32 835.999 C 1729.39 827.805 1704.64 837.356 1676.12 853.733 C 1676.83 855.956 1677.52 858.185 1678.19 860.419 C 1727.59 1025.27 1709.54 1202.98 1628 1354.53 C 1550.17 1500.03 1422.74 1612.8 1268.86 1672.37 C 1248.52 1680.27 1229.46 1686.03 1208.53 1692.27 C 1204.46 1693.36 1200.38 1694.41 1196.29 1695.44 C 1021 1740.11 835.091 1712.26 680.579 1618.18 C 613.266 1650.95 576.068 1658.83 500.195 1638.78 C 488.116 1634.55 454.574 1625.4 449.5 1611.78 C 443.808 1596.49 445.18 1575 461.247 1566.99 C 450.258 1521.73 465.309 1489.42 504.846 1466.24 C 412.852 1349.21 360.148 1220.3 353.432 1070.46 C 344.842 893.086 407.884 719.696 528.39 589.257 C 517.214 532.021 545.894 483.797 581.07 441.602 C 579.521 437.756 577.719 433.432 576.888 429.397 C 574.292 417.275 576.884 404.621 584.034 394.496 C 590.413 385.621 600.131 379.728 610.949 378.175 C 623.476 376.256 634.402 379.798 644.36 387.332 C 670.084 371.058 698.006 359.231 728.518 356.001 C 743.402 354.426 764.694 353.712 779.146 358.049 C 813.48 312.522 878.44 250.692 935.575 241.266 z" fill="rgb(0,0,0)" transform="translate(0,0)"></path>
<path d="M 996.364 366.359 C 1181.71 362.006 1354.31 423.741 1490.57 551.433 C 1518.32 577.439 1537.8 601.888 1561.53 630.976 L 1560.54 633.227 C 1547 624.995 1536.1 620.202 1521.31 614.91 C 1514.01 613.266 1506 612.418 1498.83 610.497 C 1491.77 609.265 1486.35 608.549 1479.24 609.521 C 1475.93 609.646 1471.3 609.975 1468.12 609.787 C 1435.12 612.592 1415.53 620.491 1386.02 634.537 C 1385.09 629.261 1384.57 625.03 1379.76 621.9 C 1377.01 620.112 1373.7 619.325 1370.48 620.152 C 1367.51 620.912 1365.21 623.38 1363.91 626.059 C 1359.91 634.293 1362.39 689.258 1362.31 701.178 L 1361.06 809.052 C 1360.82 820.205 1358.7 838.739 1359.58 848.825 C 1364.01 899.593 1363.82 947.567 1360.62 998.38 C 1358.87 1025.98 1364.51 1057.38 1362.89 1085.36 C 1362.9 1106.43 1356.99 1129.04 1357.8 1149.61 C 1359.25 1186.54 1362.91 1223.29 1361.84 1260.39 C 1361.37 1277.11 1359.64 1293.85 1358.83 1310.54 C 1328.83 1311.35 1236.85 1318.65 1235.86 1352.78 C 1235.11 1378.87 1232.92 1434.81 1234.03 1461.59 C 1259.29 1505.71 1391.73 1501.09 1438.19 1492.36 L 1439.21 1493.62 C 1432.12 1502.1 1399.84 1527.17 1389.66 1534.57 C 1298.15 1600.85 1190.24 1640.79 1077.63 1650.05 C 989.957 1657.08 901.806 1644.85 819.359 1614.22 C 810.638 1610.91 784.786 1600.52 777.7 1595.68 C 788.477 1589.41 797.97 1582.24 809.167 1576.13 C 808.916 1562.43 806.702 1541.22 803.816 1528.25 L 795.249 1519.71 L 793.46 1510.57 C 817.346 1487.87 809.305 1474.58 789.195 1453.71 C 812.218 1391.31 837.381 1336.54 883.275 1287.68 C 897.405 1286.88 911.501 1285.84 925.486 1283.62 C 909.459 1333.58 896.121 1383.85 881.616 1434.04 C 865.671 1442.79 846.898 1457.85 852.136 1478.79 C 853.99 1486.2 855.462 1487.64 855.106 1495.7 L 855.029 1497.21 L 843.978 1509.32 C 842.86 1521.72 843.52 1548.17 843.397 1561.33 C 866.133 1568.16 892.999 1579.5 916.614 1587.35 C 927.142 1581 938.093 1573.64 949.058 1568.37 C 951.038 1572.05 952.875 1576.19 954.668 1580 C 968.279 1584.75 985.386 1587.81 999.508 1590.85 C 1051.98 1602.11 1109.36 1605.58 1162.17 1595.03 C 1181.61 1590.36 1206.21 1585.27 1217.98 1567.45 C 1226 1555.31 1221.74 1537.84 1209.61 1530.31 C 1230.2 1442.53 1150.46 1413.36 1076.7 1431.42 C 1060.15 1435.47 1045.07 1443.63 1030.28 1451.97 L 1007.13 1443.35 C 1007.39 1420.79 988.921 1418.87 970.677 1419.4 C 979.626 1395.78 985.808 1363.59 991.774 1338.49 C 999.8 1304.72 1008.22 1270.86 1015.42 1236.94 C 1054.86 1199.35 1053.25 1170.45 1040.95 1121.81 C 1031.49 1084.36 1020.9 1054.67 1007.84 1018.65 C 1040.44 1039.57 1088.78 1087.06 1130.89 1069.7 C 1159.47 1057.91 1186.51 1022.03 1198.41 994.454 C 1221.49 996.319 1228.21 996.177 1241.6 980.477 C 1243.12 978.691 1266.68 980.921 1271.55 980.271 C 1278.38 979.555 1283.52 978.264 1290.16 975.931 C 1314.4 967.423 1347.67 940.054 1338.79 911.06 C 1337.08 905.464 1330.75 901.278 1325.17 898.908 C 1346.04 870.337 1333.99 847.665 1302.32 837.054 C 1303.42 829.044 1302.07 820.887 1298.43 813.666 C 1287.03 791.03 1254.65 786.467 1232.56 793.061 C 1225.59 795.141 1220.63 797.626 1214.14 800.974 C 1204.55 796.976 1200.42 796.403 1190.43 795.591 C 1197.73 766.484 1194.78 737.276 1169.37 717.923 C 1149.3 702.802 1117.34 703.304 1101.59 724.629 C 1087.25 744.039 1111.66 764.136 1120.31 781.532 C 1127.27 795.55 1129.58 802.714 1132.73 818.079 C 1114.54 846.904 1118.05 883.082 1135.53 911.295 C 1118.95 923.967 1121.88 936.597 1130.49 953.35 C 1121.2 963.587 1108.11 979.757 1097.13 986.909 C 1089.58 987.17 1078.68 986.758 1071.13 983.311 C 1026.35 962.876 982.23 929.796 943.403 899.518 C 939.224 896.26 927.512 883.04 921.955 878.004 C 934.701 871.129 947.955 864.363 960.294 856.62 C 1029.94 812.877 1075.94 717.64 1026.21 642.3 C 999.929 602.472 959.077 585.886 914.239 576.711 C 913.673 543.77 907.053 522.544 893.878 493.08 C 924.785 477.723 943.752 454.34 963.8 427.359 C 965.97 423.657 967.393 421.149 969.968 417.749 C 973.204 412.61 976.162 407.45 979.199 402.196 C 981.182 398.12 983.086 394.72 985.299 390.797 C 989.155 382.712 993.115 374.708 996.364 366.359 z" fill="rgb(249,248,236)" transform="translate(0,0)"></path>
<path d="M 996.364 366.359 C 1181.71 362.006 1354.31 423.741 1490.57 551.433 C 1518.32 577.439 1537.8 601.888 1561.53 630.976 L 1560.54 633.227 C 1547 624.995 1536.1 620.202 1521.31 614.91 C 1514.01 613.266 1506 612.418 1498.83 610.497 C 1491.77 609.265 1486.35 608.549 1479.24 609.521 C 1475.93 609.646 1471.3 609.975 1468.12 609.787 C 1450.44 589.722 1415.62 560.111 1394.21 544.149 C 1300.95 474.494 1189.66 433.054 1073.56 424.745 C 1037.39 422.017 999.758 422.095 963.8 427.359 C 965.97 423.657 967.393 421.149 969.968 417.749 C 973.204 412.61 976.162 407.45 979.199 402.196 C 981.182 398.12 983.086 394.72 985.299 390.797 C 989.155 382.712 993.115 374.708 996.364 366.359 z" fill="rgb(36,121,99)" transform="translate(0,0)"></path>
<path d="M 979.199 402.196 C 1146.92 390.009 1312.76 443.858 1441.33 552.25 C 1462.34 570.088 1480.36 588.346 1498.96 608.623 C 1498.95 609.249 1499.1 609.932 1498.83 610.497 C 1491.77 609.265 1486.35 608.549 1479.24 609.521 C 1475.93 609.646 1471.3 609.975 1468.12 609.787 C 1450.44 589.722 1415.62 560.111 1394.21 544.149 C 1300.95 474.494 1189.66 433.054 1073.56 424.745 C 1037.39 422.017 999.758 422.095 963.8 427.359 C 965.97 423.657 967.393 421.149 969.968 417.749 C 973.204 412.61 976.162 407.45 979.199 402.196 z" fill="rgb(249,248,236)" transform="translate(0,0)"></path>
<path d="M 969.968 417.749 C 1094.46 407.843 1205.72 427.975 1316.76 486.054 C 1356.16 506.501 1393.19 531.23 1427.17 559.792 C 1442.28 572.705 1466.06 594.667 1479.24 609.521 C 1475.93 609.646 1471.3 609.975 1468.12 609.787 C 1450.44 589.722 1415.62 560.111 1394.21 544.149 C 1300.95 474.494 1189.66 433.054 1073.56 424.745 C 1037.39 422.017 999.758 422.095 963.8 427.359 C 965.97 423.657 967.393 421.149 969.968 417.749 z" fill="rgb(25,97,80)" transform="translate(0,0)"></path>
<path d="M 985.299 390.797 C 1184.71 383.801 1372.78 454.982 1507.87 602.072 C 1512.01 606.58 1517.73 610.384 1521.31 614.91 C 1514.01 613.266 1506 612.418 1498.83 610.497 C 1499.1 609.932 1498.95 609.249 1498.96 608.623 C 1480.36 588.346 1462.34 570.088 1441.33 552.25 C 1312.76 443.858 1146.92 390.009 979.199 402.196 C 981.182 398.12 983.086 394.72 985.299 390.797 z" fill="rgb(25,97,80)" transform="translate(0,0)"></path>
<path d="M 512.086 1463.82 C 412.971 1348.43 358.362 1189.44 359.285 1037.78 C 359.713 906.558 399.141 778.429 472.56 669.672 C 491.326 642.119 507.164 620.938 530.801 597.527 C 533.158 605.249 535.986 612.566 538.824 620.111 C 540.478 623.133 543.627 628.468 544.76 631.466 C 547.612 635.408 550.704 639.99 553.956 643.532 C 555.937 645.514 559.352 648.609 560.555 650.899 C 567.465 658.035 572.576 662.337 580.463 668.548 C 562.106 680.202 553.635 692.247 548.57 713.416 C 539.101 752.984 568.598 794.657 607.633 802.492 C 630.199 807.022 660.381 801.576 676.835 784.484 C 706.537 810.8 737.041 843.606 759.39 876.358 C 752.348 891.636 749.956 900.422 747.715 916.907 L 667.08 964.285 C 635.543 982.924 578.134 1012.54 568.559 1049.72 C 564.943 1063.26 567.05 1077.69 574.386 1089.63 C 590.214 1115.11 629.991 1130.75 657.055 1139.35 C 652.61 1169.72 672.996 1180.74 700.265 1179.96 C 701.159 1184.81 708.114 1209.51 697.077 1207.94 C 680.02 1205.16 664.741 1198.05 649.719 1211.25 C 630.01 1228.57 640.124 1254.56 656.994 1269.35 C 691.854 1299.9 734.054 1310.61 776.541 1290.19 C 747.999 1325.23 715.801 1381.61 700.25 1424.1 C 687.446 1424.06 674.22 1423.86 664.636 1433.77 C 653.513 1445.27 658.238 1461.54 666.327 1472.97 C 658.126 1476.2 649.871 1479.69 641.358 1481.91 C 624.208 1469.51 602.8 1460.93 581.974 1457.29 C 573.66 1456.54 554.403 1457.83 548.981 1456.19 L 548.261 1456.08 C 543.047 1457.17 539.247 1457.13 533.967 1457.33 C 525.452 1459.41 520.263 1460.81 512.086 1463.82 z" fill="rgb(249,248,236)" transform="translate(0,0)"></path>
<path d="M 512.086 1463.82 C 412.971 1348.43 358.362 1189.44 359.285 1037.78 C 359.713 906.558 399.141 778.429 472.56 669.672 C 491.326 642.119 507.164 620.938 530.801 597.527 C 533.158 605.249 535.986 612.566 538.824 620.111 C 540.478 623.133 543.627 628.468 544.76 631.466 C 547.612 635.408 550.704 639.99 553.956 643.532 C 555.937 645.514 559.352 648.609 560.555 650.899 C 459.553 764.4 409.209 925.195 418.056 1076.17 C 424.528 1196.04 466.867 1311.2 539.583 1406.71 C 549.728 1420.12 569.857 1446.81 581.974 1457.29 C 573.66 1456.54 554.403 1457.83 548.981 1456.19 L 548.261 1456.08 C 543.047 1457.17 539.247 1457.13 533.967 1457.33 C 525.452 1459.41 520.263 1460.81 512.086 1463.82 z" fill="rgb(36,121,99)" transform="translate(0,0)"></path>
<path d="M 544.76 631.466 C 547.612 635.408 550.704 639.99 553.956 643.532 C 555.937 645.514 559.352 648.609 560.555 650.899 C 459.553 764.4 409.209 925.195 418.056 1076.17 C 424.528 1196.04 466.867 1311.2 539.583 1406.71 C 549.728 1420.12 569.857 1446.81 581.974 1457.29 C 573.66 1456.54 554.403 1457.83 548.981 1456.19 L 548.261 1456.08 C 545.784 1452.32 542.071 1448.17 539.147 1444.63 C 523.171 1425.31 508.438 1405.09 494.652 1384.13 C 433.179 1290.41 398.181 1181.82 393.361 1069.84 C 386.517 916.107 440.236 745.934 544.76 631.466 z" fill="rgb(249,248,236)" transform="translate(0,0)"></path>
<path d="M 553.956 643.532 C 555.937 645.514 559.352 648.609 560.555 650.899 C 459.553 764.4 409.209 925.195 418.056 1076.17 C 424.528 1196.04 466.867 1311.2 539.583 1406.71 C 549.728 1420.12 569.857 1446.81 581.974 1457.29 C 573.66 1456.54 554.403 1457.83 548.981 1456.19 L 569.766 1456.02 C 563.093 1447.41 553.831 1437.43 546.645 1428.74 C 536.351 1416.05 526.493 1403 517.086 1389.64 C 460.186 1307.14 424.256 1212.02 412.408 1112.5 C 397.343 980.04 425.376 846.248 492.348 730.974 C 512.418 696.752 529.791 674.124 553.956 643.532 z" fill="rgb(25,97,80)" transform="translate(0,0)"></path>
<path d="M 538.824 620.111 C 540.478 623.133 543.627 628.468 544.76 631.466 C 440.236 745.934 386.517 916.107 393.361 1069.84 C 398.181 1181.82 433.179 1290.41 494.652 1384.13 C 508.438 1405.09 523.171 1425.31 539.147 1444.63 C 542.071 1448.17 545.784 1452.32 548.261 1456.08 C 543.047 1457.17 539.247 1457.13 533.967 1457.33 C 530.894 1449.92 496.874 1405.47 489.443 1394.08 C 442.728 1322.52 412.85 1251.7 395.265 1167.95 C 364.102 1012.57 391.37 851.153 471.844 714.634 C 483.755 694.445 499.248 673.519 512.864 654.286 C 520.436 643.592 531.334 631.751 538.301 620.94 L 538.824 620.111 z" fill="rgb(25,97,80)" transform="translate(0,0)"></path>
<path d="M 1384.97 852.1 C 1426.36 817.449 1470.42 818.207 1513.96 848.389 C 1521.2 853.414 1527.74 860.085 1534.96 864.989 C 1558.45 880.918 1591.7 885.467 1619.23 880.834 L 1626.26 879.529 C 1630.59 878.081 1634.94 876.697 1639.32 875.378 C 1651.42 870.512 1658.54 865.135 1669.35 857.709 C 1679.43 880.934 1684.68 908.846 1689.15 933.845 C 1710.17 1052.03 1697.74 1173.74 1653.24 1285.23 C 1586.17 1452.16 1455.7 1585.72 1290.39 1656.69 C 1129.89 1725.15 948.901 1727.76 786.485 1663.96 C 764.901 1655.36 743.789 1645.61 723.24 1634.76 C 713.401 1629.68 695.755 1619.66 686.054 1615.56 C 695.492 1608.44 698.96 1600.71 708.299 1593.81 L 709.282 1593.07 C 718.417 1597.93 746.225 1616.17 754.022 1610.83 C 759.13 1607.38 764.216 1603.9 769.281 1600.38 L 777.7 1595.68 C 784.786 1600.52 810.638 1610.91 819.359 1614.22 C 901.806 1644.85 989.957 1657.08 1077.63 1650.05 C 1190.24 1640.79 1298.15 1600.85 1389.66 1534.57 C 1399.84 1527.17 1432.12 1502.1 1439.21 1493.62 L 1438.19 1492.36 C 1438.25 1492.33 1438.32 1492.3 1438.38 1492.27 C 1445.3 1490.97 1452.17 1489.38 1458.96 1487.52 C 1471.78 1483.24 1477.12 1481.87 1487.97 1474.4 C 1492.92 1470.47 1493.51 1470.42 1497.41 1464.99 C 1499.45 1457.34 1499 1450.4 1498.94 1442.52 L 1498.99 1431.01 C 1498.97 1418.16 1500.44 1358.31 1498.46 1350.04 C 1490.94 1318.53 1407.41 1311.16 1377.81 1310.85 C 1380.32 1277.31 1382.5 1244.13 1380.42 1210.5 C 1378.78 1183.87 1384.48 1155.92 1382.93 1129.84 C 1380.54 1089.75 1380.84 1053 1385.3 1013.13 C 1386.42 1002.84 1384.64 985.21 1383.91 974.552 C 1382.66 956.406 1384.18 939.27 1384.89 921.129 C 1385.23 898.142 1385.02 875.09 1384.97 852.1 z" fill="rgb(249,248,236)" transform="translate(0,0)"></path>
<path d="M 1639.32 875.378 C 1651.42 870.512 1658.54 865.135 1669.35 857.709 C 1679.43 880.934 1684.68 908.846 1689.15 933.845 C 1710.17 1052.03 1697.74 1173.74 1653.24 1285.23 C 1586.17 1452.16 1455.7 1585.72 1290.39 1656.69 C 1129.89 1725.15 948.901 1727.76 786.485 1663.96 C 764.901 1655.36 743.789 1645.61 723.24 1634.76 C 713.401 1629.68 695.755 1619.66 686.054 1615.56 C 695.492 1608.44 698.96 1600.71 708.299 1593.81 L 709.282 1593.07 C 718.417 1597.93 746.225 1616.17 754.022 1610.83 C 759.13 1607.38 764.216 1603.9 769.281 1600.38 L 777.7 1595.68 C 784.786 1600.52 810.638 1610.91 819.359 1614.22 C 901.806 1644.85 989.957 1657.08 1077.63 1650.05 C 1190.24 1640.79 1298.15 1600.85 1389.66 1534.57 C 1399.84 1527.17 1432.12 1502.1 1439.21 1493.62 L 1438.19 1492.36 C 1438.25 1492.33 1438.32 1492.3 1438.38 1492.27 C 1445.3 1490.97 1452.17 1489.38 1458.96 1487.52 C 1471.78 1483.24 1477.12 1481.87 1487.97 1474.4 C 1492.92 1470.47 1493.51 1470.42 1497.41 1464.99 C 1499.45 1457.34 1499 1450.4 1498.94 1442.52 L 1498.99 1431.01 C 1606.23 1305.02 1658.8 1137.58 1637.91 973.182 C 1633.92 941.842 1626.43 911.533 1619.23 880.834 L 1626.26 879.529 C 1630.59 878.081 1634.94 876.697 1639.32 875.378 z" fill="rgb(36,121,99)" transform="translate(0,0)"></path>
<path d="M 1458.96 1487.52 C 1471.78 1483.24 1477.12 1481.87 1487.97 1474.4 L 1488.7 1478.56 C 1365.07 1605.18 1210.18 1673.9 1032.5 1676.03 C 949.514 1676.8 867.246 1660.58 790.763 1628.36 C 783.522 1625.3 759.33 1615 754.022 1610.83 C 759.13 1607.38 764.216 1603.9 769.281 1600.38 L 777.7 1595.68 C 784.786 1600.52 810.638 1610.91 819.359 1614.22 C 901.806 1644.85 989.957 1657.08 1077.63 1650.05 C 1190.24 1640.79 1298.15 1600.85 1389.66 1534.57 C 1399.84 1527.17 1432.12 1502.1 1439.21 1493.62 L 1438.19 1492.36 C 1438.25 1492.33 1438.32 1492.3 1438.38 1492.27 C 1445.3 1490.97 1452.17 1489.38 1458.96 1487.52 z" fill="rgb(249,248,236)" transform="translate(0,0)"></path>
<path d="M 1438.19 1492.36 C 1438.25 1492.33 1438.32 1492.3 1438.38 1492.27 C 1445.3 1490.97 1452.17 1489.38 1458.96 1487.52 C 1337.25 1603.41 1174.06 1665.51 1006.09 1659.87 C 936.852 1657.62 828.952 1635.96 769.281 1600.38 L 777.7 1595.68 C 784.786 1600.52 810.638 1610.91 819.359 1614.22 C 901.806 1644.85 989.957 1657.08 1077.63 1650.05 C 1190.24 1640.79 1298.15 1600.85 1389.66 1534.57 C 1399.84 1527.17 1432.12 1502.1 1439.21 1493.62 L 1438.19 1492.36 z" fill="rgb(25,97,80)" transform="translate(0,0)"></path>
<path d="M 1639.32 875.378 C 1642.71 879.123 1646.82 898.016 1648.36 904.142 C 1698.38 1103.8 1638.48 1313.93 1500.66 1465.83 L 1497.41 1464.99 C 1499.45 1457.34 1499 1450.4 1498.94 1442.52 L 1498.99 1431.01 C 1606.23 1305.02 1658.8 1137.58 1637.91 973.182 C 1633.92 941.842 1626.43 911.533 1619.23 880.834 L 1626.26 879.529 C 1630.59 878.081 1634.94 876.697 1639.32 875.378 z" fill="rgb(249,248,236)" transform="translate(0,0)"></path>
<path d="M 1619.23 880.834 L 1626.26 879.529 C 1633.32 905.15 1639.35 928.036 1643.51 954.371 C 1663.89 1088.73 1638.11 1226.02 1570.35 1343.82 C 1555.34 1370.23 1520.35 1421.43 1498.94 1442.52 L 1498.99 1431.01 C 1606.23 1305.02 1658.8 1137.58 1637.91 973.182 C 1633.92 941.842 1626.43 911.533 1619.23 880.834 z" fill="rgb(25,97,80)" transform="translate(0,0)"></path>
<path d="M 1497.41 1464.99 L 1500.66 1465.83 C 1496.5 1470.04 1492.68 1474.2 1488.7 1478.56 L 1487.97 1474.4 C 1492.92 1470.47 1493.51 1470.42 1497.41 1464.99 z" fill="rgb(254,254,254)" transform="translate(0,0)"></path>
<path d="M 773.595 416.242 C 809.135 422.486 827.209 434.314 855.913 455.741 C 835.701 450.781 817.134 447.066 797.52 456.175 C 781.651 463.544 779.327 490.9 802.28 488.639 C 816.82 487.206 826.697 478.936 840.864 477.57 C 853.931 477.333 867.769 483.637 880.272 486.666 C 892.585 504.037 899.035 524.382 903.597 544.969 L 901.826 550.239 C 893.074 532.993 876.53 512.806 856.495 510.388 C 824.102 506.478 811.145 527.43 807.771 555.103 C 786.233 539.957 754.913 539.262 738.734 562.965 C 724.426 583.928 725.617 606.566 729.594 630.634 C 728.757 630.679 727.922 630.741 727.088 630.818 C 718.066 631.674 706.005 635.551 700.147 642.697 C 704.053 644.779 718.471 637.075 723.04 635.887 C 726.169 635.073 729.435 634.487 732.607 633.918 C 724.879 638.096 704.219 649.115 702.517 658.325 C 708.216 660.574 739.296 629.218 753.011 636.3 C 755.693 642.772 753.575 667.607 753.43 676.405 C 757.759 681.488 762.26 688.533 767.095 692.951 C 799.893 722.922 847.629 711.665 856.264 665.174 C 857.992 655.87 857.205 648.459 856.744 639.17 C 872.027 625.678 888.784 618.166 908.872 616.196 C 961.432 611.043 971.483 659.844 925.02 680.963 C 919.314 683.557 900.004 686.775 897.17 689.905 L 897.623 692.087 C 905.939 697.564 932.47 685.951 940.263 679.818 C 956.945 666.687 969.501 643.116 953.589 624.34 C 943.392 612.308 926.145 610.565 911.651 609.528 C 911.751 601.374 912.513 592.37 913.036 584.166 C 937.877 587.319 964.201 598.092 985.091 611.724 C 1011.92 629.169 1030.73 656.555 1037.38 687.862 C 1041.21 706.223 1040.57 724.881 1036.12 743.029 C 1015.82 825.976 935.164 875.588 856.918 891.976 L 856.062 893.908 C 860.364 903.589 901.413 886.666 909.773 883.729 C 899.193 903.292 894.098 918.338 886.805 939.097 C 882.531 932.831 878.658 927.734 873.973 921.753 C 837.772 911.539 808.191 901.022 772.734 887.999 C 768.706 879.793 762.8 869.856 757.513 862.581 C 744.327 844.434 697.136 789.706 680.268 779.944 C 684.792 773.477 692.314 762.152 692.103 754.003 L 690.822 753.395 C 685.444 756.033 684.355 762.094 681.871 767.218 C 666.674 798.567 622.896 806.06 593.458 791.5 C 576.214 783.025 563.01 768.088 556.715 749.934 C 550.954 732.902 552.182 714.281 560.132 698.153 C 565.199 687.831 573.483 679.435 583.736 674.229 C 622.807 654.14 651.62 687.311 661.57 684.03 L 660.968 681.627 C 652.219 672.136 621.481 660.165 607.894 661.722 C 603.514 662.224 589.488 664.269 587.803 663.978 C 586.383 662.336 585.254 661.661 584.955 659.44 C 582.543 641.511 639.709 552.871 652.937 536.109 C 673.13 530.717 688.772 522.743 703.221 507.364 C 705.496 503.997 718.626 490.638 721.862 488.657 C 740.071 468.592 759.113 439.061 773.595 416.242 z" fill="rgb(161,58,72)" transform="translate(0,0)"></path>
<path d="M 722.632 490.316 C 737.896 481.436 768.167 472.74 766.169 505.515 C 765.648 514.058 745.368 516.281 740.135 520.285 C 733.407 523.957 727.77 529.45 723.861 535.997 C 719.778 542.836 712.13 567.978 700.495 563.963 C 688.515 559.829 693.148 533.362 696.331 525.069 C 698.479 519.55 701.059 514.209 704.047 509.096 L 703.221 507.364 C 705.496 503.997 718.626 490.638 721.862 488.657 L 722.632 490.316 z" fill="rgb(0,0,0)" transform="translate(0,0)"></path>
<path d="M 703.221 507.364 C 705.496 503.997 718.626 490.638 721.862 488.657 L 722.632 490.316 C 717.352 495.719 710.116 500.243 705.316 507.712 C 704.893 508.173 704.47 508.635 704.047 509.096 L 703.221 507.364 z" fill="rgb(54,33,36)" transform="translate(0,0)"></path>
<path d="M 732.16 665.156 C 737.272 664.921 737.844 665.084 742.287 667.634 L 742.732 669.314 C 739.687 672.073 734.975 671.931 730.336 672.866 C 723.88 680.287 749.724 703.978 755.507 708.67 C 799.523 744.381 857.858 725.307 907.557 716.016 C 921.336 713.439 949.716 721.512 951.092 737.915 C 947.248 738.089 938.508 728.472 932.742 724.802 C 925.401 745.997 916.534 767.933 904.742 787.068 C 902.498 790.71 897.288 798.077 896.24 801.826 L 898.038 801.32 C 903.384 796.949 912.077 785.823 916.071 785.341 L 917.243 786.726 C 917.086 789.624 916.781 790.459 914.653 792.718 C 874.772 835.051 802.394 841.291 759.524 799.633 C 724.954 766.04 725.297 718.873 724.625 673.823 C 720.857 680.637 717.824 692.954 714.407 695.335 L 713.552 693.954 C 712.579 680.198 719.28 670.115 732.16 665.156 z" fill="rgb(0,0,0)" transform="translate(0,0)"></path>
<path d="M 793.041 767.174 C 816.44 770.712 829.029 770.847 852.015 770.928 C 852.179 780.644 853.369 812.37 852.484 820.543 C 827.332 823.316 818.339 823.422 793.795 815.681 C 793.296 799.629 792.692 783.241 793.041 767.174 z" fill="rgb(254,254,254)" transform="translate(0,0)"></path>
<path d="M 905.677 721.284 C 909.386 720.675 927.858 719.526 927.541 723.449 C 927.049 729.541 916.636 751.748 914.043 757.72 C 903.264 759.656 890.554 762.291 879.76 763.142 C 871.111 764.415 864.781 764.947 856.106 765.213 C 855.993 753.987 855.955 742.761 855.995 731.535 C 863.225 730.346 869.872 728.785 877.012 727.236 L 886.011 725.212 C 892.664 723.772 898.939 722.355 905.677 721.284 z" fill="rgb(254,254,254)" transform="translate(0,0)"></path>
<path d="M 730.726 690.502 C 734.272 694.215 736.703 698.861 741.337 703.38 C 756.78 718.438 768.759 724.708 788.211 731.509 C 788.283 741.215 788.227 750.921 788.041 760.625 C 774.954 757.65 747.224 749.381 734.806 744.301 C 731.418 724.578 730.753 710.381 730.726 690.502 z" fill="rgb(254,254,254)" transform="translate(0,0)"></path>
<path d="M 905.74 764.38 C 906.928 764.076 908.307 763.754 909.494 763.877 C 909.895 763.918 910.526 764.211 910.461 764.425 C 907.274 774.885 890.575 801.133 886.503 808.791 C 876.212 813.542 872.094 814.98 861.22 818.133 C 860.855 818.207 857.409 819.141 857.376 818.379 C 856.711 803.289 856.129 785.068 856.469 770.219 C 873.192 768.933 889.17 766.558 905.74 764.38 z" fill="rgb(254,254,254)" transform="translate(0,0)"></path>
<path d="M 792.998 732.464 C 820.509 736.194 825.404 734.624 851.566 732.542 L 851.651 764.664 C 846.686 768.863 801.081 763.338 793.005 761.985 C 792.914 752.145 792.911 742.304 792.998 732.464 z" fill="rgb(254,254,254)" transform="translate(0,0)"></path>
<path d="M 737.266 750.582 C 754.453 755.612 770.31 761.585 787.973 766.391 C 788.243 782.326 789.125 797.838 789.227 813.794 C 761.796 801.142 745.978 778.725 737.266 750.582 z" fill="rgb(254,254,254)" transform="translate(0,0)"></path>
<path d="M 597.126 703.45 C 605.273 702.758 612.741 702.516 621.185 704.577 C 636.764 708.484 652.224 717.843 661.127 731.455 C 661.865 732.584 662.181 735.448 660.46 735.869 C 657.412 736.695 654.52 732.305 652.741 730.233 C 648.147 724.883 644.208 722.157 638.182 718.544 C 632.186 724.416 630.576 726.69 626.505 734.014 C 624.474 741.544 622.699 747.589 625.474 755.309 C 626.412 757.918 629.687 762 627.436 764.411 C 626.811 765.082 625.89 765.392 624.986 765.236 C 623.898 765.056 622.543 763.889 621.991 762.997 C 612.813 748.174 621.829 727.239 631.697 715.741 L 632.909 714.3 C 619.062 708.845 612.177 708.492 597.46 709.048 C 593.26 709.206 593.229 705.699 597.126 703.45 z" fill="rgb(0,0,0)" transform="translate(0,0)"></path>
<path d="M 789.074 841.57 C 796.298 844.133 804.464 851.225 815.508 853.924 C 822.856 856.653 830.399 856.861 837.893 858.216 C 838.818 858.383 838.821 862.574 838.836 862.847 C 827.718 862.521 788.45 855.822 789.074 841.57 z" fill="rgb(0,0,0)" transform="translate(0,0)"></path>
<path d="M 1468.75 616.413 C 1491.26 613.853 1521.28 620.279 1541.22 630.686 C 1553.19 636.927 1564.18 643.772 1576.56 649.746 C 1603.4 662.692 1631.1 663.993 1657.57 649.526 C 1675.19 639.899 1683.27 633.638 1702.45 626.786 C 1746.25 611.131 1774.53 621.727 1813.98 640.334 C 1812.59 677.571 1806.5 717.7 1805.24 755.476 C 1804.18 786.891 1805.65 816.026 1806.15 847.18 C 1773.15 831.248 1756.97 821.903 1719.24 828.428 C 1679.57 837.858 1661.9 860.921 1626.55 872.371 C 1601.73 879.42 1557.92 875.431 1537.95 858.277 C 1489.15 816.367 1440.14 804.758 1384.89 843.019 C 1384.63 821.685 1383.5 797.875 1385.88 776.972 C 1389.36 746.435 1387.59 718.829 1385.74 688.34 C 1384.87 674.032 1385.73 657.05 1385.94 642.485 C 1407.93 628.115 1442.62 618.835 1468.75 616.413 z" fill="rgb(161,58,72)" transform="translate(0,0)"></path>
<path d="M 895.777 930.006 C 903.806 941.278 911.434 952.83 918.647 964.642 C 921.042 968.594 927.602 981.742 930.449 982.851 C 939.02 974.254 928.679 902.735 924.896 887.546 C 982.045 944.337 1019.53 1059.88 1039.07 1137.09 C 989.982 1164.68 886.672 1182.42 830.624 1178.22 C 824.482 1147.08 806.944 1117.81 780.299 1099.94 C 777.533 1067.7 768.384 1034.69 762.286 1002.86 C 761.443 998.463 761.295 984.283 759.976 982.472 C 750.703 982.922 681.612 1024.42 670.324 1033.62 C 663.413 1039.25 661.973 1042.67 659.541 1050.98 C 655.421 1047.69 652.977 1045.07 647.887 1043.99 L 646.124 1044.46 C 648.464 1052.66 684.141 1076.1 692.812 1080.65 C 698.383 1083.58 712.706 1091.18 716.668 1094.76 C 718.133 1101.81 713.564 1109.69 709.768 1115.41 C 704.016 1124.08 695.664 1134.8 684.958 1136.95 C 665.121 1140.95 619.941 1119.92 603.389 1108.29 C 590.116 1098.96 578.182 1086.5 575.27 1069.92 C 572.867 1056.24 577.006 1043.54 585.099 1032.56 C 605.946 1004.26 686.509 959.912 720.786 940.296 C 732.191 933.77 746.433 927.535 756.586 919.34 C 757.512 918.468 758.455 917.614 759.416 916.78 C 787.677 961.723 803.803 977.043 844.635 1008.1 C 851.087 985.03 860.426 949.239 870.674 927.872 C 876.039 934.081 883.436 943.775 888.631 949.145 C 891.111 942.802 893.493 936.422 895.777 930.006 z" fill="rgb(254,208,24)" transform="translate(0,0)"></path>
<path d="M 1039.73 1142.96 C 1049.55 1169.97 1036.24 1206.03 1016.6 1225.53 C 1012.9 1229.21 1001.04 1237.81 1002.6 1242.21 L 1006.88 1243.29 C 1009.75 1247.5 974.804 1382.03 972.1 1397.46 C 970.827 1404.72 957.307 1439.29 958.75 1444.01 L 960.525 1444.95 C 964.827 1442.55 967.231 1429.85 968.548 1425.02 C 978.205 1424.84 996.712 1424.35 1001.25 1435.05 C 1002.48 1437.97 1001.14 1444.31 998.928 1446.76 C 979.298 1468.45 945.809 1484.42 917.939 1492.44 C 897.516 1496.9 883.685 1496.78 865.217 1486.83 C 845.533 1476.21 869.467 1445.83 878.829 1444.9 L 881.907 1447.5 L 883.113 1446.88 C 885.235 1441.35 886.807 1435.88 888.293 1430.15 C 901.317 1379.96 917.266 1330.74 932.031 1281.05 C 935.393 1279.5 938.893 1278.48 939.679 1274.67 C 932.015 1272.25 919.063 1278.59 910.907 1279.62 C 900.797 1280.89 888.628 1278.98 879.005 1281.75 C 871.144 1284.02 835.667 1338.67 829.079 1349.8 C 808.738 1384.96 791.509 1425.81 778.704 1464.69 C 778.034 1466.72 779.302 1468.01 780.515 1469.29 L 781.699 1468.81 C 784.642 1465.48 784.892 1464.07 786.475 1459.92 L 787.009 1458.5 C 799.194 1469.8 810.769 1484.12 796.997 1500.35 C 769.541 1532.7 664.294 1486.19 663.15 1451.69 C 662.952 1446.39 664.921 1441.24 668.605 1437.43 C 676.512 1429.1 689.104 1428.99 699.664 1429.02 C 697.009 1434.91 694.656 1438.54 696.309 1444.94 L 697.622 1444.28 C 702.514 1436.39 710.492 1414.47 715.064 1404.36 C 725.012 1382.78 736.185 1361.79 748.527 1341.48 C 759.192 1323.89 771.226 1305.39 783.796 1289.12 C 794.946 1274.69 810.089 1262.03 817.974 1244.95 C 828.153 1222.91 831.247 1207.2 830.981 1183.39 C 895.466 1186.36 981.854 1171.53 1039.73 1142.96 z" fill="rgb(254,208,24)" transform="translate(0,0)"></path>
<path d="M 548.559 1463.42 C 561.722 1462.75 574.919 1463.55 587.904 1465.81 C 620.054 1471.66 643.766 1486.58 663.435 1512.74 C 667.868 1518.63 670.826 1525.18 675.211 1531.46 L 677.27 1531.55 L 678.007 1529.66 C 675.628 1518 655.028 1496.4 646.33 1487.58 C 654.375 1484.22 662.758 1480.46 671.104 1478.07 C 702.54 1503.07 748.097 1523.98 788.662 1512.92 C 793.085 1541.54 782.39 1540.12 757.929 1548.4 C 752.826 1550.12 747.4 1551.78 742.248 1553.44 C 728.607 1558.18 712.117 1564.39 699.298 1571.07 C 677.137 1582.63 663.42 1591.45 638.511 1597.91 C 585.704 1611.63 525.157 1611.06 477.037 1583.22 C 445.082 1522.69 482.474 1468.24 548.559 1463.42 z" fill="rgb(254,208,24)" transform="translate(0,0)"></path>
<path d="M 1111.62 1433.43 C 1121.41 1432.69 1132.72 1434.32 1142.23 1436.15 C 1185.77 1444.57 1214.45 1475.81 1203.41 1521.73 C 1200.53 1533.73 1196.17 1541.95 1184.88 1548.3 C 1168.87 1557.32 1149.52 1558.71 1131.72 1562.05 C 1087.15 1568.84 1040.46 1568.72 996.484 1558.27 C 983.126 1555.09 969.954 1548.87 956.772 1544.97 C 936.654 1538.68 917.033 1533.22 896.676 1527.85 C 883.737 1524.77 871.978 1522.13 859.661 1516.89 C 859.084 1508.41 860.019 1499.22 860.763 1490.77 C 904.163 1516.69 973.849 1480.91 1004.87 1448.75 C 1013.66 1451.89 1019.49 1454.39 1027.96 1458.38 C 1020.24 1466.03 993.245 1494.27 994.778 1504.96 L 996.776 1505.73 C 1001.41 1502.25 1008.31 1485.82 1014.19 1479.88 C 1019.7 1474.3 1029.95 1460.73 1036.06 1456.38 C 1056.26 1442 1087.65 1435.37 1111.62 1433.43 z" fill="rgb(254,208,24)" transform="translate(0,0)"></path>
<path d="M 951.741 263.407 C 984.147 265.003 996.432 277.737 998.262 310.329 C 1001.44 366.868 941.911 465.836 889.321 485.233 C 878.266 472.823 875.173 464.431 860.606 450.184 C 835.985 428.919 809.155 417.157 778.354 408.44 C 815.817 351.743 879.078 268.895 951.741 263.407 z" fill="rgb(254,208,24)" transform="translate(0,0)"></path>
<path d="M 738.524 363.401 C 748.117 362.041 764.017 363.102 773.638 364.454 C 755.631 389.532 734.704 413.528 716.224 438.343 C 687.918 476.354 657.46 513.64 631.298 553.176 C 616.325 575.802 602.568 599.209 590.085 623.298 C 586.728 629.66 578.487 651.018 575.439 653.535 L 573.273 652.311 C 492.095 577.987 550.335 469.968 620.928 414.308 C 659.504 383.892 689.247 367.971 738.524 363.401 z" fill="rgb(254,208,24)" transform="translate(0,0)"></path>
<path d="M 1240.91 1370.47 C 1295.83 1413.01 1434.86 1407.41 1493.59 1371.63 C 1494.72 1387.35 1495.96 1450.68 1491.66 1462.56 C 1490.47 1463.89 1489.24 1465.17 1487.98 1466.42 C 1450.58 1503.09 1285.47 1502.01 1244.07 1466.14 C 1236.6 1459.67 1240.61 1384.15 1240.91 1370.47 z" fill="rgb(161,58,72)" transform="translate(0,0)"></path>
<path d="M 750.554 1093.4 C 788.31 1100.02 823.242 1146.35 825.115 1183.91 C 827.678 1235.32 794.466 1290.97 738.829 1293.33 C 712.208 1295.21 684.873 1284.68 664.852 1267.13 C 648.675 1252.95 638.219 1234.15 656.121 1216.02 L 657.06 1215.08 C 670.166 1208.64 679.782 1211.28 693.188 1215.11 C 686.869 1225.26 681.054 1240.71 689.918 1252.47 C 691.544 1254.63 692.535 1255.56 695.136 1255.69 C 699.793 1247.92 675.962 1238.95 706.949 1209.84 C 712.983 1221.53 716.153 1227.44 724.498 1237.52 C 718.645 1245.22 714.849 1266.01 724.392 1270.18 C 730.005 1267.25 720.991 1253.53 725.479 1244.06 C 727.861 1242.35 726.554 1242.78 729.565 1242.86 C 732.817 1246.1 733.476 1247.84 738.043 1246.66 L 738.873 1245.1 C 737.901 1242.7 727.981 1233.89 725.025 1230.14 C 712.038 1213.7 709.445 1199.3 706.583 1179.17 C 738.847 1159.2 756.855 1131.6 750.554 1093.4 z" fill="rgb(254,254,254)" transform="translate(0,0)"></path>
<path d="M 1131.65 714.265 C 1172.34 712.083 1190.81 747.043 1185.99 783.379 C 1185.22 789.16 1184.38 795.393 1184.02 801.198 C 1186.51 802.199 1199.34 802.122 1206.6 803.921 L 1208.11 804.305 C 1189.96 819.921 1176.55 835.057 1174.07 859.764 C 1171.63 884.022 1180.62 895.667 1204.26 897.932 C 1202.72 917.061 1206.14 924.924 1223.7 932.701 C 1217.7 952.618 1221.61 961.739 1236.9 974.636 C 1224.83 972.196 1215.73 969.076 1206.49 960.564 C 1203.03 957.383 1200.14 954.205 1195.98 952.205 L 1194.96 953.095 C 1201.09 972.672 1232.23 975.731 1231.64 983.584 C 1225.11 989.879 1216.11 989.903 1207.63 990.02 C 1179.47 986.212 1146.72 969.103 1131.7 944.306 C 1124.31 932.106 1128.59 923.522 1139.85 916.796 C 1153.67 930.436 1168.79 941.033 1189.01 942.542 C 1192.92 942.834 1193.63 942.97 1195.88 940.996 L 1195.72 938.233 L 1194.04 937.202 C 1170.39 937.261 1147.46 922.352 1136.73 901.566 C 1124.73 878.315 1120.19 839.916 1140.11 819.901 C 1136.28 806.42 1132.99 791.107 1126.88 778.584 C 1121.08 766.529 1110.58 755.257 1106.97 742.319 C 1102.27 725.534 1118.1 717.355 1131.65 714.265 z" fill="rgb(254,254,254)" transform="translate(0,0)"></path>
<path d="M 958.985 918.859 C 992.149 942.866 1052 989.03 1091.82 994.266 C 1088.91 997.647 1082.1 1005.08 1080.91 1009.15 C 1090.06 1011.17 1127.36 965.651 1134.69 957.481 C 1154.25 977.334 1165.54 983.429 1192.12 992.584 C 1179.9 1020.43 1157.3 1051.67 1128.17 1063.79 C 1093.97 1078.03 1053.98 1043.68 1028.17 1024.64 C 1019.55 1018.28 1011.33 1010.25 1001.87 1005.64 C 987.432 974.874 976.323 949.653 957.902 921.167 L 958.985 918.859 z" fill="rgb(254,208,24)" transform="translate(0,0)"></path>
<path d="M 795.577 1526.76 C 803.168 1535.81 802.711 1559.64 803.206 1571.96 C 788.514 1583.61 765.916 1596.94 749.414 1606.34 C 748.374 1597.4 747.423 1575.45 745.273 1568.74 C 731.106 1566.67 693.44 1601.05 682.392 1609.27 C 671.507 1617.37 654.621 1622.95 641.965 1628.43 C 591.651 1650.21 528.009 1644.78 478.765 1622.96 C 460.923 1614.44 446.72 1610.11 453.905 1585.81 C 455.707 1579.72 460.508 1577.84 465.808 1575.33 C 466.705 1577.83 468.535 1583.11 470.242 1584.98 C 484.774 1600.86 521.518 1607.46 540.867 1610.26 C 578.455 1615.7 633.611 1609.82 667.852 1593.21 C 687.949 1583.47 699.219 1574.87 722.71 1566.07 C 741.341 1559.09 778.319 1549.11 792.388 1538.32 C 793.661 1534.69 794.616 1530.52 795.577 1526.76 z" fill="rgb(254,208,24)" transform="translate(0,0)"></path>
<path d="M 770.082 549.278 C 794.111 547.779 811.262 561.038 823.353 580.42 C 817.557 587.408 815.749 590.209 815.135 599.475 C 814.036 616.088 829.989 644.374 848.185 626.699 C 849.523 632.039 850.436 637.191 851.445 642.591 C 842.144 655.079 828.602 661.627 814.705 667.683 C 795.172 675.099 779.959 676.601 759.405 673.796 C 758.912 662.058 760.963 650.291 760.062 638.982 C 759.007 625.746 743.774 630.718 736.603 632.736 C 735.616 629.619 734.737 626.469 733.969 623.291 C 726.947 593.619 735.831 556.021 770.082 549.278 z" fill="rgb(254,254,254)" transform="translate(0,0)"></path>
<path d="M 850.3 1520.58 L 850.21 1519.45 C 849.884 1514.27 848.799 1510.48 853.168 1506.65 L 854.388 1507.92 C 854.897 1511.91 853.869 1514.98 852.988 1518.93 C 884.868 1535.47 934.973 1541.19 970.273 1555.64 C 1031.93 1580.88 1112.38 1575.08 1175.81 1559.43 C 1187.29 1556.59 1198.92 1547.05 1205.62 1537.58 C 1210.23 1544.08 1215.43 1550.54 1214.09 1559.1 C 1211.43 1576.13 1185.52 1582.57 1171.51 1586.02 C 1099.7 1603.75 1028.78 1593.75 958.07 1575.89 L 953.736 1563.94 C 940.106 1558.92 926.567 1553.65 913.127 1548.14 C 913.619 1556.28 915.981 1571.55 912.733 1578.07 C 907.49 1580.38 857.583 1560.51 849.046 1557.36 C 849.823 1545.86 849.345 1530.57 850.3 1520.58 z" fill="rgb(254,208,24)" transform="translate(0,0)"></path>
<path d="M 842.692 515.179 C 887.469 511.577 907.294 563.843 905.912 601.043 C 892.917 611.125 884.353 615.778 869.747 622.513 C 864.678 624.761 859.535 627.661 854.619 630.286 C 852.816 622.578 855.071 615.705 855.079 608.511 C 855.111 578.116 838.911 585.406 823.439 570.75 C 821.272 568.697 815.488 560.937 812.617 557.63 C 814.584 536.659 821.47 521.763 842.692 515.179 z" fill="rgb(254,254,254)" transform="translate(0,0)"></path>
<path d="M 1286.54 843.25 C 1288.34 843.077 1290.14 842.938 1291.94 842.832 C 1322.54 841.119 1340.56 872.328 1317.05 897.607 C 1291.79 895.994 1267.38 904.195 1245.46 916.004 C 1239.5 919.341 1233.87 923.564 1228.29 927.524 C 1220.22 924.145 1210.1 918.322 1209.83 908.983 C 1208.72 869.644 1258.17 848.295 1286.54 843.25 z" fill="rgb(254,254,254)" transform="translate(0,0)"></path>
<path d="M 1250.5 797.423 C 1278.65 798.629 1293.38 806.32 1296.74 836.042 C 1261.78 838.455 1234.18 850.629 1213.42 879.223 C 1209.8 884.936 1208.66 887.314 1205.96 893.407 C 1165.85 886.971 1177.61 847.07 1195.69 824.203 C 1210.03 806.064 1227.96 799.523 1250.5 797.423 z" fill="rgb(254,254,254)" transform="translate(0,0)"></path>
<path d="M 936.423 249.29 C 954.762 247.434 965.074 251.212 979.896 261.055 C 894.876 237.816 823.959 333.314 780.057 393.327 C 751.189 432.788 727.617 479.142 689.237 511.263 C 678.247 519.945 671.716 522.752 658.593 526.918 C 676.748 497.388 710.055 457.791 731.575 429.865 C 778.204 369.357 857.132 261.527 936.423 249.29 z" fill="rgb(254,208,24)" transform="translate(0,0)"></path>
<path d="M 753.793 992.049 C 756.505 994.795 771.594 1083.56 773.593 1095.81 C 764.493 1091.3 759.868 1088.97 749.695 1087.73 L 748.756 1086.34 C 738.357 1070.76 725.173 1065.4 706.969 1069.96 C 702.152 1072.01 700.162 1073.39 695.818 1076.17 C 687.513 1071.62 670.695 1062.49 665.868 1054.63 C 664.069 1035.79 737.044 1001.44 753.793 992.049 z" fill="rgb(249,248,236)" transform="translate(0,0)"></path>
<path d="M 761.904 885.689 C 771.391 896.401 848.598 919.893 866.52 925.145 C 858.437 943.579 851.182 965.452 845.629 984.749 L 841.83 999.67 C 807.951 973.263 772.981 939.679 757.073 898.853 C 758.548 894.534 760.316 889.998 761.904 885.689 z" fill="rgb(254,208,24)" transform="translate(0,0)"></path>
<path d="M 1307.06 903.412 C 1362.68 900.902 1324.11 977.299 1255.9 972.576 C 1224.93 967.526 1215.37 940.664 1243.13 923.292 C 1262.2 911.355 1284.78 905.507 1307.06 903.412 z" fill="rgb(254,254,254)" transform="translate(0,0)"></path>
<path d="M 708.031 1075.17 C 719.693 1073.91 732.496 1074.77 739.785 1085.61 C 757.352 1111.72 741.25 1147.26 717.631 1163.6 C 705.333 1172.11 695.04 1173.35 680.749 1170.54 C 674.532 1167.48 671.673 1166.07 666.224 1159.87 C 664.112 1157.46 658.661 1145.42 662.335 1141.32 C 662.695 1140.91 668.927 1142.28 670.31 1142.52 C 680.613 1144.31 690.039 1142.31 698.447 1135.92 C 709.312 1127.61 719.441 1112.37 721.473 1099.24 C 723.583 1087.32 709.599 1084.93 702.643 1079.27 C 700.748 1077.73 708.189 1075.1 708.031 1075.17 z" fill="rgb(254,254,254)" transform="translate(0,0)"></path>
<path d="M 1353.12 1344.44 C 1354.71 1344.3 1356.5 1344.37 1358.12 1344.38 C 1360.35 1347.13 1359.89 1379.8 1359.94 1385.9 C 1349.14 1387.07 1337.69 1389.89 1327.92 1390.94 C 1312.38 1392.6 1285.39 1385.22 1270.76 1380.24 C 1261.94 1376.6 1255.33 1374.1 1248.1 1367.7 C 1277.05 1350.34 1319.61 1346.54 1353.12 1344.44 z" fill="rgb(254,254,254)" transform="translate(0,0)"></path>
<path d="M 1377.03 1344.54 C 1411.47 1344.94 1457.09 1349.15 1486.75 1367.68 C 1480.39 1372.4 1477.48 1373.87 1470.31 1377.43 C 1458.31 1382.83 1421.65 1392.94 1408.91 1391.2 C 1399.61 1389.92 1391.51 1387.04 1379.04 1386.5 L 1377.05 1386.43 L 1377.03 1344.54 z" fill="rgb(254,254,254)" transform="translate(0,0)"></path>
<path d="M 1340.66 1316.42 C 1345.15 1315.91 1353.78 1316.04 1358.56 1316 L 1358.42 1338.58 C 1323.35 1339.88 1288.05 1344.43 1255.37 1357.69 C 1251.8 1359.6 1245.95 1363.57 1242.64 1363.33 C 1238.28 1357.25 1239.53 1348.28 1244.81 1343.68 C 1268.02 1323.52 1311.7 1318.13 1340.66 1316.42 z" fill="rgb(137,48,57)" transform="translate(0,0)"></path>
<path d="M 1377.37 1315.89 C 1378.5 1315.87 1379.62 1315.87 1380.74 1315.88 C 1407.2 1315.98 1468.33 1324.34 1488.88 1343.68 C 1494.67 1349.12 1493.83 1356.97 1493.63 1364.33 C 1462.67 1343.47 1413.65 1339.8 1376.92 1338.16 C 1376.95 1330.73 1377.1 1323.31 1377.37 1315.89 z" fill="rgb(137,48,57)" transform="translate(0,0)"></path>
<path d="M 850.763 651.003 C 854.412 655.176 846.867 679.039 843.651 683.708 C 837.261 692.986 828.488 700.106 817.484 702.747 C 804.439 705.79 790.716 703.334 779.536 695.956 C 779.054 695.624 778.572 695.293 778.089 694.962 L 776.617 693.984 C 770.072 688.563 768.508 686.458 763.088 679.922 C 798.601 681.277 823.486 675.558 850.763 651.003 z" fill="rgb(161,58,72)" transform="translate(0,0)"></path>
<path d="M 917.246 882.622 C 926.303 895.5 928.358 952.421 927.99 970.024 C 925.385 965.746 922.509 961.581 919.759 957.39 C 913.582 947.629 904.209 931.56 896.977 923.527 C 903.1 907.382 909.168 897.199 917.246 882.622 z" fill="rgb(254,208,24)" transform="translate(0,0)"></path>
<path d="M 611.886 387.183 C 623.045 386.341 626.077 386.144 635.798 391.3 L 637.516 392.196 L 636.652 392.819 C 621.463 403.548 612.806 410.456 599.213 423.491 C 594.944 427.721 591.475 431.46 587.45 435.899 C 578.6 413.501 588.33 393.279 611.886 387.183 z" fill="rgb(254,208,24)" transform="translate(0,0)"></path>
<path d="M 740.048 1574.85 C 742.651 1576.84 743.481 1600.07 743.904 1605.34 C 737.68 1602.15 733.454 1599.9 727.384 1596.48 C 723.323 1594.04 719.347 1591.64 715.165 1589.41 C 723.481 1584.74 731.754 1579.66 740.048 1574.85 z" fill="rgb(254,208,24)" transform="translate(0,0)"></path>
<path d="M 919.023 1556.16 C 926.413 1559.11 933.77 1562.13 941.094 1565.24 C 938.561 1567.15 936.316 1568.53 933.668 1570.2 C 928.906 1572.88 924.191 1575.64 919.525 1578.49 C 918.986 1570.66 919.01 1564.03 919.023 1556.16 z" fill="rgb(254,208,24)" transform="translate(0,0)"></path>
<path d="M 1352.57 1391.36 C 1354.43 1391.09 1359.85 1390.05 1360.36 1392.73 C 1359.05 1395.45 1352.58 1394.3 1349.97 1394.26 C 1348.55 1394.17 1343.8 1394.16 1342.9 1393.4 L 1342.92 1393.27 C 1344.11 1391.88 1350.6 1391.61 1352.57 1391.36 z" fill="rgb(254,254,254)" transform="translate(0,0)"></path>
<path d="M 1390.99 1394.12 C 1387.55 1394.09 1378.88 1395.62 1376.98 1393.17 C 1377.31 1389.31 1388.52 1391.69 1391.23 1391.88 L 1390.99 1394.12 z" fill="rgb(254,254,254)" transform="translate(0,0)"></path>
<path d="M 756.586 919.34 C 756.172 918.091 753.521 910.433 755.517 909.673 C 756.991 910.532 758.882 915.253 759.416 916.78 C 758.455 917.614 757.512 918.468 756.586 919.34 z" fill="rgb(227,169,26)" transform="translate(0,0)"></path>
<path d="M 903.597 544.969 C 904.058 548.023 906.625 559.237 901.923 550.424 L 901.826 550.239 L 903.597 544.969 z" fill="rgb(137,48,57)" transform="translate(0,0)"></path>
<path d="M 1561.53 630.976 C 1562.63 632.033 1565.9 634.793 1566.24 636.186 L 1566.2 636.35 C 1565.18 636.852 1561.27 633.715 1560.54 633.227 L 1561.53 630.976 z" fill="rgb(25,97,80)" transform="translate(0,0)"></path>
<path d="M 904.385 607.801 C 906.94 610.308 904.032 610.901 901.46 612.257 C 901.196 612.054 900.931 611.851 900.666 611.648 C 900.561 611.573 900.469 611.334 900.507 611.2 C 900.684 610.564 901.225 610.102 901.742 609.738 C 902.142 609.472 902.542 609.205 902.942 608.939 L 904.385 607.801 z" fill="rgb(158,143,146)" transform="translate(0,0)"></path>
<path d="M 957.902 921.167 C 957.593 920.765 953.86 916.474 954.622 915.757 C 955.723 915.779 958.078 918.113 958.985 918.859 L 957.902 921.167 z" fill="rgb(227,169,26)" transform="translate(0,0)"></path>
<path d="M 1391.23 1391.88 L 1394.84 1392.21 L 1394.75 1393.66 L 1390.99 1394.12 L 1391.23 1391.88 z" fill="rgb(158,143,146)" transform="translate(0,0)"></path>
<path d="M 1394.84 1392.21 C 1395.73 1392.45 1396.69 1392.55 1397.39 1393.19 C 1397.34 1393.98 1395.26 1393.65 1394.75 1393.66 L 1394.84 1392.21 z" fill="rgb(93,93,91)" transform="translate(0,0)"></path>
<metadata><recraft-signature>{"signed_by": "recraft", "signature_b64": "L99p3TD4/zxdk53uDcWSWcYRWSaKFD9ThVhomGVBWWmOVzPdCLVjWDsEVQaTz7Obqq1JjZSIzDHIJJEKlFsZBg==", "signing_algo": "Ed25519", "generation_timestamp": 1782152017, "identifier": "5c98d2f1-359b-464c-90bb-d04ad387b758"}</recraft-signature></metadata></svg>