<svg xmlns="http://www.w3.org/2000/svg" height="1024" preserveAspectRatio="none" style="display: block;" version="1.1" viewBox="0 0 2048 2048" width="1024">
<path d="M 0 0 L 2048 0 L 2048 2048 L 0 2048 L 0 0 z" fill="rgb(246,241,226)" transform="translate(0,0)"></path>
<path d="M 978.004 197.401 C 1000.29 182.984 1027.43 178.109 1053.35 183.867 C 1070.44 187.437 1086.55 194.694 1100.55 205.13 C 1147.16 192.718 1210.45 232.821 1205.39 284.998 C 1228.58 289.988 1248.84 300.07 1262.56 320.969 C 1285.93 356.545 1270.22 409.38 1220.31 399.663 C 1212.82 398.206 1207.33 393.593 1203.32 387.079 C 1202.6 380.086 1201.76 373.606 1201.95 366.567 C 1176.88 382.218 1176.79 400.22 1180.57 426.995 C 1186.15 466.499 1189.39 494.819 1170.97 531.412 C 1191.77 533.091 1213.26 533.709 1233.75 537.198 C 1315.41 551.1 1402.27 568.408 1472.61 614.643 C 1515.8 553.444 1559.51 492.61 1603.73 432.147 L 1644.95 376.022 C 1655.07 362.081 1669.78 344.306 1673.07 327.606 C 1681.77 283.434 1715.17 296.445 1743.94 316.89 C 1781.77 343.766 1823.85 390.859 1753.14 413.069 C 1742.82 427.532 1732.1 441.564 1721.31 455.671 C 1691.35 494.865 1664.43 536.483 1635.73 576.489 C 1616.52 602.976 1597.1 629.313 1577.48 655.497 C 1569.01 667.024 1560.59 679.65 1552.06 690.917 C 1598.04 748.95 1601.49 817.577 1595.5 888.774 C 1593.38 913.961 1584.64 937.504 1573.86 960.019 C 1549.11 1015.1 1518.66 1044.05 1472.56 1080.88 C 1434.35 1112.07 1386.93 1130.48 1340.82 1146.66 C 1324.73 1152.3 1304.81 1155.47 1288.05 1160.27 C 1242.16 1173.39 1195.71 1179.02 1147.98 1181.06 C 1140.03 1194.24 1131.8 1207.26 1123.33 1220.12 C 1152.22 1211.04 1180.64 1208.16 1208.05 1222.62 C 1256.14 1247.99 1270.36 1315.02 1225.43 1351.19 C 1180.92 1387.03 1106.74 1343.39 1138.82 1287.47 C 1146.36 1274.04 1166.43 1274.29 1177.97 1281.24 C 1185.43 1285.73 1169.2 1302.31 1174.13 1308.23 C 1187.2 1323.93 1206.4 1315.64 1205.27 1295.35 C 1203.72 1267.45 1182.75 1258.29 1158.55 1255.09 C 1115.1 1252.53 1083.58 1277.98 1065.44 1314.55 C 1080.15 1340.55 1099.66 1370.53 1118.02 1394.21 C 1150.01 1435.45 1178.38 1478.36 1208.34 1521.03 C 1221.91 1540.02 1236.56 1558.43 1250.33 1577.3 C 1262.42 1593.9 1273.65 1611.22 1286.11 1627.5 C 1288.08 1630.08 1289.52 1631.76 1292.63 1632.41 C 1302.4 1634.46 1308.46 1644.15 1315.34 1652.15 C 1324.43 1662.74 1335.3 1675.24 1343.54 1686.61 C 1365.52 1716.95 1382.78 1756.69 1428.39 1737.42 C 1445.25 1730.29 1469.75 1709.92 1484.93 1699.52 C 1502.89 1687.21 1522.18 1674.17 1540.25 1662.28 C 1568.32 1643.82 1618.34 1602.7 1650.39 1594.75 C 1660.38 1592.35 1670.86 1592.99 1680.5 1596.57 C 1707.52 1606.31 1735.75 1643.91 1747.18 1669.14 C 1758.36 1693.83 1767.62 1726.21 1757.66 1752.68 C 1746.11 1783.39 1717.2 1799.57 1688.62 1812.29 C 1623.04 1841.46 1479.81 1883.39 1411.6 1857.07 C 1394.44 1850.44 1379.52 1834.8 1367.27 1821.44 C 1353.29 1806.19 1342.24 1788.06 1329.87 1771.47 C 1311.11 1746.29 1292.32 1721.69 1274.7 1695.66 C 1270.4 1689.29 1264.44 1682.43 1261.25 1675.5 C 1260.83 1674.6 1260.49 1673.67 1260.13 1672.74 C 1258.15 1667.69 1256.84 1664.48 1256.94 1658.99 C 1256.95 1658.38 1256.91 1657.77 1256.9 1657.16 C 1228.37 1619.4 1202.63 1580.31 1174.48 1542.31 C 1160.4 1523.29 1146.59 1504.06 1132.45 1485.09 L 1060.32 1387.66 C 1052.21 1376.87 1042.79 1368.25 1035.15 1356.54 C 1026.09 1369.63 1016.94 1383.71 1007.59 1396.43 C 1000.93 1405.48 991.893 1414.99 984.66 1424.08 C 1005.68 1432.35 1017.26 1434.89 1027.89 1458.21 C 1038.95 1482.47 1028.09 1512.15 1004.16 1523.94 C 996.535 1527.69 987.116 1526.15 979.422 1522.57 C 982.196 1548.59 987.848 1572.2 1010.06 1589.46 C 1030.59 1605.4 1061.57 1614.95 1087.22 1616.76 C 1095.51 1617.34 1117.54 1614.06 1122 1617.01 C 1124.68 1618.79 1122.16 1678.11 1122.24 1683.35 C 1080.05 1680.8 1038.43 1678.25 996.152 1678.21 C 977.298 1678.2 957.866 1675.25 938.972 1675.15 C 921.311 1674.73 899.871 1676.48 881.811 1676.91 C 849.444 1677.67 817.064 1677.73 784.695 1677.12 C 770.01 1700.8 753.625 1723.02 737.509 1745.72 C 712.939 1780.32 687.917 1820.2 653.877 1846.3 C 644.767 1853.28 635.112 1857.83 623.91 1860.4 C 549.221 1877.51 387.099 1833.46 321.987 1791.97 C 305.076 1781.19 291.684 1764.4 287.558 1744.59 C 280.645 1711.39 300.023 1669.96 317.975 1643.07 C 332.371 1621.51 352.701 1598.56 379.361 1593.38 C 386.001 1592.1 393.188 1591.61 399.806 1593.15 C 420.59 1597.98 460.214 1626.4 479.399 1639.58 C 513.191 1662.72 547.286 1685.42 581.676 1707.67 C 603.478 1722.06 621.356 1739 647.241 1744.73 C 680.349 1732.55 695.477 1699.87 715.815 1676.99 C 684.16 1676.73 652.508 1681.75 622.935 1681.03 C 623.66 1659.09 623.037 1635.05 622.96 1612.94 C 688.633 1621.29 779.823 1612.12 789.366 1528.33 C 794.762 1480.94 791.73 1442.46 792.296 1395.57 L 788.774 1396.59 C 784.799 1404.79 779.795 1411.42 774.958 1418.64 C 756.036 1447.8 732.935 1463.93 701.199 1476.56 C 677.238 1486.09 660.102 1490.55 634.508 1494.25 C 611.645 1497.56 587.577 1511.85 569.873 1526.41 C 584.426 1496.95 590.521 1487.8 594.729 1454.26 C 601.961 1396.63 646.938 1334.5 708.462 1329.41 C 740.805 1326.73 766.407 1328.77 792.898 1349.51 C 793.815 1325.17 792.168 1300.02 792.516 1275.35 C 766.244 1263.81 733.902 1242.94 716.019 1219.97 C 706.098 1206.07 695.019 1178.84 699.539 1161.51 C 710.988 1117.62 751.204 1102.26 791.038 1108.38 C 791.046 1099.66 792.581 1056.13 787.716 1051.71 C 775.711 1058.93 764.899 1066.36 752.274 1073.26 C 724.36 1088.5 688.122 1092.26 657.233 1086.05 C 564.073 1067.34 532.83 954.533 443.218 928.941 C 457.876 922.551 479.651 919.188 495.985 913.752 C 507.548 909.904 522.675 904.015 533.558 900.724 C 559.256 892.954 603.517 884.29 629.707 887.451 C 643.501 889.116 671.631 895.078 685.885 898.101 C 661.788 868.064 603.956 778.365 577.128 746.812 C 570.924 739.517 551.795 749.793 533.415 714.564 C 524.366 714.815 519.614 713.543 511.296 710.845 C 506.642 705.226 497.831 691.53 493.298 684.974 C 483.847 671.382 474.174 657.946 464.281 644.671 C 409.932 571.215 354.073 498.416 303.812 422.041 C 295.746 409.784 249.629 398.698 258.313 372.282 C 269.618 337.899 319.343 296.086 356.966 299.758 C 377.516 302.058 374.803 344.732 389.637 356.23 C 399.778 371.228 412.177 385.84 422.061 400.903 C 457.677 455.179 499.234 510.496 535.732 563.5 C 546.321 578.962 557.056 594.323 567.935 609.582 C 576.239 621.248 585.051 633.109 592.457 645.325 C 597.908 654.315 597.789 656.293 595.191 666.064 C 600.996 675.12 607.539 684.681 612.012 694.386 C 609.319 707.334 613.195 711.104 607.555 722.748 C 617.77 733.131 631.401 753.699 640.35 766.031 C 667.636 803.635 693.916 846.661 722.828 882.801 C 726.362 872.624 726.833 874.383 732.986 866.255 C 733.885 865.068 735.265 857.723 735.392 855.992 C 736.217 844.728 741.666 838.709 749.181 830.693 C 745.579 809.191 749.492 793.362 761.843 775.715 C 752.901 766.25 746.099 751.469 756.664 739.932 C 763.86 732.074 773.249 731.974 783.183 731.688 C 785.838 729.555 789.111 727.47 791.979 725.543 C 790.009 695.491 792.874 681.088 778.193 653.089 C 759.869 618.141 732.81 605.011 694.42 600.795 C 680.126 599.225 669.096 597.756 653.949 597.783 C 644.445 597.801 628.661 600.513 620.774 598.175 C 616.456 593.106 618.612 561.747 617.196 554.133 C 616.982 552.981 616.679 541.401 616.899 539.844 C 617.175 537.94 618.051 536.174 619.4 534.803 C 623.472 530.71 631.785 530.773 637.169 530.628 C 672.538 529.675 707.49 528.614 742.84 530.927 C 754.33 531.679 767.727 530.93 779.246 530.304 C 771.099 488.477 800.295 480.977 799.1 460.217 C 798.634 452.129 793.107 447.909 787.374 443.127 C 787.742 443.122 788.111 443.116 788.479 443.11 L 790.321 443.116 C 800.694 443.093 815.385 446.234 822.517 452.784 C 838.111 466.74 828.158 484.294 827.677 500.421 C 827.177 517.221 865.151 505.96 873.089 503.602 C 858.403 482.311 853.557 460.388 850.853 435.694 C 843.749 385.293 864.701 347.582 900.779 313.749 C 913.798 301.539 941.414 274.032 943.437 254.962 L 940.742 254.063 C 929.367 269.439 912.732 276.565 896.248 261.831 C 864.655 233.592 892.38 187.743 931.507 188.953 C 953.767 188.84 959.139 192.799 978.004 197.401 z" fill="rgb(15,14,14)" transform="translate(0,0)"></path>
<path d="M 925.246 258.673 C 906.178 259.089 889.304 251.367 894.091 229.01 C 895.897 220.519 901.134 213.154 908.559 208.659 C 916.517 203.747 926.163 202.379 935.172 204.885 C 969.515 214.156 999.773 262.287 1016.45 290.761 C 1023.22 301.856 1033.4 313.381 1038.99 324.893 C 1062.85 374.211 1090.13 436.488 1076.54 491.937 C 1066.96 531.001 1021.12 577.968 977.748 564.136 C 937.628 551.431 915.555 519.577 914.654 478.028 C 913.858 441.264 930.475 418.233 949.287 389.308 C 974.996 349.777 1002.28 299.503 974.39 254.153 C 963.578 236.569 951.576 223.124 931.252 217.584 L 930.404 219.493 C 945.89 225.491 949.555 230.502 959.776 243.414 C 1022.98 323.256 899.35 386.361 898.6 464.461 C 898.439 481.232 900.749 496.12 906.922 510.935 C 908.126 513.807 909.365 516.664 910.638 519.506 C 883.323 498.733 870.686 465.762 866.286 432.765 C 862.062 401.093 872.242 373.004 891.639 348.366 C 910.86 323.954 938.889 306.529 947.103 275.025 C 949.983 263.852 952.35 253.688 947.533 242.387 L 945.48 240.909 L 943.23 240.345 C 936.018 243.416 939.553 250.674 925.246 258.673 z" fill="rgb(246,241,226)" transform="translate(0,0)"></path>
<path d="M 930.404 219.493 C 929.541 219.071 926.954 218.126 926.619 217.028 C 926.977 215.804 930.706 217.391 931.252 217.584 L 930.404 219.493 z" fill="rgb(44,36,34)" transform="translate(0,0)"></path>
<path d="M 942.63 247.463 L 944.617 249.434 C 944.057 251.561 943.77 252.786 943.437 254.962 L 940.742 254.063 C 941.057 251.774 941.932 249.657 942.63 247.463 z" fill="rgb(231,227,215)" transform="translate(0,0)"></path>
<path d="M 943.23 240.345 L 945.48 240.909 C 945.143 243.816 945.019 246.525 944.617 249.434 L 942.63 247.463 C 942.861 245.093 943.062 242.721 943.23 240.345 z" fill="rgb(119,111,112)" transform="translate(0,0)"></path>
<path d="M 788.774 1396.59 C 790.615 1392.54 792.832 1387.54 792.296 1395.57 L 788.774 1396.59 z" fill="rgb(231,227,215)" transform="translate(0,0)"></path>
<path d="M 1167.61 536.061 C 1175.35 539.594 1206.03 538.611 1216.83 540.107 C 1358.09 559.363 1522.35 603.76 1578.91 751.366 C 1595.19 793.869 1595.5 885.766 1580.42 928.309 C 1555.58 998.406 1504.74 1056.77 1441.77 1095.68 C 1407.4 1116.92 1357.27 1135.79 1318.21 1146.72 C 1285.02 1155.13 1246.14 1165.95 1212.47 1170.11 C 1144.64 1178.5 1075.61 1172.66 1007.46 1174.94 C 994.452 1175.34 982.313 1176.88 969.27 1175.85 C 944.391 1132.13 919.456 1067.95 907.347 1019.74 C 892.718 970.203 889.547 918.808 893.17 867.594 L 894.447 870.618 C 900.084 883.817 902.945 889.903 916.603 895.36 C 910.096 928.231 935.654 929.744 961.056 926.451 C 965.221 944.391 965.206 1003.88 964.003 1024.3 C 960.315 1036.84 951.475 1051.92 951.427 1065.27 C 951.354 1085.56 945.6 1108.05 972.237 1110.14 C 1024.33 1114.23 1078.08 1115.3 1130.22 1111.44 C 1231.82 1103.91 1340.57 1066.66 1369.11 957.313 C 1376.75 928.369 1386.85 902.848 1385.1 871.71 C 1383.97 791.007 1371.5 721.959 1313.16 660.817 C 1248.67 593.246 1162.52 596.256 1076.16 597.891 C 1083.97 593.759 1095.85 590.139 1104.34 586.897 C 1136.34 574.685 1148.55 562.655 1167.61 536.061 z" fill="rgb(10,88,73)" transform="translate(0,0)"></path>
<path d="M 1151.22 603.4 C 1162.72 604.766 1174.6 605.121 1186.02 606.89 C 1275.82 620.807 1329.08 669.357 1361.6 753.773 C 1354.04 769.138 1346.07 773.011 1350.19 790.297 C 1343.26 799.522 1329.89 816.194 1331.93 827.667 C 1333.29 835.323 1332.55 844.534 1333.36 851.446 C 1322.95 866.889 1310.76 881.035 1300.42 896.526 C 1294.41 905.522 1288.44 914.553 1282.19 923.387 C 1263.24 950.242 1243.87 976.799 1224.08 1003.05 L 1183.82 1058.05 C 1172.9 1073.11 1162.87 1086.13 1153.63 1102.34 C 1122.75 1106.4 1098.41 1106.04 1067.83 1107.17 C 1034.32 1108.41 1014.06 1108.6 980.173 1104.71 C 981.921 1068.21 990.032 1036.15 1013.37 1006.7 C 1055.22 1026.97 1111 1015.75 1148.01 989.405 C 1232.55 929.224 1220.09 837.631 1234.93 748.261 C 1235.79 743.023 1237.74 738.851 1238.22 732.854 L 1237.45 731.143 C 1231.63 732.627 1223.44 745.94 1217.86 750.129 C 1195.26 767.073 1165.7 777.26 1139.75 787.897 C 1121.65 795.319 1102.12 798.67 1084.92 808.519 C 1063.17 820.645 1048.12 835.196 1031.5 852.955 C 1025.49 844.576 1018.63 833.915 1012.22 826.33 C 1017.01 806.164 1017.06 795.89 1007.04 776.941 C 1012.08 769.874 1015.15 761.757 1013.71 752.945 C 1012.75 746.958 1009.32 741.651 1004.25 738.324 C 996.347 733.027 988.824 733.49 979.792 733.562 C 977.184 730.368 974.358 726.733 971.686 723.655 C 974.186 679.581 971.774 676.141 988.037 633.852 C 1004.41 657.397 1019.5 665.518 1048.9 671.473 C 1089.09 679.613 1136.29 663.222 1145.78 619.088 C 1146.75 614.553 1146.38 609.934 1145.29 605.408 C 1145.68 603.48 1147.94 603.755 1149.62 603.617 L 1151.22 603.4 z" fill="rgb(246,241,226)" transform="translate(0,0)"></path>
<path d="M 391.05 1598.43 C 415.984 1598.84 468.581 1640.87 491.754 1655.07 C 520.077 1672.43 548.126 1693.75 576.626 1711.43 C 599.972 1725.92 620.771 1747.67 649.413 1750.89 C 669.026 1743.63 690.002 1722.37 702.092 1705.88 C 712.104 1715.55 726.782 1725.11 738.508 1733.45 C 724.17 1754.37 708.822 1775.16 694.157 1795.89 C 684.075 1810.15 670.898 1822.91 658.57 1835.28 C 643.904 1849.29 629.603 1854.85 609.516 1856.83 C 533.222 1864.36 413.699 1834.07 345.9 1798.62 C 335.88 1793.38 325.333 1788.48 316.626 1781.17 C 302.647 1769.43 293.069 1753.56 291.565 1735.17 C 288.839 1701.85 312.934 1655.02 334.166 1630.38 C 350.2 1611.76 366.087 1600.28 391.05 1598.43 z" fill="rgb(181,62,72)" transform="translate(0,0)"></path>
<path d="M 391.935 1623.25 C 404.195 1622.49 413.442 1625.28 424.13 1631.27 C 448.083 1644.71 470.552 1661.03 492.86 1676.67 C 514.061 1690.73 533.309 1704.64 554.183 1719.53 C 579.05 1737.27 631.727 1760.91 633.477 1796.98 C 635.384 1836.3 597.918 1842.91 566.75 1842.98 C 521.122 1843.56 501.978 1836.66 459.704 1824.66 C 421.056 1813.7 394.373 1806.61 358.592 1785.25 C 309.323 1755.84 324.541 1702.07 347.705 1660.59 C 356.359 1645.92 374.668 1627.08 391.935 1623.25 z" fill="rgb(15,14,14)" transform="translate(0,0)"></path>
<path d="M 353.29 1740.99 C 423.949 1740.63 494.587 1738.48 565.137 1734.56 C 574.428 1739.66 590.213 1749.57 598.594 1756.11 L 598.291 1757.04 L 594.055 1758.01 C 599.12 1758.22 601.38 1757.38 605.144 1759.7 L 604.338 1760.94 C 611.925 1765.17 621.547 1779.55 626.163 1786.94 C 572.719 1787.34 517.87 1792.3 464.27 1793.2 C 442.555 1793.57 419.994 1796.42 398.097 1797.02 C 386.117 1790.66 376.217 1781.28 368.378 1770.19 L 367.978 1767.35 C 361.859 1765.06 355.642 1747.19 353.29 1740.99 z" fill="rgb(181,62,72)" transform="translate(0,0)"></path>
<path d="M 353.29 1740.99 C 423.949 1740.63 494.587 1738.48 565.137 1734.56 C 574.428 1739.66 590.213 1749.57 598.594 1756.11 L 598.291 1757.04 L 594.055 1758.01 C 578.603 1757.4 558.851 1758.69 543.26 1759.47 L 470.675 1763.18 C 437.253 1764.95 400.208 1764.87 367.978 1767.35 C 361.859 1765.06 355.642 1747.19 353.29 1740.99 z" fill="rgb(181,62,72)" transform="translate(0,0)"></path>
<path d="M 594.055 1758.01 C 599.12 1758.22 601.38 1757.38 605.144 1759.7 L 604.338 1760.94 C 531.354 1762.77 458.314 1770.87 385.29 1770.03 C 379.869 1769.97 373.776 1769.97 368.378 1770.19 L 367.978 1767.35 C 400.208 1764.87 437.253 1764.95 470.675 1763.18 L 543.26 1759.47 C 558.851 1758.69 578.603 1757.4 594.055 1758.01 z" fill="rgb(2,1,1)" transform="translate(0,0)"></path>
<path d="M 512.15 1704.42 C 515.187 1704.12 518.418 1704.21 521.478 1704.12 C 534.93 1712.88 547.572 1722.91 560.946 1731.82 L 397.951 1735.06 C 382.586 1735.2 367.181 1736.02 351.822 1736.55 C 350.073 1726.56 349.977 1718.08 351.138 1708 C 404.833 1707.9 458.573 1708.11 512.15 1704.42 z" fill="rgb(181,62,72)" transform="translate(0,0)"></path>
<path d="M 604.987 1791.43 C 612.269 1790.92 619.675 1791.09 626.977 1791.02 C 627.208 1801.9 625.828 1810.26 620.529 1819.87 C 575.682 1815.65 520.105 1826.52 475.87 1820.15 C 467.06 1818.88 458.285 1815.86 449.756 1813.34 C 437.557 1809.69 425.392 1805.29 413.543 1800.63 C 433.916 1800.18 454.234 1798.32 474.591 1797.44 C 518.086 1795.55 561.507 1793.93 604.987 1791.43 z" fill="rgb(181,62,72)" transform="translate(0,0)"></path>
<path d="M 449.628 1667.44 L 470.012 1667.18 C 484.948 1678.48 500.142 1689.43 515.581 1700.02 C 483.472 1700.99 451.379 1702.22 419.25 1702.01 C 396.634 1701.95 373.905 1703.01 351.306 1703.86 C 355.061 1691.11 359.335 1681.31 367.77 1670.98 C 395.05 1669.5 422.35 1669.07 449.628 1667.44 z" fill="rgb(181,62,72)" transform="translate(0,0)"></path>
<path d="M 421.743 1639.43 C 426.383 1638.71 457.531 1659.18 464.373 1663.24 L 412.264 1664.16 C 398.342 1664.52 384.529 1665.79 370.635 1666.36 C 389.899 1643.89 392.665 1642.67 421.743 1639.43 z" fill="rgb(181,62,72)" transform="translate(0,0)"></path>
<path d="M 521.036 1826.12 C 552.302 1825.22 584.707 1823.41 615.662 1822.89 C 586.121 1838.4 570.951 1835.57 538.505 1831.94 C 533.009 1831.32 527.182 1829.81 521.775 1828.62 L 521.036 1826.12 z" fill="rgb(181,62,72)" transform="translate(0,0)"></path>
<path d="M 521.775 1828.62 C 520.384 1828.42 511.951 1828.35 512.818 1826.55 L 513.84 1827.02 L 514.623 1825.98 C 516.762 1826.02 518.897 1826.01 521.036 1826.12 L 521.775 1828.62 z" fill="rgb(172,57,67)" transform="translate(0,0)"></path>
<path d="M 1654.7 1599.23 C 1671.53 1598.54 1684.15 1601.17 1697.44 1612.75 C 1734.34 1638.3 1781.74 1736.77 1739.14 1774.11 C 1685.5 1821.1 1561.38 1852.28 1489.5 1857.73 C 1452.96 1860.5 1416.64 1859.36 1390.35 1835.96 C 1380.76 1827.02 1368.58 1815.72 1361.12 1805.09 C 1344.42 1781.28 1325.3 1758.72 1308.44 1735.2 C 1323.42 1724.17 1334.36 1716.52 1347.99 1703.53 C 1375.8 1745.41 1398.63 1765.34 1447.8 1733.37 C 1480.26 1712.27 1511.3 1688.61 1543.52 1667.16 C 1578.94 1643.56 1613.96 1612.2 1654.7 1599.23 z" fill="rgb(181,62,72)" transform="translate(0,0)"></path>
<path d="M 1645.84 1624.37 C 1647.72 1624.18 1649.6 1624.06 1651.49 1624.01 C 1664.76 1623.8 1676.6 1631.17 1685.89 1640.06 C 1708.72 1662.12 1721.88 1692.34 1722.47 1724.09 C 1722.8 1741.07 1718.39 1759.42 1706.3 1771.89 C 1671.31 1808 1545.82 1840.1 1495.24 1841.26 C 1468.88 1841.02 1421.65 1841.26 1417.23 1806.59 C 1412.22 1767.31 1455.41 1743.58 1483.42 1725.72 C 1531 1695.37 1575.14 1661.91 1622.94 1632.13 C 1630.34 1627.52 1637.28 1625.3 1645.84 1624.37 z" fill="rgb(15,14,14)" transform="translate(0,0)"></path>
<path d="M 1481.5 1734.83 C 1545.53 1738.62 1609.31 1736.56 1673.35 1740.38 C 1680.17 1740.78 1687.34 1741.04 1694.17 1741.09 C 1689.25 1750.75 1684.91 1762.28 1675.45 1767.56 C 1671.78 1767.83 1671.18 1767.68 1667.63 1767.24 C 1669.92 1768.53 1671.21 1769.1 1673.72 1769.88 C 1670.23 1770.64 1669.07 1770.76 1665.49 1771.04 C 1668.86 1771.49 1669.52 1771.57 1672.91 1772.62 C 1669.91 1779.12 1652.88 1791.95 1646.67 1796.31 L 1514.88 1791.02 C 1487.63 1789.87 1453.27 1789.16 1426.78 1785.73 C 1430.06 1777.35 1438.7 1762.25 1447.58 1759.78 L 1449.09 1757.75 C 1459.71 1749.85 1470.52 1742.21 1481.5 1734.83 z" fill="rgb(181,62,72)" transform="translate(0,0)"></path>
<path d="M 1447.58 1759.78 C 1453.98 1761.24 1467.15 1761.38 1474.11 1761.7 L 1522.01 1763.91 L 1605.51 1768.21 C 1624.76 1769.31 1646.39 1771.2 1665.49 1771.04 C 1668.86 1771.49 1669.52 1771.57 1672.91 1772.62 C 1669.91 1779.12 1652.88 1791.95 1646.67 1796.31 L 1514.88 1791.02 C 1487.63 1789.87 1453.27 1789.16 1426.78 1785.73 C 1430.06 1777.35 1438.7 1762.25 1447.58 1759.78 z" fill="rgb(181,62,72)" transform="translate(0,0)"></path>
<path d="M 1449.09 1757.75 C 1517.39 1758.4 1599.47 1762.63 1667.63 1767.24 C 1669.92 1768.53 1671.21 1769.1 1673.72 1769.88 C 1670.23 1770.64 1669.07 1770.76 1665.49 1771.04 C 1646.39 1771.2 1624.76 1769.31 1605.51 1768.21 L 1522.01 1763.91 L 1474.11 1761.7 C 1467.15 1761.38 1453.98 1761.24 1447.58 1759.78 L 1449.09 1757.75 z" fill="rgb(2,1,1)" transform="translate(0,0)"></path>
<path d="M 1526.02 1706.3 L 1617.31 1707.56 C 1644.04 1708.14 1670.61 1709.29 1697.36 1708.74 C 1697.19 1718.43 1696.81 1727.89 1695.69 1737.53 C 1684.3 1737 1672.92 1736.01 1661.54 1735.18 L 1485.54 1731.9 C 1498.92 1723.2 1512.52 1714.81 1526.02 1706.3 z" fill="rgb(181,62,72)" transform="translate(0,0)"></path>
<path d="M 1426.22 1791.01 C 1441.18 1791.11 1462.59 1793.08 1478.34 1793.86 C 1517.73 1795.87 1557.12 1797.64 1596.53 1799.17 C 1600.66 1799.06 1638.1 1799.14 1638.53 1799.47 L 1638.58 1799.65 C 1638.3 1800.12 1637.54 1800.39 1637.09 1800.6 C 1620.81 1806.63 1587.58 1818.72 1569.8 1820.06 C 1527.06 1823.26 1479.58 1820.42 1436.4 1820.29 C 1424.28 1820.26 1424.97 1799.74 1426.22 1791.01 z" fill="rgb(181,62,72)" transform="translate(0,0)"></path>
<path d="M 1596.53 1799.17 C 1600.66 1799.06 1638.1 1799.14 1638.53 1799.47 L 1638.58 1799.65 C 1638.3 1800.12 1637.54 1800.39 1637.09 1800.6 C 1624.56 1798.9 1610.06 1801.44 1596.53 1799.17 z" fill="rgb(102,45,46)" transform="translate(0,0)"></path>
<path d="M 1579.15 1668.94 C 1599.32 1668.81 1619.48 1669.89 1639.65 1670.01 C 1655.27 1670.1 1671.06 1668.93 1686.63 1670.08 C 1693.07 1681.21 1697.12 1691.4 1697.17 1704.44 C 1682.79 1704.59 1668.27 1703.6 1653.89 1703.07 C 1612.92 1702.34 1572.19 1700.43 1531.17 1701.25 C 1547.48 1690.94 1563.08 1679.6 1579.15 1668.94 z" fill="rgb(181,62,72)" transform="translate(0,0)"></path>
<path d="M 1631.4 1636.08 C 1634.75 1635.94 1638.16 1635.78 1641.5 1636.18 C 1658.97 1638.27 1671.99 1652.15 1682.6 1665.16 C 1667.61 1664.95 1652.62 1664.85 1637.63 1664.86 C 1620.68 1664.77 1603.47 1663.5 1586.57 1664.74 C 1600.23 1654.82 1615.82 1642.37 1631.4 1636.08 z" fill="rgb(181,62,72)" transform="translate(0,0)"></path>
<path d="M 1445.85 1827.55 C 1444.46 1827.12 1441.54 1826.37 1440.5 1825.44 L 1440.49 1825.44 C 1442.22 1824.51 1486.7 1825.27 1491.38 1825.84 C 1501.8 1825.05 1516.19 1827.02 1527.06 1825.97 L 1528.46 1826.6 C 1529.1 1826.84 1529.86 1827.01 1530.37 1827.49 C 1528.82 1827.99 1527.28 1828.53 1525.74 1829.12 C 1521.69 1829.37 1517.61 1830.79 1513.51 1831.24 C 1491.36 1833.67 1467.04 1835.92 1445.85 1827.55 z" fill="rgb(181,62,72)" transform="translate(0,0)"></path>
<path d="M 1445.85 1827.55 C 1444.46 1827.12 1441.54 1826.37 1440.5 1825.44 L 1440.49 1825.44 C 1442.22 1824.51 1486.7 1825.27 1491.38 1825.84 C 1480.87 1826.95 1450.75 1824.58 1445.85 1827.55 z" fill="rgb(172,57,67)" transform="translate(0,0)"></path>
<path d="M 1527.06 1825.97 C 1532.02 1825.77 1537.42 1827.27 1542.5 1826.91 C 1543.23 1826.86 1546.03 1827 1545.72 1828.28 C 1543.96 1829.38 1528.68 1829.13 1525.74 1829.12 C 1527.28 1828.53 1528.82 1827.99 1530.37 1827.49 C 1529.86 1827.01 1529.1 1826.84 1528.46 1826.6 L 1527.06 1825.97 z" fill="rgb(44,36,34)" transform="translate(0,0)"></path>
<path d="M 799.188 1277.38 C 814.668 1284.97 846.512 1293.51 854.843 1298.5 C 854.8 1300.77 850.681 1302.76 848.757 1303.42 C 817.934 1314.34 803.194 1342.55 809.862 1374.14 C 820.485 1424.47 875.307 1452.54 917.983 1472.13 C 933.456 1479.23 953.686 1481.8 968.324 1491.62 C 975.372 1527.78 969.099 1560.63 1001.29 1590.74 C 1020.7 1608.89 1060.65 1621.47 1086.77 1622.74 C 1093.51 1623.06 1109.37 1621.15 1117.85 1620.84 C 1117.78 1639.96 1117.61 1658.41 1116.11 1677.49 C 1095.28 1675.52 1072.17 1674.94 1051.04 1673.37 C 1032.08 1671.96 1011.61 1673.3 992.146 1672.2 C 975.201 1671.78 957.445 1669.17 940.575 1669.57 C 865.262 1671.37 790.165 1671.14 714.845 1670.22 C 687.048 1669.88 656.999 1674.02 629.009 1675.02 C 628.208 1657.26 628.418 1637.26 628.208 1619.33 C 636.989 1619.79 645.777 1620.1 654.568 1620.26 C 692.625 1620.98 737.354 1616.25 766.428 1588.94 C 790.657 1566.26 793.568 1544.21 796.746 1513.03 C 802.933 1452.32 793.4 1393.12 799.373 1332.37 C 800.856 1317.29 799.034 1293.57 799.188 1277.38 z" fill="rgb(10,88,73)" transform="translate(0,0)"></path>
<path d="M 468.297 928.733 C 518.719 919.789 573.661 888.819 627.116 896.335 C 674.738 903.031 728.889 912.91 759.191 953.859 C 779.816 981.731 786.364 999.498 782.647 1034.44 C 753.669 1013.66 743.296 1007.61 711.722 991.217 C 704.481 965.498 698.911 945.964 681.522 925.329 C 688.271 942.048 693.83 966.558 697.74 984.336 C 682.031 976.971 662.471 970.948 645.794 965.506 C 637.465 941.456 617.31 915.813 594.624 903.565 C 614.05 926.058 621.586 929.78 632.278 960.693 C 598.389 951.742 560.235 941.695 525.911 934.69 L 524.048 938.372 C 533.191 940.333 542.194 942.683 551.102 945.52 C 579.118 954.441 607.761 961.163 635.899 969.669 C 615.25 988.607 594.152 1001.12 568.06 1010.66 C 602.725 1008.42 621.073 989.932 647.709 974.873 C 666.004 981.037 701.89 995.27 718.432 1003.68 C 696.378 1020.64 669.301 1035.52 642.001 1041.84 L 642.01 1044.98 C 673.262 1041.14 702.937 1029.08 728.008 1010.03 C 744.079 1017.71 765.069 1031.63 777.263 1044.48 C 761.493 1060.25 731.71 1073.27 710.04 1077.77 C 621.136 1096.23 577.518 1025.13 523.696 970.314 C 505.103 951.376 489.608 943.099 468.297 928.733 z" fill="rgb(218,159,78)" transform="translate(0,0)"></path>
<path d="M 642.01 1044.98 C 642.012 1044.98 631.649 1046.66 633.19 1044.52 C 634.192 1043.13 640.086 1042.28 642.001 1041.84 L 642.01 1044.98 z" fill="rgb(2,1,1)" transform="translate(0,0)"></path>
<path d="M 524.048 938.372 C 518.595 935.244 518.606 934.973 525.911 934.69 L 524.048 938.372 z" fill="rgb(2,1,1)" transform="translate(0,0)"></path>
<path d="M 1001.06 977.141 C 993.627 937.788 1002.65 905.359 1025.09 874.144 C 1058.4 827.822 1088.93 810.274 1142.6 795.155 C 1165.59 788.682 1207.23 767.362 1225.83 752.356 C 1216.29 820.094 1223.75 893.979 1178.04 950.073 C 1166.83 963.827 1158.17 972.717 1144.26 983.826 C 1112.99 1008.81 1055.07 1016.66 1018.07 1000.98 C 1027.35 988.342 1051.59 960.759 1063.27 950.809 C 1085.5 956.661 1122.87 962.723 1142.94 948.076 C 1141.48 947.428 1141.45 947.151 1140.25 945.837 C 1117.11 948.87 1094.15 948.797 1071.95 941.057 C 1091.18 923.184 1109.72 906.342 1128.67 888.088 C 1132.62 888.752 1136.57 889.354 1140.53 889.895 C 1163.63 892.869 1184.96 886.065 1203.38 872.033 C 1173.28 880.65 1169.25 883.05 1137.7 879.129 C 1168.43 844.75 1184.22 825.223 1206.65 783.619 C 1195.95 793.95 1181.67 815.14 1171.18 826.805 C 1166.38 832.132 1163.08 838.461 1157.15 843.416 L 1155.81 842.393 C 1151.82 829.217 1162.18 802.873 1165.47 789.79 C 1149.16 810.527 1144.27 830.438 1145.06 856.252 C 1133.17 870.967 1104.99 895.669 1090.52 908.263 C 1084.23 884.354 1085.65 859.073 1094.55 836.012 L 1092.5 833.382 L 1092.03 835.132 C 1091.03 838.694 1085.08 853.45 1083.41 857.142 C 1074.1 877.655 1075.78 895.843 1081.69 917.386 C 1064.09 931.373 1043.23 944.134 1026.96 959.053 C 1026.53 929.818 1030.78 910.892 1041.78 884.235 C 1024.44 906.491 1016.24 937.043 1017.12 965.07 C 1011.68 968.992 1006.18 972.815 1001.06 977.141 z" fill="rgb(181,62,72)" transform="translate(0,0)"></path>
<path d="M 1140.25 945.837 C 1141.4 945.791 1143.93 945.417 1144.85 946.219 C 1145.11 947.171 1143.52 947.699 1142.94 948.076 C 1141.48 947.428 1141.45 947.151 1140.25 945.837 z" fill="rgb(2,1,1)" transform="translate(0,0)"></path>
<path d="M 1092.5 833.382 C 1093.01 832.827 1094.14 831.093 1095 831.868 C 1095.43 833.308 1094.91 834.548 1094.55 836.012 L 1092.5 833.382 z" fill="rgb(102,45,46)" transform="translate(0,0)"></path>
<path d="M 654.308 535.423 C 684.929 533.474 719.372 535.945 749.913 537.142 C 758.475 537.478 771.614 536.22 780.88 535.91 C 808.309 584.477 846.683 600.646 901.045 594.818 C 901.536 616.571 902.673 622.551 892.723 642.694 C 872.404 683.826 855.872 724.726 847.44 769.974 C 847.552 771.276 847.602 770.454 846.662 772.32 C 834.05 777.83 826.928 783.723 812.802 781.885 C 812.764 778.393 818.114 770.322 819.62 766.347 C 828.428 743.105 822.405 727.864 797.527 724.609 C 797.328 711.331 797.67 694.816 795.087 682.068 C 789.5 654.5 775.948 629.373 752.354 613.489 C 743.65 607.549 734.088 602.977 724.001 599.93 C 701.355 593.276 648.732 590.267 625.339 594.794 C 623.197 582.607 623.058 551.001 622.695 537.122 C 633.06 536.734 643.911 535.985 654.308 535.423 z" fill="rgb(10,88,73)" transform="translate(0,0)"></path>
<path d="M 827.105 931.226 C 832.337 930.987 837.369 931.613 842.59 932.082 C 842.812 948.594 845.456 965.706 846.583 981.854 C 851.469 1051.82 868.205 1104.7 902.661 1165.9 C 921.149 1198.74 937.884 1226.41 963.941 1255.31 L 963.992 1301.84 C 957.684 1292.5 955.037 1290.24 946.529 1283.2 C 901.412 1245.47 852.129 1232.36 799.032 1209.43 C 799.217 1200.15 798.96 1190 798.385 1180.71 C 793.724 1105.53 800.912 1030.04 794.822 954.89 C 799.033 953.316 801.21 953.7 803.81 950.295 C 806.941 934.854 815.012 938.389 827.105 931.226 z" fill="rgb(10,88,73)" transform="translate(0,0)"></path>
<path d="M 801.323 448.398 C 839.804 460.492 819.782 478.242 821.214 504.715 C 821.58 511.482 831.705 523.333 838.015 526.84 C 854.062 535.756 871.334 528.036 887.524 523.473 C 905.058 531.531 907.378 540.372 930.679 544.484 C 953.351 565.979 972.094 578.034 1004.34 575.085 C 1017.45 584.912 1027.14 589.751 1043.41 593.482 C 1052.8 617.628 1070.21 632.867 1097.13 632.382 C 1113.66 632.083 1126.3 625.282 1140.37 617.33 C 1125.6 665.874 1079.65 674.192 1035.78 662.169 C 1033.61 661.507 1031.45 660.799 1029.31 660.044 C 1010.57 653.392 999.138 644.553 990.567 626.352 C 993.489 621.078 1002.15 602.797 996.438 598.745 C 994.519 600.143 993.362 609.327 991.749 612.983 C 984.375 629.701 970.207 636.642 954.375 643.485 C 939.899 649.742 925.159 656.273 910.45 662.469 C 910.886 652.422 911.276 643.513 910.164 633.44 C 908.925 622.215 905.247 609.65 906.179 598.505 C 906.959 589.173 912.273 578.891 920.472 574.038 C 923.475 572.261 925.648 571.886 928.554 569.639 C 917.404 566.748 907.26 578.952 903.181 587.906 C 883.595 591.998 873.307 591.591 853.036 586.852 C 813.372 577.581 765.909 534.807 790.641 491.198 C 798.791 476.825 812.274 468.352 801.96 449.538 L 801.323 448.398 z" fill="rgb(218,159,78)" transform="translate(0,0)"></path>
<path d="M 1199.17 301.972 C 1230.87 306.21 1256.56 320.381 1261.98 354.133 C 1263.45 363.318 1262.98 368.831 1257.76 377.015 C 1248.04 392.263 1210.15 395.075 1208.53 372.476 C 1208.34 369.87 1210.62 365.33 1212.65 363.413 C 1215.56 362.73 1217.52 362.619 1219.64 360.562 C 1210.48 354.525 1187.7 362.832 1180.51 370.574 C 1173.02 378.65 1171.01 383.453 1166.73 392.725 C 1153.2 422.039 1169.69 448.257 1169.95 477.806 C 1169.85 499.613 1154.97 532.681 1138.02 547.65 C 1107.79 574.348 1090.34 583.449 1050.55 582.503 C 1041.14 581.959 1034.31 579.912 1025.44 577.032 C 1090.66 544.955 1106.98 467.605 1085.84 402.668 C 1125.45 360.583 1180.61 333.091 1239.27 348.93 C 1281.29 360.278 1206.27 341.378 1242.5 350.435 C 1238.08 331.883 1177.95 335.113 1164.34 336.571 C 1180.05 323.862 1189.5 320.515 1199.17 301.972 z" fill="rgb(246,241,226)" transform="translate(0,0)"></path>
<path d="M 769.11 1111.37 C 775.686 1110.79 786.266 1108.61 790.633 1113.87 C 790.584 1114.6 790.534 1115.33 790.485 1116.06 C 776.497 1118.89 761.424 1115.46 750.013 1126.96 C 732.071 1145.05 740.362 1165.32 756.089 1180.95 C 765.663 1190.46 773.718 1201.1 785.371 1208.16 C 815.125 1227.18 851.054 1234.65 882.348 1250.19 C 929.359 1273.53 978.841 1305.28 977.636 1364.27 C 977.258 1382.8 973.645 1396.05 960.217 1409.12 L 952.698 1415.95 L 942.979 1413.29 C 943.149 1407.36 943.008 1404.83 942.311 1399.17 C 935.206 1341.49 903.937 1309.53 850.934 1288.96 C 837.427 1283.71 823.664 1280.47 810.111 1275.26 C 783.571 1265.7 762.616 1253.11 740.119 1236.29 C 712.891 1215.94 689.212 1170.89 714.252 1140.34 C 729.318 1121.95 745.483 1113.99 769.11 1111.37 z" fill="rgb(218,159,78)" transform="translate(0,0)"></path>
<path d="M 793.434 729.947 C 826.925 730.244 821.904 761.359 804.946 780.209 C 799.044 779.923 793.504 780.239 787.609 780.485 C 798.202 785.599 845.128 793.149 854.185 788.546 L 854.085 787.477 C 849.861 786.013 837.97 785.075 832.91 784.537 C 849.855 774.295 879.713 770.088 875.499 800.239 C 873.44 814.981 847.492 826.17 834.63 822.487 C 832.205 821.792 827.954 818.161 823.99 817.075 L 823.018 818.703 L 823.85 821.64 C 836.858 836.556 858.874 823.515 870.923 819.775 C 879.851 817.005 884.216 832.818 875.93 842.606 C 856.883 865.104 845.211 854.174 824.105 856.754 L 823.143 858.037 C 828.075 864.96 848.798 864.291 856.334 862.5 C 861.174 861.349 867.717 856.147 872.154 857.713 C 874.63 861.823 874.916 867.243 874.277 871.91 C 863.602 894.329 843.578 891.603 823.404 887.099 L 823.395 888.565 C 834.834 903.163 855.139 890.718 862.169 896.875 C 862.979 902.158 863.262 906.475 860.628 911.384 C 852.455 926.623 828.13 930.918 813.782 922.715 C 811.161 921.217 810.502 920.678 807.519 920.178 L 806.44 921.359 L 806.989 923.965 C 810.022 927.438 813.743 928.888 817.896 931.052 C 815.69 931.638 813.464 932.14 811.22 932.556 C 787.422 936.826 765.31 916.893 753.564 898.229 C 740.111 876.853 733.889 859.525 750.207 837.575 C 752.813 845.182 755.752 849.279 760.127 855.897 C 748.14 807.068 752.955 798.33 780.508 758.356 C 785.1 751.695 785.488 738.319 793.434 729.947 z" fill="rgb(246,241,226)" transform="translate(0,0)"></path>
<path d="M 796.422 828.681 C 796.869 830.348 795.226 841.741 794.717 843.001 C 791.254 851.575 798.453 883.495 797.246 888.31 C 790.463 875.545 787.425 840.404 796.422 828.681 z" fill="rgb(2,1,1)" transform="translate(0,0)"></path>
<path d="M 590.031 1502.48 C 600.165 1472.14 601.337 1442.25 613.482 1413.31 C 625.828 1383.89 650.503 1354.66 680.866 1342.91 C 700.056 1335.48 732.286 1333.02 752.486 1337.77 C 760.89 1339.75 773.799 1345.37 781.975 1349 C 753.139 1357.36 740.894 1365.71 715.306 1375.37 C 712.506 1377 710.071 1378.33 707.095 1379.63 C 702.837 1384.98 689.41 1391.9 683.339 1396.33 C 678.229 1400.05 673.641 1403.73 668.698 1407.7 C 647.384 1408.25 629.606 1413.11 612.503 1426.41 C 635.235 1418.31 639.087 1418.77 663.324 1415.42 C 645.19 1429.53 621.285 1456.62 609.975 1476.47 C 633.073 1453.7 644.074 1440.93 669.869 1418.97 C 667.89 1442.7 663.938 1449.94 654.165 1471.05 L 656.685 1468.59 C 674.32 1451.07 678.02 1433.58 678.15 1409.91 C 686.568 1403.65 723.11 1378.57 731.993 1377.6 L 733.755 1379.45 C 736.784 1389.86 732.289 1410.18 729.166 1420.5 C 727.166 1427.11 722.484 1434.85 720.237 1442.44 C 735.626 1423.79 748.307 1396.96 743.794 1372.37 C 761.162 1366.19 773.618 1359.24 792.33 1353.89 C 790.566 1364.14 788.9 1376.59 785.26 1386.26 C 765.413 1438.97 719.177 1467.44 667.035 1480.9 C 632.68 1489.77 626.242 1485.05 590.031 1502.48 z" fill="rgb(218,159,78)" transform="translate(0,0)"></path>
<path d="M 707.095 1379.63 C 694.786 1374.32 681.367 1372.09 668.002 1373.14 C 667.483 1373.17 651.959 1375.97 653.422 1372.61 C 654.122 1371 662.549 1369.55 665.008 1369.09 C 682.407 1365.8 699.522 1366.81 715.306 1375.37 C 712.506 1377 710.071 1378.33 707.095 1379.63 z" fill="rgb(2,1,1)" transform="translate(0,0)"></path>
<path d="M 356.074 396.301 C 357.103 392.319 369.331 384.297 373.117 381.649 C 383.585 393.61 397.896 415.033 407.579 428.687 L 462.219 505.536 C 496.737 554.235 535.588 603.947 569.012 653.164 C 566.201 656.547 558.256 666.63 554.474 667.993 L 552.518 670.785 C 545.483 675.6 539.957 678.174 532.046 681.05 C 522.959 671.555 510.68 653.071 502.448 641.886 C 482.481 615.302 462.825 588.485 443.485 561.442 C 423.488 533.857 403.742 509.237 383.454 482.433 C 366.528 459.72 349.976 436.73 333.805 413.474 C 340.147 409.191 347.358 403.089 353.435 398.217 L 356.074 396.301 z" fill="rgb(181,62,72)" transform="translate(0,0)"></path>
<path d="M 356.074 396.301 C 357.103 392.319 369.331 384.297 373.117 381.649 C 383.585 393.61 397.896 415.033 407.579 428.687 L 462.219 505.536 C 496.737 554.235 535.588 603.947 569.012 653.164 C 566.201 656.547 558.256 666.63 554.474 667.993 C 546.246 653.5 530.374 633.074 520.267 618.82 C 486.167 570.73 450.065 522.993 414.282 476.142 C 397.391 454.025 374.291 415.887 356.074 396.301 z" fill="rgb(181,62,72)" transform="translate(0,0)"></path>
<path d="M 356.074 396.301 C 374.291 415.887 397.391 454.025 414.282 476.142 C 450.065 522.993 486.167 570.73 520.267 618.82 C 530.374 633.074 546.246 653.5 554.474 667.993 L 552.518 670.785 C 530.593 642.504 511.047 612.115 489.349 583.733 C 442.667 522.674 397.06 461.535 353.435 398.217 L 356.074 396.301 z" fill="rgb(2,1,1)" transform="translate(0,0)"></path>
<path d="M 973.755 779.57 C 964.3 779.629 961.668 779.884 954.319 772.957 C 941.239 760.627 940.282 729.932 963.556 730.607 C 977.999 731.027 981.815 752.315 987.69 762.361 C 993.793 772.796 1002.89 781.411 1007.17 792.834 C 1013.58 811.092 1003.52 829.28 1001.88 847.411 C 1004.36 842.227 1006.95 836.98 1009.21 831.711 C 1017.4 841.382 1021.13 845.986 1026.43 857.367 C 1015.72 872.626 1006.11 888.622 997.666 905.236 C 988.438 909.846 978.522 915.134 968.552 917.648 C 972.291 912.756 973.837 909.965 976.776 904.701 C 971.991 908.965 968.139 912.105 963.05 916.009 C 952.007 922.256 945.982 922.804 933.912 920.619 C 925.947 919.177 916.88 909.585 920.169 902.473 C 923.692 894.856 954.742 903.066 959.276 890.529 L 958.15 888.995 C 952.457 888.995 947.871 891.213 942.445 892.215 C 932.229 894.101 916.471 892.574 909.124 884.312 C 904.044 878.6 899.942 869.578 903.978 862.268 C 910.544 858.206 949.791 873.448 957.586 855.894 C 951.157 854.771 942.667 858.64 937.083 859.158 C 923.598 860.41 891.599 851.442 896.387 832.775 C 897.399 828.829 901.467 824.647 903.911 821.31 C 923.432 830.596 932.31 830.157 953.084 824.882 L 954.045 823.744 C 953.593 822.885 953.094 821.305 952.091 821.359 C 937.804 822.138 905.355 823.974 899.993 806.334 C 892.314 781.072 916.677 771.939 934.211 786.142 C 941.531 792.07 965.806 783.332 973.755 779.57 z" fill="rgb(246,241,226)" transform="translate(0,0)"></path>
<path d="M 984.789 808.706 C 989.86 812.24 992.842 826.245 993.93 832.005 C 997.603 851.465 992.897 871.623 985.546 889.691 C 985.311 889.904 984.836 890.283 984.567 890.389 C 983.268 888.596 986.217 878.059 986.779 875.418 L 987.834 870.485 C 991.059 854.634 991.97 841.471 988.746 825.503 C 987.599 819.818 985.605 814.354 984.789 808.706 z" fill="rgb(2,1,1)" transform="translate(0,0)"></path>
<path d="M 883.842 922.635 L 886.339 924.669 C 885.125 942.445 889.418 961.218 892.158 978.576 C 905.611 1063.8 941.361 1139.68 982.017 1215.22 C 979.62 1228.37 976.176 1241.31 971.718 1253.91 C 927.59 1204.97 880.198 1120.23 864.409 1056.01 C 855.591 1020.13 851.879 977.009 847.383 940.31 C 854.252 941.067 861.203 940.182 867.663 937.728 C 875.522 934.779 880.572 930.274 883.842 922.635 z" fill="rgb(218,159,78)" transform="translate(0,0)"></path>
<path d="M 854.929 1306.04 L 857.079 1305.96 C 857.372 1308.59 853.279 1312.19 851.345 1316.41 C 845.233 1329.74 846.43 1344.92 851.644 1358.18 C 862.053 1384.64 903.728 1407.47 929.715 1416.22 C 953.049 1423.72 980.252 1428.38 1002.62 1438.1 C 1034.92 1452.14 1034.77 1506.44 1000.99 1519.71 C 993.417 1522.68 986.409 1520.9 979.539 1517.52 L 979.493 1516.45 C 989.035 1515.16 1006.05 1510.89 1000.25 1496.92 C 992.433 1478.07 968.452 1474.04 950.874 1469.57 C 941.014 1467.08 931.178 1464.49 921.366 1461.82 C 882.945 1450.96 832.529 1423.98 819.014 1383.11 C 807.478 1348.23 817.836 1318.42 854.929 1306.04 z" fill="rgb(218,159,78)" transform="translate(0,0)"></path>
<path d="M 1377.86 869.994 C 1380.44 873.97 1374.93 912.984 1373.19 918.856 C 1365.38 945.682 1360.54 970.761 1347.03 995.556 C 1318.09 1048.67 1270.55 1076 1213.02 1090.8 L 1212.25 1090.22 C 1213.03 1087.29 1226.03 1070.69 1228.69 1066.83 L 1323.15 930.718 C 1335.97 912.473 1351.45 895.252 1362.97 876.429 C 1367.68 874.719 1373.21 872.067 1377.86 869.994 z" fill="rgb(246,241,226)" transform="translate(0,0)"></path>
<path d="M 1151.65 1219.34 C 1189.76 1214.7 1227.2 1232.35 1241.43 1269.96 C 1248.21 1287.87 1248.58 1305.44 1240.46 1323.01 C 1220.15 1366.98 1157.89 1371.39 1138.7 1324.79 C 1133.97 1313.27 1138.54 1285.79 1153.86 1282.88 C 1159.04 1281.9 1165.36 1281.68 1170.31 1284.43 C 1174.26 1291.06 1166.96 1295.24 1167.62 1305.88 C 1171.11 1314.8 1173.37 1316.36 1181.42 1320.97 C 1189.94 1321.48 1202.49 1320.78 1206.35 1312.91 C 1224.97 1274.97 1189.9 1249.45 1155.97 1248.78 C 1125.57 1248.18 1100.96 1260.74 1079.46 1280.27 C 1075.43 1283.92 1068.58 1295.9 1065.52 1300.6 C 1073.88 1252.39 1103.93 1226.55 1151.65 1219.34 z" fill="rgb(181,62,72)" transform="translate(0,0)"></path>
<path d="M 1070.25 1334.83 C 1085.28 1353.61 1098.39 1377.08 1113.22 1396.49 C 1159.26 1456.77 1199.05 1521.39 1245.48 1581.49 C 1258.94 1598.9 1269.51 1615.87 1283.91 1633.17 L 1271.18 1642.84 L 1259.35 1652.28 C 1239.97 1625.43 1222.54 1598.38 1203.51 1571.66 C 1158.15 1509.04 1111.93 1447.04 1064.86 1385.69 C 1065.87 1369.31 1068.27 1351.2 1070.25 1334.83 z" fill="rgb(181,62,72)" transform="translate(0,0)"></path>
<path d="M 1336.41 855.561 C 1340.95 859.312 1346.07 880.854 1347.9 887.595 C 1310.27 935.549 1277.97 985.936 1241.8 1034.89 C 1234.21 1045.16 1227.76 1056.64 1220.32 1067.04 C 1213.47 1076.63 1205.79 1085.87 1198.38 1095.04 C 1190.26 1096.92 1179.98 1098.32 1171.6 1099.68 L 1160.28 1101.35 C 1170.89 1084.32 1183.21 1068.67 1195.03 1052.46 L 1259.28 965.186 C 1285.7 929.135 1309.03 891.463 1336.41 855.561 z" fill="rgb(181,62,72)" transform="translate(0,0)"></path>
<path d="M 1101.62 1191.43 C 1111.96 1191.73 1123.1 1192.49 1133.48 1193.04 C 1127.26 1203.07 1118.66 1215.13 1113.41 1225.25 C 1088.66 1237.51 1073.72 1254.71 1065.36 1281.54 C 1059.6 1300.03 1060.47 1306.57 1050.12 1324.05 C 1031.32 1355.79 1007.72 1386.41 984.457 1414.96 L 977.812 1422.1 C 971.731 1421.1 965.831 1419.49 959.856 1417.98 C 993.653 1388.83 972.564 1371.66 991.121 1346.07 C 1017.27 1310.01 1044.14 1273.53 1069.92 1237.04 C 1075.77 1228.75 1095.79 1195.54 1101.62 1191.43 z" fill="rgb(181,62,72)" transform="translate(0,0)"></path>
<path d="M 330.17 416.747 C 327.945 415.579 406.55 519.03 411.744 525.971 L 527.108 683.022 L 513.229 687.839 C 510.893 688.001 504.182 688.847 502.722 687.101 C 496.49 679.648 490.888 671.671 485.2 663.801 L 449.047 613.77 L 315.235 430.493 C 320.75 424.475 323.825 421.748 330.17 416.747 z" fill="rgb(181,62,72)" transform="translate(0,0)"></path>
<path d="M 1696.09 397.908 L 1715.4 413.251 C 1709.75 422.74 1701.7 432.672 1695.26 441.813 C 1672.83 473.654 1647.43 503.362 1624.62 534.914 C 1617.31 545.025 1610.5 555.506 1603.05 565.536 L 1530.91 661.708 C 1528.2 661.349 1515.86 648.432 1512.97 645.578 C 1566.85 584.052 1614.64 510.687 1663.08 444.562 C 1674.21 429.371 1685.81 413.624 1696.09 397.908 z" fill="rgb(181,62,72)" transform="translate(0,0)"></path>
<path d="M 1677.17 379.795 L 1692.09 393.93 C 1634.67 478.814 1573.86 561.352 1509.8 641.343 C 1505.33 638.776 1498.43 632.584 1494.24 629.051 C 1500.61 619.06 1508.99 610.034 1516.09 600.537 C 1530.86 580.898 1546.33 561.689 1560.78 541.809 C 1591.96 498.907 1621.29 454.638 1653.1 412.21 C 1661.18 401.441 1669.17 390.623 1677.17 379.795 z" fill="rgb(181,62,72)" transform="translate(0,0)"></path>
<path d="M 1719.18 416.6 C 1723.46 420.88 1727.58 425.715 1731.62 430.259 C 1726.87 439.138 1712.48 457.616 1706.14 466.488 L 1663.01 527.356 L 1581.1 639.35 C 1572.28 651.317 1557.94 673.491 1549.65 683.32 L 1548.1 683.122 C 1542.83 676.232 1538.71 672.006 1532.61 665.736 C 1542.34 656.309 1560.6 631.139 1568.92 619.954 L 1630.65 535.462 C 1659.83 495.216 1690.56 458.207 1719.18 416.6 z" fill="rgb(181,62,72)" transform="translate(0,0)"></path>
<path d="M 1000.04 1180.54 C 1031.31 1179.15 1068.42 1180.39 1100.56 1180.11 C 1084.43 1200.44 1065.27 1232.5 1049.54 1255.52 C 1044.95 1262.29 1038.73 1270.1 1033.73 1276.72 C 1028.82 1269.28 1023.02 1259.72 1017.72 1252.72 C 999.77 1229.01 982.758 1209.44 971.698 1181.15 C 981.575 1181.29 990.225 1180.98 1000.04 1180.54 z" fill="rgb(246,241,226)" transform="translate(0,0)"></path>
<path d="M 1052.06 235.209 C 1062.99 234.527 1073.97 235.443 1084.64 237.93 C 1101.79 242.015 1137.09 260.864 1130.9 285.949 C 1129.44 291.888 1119.56 297.507 1112.75 294.974 C 1112.05 290.445 1115.25 287.485 1112.54 281.385 C 1104.27 262.721 1076.05 253.691 1057.65 261.157 C 1041.72 267.621 1041.06 285.191 1047.76 298.874 C 1056.31 315.572 1080.31 325.67 1096.99 331.224 C 1119.32 337.1 1134.79 337.812 1157.78 333.797 C 1138.27 348.443 1120.03 353.72 1104.13 368.075 C 1088.3 367.17 1080.47 365.124 1065.78 359.035 C 1055.13 337.348 1047.02 314.617 1033.98 294.278 C 1028.27 285.363 1022.65 276.282 1018.73 266.416 C 1023.72 246.782 1032.38 239.328 1052.06 235.209 z" fill="rgb(246,241,226)" transform="translate(0,0)"></path>
<path d="M 605.268 726.577 C 616.092 733.395 701.886 864.812 721.577 888.632 C 721.977 895.441 726.023 909.231 725.394 912.169 L 722.759 911.521 C 712.739 907.556 702.987 903.647 692.796 900.114 C 686.93 893.184 680.285 883.633 675.071 876.026 C 649.912 839.324 623.859 803.506 597.567 767.611 C 599.13 756.534 600.526 735.669 605.268 726.577 z" fill="rgb(181,62,72)" transform="translate(0,0)"></path>
<path d="M 1113.63 221.404 C 1117.31 221.472 1121.12 221.549 1124.77 221.977 C 1145.55 224.423 1164.48 235.09 1177.33 251.592 C 1192.36 270.714 1199.69 296.942 1176.51 313.912 C 1148.14 334.681 1088.89 324.623 1066.48 298.121 C 1059.1 289.4 1068.45 279.882 1076.01 275.2 L 1077.15 274.512 C 1088.75 272.749 1111.35 279.702 1106.01 293.254 C 1099.1 296.665 1078.78 287.186 1070.09 284.288 C 1091.45 304.286 1120.08 311.007 1147.55 299.737 C 1158.37 295.298 1164.59 281.572 1157.33 271.927 C 1150.51 262.876 1134.61 255.486 1126.63 245.653 C 1117.77 236.08 1099.83 230.587 1087.45 227.098 C 1097.43 223.652 1103.18 222.226 1113.63 221.404 z" fill="rgb(246,241,226)" transform="translate(0,0)"></path>
<path d="M 1660.64 365.471 C 1663.07 366.779 1671.33 374.852 1673.87 377.234 C 1663.01 390.249 1651.43 405.294 1641.9 419.248 C 1593.56 490.062 1541.55 557.073 1489.86 625.326 C 1485.45 623 1480.58 619.964 1476.24 617.401 C 1482.35 611.207 1492.99 595.699 1498.37 588.163 L 1536.93 533.672 C 1547.96 518.066 1559.64 503.502 1570.65 488.102 L 1626.22 411.876 C 1637.93 395.952 1648.25 381.029 1660.64 365.471 z" fill="rgb(181,62,72)" transform="translate(0,0)"></path>
<path d="M 894.74 649.825 C 897.271 652.634 897.103 663.349 901.797 667.857 C 909.602 675.352 928.093 669.917 941.589 669.965 C 924.356 695.841 910.566 722.443 901.4 752.256 C 898.693 761.06 895.361 770.07 891.989 778.645 C 889.56 784.336 889.301 785.968 888.188 791.908 C 872.145 779.552 877.326 772.652 852.709 770.628 C 860.508 729.312 876.79 687.682 894.74 649.825 z" fill="rgb(218,159,78)" transform="translate(0,0)"></path>
<path d="M 390.506 369.082 C 394.031 372.254 404.104 386.747 407.577 391.591 C 421.774 411.655 435.832 431.818 449.747 452.078 L 578.12 633.405 C 575.861 638.54 574.616 641.412 571.6 646.275 L 570.125 645.86 L 445.959 473.306 C 425.292 444.515 397.326 407.78 378.289 378.484 C 382.102 375.105 386.39 372.11 390.506 369.082 z" fill="rgb(181,62,72)" transform="translate(0,0)"></path>
<path d="M 979.488 637.915 C 980.914 642.327 971.706 664.46 970.066 672.203 C 966.038 691.225 967.013 705.202 967.18 724.572 C 954.915 724.925 943.736 729.123 940.415 742.398 C 936.897 756.457 944.77 768.409 951.935 779.782 C 928.497 784.492 940.259 775.869 916.317 773.69 C 907.643 774.341 906.493 775.308 899.384 780.269 C 902.867 769.513 906.417 758.78 910.035 748.068 C 920.413 717.938 943.651 674.448 963.2 648.286 C 966.218 644.247 974.628 640.289 979.488 637.915 z" fill="rgb(10,88,73)" transform="translate(0,0)"></path>
<path d="M 360.646 309.61 C 370.868 318.392 371.678 334.896 374.074 348.434 C 373.736 349.199 373.386 349.958 373.025 350.712 C 360.113 377.453 319.647 397.927 292.388 407.167 C 289.124 405.725 285.588 403.809 282.375 402.171 C 271.922 395.799 269.072 391.402 262.761 381.338 C 265.456 380.774 268.143 380.17 270.82 379.527 C 306.718 370.819 341.633 340.687 360.646 309.61 z" fill="rgb(181,62,72)" transform="translate(0,0)"></path>
<path d="M 1689.27 306.697 C 1692.2 313.212 1697.35 325.191 1701.73 330.887 C 1717.72 351.677 1745.94 367.067 1769.24 378.324 C 1773.54 380.403 1778.67 381.304 1783.36 383.326 L 1783.67 385.09 C 1781.01 392.357 1769.07 399.234 1762.47 402.882 C 1760.25 404.091 1756.85 405.54 1754.47 406.638 C 1714.13 385.911 1702.46 387.157 1672.12 346.939 C 1678.37 329.558 1679.8 322.591 1689.27 306.697 z" fill="rgb(181,62,72)" transform="translate(0,0)"></path>
<path d="M 898.055 1331.86 C 899.121 1331.92 901.381 1331.93 902.35 1332.63 C 920.932 1346.23 929.828 1366.52 934.226 1388.48 C 939.17 1413.16 940.521 1413.43 917.753 1404.42 C 896.124 1395.06 880.691 1388.65 869.406 1366.85 C 873.368 1345.47 877.639 1341.01 898.055 1331.86 z" fill="rgb(10,88,73)" transform="translate(0,0)"></path>
<path d="M 1021.5 198.315 C 1043.05 195.27 1059.92 204.44 1076.99 215.677 C 1071.64 219.494 1065.2 224.772 1058.5 224.382 C 1047.31 223.73 1031.27 228.811 1021.17 233.731 C 1011.94 240.379 1010.58 242.659 1006.05 253.072 C 998.294 244.316 990.414 236.439 983.978 226.631 C 989.948 206.315 1000.81 201.199 1021.5 198.315 z" fill="rgb(246,241,226)" transform="translate(0,0)"></path>
<path d="M 1046.99 950.898 C 1047.27 951.388 1047.55 951.877 1047.83 952.366 C 1040.2 961.304 1019.24 984.202 1013.69 991.885 C 987.539 1028.08 972.798 1060.84 972.933 1105.25 C 969.22 1104.4 965.341 1103.25 961.648 1102.23 C 957.689 1096.28 958.163 1076.61 958.905 1069.4 C 964.489 1015.24 1008.78 983.208 1046.99 950.898 z" fill="rgb(181,62,72)" transform="translate(0,0)"></path>
<path d="M 990.277 1226.83 C 1001 1237.65 1023.68 1269.7 1030.45 1282.61 C 1025.66 1289.82 1020.8 1297 1015.87 1304.12 C 1014.97 1305.46 1012.94 1309.47 1011.31 1309.73 C 1009.14 1308.89 984.024 1268.33 980.239 1262.91 C 983.141 1252.13 986.776 1236.86 990.277 1226.83 z" fill="rgb(181,62,72)" transform="translate(0,0)"></path>
<path d="M 591.435 672.644 C 598.57 679.484 603.112 688.937 607.847 697.438 C 594.815 712.885 574.259 727.585 555.267 734.319 C 546.248 731.642 542.807 720.883 539.247 713.015 L 540.034 712.742 C 562.079 705.238 577.241 690.542 591.435 672.644 z" fill="rgb(181,62,72)" transform="translate(0,0)"></path>
<path d="M 788.785 1123.8 C 790.41 1125.32 792.805 1196.58 793.013 1205.52 C 786.832 1200.61 780.684 1195.97 774.744 1190.79 C 764 1180.11 761.937 1176.03 755.949 1162.74 C 766.563 1143.18 770.267 1136.78 788.785 1123.8 z" fill="rgb(246,241,226)" transform="translate(0,0)"></path>
<path d="M 733.724 873.402 C 737.485 875.203 737.226 878.669 738.896 882.445 C 748.693 904.521 764.073 927.019 787.827 935.365 C 794.352 937.657 802.163 936.979 799.448 945.633 C 798.772 947.787 793.255 948.834 791.274 949.527 C 783.225 951.691 771.162 949.941 764.625 944.716 C 745.842 929.705 711.897 898.48 733.724 873.402 z" fill="rgb(246,241,226)" transform="translate(0,0)"></path>
<path d="M 971.192 1263.72 C 974.84 1266.7 1002.72 1310.07 1007.4 1316.74 C 1002.22 1322.6 998.86 1327.83 994.055 1333.65 C 990.549 1338.25 987.126 1342.84 983.576 1347.4 C 980.094 1332.31 976.695 1324.64 970.31 1310.97 C 972.17 1293.26 970.828 1280.65 971.192 1263.72 z" fill="rgb(246,241,226)" transform="translate(0,0)"></path>
<path d="M 1128.27 603.705 C 1130.67 601.644 1147.71 602.614 1151.22 603.4 L 1149.62 603.617 C 1147.94 603.755 1145.68 603.48 1145.29 605.408 C 1144.42 605.502 1143.73 605.696 1142.94 605.466 C 1123.8 625.931 1082.06 637.378 1060.44 610.325 C 1058.96 608.472 1066.98 607.173 1067.51 607.08 C 1087.93 603.491 1107.7 604.487 1128.27 603.705 z" fill="rgb(246,241,226)" transform="translate(0,0)"></path>
<path d="M 1128.27 603.705 C 1130.67 601.644 1147.71 602.614 1151.22 603.4 L 1149.62 603.617 C 1147.94 603.755 1145.68 603.48 1145.29 605.408 C 1144.42 605.502 1143.73 605.696 1142.94 605.466 C 1141.08 602.399 1132.22 603.888 1128.27 603.705 z" fill="rgb(44,36,34)" transform="translate(0,0)"></path>
<path d="M 1351.36 796.619 C 1356.54 801.752 1360.31 809.428 1364.65 815.302 C 1368.61 820.672 1372.75 825.398 1376.66 830.858 C 1377.34 839.293 1378.04 848.168 1377.94 856.605 C 1377.91 859.686 1372.89 855.091 1372.47 854.764 C 1357.96 842.353 1349.39 834.354 1339.29 818.03 C 1343.25 810.236 1346.78 804.046 1351.36 796.619 z" fill="rgb(181,62,72)" transform="translate(0,0)"></path>
<path d="M 969.359 949.517 L 969.716 949.763 C 978.162 955.684 980.139 954.866 989.76 957.474 C 989.942 969.013 989.345 973.799 995.271 983.576 C 989.297 989.375 985.782 993.252 980.226 999.407 C 976.816 1003.67 974.205 1007.93 971.031 1012.22 C 970.008 990.341 969.557 971.423 969.359 949.517 z" fill="rgb(246,241,226)" transform="translate(0,0)"></path>
<path d="M 1274.86 1671.89 C 1280.67 1676.7 1285.57 1685.27 1290.14 1691.4 C 1298.18 1702.19 1305.6 1713.42 1313.6 1724.23 C 1310.86 1726.24 1308.06 1728.17 1305.22 1730.04 C 1292.85 1717 1279.32 1692.05 1266.69 1676.6 C 1269.45 1675.07 1272.17 1673.55 1274.86 1671.89 z" fill="rgb(181,62,72)" transform="translate(0,0)"></path>
<path d="M 729.077 1676.75 C 729.741 1678 730.06 1678.48 730.855 1679.64 C 735.478 1675.72 738.111 1677.69 744.466 1678.55 C 737.258 1688.33 727.361 1701.38 719.485 1710.95 C 718.521 1712.12 712.51 1708.59 711.215 1707.97 C 710.215 1707.69 710.262 1707.6 709.298 1706.89 C 710.548 1704.76 711.656 1702.99 713.028 1700.93 C 711.182 1699.21 709.858 1697.93 708.149 1696.11 C 712.118 1690.76 715.58 1685.49 719.852 1680.42 L 721.064 1678.96 C 723.42 1676.16 725.282 1677.06 729.077 1676.75 z" fill="rgb(181,62,72)" transform="translate(0,0)"></path>
<path d="M 708.149 1696.11 C 712.118 1690.76 715.58 1685.49 719.852 1680.42 L 721.064 1678.96 C 723.42 1676.16 725.282 1677.06 729.077 1676.75 C 728.334 1681.89 717.015 1695.15 713.028 1700.93 C 711.182 1699.21 709.858 1697.93 708.149 1696.11 z" fill="rgb(172,57,67)" transform="translate(0,0)"></path>
<path d="M 729.077 1676.75 C 729.741 1678 730.06 1678.48 730.855 1679.64 C 728.745 1684.98 715.271 1703.44 711.215 1707.97 C 710.215 1707.69 710.262 1707.6 709.298 1706.89 C 710.548 1704.76 711.656 1702.99 713.028 1700.93 C 717.015 1695.15 728.334 1681.89 729.077 1676.75 z" fill="rgb(2,1,1)" transform="translate(0,0)"></path>
<path d="M 991.444 916.842 C 992.358 916.973 992.83 916.929 993.488 917.555 C 993.049 920.824 992.455 924.267 992.08 927.505 L 989.527 949.569 C 981.736 949.558 983.21 950.84 976.119 947.29 C 967.447 939.915 969.495 937.949 968.254 926.015 C 975.98 922.977 983.871 920.199 991.444 916.842 z" fill="rgb(246,241,226)" transform="translate(0,0)"></path>
<path d="M 1286.39 1662.68 C 1290.26 1666.59 1323.41 1715.01 1323.27 1715.91 C 1322.96 1717.92 1318.85 1720.41 1317.39 1721.51 C 1304.58 1703.82 1293.33 1685.37 1278.82 1668.94 C 1281.36 1666.87 1283.84 1664.74 1286.39 1662.68 z" fill="rgb(181,62,72)" transform="translate(0,0)"></path>
<path d="M 1300.91 1648.43 L 1302.5 1648.83 C 1303.3 1649.04 1304.06 1649.19 1304.79 1649.6 C 1309.71 1652.41 1343.67 1693.09 1344.26 1697.92 C 1344.35 1698.65 1343.91 1699.37 1343.49 1699.92 C 1343.19 1700.32 1342.85 1700.69 1342.56 1701.1 C 1342.28 1701.49 1342.03 1701.89 1341.77 1702.29 C 1341.3 1702.49 1340.83 1702.67 1340.37 1702.88 C 1339.63 1703.22 1338.42 1704.07 1337.51 1703.76 C 1336.45 1703.39 1306.61 1662.86 1304.33 1658.81 C 1302.22 1655.04 1300.85 1652.73 1300.91 1648.43 z" fill="rgb(172,57,67)" transform="translate(0,0)"></path>
<path d="M 772.404 737.302 C 775.96 737.137 779.519 737.043 783.079 737.022 C 778.474 750.132 775.256 758.336 767.088 769.467 C 760.367 773.081 747.988 741.544 770.453 737.688 L 772.404 737.302 z" fill="rgb(246,241,226)" transform="translate(0,0)"></path>
<path d="M 982.323 736.866 C 1004.46 737.82 1013.58 747.497 1005.52 769.91 C 1001.48 772.644 1002 772.031 998.55 767.863 C 990.748 758.432 987.548 748.621 982.706 737.71 L 982.323 736.866 z" fill="rgb(246,241,226)" transform="translate(0,0)"></path>
<path d="M 1295.12 1655.77 C 1297.18 1657.3 1333.46 1706.89 1333.47 1706.97 C 1333.56 1707.79 1332.66 1708.66 1332.12 1709.15 C 1331.75 1709.48 1331.36 1709.79 1330.99 1710.13 C 1330.51 1710.56 1330.05 1711.01 1329.58 1711.45 C 1329.19 1711.58 1328.4 1711.93 1327.92 1711.92 C 1326.34 1711.87 1319.03 1700.82 1317.56 1698.83 C 1313.68 1693.59 1291.26 1664.16 1291.66 1659.56 C 1291.72 1658.88 1292.43 1658.21 1292.89 1657.79 C 1293.22 1657.5 1293.58 1657.24 1293.91 1656.94 C 1294.33 1656.56 1294.72 1656.16 1295.12 1655.77 z" fill="rgb(181,62,72)" transform="translate(0,0)"></path>
<path d="M 770.47 1676.96 C 771.68 1677.04 775.932 1676.72 776.89 1677.65 C 776.481 1680.27 760.443 1702.07 757.682 1705.76 C 752.321 1712.92 747.097 1720.07 741.994 1727.42 C 740.804 1726.77 736.03 1724.5 735.894 1722.94 C 735.703 1720.75 750.154 1702.8 752.444 1699.81 C 758.336 1692.1 764.159 1684.33 770.47 1676.96 z" fill="rgb(172,57,67)" transform="translate(0,0)"></path>
<path d="M 752.401 1678.09 C 756.034 1677.93 759.664 1677.71 763.29 1677.42 C 752.126 1690.44 741.905 1704.26 731.846 1718.15 C 731.426 1718.52 730.953 1719.02 730.419 1719.22 C 729.634 1719.52 728.876 1719.17 728.215 1718.75 C 727.676 1718.41 727.151 1718.04 726.594 1717.72 C 726.058 1717.42 725.496 1717.17 724.966 1716.85 C 724.461 1716.56 723.957 1716.08 723.921 1715.46 C 723.779 1712.99 749.123 1682.49 752.401 1678.09 z" fill="rgb(172,57,67)" transform="translate(0,0)"></path>
<path d="M 788.244 986.518 C 782.991 974.295 779.483 966.536 771.574 955.5 C 779.302 956.45 781.167 956.558 788.915 956.133 C 789.003 961.822 789.534 970.379 789.136 975.834 C 789.733 979.999 789.952 983.849 790.413 988.014 L 788.765 989.556 C 788.598 988.542 788.425 987.53 788.244 986.518 z" fill="rgb(246,241,226)" transform="translate(0,0)"></path>
<path d="M 789.136 975.834 C 789.733 979.999 789.952 983.849 790.413 988.014 L 788.765 989.556 C 788.598 988.542 788.425 987.53 788.244 986.518 C 788.614 982.873 788.727 979.506 789.136 975.834 z" fill="rgb(231,227,215)" transform="translate(0,0)"></path>
<path d="M 831.899 513.901 C 840.484 515.014 846.416 515.068 855.029 515.078 C 859.653 517.905 862.083 518.794 865.35 523.044 C 851.831 526.59 841.57 523.521 831.899 513.901 z" fill="rgb(218,159,78)" transform="translate(0,0)"></path>
<path d="M 708.149 1696.11 C 709.858 1697.93 711.182 1699.21 713.028 1700.93 C 711.656 1702.99 710.548 1704.76 709.298 1706.89 C 703.93 1700.88 702.109 1703.36 708.149 1696.11 z" fill="rgb(181,62,72)" transform="translate(0,0)"></path>
<path d="M 790.413 988.014 C 790.806 988.931 791.8 992.045 790.499 992.624 C 789.422 992.142 789.124 990.541 788.765 989.556 L 790.413 988.014 z" fill="rgb(119,111,112)" transform="translate(0,0)"></path>
<path d="M 883.842 922.635 C 883.989 922.199 884.351 920.701 884.907 920.301 C 885.01 920.227 885.171 920.135 885.314 920.167 C 885.587 920.226 885.743 920.696 885.81 920.895 C 886.063 921.651 886.084 922.548 886.171 923.314 L 886.339 924.669 L 883.842 922.635 z" fill="rgb(204,146,71)" transform="translate(0,0)"></path>
<metadata><recraft-signature>{"signed_by": "recraft", "signature_b64": "afgb+pWImJcSLpWPwDuwsLXX1dqR2njrjFnl4CMJfEyS/BUf4ZL+hsGivtR9dhaqFRViOTUwCVUtdlhuDvpLBw==", "signing_algo": "Ed25519", "generation_timestamp": 1782152029, "identifier": "a3ab389d-6273-4603-951e-6f05b8fd1961"}</recraft-signature></metadata></svg>