<svg width="264" height="320" viewBox="0 0 264 320" fill="none" xmlns="http://www.w3.org/2000/svg">
<path d="M0 12C0 5.37259 5.37258 0 12 0H252C258.627 0 264 5.37258 264 12V308C264 314.627 258.627 320 252 320H12C5.37259 320 0 314.627 0 308V12Z" fill="#0A0A0A"/>
<path d="M17.196 19.77H18.314V28.48L17.755 27.908H22.929V29H17.196V19.77ZM23.9336 22.11H25.0256V29H23.9336V22.11ZM23.9076 19.757H25.0516V21.031H23.9076V19.757ZM27.1836 22.11H28.1846L28.2236 23.852L28.0676 23.8C28.1456 23.4273 28.2799 23.1023 28.4706 22.825C28.6699 22.5477 28.9126 22.3353 29.1986 22.188C29.4846 22.032 29.8009 21.954 30.1476 21.954C30.7456 21.954 31.2309 22.1187 31.6036 22.448C31.9849 22.7687 32.2232 23.228 32.3186 23.826L32.1106 23.813C32.2146 23.2237 32.4486 22.7687 32.8126 22.448C33.1766 22.1187 33.6489 21.954 34.2296 21.954C34.7149 21.954 35.1266 22.058 35.4646 22.266C35.8112 22.4653 36.0712 22.76 36.2446 23.15C36.4179 23.54 36.5046 24.0123 36.5046 24.567V29H35.4126V24.801C35.4126 24.177 35.2912 23.709 35.0486 23.397C34.8059 23.0763 34.4462 22.916 33.9696 22.916C33.6489 22.916 33.3672 22.994 33.1246 23.15C32.8906 23.306 32.7086 23.5313 32.5786 23.826C32.4486 24.1207 32.3836 24.4717 32.3836 24.879V29H31.2916V24.879C31.2916 24.2463 31.1789 23.761 30.9536 23.423C30.7282 23.085 30.3686 22.916 29.8746 22.916C29.5539 22.916 29.2722 22.994 29.0296 23.15C28.7869 23.306 28.6006 23.5357 28.4706 23.839C28.3406 24.1337 28.2756 24.4803 28.2756 24.879V29H27.1836V22.11ZM38.5078 22.11H39.5998V29H38.5078V22.11ZM38.4818 19.757H39.6258V21.031H38.4818V19.757ZM43.6831 29C43.0591 29 42.5954 28.857 42.2921 28.571C41.9974 28.285 41.8501 27.8387 41.8501 27.232V20.498H42.9421V27.206C42.9421 27.5093 43.0071 27.726 43.1371 27.856C43.2758 27.9773 43.4924 28.038 43.7871 28.038H44.7751V29H43.6831ZM40.8361 22.11H44.7751V23.072H40.8361V22.11Z" fill="#A0A0A0"/>
<path d="M16 54C16 50.6863 18.6863 48 22 48H242C245.314 48 248 50.6863 248 54V74C248 77.3137 245.314 80 242 80H22C18.6863 80 16 77.3137 16 74V54Z" fill="#0A0A0A"/>
<path d="M242 47.5C245.59 47.5 248.5 50.4102 248.5 54V74C248.5 77.5899 245.59 80.5 242 80.5H22C18.4102 80.5 15.5 77.5898 15.5 74V54C15.5 50.4101 18.4101 47.5 22 47.5H242Z" stroke="white" stroke-opacity="0.145"/>
<g clip-path="url(#clip0_1433_1353)">
<path d="M32 56C36.4183 56 40 59.5817 40 64C40 68.4183 36.4183 72 32 72C27.5817 72 24 68.4183 24 64C24 59.5817 27.5817 56 32 56ZM33.958 67.0771C33.3233 67.1081 32.6686 67.125 32 67.125C31.331 67.125 30.6761 67.1082 30.041 67.0771C30.1997 67.8712 30.4154 68.5746 30.6699 69.1562C30.9453 69.7857 31.2419 70.2165 31.5068 70.4727C31.5093 70.4751 31.5122 70.4771 31.5146 70.4795C31.675 70.4913 31.8367 70.5 32 70.5C32.163 70.5 32.3244 70.4913 32.4844 70.4795C32.487 70.477 32.4905 70.4752 32.4932 70.4727C32.7581 70.2165 33.0547 69.7857 33.3301 69.1562C33.5845 68.5746 33.7993 67.8711 33.958 67.0771ZM26.0615 66.6436C26.7694 68.2313 28.0942 69.4828 29.7324 70.0928C29.3051 69.2608 28.9662 68.1984 28.7529 66.9893C27.7859 66.9078 26.8808 66.7907 26.0615 66.6436ZM37.9375 66.6436C37.1182 66.7907 36.2131 66.9079 35.2461 66.9893C35.0328 68.1985 34.694 69.2608 34.2666 70.0928C35.905 69.483 37.2295 68.2314 37.9375 66.6436ZM32 62.125C31.2588 62.125 30.5383 62.147 29.8467 62.1855C29.7837 62.7609 29.75 63.3687 29.75 64C29.75 64.631 29.7837 65.2384 29.8467 65.8135C30.5383 65.852 31.2588 65.875 32 65.875C32.7409 65.875 33.461 65.852 34.1523 65.8135C34.2153 65.2384 34.25 64.631 34.25 64C34.25 63.3686 34.2154 62.7609 34.1523 62.1855C33.4611 62.147 32.7409 62.125 32 62.125ZM28.582 62.2793C27.4864 62.3807 26.4881 62.5294 25.627 62.7139C25.5435 63.1296 25.5 63.5597 25.5 64C25.5 64.44 25.5436 64.8697 25.627 65.2852C26.4881 65.4697 27.4863 65.6183 28.582 65.7197C28.5289 65.1658 28.5 64.5904 28.5 64C28.5 63.4093 28.5289 62.8336 28.582 62.2793ZM29.7324 57.9062C28.0944 58.516 26.7695 59.768 26.0615 61.3555C26.8808 61.2083 27.7859 61.0912 28.7529 61.0098C28.9662 59.8007 29.305 58.7381 29.7324 57.9062ZM34.2666 57.9062C34.6941 58.7381 35.0327 59.8005 35.2461 61.0098C36.2131 61.0912 37.1182 61.2084 37.9375 61.3555C37.2293 59.7679 35.9049 58.5159 34.2666 57.9062ZM32 57.5C31.8367 57.5 31.6749 57.5077 31.5146 57.5195C31.512 57.5221 31.5095 57.5248 31.5068 57.5273C31.2419 57.7835 30.9453 58.2143 30.6699 58.8438C30.4155 59.4252 30.1997 60.1282 30.041 60.9219C30.6761 60.8909 31.331 60.875 32 60.875C32.6686 60.875 33.3233 60.8909 33.958 60.9219C33.7993 60.1283 33.5844 59.4251 33.3301 58.8438C33.0547 58.2143 32.7581 57.7835 32.4932 57.5273C32.4903 57.5246 32.4872 57.5222 32.4844 57.5195C32.3244 57.5077 32.163 57.5 32 57.5ZM35.5 64C35.5 64.5904 35.4701 65.1657 35.417 65.7197C36.5127 65.6183 37.5109 65.4696 38.3721 65.2852C38.4554 64.8697 38.5 64.44 38.5 64C38.5 63.5596 38.4555 63.1297 38.3721 62.7139C37.5109 62.5294 36.5126 62.3807 35.417 62.2793C35.4702 62.8336 35.5 63.4092 35.5 64Z" fill="#A0A0A0"/>
</g>
<path d="M49.288 59.06H55.532V60.236H50.492V63.442H55.364V64.59H50.492V67.824H55.644V69H49.288V59.06ZM59.9141 69.168C59.2794 69.168 58.7241 69.0093 58.2481 68.692C57.7721 68.3747 57.4081 67.9267 57.1561 67.348C56.9041 66.76 56.7781 66.074 56.7781 65.29C56.7781 64.506 56.9041 63.8247 57.1561 63.246C57.4081 62.658 57.7721 62.2053 58.2481 61.888C58.7241 61.5707 59.2794 61.412 59.9141 61.412C60.4181 61.412 60.8708 61.5193 61.2721 61.734C61.6828 61.9487 61.9908 62.2427 62.1961 62.616V59.06H63.3721V69H62.3081L62.2661 67.88C62.0608 68.2813 61.7481 68.5987 61.3281 68.832C60.9081 69.056 60.4368 69.168 59.9141 69.168ZM60.1521 68.048C60.5814 68.048 60.9501 67.936 61.2581 67.712C61.5661 67.488 61.7994 67.1707 61.9581 66.76C62.1168 66.3493 62.1961 65.8593 62.1961 65.29C62.1961 64.7207 62.1168 64.2307 61.9581 63.82C61.7994 63.4 61.5661 63.0827 61.2581 62.868C60.9594 62.644 60.5908 62.532 60.1521 62.532C59.4988 62.532 58.9761 62.7793 58.5841 63.274C58.2014 63.7593 58.0101 64.4313 58.0101 65.29C58.0101 66.1393 58.2014 66.8113 58.5841 67.306C58.9761 67.8007 59.4988 68.048 60.1521 68.048ZM68.2856 71.268C67.7629 71.268 67.2822 71.1793 66.8436 71.002C66.4142 70.8247 66.0549 70.5727 65.7656 70.246C65.4762 69.9193 65.2802 69.5413 65.1776 69.112L66.4096 69.028C66.5309 69.4013 66.7362 69.6813 67.0256 69.868C67.3149 70.0547 67.7349 70.148 68.2856 70.148C68.9669 70.148 69.4849 70.0127 69.8396 69.742C70.1942 69.4713 70.3716 69.0653 70.3716 68.524V67.32C70.1849 67.712 69.8956 68.0247 69.5036 68.258C69.1209 68.4913 68.6869 68.608 68.2016 68.608C67.5762 68.608 67.0162 68.4587 66.5216 68.16C66.0362 67.852 65.6536 67.4273 65.3736 66.886C65.1029 66.3353 64.9676 65.71 64.9676 65.01C64.9676 64.31 65.1029 63.6893 65.3736 63.148C65.6442 62.5973 66.0176 62.1727 66.4936 61.874C66.9789 61.566 67.5296 61.412 68.1456 61.412C68.6682 61.412 69.1349 61.5333 69.5456 61.776C69.9656 62.0187 70.2596 62.3453 70.4276 62.756V61.58H71.5476V68.496C71.5476 69.364 71.2582 70.0407 70.6796 70.526C70.1009 71.0207 69.3029 71.268 68.2856 71.268ZM68.2576 67.488C68.6776 67.488 69.0462 67.39 69.3636 67.194C69.6809 66.9887 69.9282 66.6993 70.1056 66.326C70.2829 65.9527 70.3716 65.514 70.3716 65.01C70.3809 64.506 70.2969 64.0673 70.1196 63.694C69.9516 63.3207 69.7042 63.036 69.3776 62.84C69.0602 62.6347 68.6869 62.532 68.2576 62.532C67.6136 62.532 67.1096 62.756 66.7456 63.204C66.3816 63.6427 66.1996 64.2447 66.1996 65.01C66.1996 65.7753 66.3816 66.382 66.7456 66.83C67.1189 67.2687 67.6229 67.488 68.2576 67.488ZM76.5453 69.168C75.8547 69.168 75.2527 69.0093 74.7393 68.692C74.226 68.3747 73.8293 67.9267 73.5493 67.348C73.2787 66.76 73.1433 66.074 73.1433 65.29C73.1433 64.5153 73.2787 63.834 73.5493 63.246C73.8293 62.658 74.2213 62.2053 74.7253 61.888C75.2293 61.5707 75.8173 61.412 76.4893 61.412C77.1333 61.412 77.7027 61.566 78.1973 61.874C78.692 62.1727 79.0747 62.616 79.3453 63.204C79.6253 63.792 79.7653 64.492 79.7653 65.304V65.654H74.3753C74.4127 66.438 74.618 67.0353 74.9913 67.446C75.374 67.8473 75.892 68.048 76.5453 68.048C77.0213 68.048 77.4133 67.9407 77.7213 67.726C78.0387 67.502 78.2627 67.194 78.3933 66.802L79.6533 66.9C79.4573 67.5813 79.0793 68.132 78.5193 68.552C77.9687 68.9627 77.3107 69.168 76.5453 69.168ZM78.4773 64.618C78.4213 63.9273 78.216 63.4093 77.8613 63.064C77.516 62.7093 77.0587 62.532 76.4893 62.532C75.9107 62.532 75.4347 62.7093 75.0613 63.064C74.6973 63.4187 74.4687 63.9367 74.3753 64.618H78.4773ZM84.995 61.58H86.031L86.087 63.456L85.975 63.414C86.0683 62.7887 86.269 62.3267 86.577 62.028C86.885 61.7293 87.305 61.58 87.837 61.58H88.565V62.7H87.851C87.4777 62.7 87.165 62.77 86.913 62.91C86.6703 63.0407 86.4837 63.2413 86.353 63.512C86.2317 63.7827 86.171 64.1187 86.171 64.52V69H84.995V61.58ZM92.6371 69.168C91.9465 69.168 91.3445 69.0093 90.8311 68.692C90.3178 68.3747 89.9211 67.9267 89.6411 67.348C89.3705 66.76 89.2351 66.074 89.2351 65.29C89.2351 64.5153 89.3705 63.834 89.6411 63.246C89.9211 62.658 90.3131 62.2053 90.8171 61.888C91.3211 61.5707 91.9091 61.412 92.5811 61.412C93.2251 61.412 93.7945 61.566 94.2891 61.874C94.7838 62.1727 95.1665 62.616 95.4371 63.204C95.7171 63.792 95.8571 64.492 95.8571 65.304V65.654H90.4671C90.5045 66.438 90.7098 67.0353 91.0831 67.446C91.4658 67.8473 91.9838 68.048 92.6371 68.048C93.1131 68.048 93.5051 67.9407 93.8131 67.726C94.1305 67.502 94.3545 67.194 94.4851 66.802L95.7451 66.9C95.5491 67.5813 95.1711 68.132 94.6111 68.552C94.0605 68.9627 93.4025 69.168 92.6371 69.168ZM94.5691 64.618C94.5131 63.9273 94.3078 63.4093 93.9531 63.064C93.6078 62.7093 93.1505 62.532 92.5811 62.532C92.0025 62.532 91.5265 62.7093 91.1531 63.064C90.7891 63.4187 90.5605 63.9367 90.4671 64.618H94.5691ZM102.364 71.1V67.404L102.532 67.6C102.448 67.908 102.289 68.1833 102.056 68.426C101.832 68.6593 101.552 68.8413 101.216 68.972C100.889 69.1027 100.535 69.168 100.152 69.168C99.4427 69.168 98.8454 68.9953 98.3601 68.65C97.8841 68.2953 97.5294 67.824 97.2961 67.236C97.0627 66.648 96.9461 65.9993 96.9461 65.29C96.9461 64.5807 97.0627 63.932 97.2961 63.344C97.5294 62.756 97.8841 62.2893 98.3601 61.944C98.8454 61.5893 99.4427 61.412 100.152 61.412C100.731 61.412 101.235 61.5567 101.664 61.846C102.103 62.1353 102.411 62.5507 102.588 63.092L102.42 63.176L102.448 61.58H103.54V71.1H102.364ZM100.264 68.048C100.703 68.048 101.076 67.9453 101.384 67.74C101.701 67.5253 101.944 67.2127 102.112 66.802C102.28 66.3913 102.364 65.8873 102.364 65.29C102.364 64.6927 102.28 64.1887 102.112 63.778C101.944 63.3673 101.701 63.0593 101.384 62.854C101.067 62.6393 100.693 62.532 100.264 62.532C99.6201 62.532 99.1114 62.7747 98.7381 63.26C98.3647 63.7453 98.1781 64.422 98.1781 65.29C98.1781 66.158 98.3647 66.8347 98.7381 67.32C99.1114 67.8053 99.6201 68.048 100.264 68.048ZM108.212 69.168C107.466 69.168 106.873 68.9207 106.434 68.426C105.996 67.922 105.776 67.2313 105.776 66.354V61.58H106.952V66.032C106.952 66.7507 107.078 67.2827 107.33 67.628C107.592 67.964 107.988 68.132 108.52 68.132C109.108 68.132 109.57 67.9453 109.906 67.572C110.242 67.1893 110.41 66.6667 110.41 66.004V61.58H111.586V69H110.466V67.166L110.648 67.264C110.499 67.8707 110.214 68.342 109.794 68.678C109.374 69.0047 108.847 69.168 108.212 69.168ZM116.59 69.168C115.9 69.168 115.298 69.0093 114.784 68.692C114.271 68.3747 113.874 67.9267 113.594 67.348C113.324 66.76 113.188 66.074 113.188 65.29C113.188 64.5153 113.324 63.834 113.594 63.246C113.874 62.658 114.266 62.2053 114.77 61.888C115.274 61.5707 115.862 61.412 116.534 61.412C117.178 61.412 117.748 61.566 118.242 61.874C118.737 62.1727 119.12 62.616 119.39 63.204C119.67 63.792 119.81 64.492 119.81 65.304V65.654H114.42C114.458 66.438 114.663 67.0353 115.036 67.446C115.419 67.8473 115.937 68.048 116.59 68.048C117.066 68.048 117.458 67.9407 117.766 67.726C118.084 67.502 118.308 67.194 118.438 66.802L119.698 66.9C119.502 67.5813 119.124 68.132 118.564 68.552C118.014 68.9627 117.356 69.168 116.59 69.168ZM118.522 64.618C118.466 63.9273 118.261 63.4093 117.906 63.064C117.561 62.7093 117.104 62.532 116.534 62.532C115.956 62.532 115.48 62.7093 115.106 63.064C114.742 63.4187 114.514 63.9367 114.42 64.618H118.522ZM124.105 69.168C123.116 69.168 122.346 68.9393 121.795 68.482C121.254 68.0247 120.955 67.418 120.899 66.662L122.131 66.578C122.206 67.054 122.397 67.418 122.705 67.67C123.013 67.922 123.48 68.048 124.105 68.048C124.619 68.048 125.011 67.964 125.281 67.796C125.552 67.628 125.687 67.3667 125.687 67.012C125.687 66.8067 125.641 66.6433 125.547 66.522C125.454 66.3913 125.277 66.2793 125.015 66.186C124.763 66.0833 124.385 65.9853 123.881 65.892C123.2 65.7613 122.663 65.6027 122.271 65.416C121.879 65.22 121.599 64.9867 121.431 64.716C121.273 64.436 121.193 64.0907 121.193 63.68C121.193 63.008 121.441 62.462 121.935 62.042C122.439 61.622 123.13 61.412 124.007 61.412C124.922 61.412 125.617 61.6407 126.093 62.098C126.579 62.546 126.863 63.1107 126.947 63.792L125.715 63.876C125.678 63.484 125.519 63.162 125.239 62.91C124.969 62.658 124.549 62.532 123.979 62.532C123.466 62.532 123.079 62.6347 122.817 62.84C122.556 63.036 122.425 63.2973 122.425 63.624C122.425 63.876 122.472 64.0767 122.565 64.226C122.668 64.3753 122.841 64.5013 123.083 64.604C123.326 64.6973 123.667 64.7813 124.105 64.856C124.833 64.9773 125.398 65.1313 125.799 65.318C126.21 65.5047 126.499 65.7333 126.667 66.004C126.835 66.2747 126.919 66.6107 126.919 67.012C126.919 67.684 126.658 68.2113 126.135 68.594C125.622 68.9767 124.945 69.168 124.105 69.168ZM130.969 69C130.297 69 129.797 68.846 129.471 68.538C129.153 68.23 128.995 67.7493 128.995 67.096V59.844H130.171V67.068C130.171 67.3947 130.241 67.628 130.381 67.768C130.53 67.8987 130.763 67.964 131.081 67.964H132.145V69H130.969ZM127.903 61.58H132.145V62.616H127.903V61.58ZM136.218 69.168C135.229 69.168 134.459 68.9393 133.908 68.482C133.367 68.0247 133.068 67.418 133.012 66.662L134.244 66.578C134.319 67.054 134.51 67.418 134.818 67.67C135.126 67.922 135.593 68.048 136.218 68.048C136.732 68.048 137.124 67.964 137.394 67.796C137.665 67.628 137.8 67.3667 137.8 67.012C137.8 66.8067 137.754 66.6433 137.66 66.522C137.567 66.3913 137.39 66.2793 137.128 66.186C136.876 66.0833 136.498 65.9853 135.994 65.892C135.313 65.7613 134.776 65.6027 134.384 65.416C133.992 65.22 133.712 64.9867 133.544 64.716C133.386 64.436 133.306 64.0907 133.306 63.68C133.306 63.008 133.554 62.462 134.048 62.042C134.552 61.622 135.243 61.412 136.12 61.412C137.035 61.412 137.73 61.6407 138.206 62.098C138.692 62.546 138.976 63.1107 139.06 63.792L137.828 63.876C137.791 63.484 137.632 63.162 137.352 62.91C137.082 62.658 136.662 62.532 136.092 62.532C135.579 62.532 135.192 62.6347 134.93 62.84C134.669 63.036 134.538 63.2973 134.538 63.624C134.538 63.876 134.585 64.0767 134.678 64.226C134.781 64.3753 134.954 64.5013 135.196 64.604C135.439 64.6973 135.78 64.7813 136.218 64.856C136.946 64.9773 137.511 65.1313 137.912 65.318C138.323 65.5047 138.612 65.7333 138.78 66.004C138.948 66.2747 139.032 66.6107 139.032 67.012C139.032 67.684 138.771 68.2113 138.248 68.594C137.735 68.9767 137.058 69.168 136.218 69.168Z" fill="#EDEDED"/>
<path d="M148.266 69.224C147.379 69.224 146.6 69.0187 145.928 68.608C145.256 68.188 144.733 67.586 144.36 66.802C143.987 66.018 143.8 65.0987 143.8 64.044C143.8 62.9893 143.987 62.07 144.36 61.286C144.733 60.4927 145.256 59.886 145.928 59.466C146.6 59.046 147.379 58.836 148.266 58.836C149.433 58.836 150.352 59.13 151.024 59.718C151.705 60.306 152.153 61.1413 152.368 62.224L151.094 62.308C150.954 61.58 150.646 61.0153 150.17 60.614C149.703 60.2127 149.069 60.012 148.266 60.012C147.631 60.012 147.071 60.1753 146.586 60.502C146.101 60.8193 145.723 61.2813 145.452 61.888C145.191 62.4947 145.06 63.2133 145.06 64.044C145.06 64.8747 145.191 65.5933 145.452 66.2C145.723 66.7973 146.101 67.2547 146.586 67.572C147.071 67.8893 147.631 68.048 148.266 68.048C149.115 68.048 149.778 67.8287 150.254 67.39C150.739 66.9513 151.047 66.3307 151.178 65.528L152.452 65.612C152.265 66.7227 151.808 67.6047 151.08 68.258C150.361 68.902 149.423 69.224 148.266 69.224ZM156.922 69.168C156.241 69.168 155.644 69.0093 155.13 68.692C154.617 68.3747 154.22 67.9267 153.94 67.348C153.66 66.76 153.52 66.074 153.52 65.29C153.52 64.506 153.66 63.8247 153.94 63.246C154.22 62.658 154.617 62.2053 155.13 61.888C155.644 61.5707 156.241 61.412 156.922 61.412C157.594 61.412 158.187 61.5707 158.7 61.888C159.214 62.2053 159.61 62.658 159.89 63.246C160.17 63.8247 160.31 64.506 160.31 65.29C160.31 66.074 160.17 66.76 159.89 67.348C159.61 67.9267 159.214 68.3747 158.7 68.692C158.187 69.0093 157.594 69.168 156.922 69.168ZM156.922 68.048C157.604 68.048 158.131 67.8053 158.504 67.32C158.887 66.8253 159.078 66.1487 159.078 65.29C159.078 64.4313 158.887 63.7593 158.504 63.274C158.131 62.7793 157.604 62.532 156.922 62.532C156.241 62.532 155.709 62.7747 155.326 63.26C154.944 63.7453 154.752 64.422 154.752 65.29C154.752 66.158 154.944 66.8347 155.326 67.32C155.709 67.8053 156.241 68.048 156.922 68.048ZM164.349 69.168C163.602 69.168 163.01 68.9207 162.571 68.426C162.132 67.922 161.913 67.2313 161.913 66.354V61.58H163.089V66.032C163.089 66.7507 163.215 67.2827 163.467 67.628C163.728 67.964 164.125 68.132 164.657 68.132C165.245 68.132 165.707 67.9453 166.043 67.572C166.379 67.1893 166.547 66.6667 166.547 66.004V61.58H167.723V69H166.603V67.166L166.785 67.264C166.636 67.8707 166.351 68.342 165.931 68.678C165.511 69.0047 164.984 69.168 164.349 69.168ZM169.966 61.58H171.044L171.086 63.47L170.946 63.344C171.076 62.7093 171.356 62.2287 171.786 61.902C172.224 61.5753 172.747 61.412 173.354 61.412C174.166 61.412 174.786 61.6733 175.216 62.196C175.645 62.7187 175.86 63.3953 175.86 64.226V69H174.684V64.562C174.684 63.862 174.558 63.3347 174.306 62.98C174.054 62.6253 173.652 62.448 173.102 62.448C172.514 62.448 172.038 62.6347 171.674 63.008C171.319 63.372 171.142 63.89 171.142 64.562V69H169.966V61.58ZM180.256 69C179.584 69 179.085 68.846 178.758 68.538C178.441 68.23 178.282 67.7493 178.282 67.096V59.844H179.458V67.068C179.458 67.3947 179.528 67.628 179.668 67.768C179.817 67.8987 180.051 67.964 180.368 67.964H181.432V69H180.256ZM177.19 61.58H181.432V62.616H177.19V61.58Z" fill="#A0A0A0"/>
<path d="M236.061 66.2502L232.707 69.6038C232.317 69.994 231.683 69.9941 231.293 69.6038L227.939 66.2502L229 65.1897L232 68.1897L235 65.1897L236.061 66.2502ZM231.369 58.3284C231.762 58.008 232.341 58.0306 232.707 58.3967L236.061 61.7502L235 62.8108L232 59.8108L229 62.8108L227.939 61.7502L231.293 58.3967L231.369 58.3284Z" fill="#A0A0A0"/>
<path d="M16 94C16 90.6863 18.6863 88 22 88H115C118.314 88 121 90.6863 121 94V114C121 117.314 118.314 120 115 120H22C18.6863 120 16 117.314 16 114V94Z" fill="#0A0A0A"/>
<path d="M115 87.5C118.59 87.5 121.5 90.4101 121.5 94V114C121.5 117.59 118.59 120.5 115 120.5H22C18.4101 120.5 15.5 117.59 15.5 114V94C15.5 90.4101 18.4101 87.5 22 87.5H115Z" stroke="white" stroke-opacity="0.145"/>
<g clip-path="url(#clip1_1433_1353)">
<path d="M28.5227 99.06H30.4127L34.9907 107.082V99.06H36.4747V109H34.5007L30.0067 101.16V109H28.5227V99.06Z" fill="#A0A0A0"/>
</g>
<path d="M50.058 105.752C50.31 107.096 51.262 108.02 52.844 108.02C54.132 108.02 55 107.488 55 106.494C55 105.486 54.132 104.87 52.13 104.352C50.478 103.932 49.036 103.148 49.036 101.552C49.036 99.886 50.38 98.836 52.284 98.836C54.412 98.836 55.826 100.166 56.022 101.986L54.79 102.07C54.622 100.824 53.656 99.984 52.27 99.984C51.108 99.984 50.268 100.586 50.268 101.552C50.268 102.77 51.682 103.106 52.984 103.47C54.818 103.974 56.232 104.87 56.232 106.382C56.232 108.202 54.552 109.168 52.76 109.168C50.576 109.168 48.98 107.824 48.826 105.836L50.058 105.752ZM64.0785 109H62.9865V107.74C62.6085 108.706 61.7265 109.168 60.7465 109.168C59.0945 109.168 58.2825 107.922 58.2825 106.354V101.58H59.4305V106.004C59.4305 107.39 59.8925 108.146 60.9845 108.146C62.1605 108.146 62.9305 107.39 62.9305 106.004V101.58H64.0785V109ZM66.4576 101.58H67.5076L67.5496 102.84C67.8856 101.93 68.6556 101.412 69.6916 101.412C70.7556 101.412 71.5256 101.986 71.8476 102.98C72.1696 101.972 72.9536 101.412 74.1156 101.412C75.5996 101.412 76.4676 102.448 76.4676 104.226V109H75.3196V104.562C75.3196 103.204 74.7876 102.434 73.8776 102.434C72.7156 102.434 72.0436 103.218 72.0436 104.576V109H70.8956V104.562C70.8956 103.232 70.3496 102.434 69.4536 102.434C68.3056 102.434 67.6056 103.246 67.6056 104.562V109H66.4576V101.58Z" fill="#EDEDED"/>
<path d="M109.061 106.25L105.707 109.604C105.317 109.994 104.683 109.994 104.293 109.604L100.939 106.25L102 105.189L105 108.189L108 105.189L109.061 106.25ZM104.369 98.3281C104.762 98.0078 105.341 98.0304 105.707 98.3965L109.061 101.75L108 102.811L105 99.8105L102 102.811L100.939 101.75L104.293 98.3965L104.369 98.3281Z" fill="#A0A0A0"/>
<path d="M16 134C16 130.686 18.6863 128 22 128H242C245.314 128 248 130.686 248 134V154C248 157.314 245.314 160 242 160H22C18.6863 160 16 157.314 16 154V134Z" fill="#0A0A0A"/>
<path d="M242 127.5C245.59 127.5 248.5 130.41 248.5 134V154C248.5 157.59 245.59 160.5 242 160.5H22C18.4102 160.5 15.5 157.59 15.5 154V134C15.5 130.41 18.4101 127.5 22 127.5H242Z" stroke="white" stroke-opacity="0.145"/>
<g clip-path="url(#clip2_1433_1353)">
<path d="M29.5 138H34.5V136.5H36V138H39.5V149.5C39.5 150.794 38.5164 151.859 37.2559 151.987L37 152H27C25.6193 152 24.5 150.881 24.5 149.5V138H28V136.5H29.5V138ZM26 149.5C26 150.052 26.4477 150.5 27 150.5H37C37.5523 150.5 38 150.052 38 149.5V143.5H26V149.5ZM26 142H38V139.5H26V142Z" fill="#A0A0A0"/>
</g>
<path d="M49.288 139.06H50.492V148.44L49.89 147.824H55.462V149H49.288V139.06ZM59.2431 149.168C58.4684 149.168 57.8571 148.991 57.4091 148.636C56.9611 148.281 56.7371 147.787 56.7371 147.152C56.7371 146.517 56.9238 146.018 57.2971 145.654C57.6704 145.29 58.2631 145.033 59.0751 144.884L61.7071 144.394C61.7071 143.769 61.5578 143.302 61.2591 142.994C60.9698 142.686 60.5311 142.532 59.9431 142.532C59.4391 142.532 59.0331 142.644 58.7251 142.868C58.4264 143.092 58.2211 143.423 58.1091 143.862L56.8631 143.764C57.0031 143.045 57.3438 142.476 57.8851 142.056C58.4358 141.627 59.1218 141.412 59.9431 141.412C60.8858 141.412 61.6091 141.678 62.1131 142.21C62.6264 142.742 62.8831 143.484 62.8831 144.436V147.502C62.8831 147.67 62.9111 147.791 62.9671 147.866C63.0324 147.931 63.1351 147.964 63.2751 147.964H63.5691V149C63.5131 149.009 63.4478 149.014 63.3731 149.014C63.2984 149.023 63.2144 149.028 63.1211 149.028C62.6078 149.028 62.2438 148.907 62.0291 148.664C61.8144 148.421 61.7071 148.02 61.7071 147.46L61.8471 147.488C61.7538 147.964 61.4551 148.365 60.9511 148.692C60.4471 149.009 59.8778 149.168 59.2431 149.168ZM59.3551 148.132C59.8404 148.132 60.2604 148.039 60.6151 147.852C60.9698 147.656 61.2404 147.395 61.4271 147.068C61.6138 146.732 61.7071 146.359 61.7071 145.948V145.416L59.2991 145.864C58.8138 145.948 58.4684 146.088 58.2631 146.284C58.0671 146.471 57.9691 146.723 57.9691 147.04C57.9691 147.385 58.0904 147.656 58.3331 147.852C58.5758 148.039 58.9164 148.132 59.3551 148.132ZM67.572 149.168C66.5827 149.168 65.8127 148.939 65.262 148.482C64.7207 148.025 64.422 147.418 64.366 146.662L65.598 146.578C65.6727 147.054 65.864 147.418 66.172 147.67C66.48 147.922 66.9467 148.048 67.572 148.048C68.0853 148.048 68.4773 147.964 68.748 147.796C69.0187 147.628 69.154 147.367 69.154 147.012C69.154 146.807 69.1073 146.643 69.014 146.522C68.9207 146.391 68.7433 146.279 68.482 146.186C68.23 146.083 67.852 145.985 67.348 145.892C66.6667 145.761 66.13 145.603 65.738 145.416C65.346 145.22 65.066 144.987 64.898 144.716C64.7393 144.436 64.66 144.091 64.66 143.68C64.66 143.008 64.9073 142.462 65.402 142.042C65.906 141.622 66.5967 141.412 67.474 141.412C68.3887 141.412 69.084 141.641 69.56 142.098C70.0453 142.546 70.33 143.111 70.414 143.792L69.182 143.876C69.1447 143.484 68.986 143.162 68.706 142.91C68.4353 142.658 68.0153 142.532 67.446 142.532C66.9327 142.532 66.5453 142.635 66.284 142.84C66.0227 143.036 65.892 143.297 65.892 143.624C65.892 143.876 65.9387 144.077 66.032 144.226C66.1347 144.375 66.3073 144.501 66.55 144.604C66.7927 144.697 67.1333 144.781 67.572 144.856C68.3 144.977 68.8647 145.131 69.266 145.318C69.6767 145.505 69.966 145.733 70.134 146.004C70.302 146.275 70.386 146.611 70.386 147.012C70.386 147.684 70.1247 148.211 69.602 148.594C69.0887 148.977 68.412 149.168 67.572 149.168ZM74.4356 149C73.7636 149 73.2643 148.846 72.9376 148.538C72.6203 148.23 72.4616 147.749 72.4616 147.096V139.844H73.6376V147.068C73.6376 147.395 73.7076 147.628 73.8476 147.768C73.9969 147.899 74.2303 147.964 74.5476 147.964H75.6116V149H74.4356ZM71.3696 141.58H75.6116V142.616H71.3696V141.58ZM82.214 141.636H80.142V140.6H80.982C81.3554 140.6 81.6494 140.553 81.864 140.46C82.0787 140.367 82.2327 140.208 82.326 139.984C82.4194 139.76 82.466 139.452 82.466 139.06H83.418V149H82.214V141.636ZM85.6584 149C85.6584 148.272 85.7704 147.628 85.9944 147.068C86.2184 146.508 86.6057 145.976 87.1564 145.472C87.7164 144.968 88.4864 144.455 89.4664 143.932C89.961 143.671 90.339 143.442 90.6004 143.246C90.871 143.041 91.067 142.826 91.1884 142.602C91.319 142.369 91.3844 142.084 91.3844 141.748C91.3844 141.225 91.2117 140.805 90.8664 140.488C90.5304 140.171 90.0404 140.012 89.3964 140.012C88.7057 140.012 88.155 140.194 87.7444 140.558C87.3337 140.913 87.077 141.431 86.9744 142.112L85.7144 142.028C85.8264 141.039 86.1997 140.259 86.8344 139.69C87.4784 139.121 88.3324 138.836 89.3964 138.836C90.0684 138.836 90.647 138.957 91.1324 139.2C91.627 139.443 92.0004 139.783 92.2524 140.222C92.5137 140.651 92.6444 141.151 92.6444 141.72C92.6444 142.233 92.5604 142.672 92.3924 143.036C92.2244 143.391 91.9444 143.727 91.5524 144.044C91.1697 144.361 90.6237 144.707 89.9144 145.08C89.0464 145.537 88.3744 146.013 87.8984 146.508C87.4224 146.993 87.1704 147.432 87.1424 147.824H92.6444V149H85.6584ZM98.1063 139.06H99.2823V143.218L99.1423 143.19C99.273 142.593 99.5483 142.149 99.9683 141.86C100.388 141.561 100.906 141.412 101.522 141.412C102.306 141.412 102.913 141.669 103.342 142.182C103.781 142.695 104 143.377 104 144.226V149H102.824V144.562C102.824 143.853 102.694 143.325 102.432 142.98C102.18 142.625 101.793 142.448 101.27 142.448C100.654 142.448 100.169 142.635 99.8143 143.008C99.4597 143.381 99.2823 143.904 99.2823 144.576V149H98.1063V139.06ZM108.975 149.168C108.294 149.168 107.696 149.009 107.183 148.692C106.67 148.375 106.273 147.927 105.993 147.348C105.713 146.76 105.573 146.074 105.573 145.29C105.573 144.506 105.713 143.825 105.993 143.246C106.273 142.658 106.67 142.205 107.183 141.888C107.696 141.571 108.294 141.412 108.975 141.412C109.647 141.412 110.24 141.571 110.753 141.888C111.266 142.205 111.663 142.658 111.943 143.246C112.223 143.825 112.363 144.506 112.363 145.29C112.363 146.074 112.223 146.76 111.943 147.348C111.663 147.927 111.266 148.375 110.753 148.692C110.24 149.009 109.647 149.168 108.975 149.168ZM108.975 148.048C109.656 148.048 110.184 147.805 110.557 147.32C110.94 146.825 111.131 146.149 111.131 145.29C111.131 144.431 110.94 143.759 110.557 143.274C110.184 142.779 109.656 142.532 108.975 142.532C108.294 142.532 107.762 142.775 107.379 143.26C106.996 143.745 106.805 144.422 106.805 145.29C106.805 146.158 106.996 146.835 107.379 147.32C107.762 147.805 108.294 148.048 108.975 148.048ZM116.402 149.168C115.655 149.168 115.062 148.921 114.624 148.426C114.185 147.922 113.966 147.231 113.966 146.354V141.58H115.142V146.032C115.142 146.751 115.268 147.283 115.52 147.628C115.781 147.964 116.178 148.132 116.71 148.132C117.298 148.132 117.76 147.945 118.096 147.572C118.432 147.189 118.6 146.667 118.6 146.004V141.58H119.776V149H118.656V147.166L118.838 147.264C118.688 147.871 118.404 148.342 117.984 148.678C117.564 149.005 117.036 149.168 116.402 149.168ZM122.018 141.58H123.054L123.11 143.456L122.998 143.414C123.092 142.789 123.292 142.327 123.6 142.028C123.908 141.729 124.328 141.58 124.86 141.58H125.588V142.7H124.874C124.501 142.7 124.188 142.77 123.936 142.91C123.694 143.041 123.507 143.241 123.376 143.512C123.255 143.783 123.194 144.119 123.194 144.52V149H122.018V141.58ZM129.465 149.168C128.475 149.168 127.705 148.939 127.155 148.482C126.613 148.025 126.315 147.418 126.259 146.662L127.491 146.578C127.565 147.054 127.757 147.418 128.065 147.67C128.373 147.922 128.839 148.048 129.465 148.048C129.978 148.048 130.37 147.964 130.641 147.796C130.911 147.628 131.047 147.367 131.047 147.012C131.047 146.807 131 146.643 130.907 146.522C130.813 146.391 130.636 146.279 130.375 146.186C130.123 146.083 129.745 145.985 129.241 145.892C128.559 145.761 128.023 145.603 127.631 145.416C127.239 145.22 126.959 144.987 126.791 144.716C126.632 144.436 126.553 144.091 126.553 143.68C126.553 143.008 126.8 142.462 127.295 142.042C127.799 141.622 128.489 141.412 129.367 141.412C130.281 141.412 130.977 141.641 131.453 142.098C131.938 142.546 132.223 143.111 132.307 143.792L131.075 143.876C131.037 143.484 130.879 143.162 130.599 142.91C130.328 142.658 129.908 142.532 129.339 142.532C128.825 142.532 128.438 142.635 128.177 142.84C127.915 143.036 127.785 143.297 127.785 143.624C127.785 143.876 127.831 144.077 127.925 144.226C128.027 144.375 128.2 144.501 128.443 144.604C128.685 144.697 129.026 144.781 129.465 144.856C130.193 144.977 130.757 145.131 131.159 145.318C131.569 145.505 131.859 145.733 132.027 146.004C132.195 146.275 132.279 146.611 132.279 147.012C132.279 147.684 132.017 148.211 131.495 148.594C130.981 148.977 130.305 149.168 129.465 149.168Z" fill="#EDEDED"/>
<path d="M238.061 141.5L232.707 146.853C232.317 147.244 231.683 147.244 231.293 146.853L225.939 141.5L227 140.439L232 145.439L237 140.439L238.061 141.5Z" fill="#A0A0A0"/>
<path d="M20.706 189.208C19.8567 189.208 19.12 189.004 18.496 188.597C17.8807 188.181 17.4083 187.609 17.079 186.881C16.7497 186.153 16.585 185.325 16.585 184.398C16.585 183.471 16.7497 182.643 17.079 181.915C17.417 181.178 17.898 180.602 18.522 180.186C19.146 179.77 19.8827 179.562 20.732 179.562C21.7807 179.562 22.6127 179.839 23.228 180.394C23.8433 180.949 24.242 181.685 24.424 182.604L23.254 182.682C23.1327 182.041 22.8683 181.542 22.461 181.187C22.0537 180.832 21.4773 180.654 20.732 180.654C19.7353 180.654 18.99 181.009 18.496 181.72C18.002 182.422 17.755 183.315 17.755 184.398C17.755 185.126 17.859 185.767 18.067 186.322C18.2837 186.877 18.613 187.314 19.055 187.635C19.5057 187.956 20.0647 188.116 20.732 188.116C21.2607 188.116 21.7243 187.995 22.123 187.752C22.5303 187.509 22.8423 187.18 23.059 186.764C23.2843 186.348 23.4013 185.893 23.41 185.399H20.758V184.333H24.45V189H23.618L23.54 186.868L23.696 187.05C23.592 187.466 23.3927 187.839 23.098 188.168C22.812 188.489 22.4567 188.744 22.032 188.935C21.616 189.117 21.174 189.208 20.706 189.208ZM26.1425 182.11H27.1045L27.1565 183.852L27.0525 183.813C27.1392 183.232 27.3255 182.803 27.6115 182.526C27.8975 182.249 28.2875 182.11 28.7815 182.11H29.4575V183.15H28.7945C28.4479 183.15 28.1575 183.215 27.9235 183.345C27.6982 183.466 27.5249 183.653 27.4035 183.904C27.2909 184.155 27.2345 184.467 27.2345 184.84V189H26.1425V182.11ZM33.2388 189.156C32.6061 189.156 32.0515 189.009 31.5748 188.714C31.0981 188.419 30.7298 188.003 30.4698 187.466C30.2098 186.92 30.0798 186.283 30.0798 185.555C30.0798 184.827 30.2098 184.194 30.4698 183.657C30.7298 183.111 31.0981 182.691 31.5748 182.396C32.0515 182.101 32.6061 181.954 33.2388 181.954C33.8628 181.954 34.4131 182.101 34.8898 182.396C35.3665 182.691 35.7348 183.111 35.9948 183.657C36.2548 184.194 36.3848 184.827 36.3848 185.555C36.3848 186.283 36.2548 186.92 35.9948 187.466C35.7348 188.003 35.3665 188.419 34.8898 188.714C34.4131 189.009 33.8628 189.156 33.2388 189.156ZM33.2388 188.116C33.8715 188.116 34.3611 187.891 34.7078 187.44C35.0631 186.981 35.2408 186.352 35.2408 185.555C35.2408 184.758 35.0631 184.134 34.7078 183.683C34.3611 183.224 33.8715 182.994 33.2388 182.994C32.6061 182.994 32.1121 183.219 31.7568 183.67C31.4015 184.121 31.2238 184.749 31.2238 185.555C31.2238 186.361 31.4015 186.989 31.7568 187.44C32.1121 187.891 32.6061 188.116 33.2388 188.116ZM40.135 189.156C39.4417 189.156 38.8913 188.926 38.484 188.467C38.0767 187.999 37.873 187.358 37.873 186.543V182.11H38.965V186.244C38.965 186.911 39.082 187.405 39.316 187.726C39.5587 188.038 39.927 188.194 40.421 188.194C40.967 188.194 41.396 188.021 41.708 187.674C42.02 187.319 42.176 186.833 42.176 186.218V182.11H43.268V189H42.228V187.297L42.397 187.388C42.2583 187.951 41.994 188.389 41.604 188.701C41.214 189.004 40.7243 189.156 40.135 189.156ZM45.3505 182.11H46.3645L46.3905 183.592L46.2345 183.514C46.3992 183.011 46.6809 182.626 47.0795 182.357C47.4869 182.088 47.9592 181.954 48.4965 181.954C49.1552 181.954 49.7055 182.119 50.1475 182.448C50.5982 182.769 50.9319 183.202 51.1485 183.748C51.3652 184.294 51.4735 184.896 51.4735 185.555C51.4735 186.214 51.3652 186.816 51.1485 187.362C50.9319 187.908 50.5982 188.346 50.1475 188.675C49.7055 188.996 49.1552 189.156 48.4965 189.156C48.1412 189.156 47.8075 189.095 47.4955 188.974C47.1922 188.853 46.9322 188.684 46.7155 188.467C46.5075 188.242 46.3645 187.986 46.2865 187.7L46.4425 187.518V190.95H45.3505V182.11ZM48.3925 188.116C48.9905 188.116 49.4629 187.891 49.8095 187.44C50.1562 186.989 50.3295 186.361 50.3295 185.555C50.3295 184.749 50.1562 184.121 49.8095 183.67C49.4629 183.219 48.9905 182.994 48.3925 182.994C47.9939 182.994 47.6472 183.094 47.3525 183.293C47.0579 183.484 46.8325 183.77 46.6765 184.151C46.5205 184.532 46.4425 185 46.4425 185.555C46.4425 186.11 46.5205 186.578 46.6765 186.959C46.8325 187.34 47.0535 187.631 47.3395 187.83C47.6342 188.021 47.9852 188.116 48.3925 188.116ZM59.491 189.156C59.0143 189.156 58.5897 189.052 58.217 188.844C57.8443 188.636 57.5583 188.341 57.359 187.96L57.32 189H56.332V179.77H57.424V183.072C57.606 182.76 57.8833 182.496 58.256 182.279C58.6287 182.062 59.0403 181.954 59.491 181.954C60.089 181.954 60.609 182.101 61.051 182.396C61.5017 182.691 61.8483 183.111 62.091 183.657C62.3337 184.194 62.455 184.827 62.455 185.555C62.455 186.283 62.3337 186.92 62.091 187.466C61.8483 188.003 61.5017 188.419 61.051 188.714C60.609 189.009 60.089 189.156 59.491 189.156ZM59.426 188.116C60.0067 188.116 60.466 187.886 60.804 187.427C61.142 186.968 61.311 186.344 61.311 185.555C61.311 184.758 61.142 184.134 60.804 183.683C60.4747 183.224 60.024 182.994 59.452 182.994C59.0273 182.994 58.6633 183.098 58.36 183.306C58.0567 183.505 57.8227 183.8 57.658 184.19C57.502 184.571 57.424 185.026 57.424 185.555C57.424 186.075 57.502 186.53 57.658 186.92C57.8227 187.301 58.0523 187.596 58.347 187.804C58.6503 188.012 59.01 188.116 59.426 188.116ZM64.0324 189.988H64.8254C65.0594 189.988 65.2327 189.949 65.3454 189.871C65.4667 189.802 65.562 189.685 65.6314 189.52L65.8784 188.87H65.5014L62.9794 182.11H64.1754L66.2294 187.856L68.1924 182.11H69.3884L66.5934 189.871C66.4634 190.244 66.2684 190.517 66.0084 190.69C65.7484 190.863 65.3887 190.95 64.9294 190.95H64.0324V189.988Z" fill="#A0A0A0"/>
<path d="M16 206C16 202.686 18.6863 200 22 200H242C245.314 200 248 202.686 248 206V226C248 229.314 245.314 232 242 232H22C18.6863 232 16 229.314 16 226V206Z" fill="#0A0A0A"/>
<path d="M242 199.5C245.59 199.5 248.5 202.41 248.5 206V226C248.5 229.59 245.59 232.5 242 232.5H22C18.4102 232.5 15.5 229.59 15.5 226V206C15.5 202.41 18.4101 199.5 22 199.5H242Z" stroke="white" stroke-opacity="0.145"/>
<path d="M25.288 211.06H28.858C29.586 211.06 30.2113 211.181 30.734 211.424C31.266 211.657 31.672 212.003 31.952 212.46C32.232 212.908 32.372 213.445 32.372 214.07C32.372 214.705 32.232 215.255 31.952 215.722C31.672 216.179 31.266 216.529 30.734 216.772C30.2113 217.015 29.586 217.136 28.858 217.136H26.492V221H25.288V211.06ZM28.858 215.96C29.6047 215.96 30.1647 215.801 30.538 215.484C30.9207 215.167 31.112 214.695 31.112 214.07C31.112 213.463 30.9207 213.006 30.538 212.698C30.1647 212.39 29.6047 212.236 28.858 212.236H26.492V215.96H28.858ZM34.0888 213.58H35.1248L35.1808 215.456L35.0688 215.414C35.1621 214.789 35.3628 214.327 35.6708 214.028C35.9788 213.729 36.3988 213.58 36.9308 213.58H37.6588V214.7H36.9448C36.5714 214.7 36.2588 214.77 36.0068 214.91C35.7641 215.041 35.5774 215.241 35.4468 215.512C35.3254 215.783 35.2648 216.119 35.2648 216.52V221H34.0888V213.58ZM41.7309 221.168C41.0496 221.168 40.4522 221.009 39.9389 220.692C39.4256 220.375 39.0289 219.927 38.7489 219.348C38.4689 218.76 38.3289 218.074 38.3289 217.29C38.3289 216.506 38.4689 215.825 38.7489 215.246C39.0289 214.658 39.4256 214.205 39.9389 213.888C40.4522 213.571 41.0496 213.412 41.7309 213.412C42.4029 213.412 42.9956 213.571 43.5089 213.888C44.0222 214.205 44.4189 214.658 44.6989 215.246C44.9789 215.825 45.1189 216.506 45.1189 217.29C45.1189 218.074 44.9789 218.76 44.6989 219.348C44.4189 219.927 44.0222 220.375 43.5089 220.692C42.9956 221.009 42.4029 221.168 41.7309 221.168ZM41.7309 220.048C42.4122 220.048 42.9396 219.805 43.3129 219.32C43.6956 218.825 43.8869 218.149 43.8869 217.29C43.8869 216.431 43.6956 215.759 43.3129 215.274C42.9396 214.779 42.4122 214.532 41.7309 214.532C41.0496 214.532 40.5176 214.775 40.1349 215.26C39.7522 215.745 39.5609 216.422 39.5609 217.29C39.5609 218.158 39.7522 218.835 40.1349 219.32C40.5176 219.805 41.0496 220.048 41.7309 220.048ZM45.5316 222.064H46.1336C46.3016 222.064 46.4462 222.036 46.5676 221.98C46.6889 221.933 46.7822 221.849 46.8476 221.728C46.9129 221.607 46.9456 221.448 46.9456 221.252V213.58H48.1216V221.308C48.1216 221.961 47.9769 222.423 47.6876 222.694C47.3982 222.965 46.9176 223.1 46.2456 223.1H45.5316V222.064ZM46.9176 211.046H48.1496V212.418H46.9176V211.046ZM53.1196 221.168C52.4289 221.168 51.8269 221.009 51.3136 220.692C50.8002 220.375 50.4036 219.927 50.1236 219.348C49.8529 218.76 49.7176 218.074 49.7176 217.29C49.7176 216.515 49.8529 215.834 50.1236 215.246C50.4036 214.658 50.7956 214.205 51.2996 213.888C51.8036 213.571 52.3916 213.412 53.0636 213.412C53.7076 213.412 54.2769 213.566 54.7716 213.874C55.2662 214.173 55.6489 214.616 55.9196 215.204C56.1996 215.792 56.3396 216.492 56.3396 217.304V217.654H50.9496C50.9869 218.438 51.1922 219.035 51.5656 219.446C51.9482 219.847 52.4662 220.048 53.1196 220.048C53.5956 220.048 53.9876 219.941 54.2956 219.726C54.6129 219.502 54.8369 219.194 54.9676 218.802L56.2276 218.9C56.0316 219.581 55.6536 220.132 55.0936 220.552C54.5429 220.963 53.8849 221.168 53.1196 221.168ZM55.0516 216.618C54.9956 215.927 54.7902 215.409 54.4356 215.064C54.0902 214.709 53.6329 214.532 53.0636 214.532C52.4849 214.532 52.0089 214.709 51.6356 215.064C51.2716 215.419 51.0429 215.937 50.9496 216.618H55.0516ZM60.8305 221.168C60.1492 221.168 59.5518 221.009 59.0385 220.692C58.5252 220.375 58.1285 219.922 57.8485 219.334C57.5685 218.746 57.4285 218.065 57.4285 217.29C57.4285 216.515 57.5685 215.834 57.8485 215.246C58.1285 214.658 58.5252 214.205 59.0385 213.888C59.5518 213.571 60.1492 213.412 60.8305 213.412C61.3998 213.412 61.9038 213.515 62.3425 213.72C62.7905 213.916 63.1545 214.21 63.4345 214.602C63.7145 214.985 63.8965 215.447 63.9805 215.988L62.7485 216.072C62.6645 215.587 62.4498 215.209 62.1045 214.938C61.7685 214.667 61.3438 214.532 60.8305 214.532C60.1492 214.532 59.6172 214.775 59.2345 215.26C58.8518 215.745 58.6605 216.422 58.6605 217.29C58.6605 218.158 58.8518 218.835 59.2345 219.32C59.6172 219.805 60.1492 220.048 60.8305 220.048C61.3438 220.048 61.7685 219.908 62.1045 219.628C62.4498 219.339 62.6645 218.919 62.7485 218.368L63.9805 218.452C63.8965 219.003 63.7145 219.483 63.4345 219.894C63.1545 220.295 62.7905 220.608 62.3425 220.832C61.8945 221.056 61.3905 221.168 60.8305 221.168ZM67.8673 221C67.1953 221 66.6959 220.846 66.3693 220.538C66.0519 220.23 65.8933 219.749 65.8933 219.096V211.844H67.0693V219.068C67.0693 219.395 67.1393 219.628 67.2793 219.768C67.4286 219.899 67.6619 219.964 67.9793 219.964H69.0433V221H67.8673ZM64.8013 213.58H69.0433V214.616H64.8013V213.58Z" fill="#EDEDED"/>
<mask id="path-22-outside-1_1433_1353" maskUnits="userSpaceOnUse" x="215" y="200" width="33" height="32" fill="black">
<rect fill="white" x="215" y="200" width="33" height="32"/>
<path d="M216 200H242C245.314 200 248 202.686 248 206V226C248 229.314 245.314 232 242 232H216V200Z"/>
</mask>
<path d="M216 200H248H216ZM248 232H216H248ZM215 232V200H217V232H215ZM248 200V232V200Z" fill="white" fill-opacity="0.145" mask="url(#path-22-outside-1_1433_1353)"/>
<path d="M235.561 213.5L233.061 216L235.561 218.5L234.5 219.56L232 217.06L229.5 219.56L228.439 218.5L230.939 216L228.439 213.5L229.5 212.439L232 214.939L234.5 212.439L235.561 213.5Z" fill="#8F8F8F"/>
<path d="M17.196 251.77H22.981V252.836H18.288V255.956H22.747V257.009H18.288V261H17.196V251.77ZM24.7603 254.11H25.8263V261H24.7603V254.11ZM24.7343 253.031V251.796H25.8523V253.031H24.7343ZM28.0617 251.77H29.1277V259.622C29.1277 259.921 29.2707 260.051 29.5697 260.051H30.1547V261H29.4137C28.5947 261 28.0617 260.467 28.0617 259.674V251.77ZM31.8223 252.55H32.8883V254.11H34.7213V255.059H32.8883V259.18C32.8883 259.765 33.1743 260.051 33.7203 260.051H34.7083V261H33.7203C32.4983 261 31.8223 260.35 31.8223 259.18V255.059H30.8083V254.11H31.8223V252.55ZM35.5778 257.555C35.5778 255.371 36.8128 253.954 38.7238 253.954C40.2578 253.954 41.5968 254.981 41.7138 257.412L41.7268 257.893H36.7088C36.8128 259.31 37.5278 260.142 38.7238 260.142C39.4778 260.142 40.1538 259.7 40.4658 258.972L41.6098 259.05C41.2068 260.35 40.0498 261.156 38.7238 261.156C36.8128 261.156 35.5778 259.739 35.5778 257.555ZM36.7348 256.944H40.5568C40.3618 255.488 39.5818 254.968 38.7238 254.968C37.6188 254.968 36.9038 255.696 36.7348 256.944ZM43.3843 254.11H44.3203L44.3593 255.384C44.5933 254.513 45.1133 254.11 46.0103 254.11H46.6733V255.046H46.0103C44.9573 255.046 44.4503 255.696 44.4503 256.892V261H43.3843V254.11Z" fill="#A0A0A0"/>
<path d="M16 278C16 274.686 18.6863 272 22 272H242C245.314 272 248 274.686 248 278V298C248 301.314 245.314 304 242 304H22C18.6863 304 16 301.314 16 298V278Z" fill="#0A0A0A"/>
<path d="M242 271.5C245.59 271.5 248.5 274.41 248.5 278V298C248.5 301.59 245.59 304.5 242 304.5H22C18.4102 304.5 15.5 301.59 15.5 298V278C15.5 274.41 18.4101 271.5 22 271.5H242Z" stroke="white" stroke-opacity="0.145"/>
<path d="M28.844 283.06C31.056 283.06 32.358 284.18 32.358 286.056C32.358 287.974 31.056 289.122 28.844 289.122H26.464V293H25.288V283.06H28.844ZM26.464 287.974H28.844C30.37 287.974 31.126 287.33 31.126 286.056C31.126 284.824 30.37 284.208 28.844 284.208H26.464V287.974ZM34.1588 285.58H35.1668L35.2088 286.952C35.4608 286.014 36.0208 285.58 36.9868 285.58H37.7008V286.588H36.9868C35.8528 286.588 35.3068 287.288 35.3068 288.576V293H34.1588V285.58ZM41.8409 293.168C39.7829 293.168 38.4529 291.642 38.4529 289.29C38.4529 286.938 39.7829 285.412 41.8409 285.412C43.8989 285.412 45.2289 286.938 45.2289 289.29C45.2289 291.642 43.8989 293.168 41.8409 293.168ZM39.6569 289.29C39.6569 291.026 40.4549 292.076 41.8409 292.076C43.2129 292.076 44.0249 291.026 44.0249 289.29C44.0249 287.554 43.2129 286.504 41.8409 286.504C40.4549 286.504 39.6569 287.554 39.6569 289.29ZM48.244 293.042C48.244 294.302 47.628 295.1 46.382 295.1H45.682V294.078H46.256C46.788 294.078 47.096 293.686 47.096 293.042V285.58H48.244V293.042ZM47.068 284.418V283.088H48.272V284.418H47.068ZM50.0193 289.29C50.0193 286.938 51.3493 285.412 53.4073 285.412C55.0593 285.412 56.5013 286.518 56.6273 289.136L56.6413 289.654H51.2373C51.3493 291.18 52.1193 292.076 53.4073 292.076C54.2193 292.076 54.9473 291.6 55.2833 290.816L56.5153 290.9C56.0813 292.3 54.8353 293.168 53.4073 293.168C51.3493 293.168 50.0193 291.642 50.0193 289.29ZM51.2653 288.632H55.3813C55.1713 287.064 54.3313 286.504 53.4073 286.504C52.2173 286.504 51.4473 287.288 51.2653 288.632ZM63.2267 288.058C63.0587 287.078 62.2607 286.504 61.3507 286.504C59.9647 286.504 59.1667 287.554 59.1667 289.29C59.1667 291.026 59.9647 292.076 61.3507 292.076C62.3027 292.076 63.1147 291.446 63.2827 290.382L64.5007 290.452C64.2627 292.132 62.9327 293.168 61.3507 293.168C59.2927 293.168 57.9627 291.642 57.9627 289.29C57.9627 286.938 59.2927 285.412 61.3507 285.412C62.8767 285.412 64.2347 286.392 64.4307 287.974L63.2267 288.058ZM66.5238 283.9H67.6718V285.58H69.6458V286.602H67.6718V291.04C67.6718 291.67 67.9798 291.978 68.5678 291.978H69.6318V293H68.5678C67.2518 293 66.5238 292.3 66.5238 291.04V286.602H65.4318V285.58H66.5238V283.9Z" fill="#EDEDED"/>
<path d="M90.19 285.58H91.338V293H90.19V285.58ZM90.162 284.418V283.088H91.366V284.418H90.162ZM97.9313 287.862C97.7633 287.008 96.9233 286.504 96.0833 286.504C95.2433 286.504 94.5713 286.938 94.5713 287.652C94.5853 288.38 95.5233 288.688 96.3633 288.87C98.0573 289.192 99.2753 289.668 99.2753 291.11C99.2753 292.538 97.8053 293.168 96.3913 293.168C94.6413 293.168 93.2973 292.202 93.1853 290.676L94.3893 290.592C94.5293 291.488 95.2573 292.076 96.3913 292.076C97.1473 292.076 98.0713 291.824 98.0713 291.054C98.0713 290.158 97.0073 290.06 96.1533 289.85C94.7813 289.528 93.3813 289.136 93.3813 287.722C93.3673 286.308 94.5153 285.412 96.2093 285.412C97.6933 285.412 98.8973 286.35 99.1353 287.778L97.9313 287.862Z" fill="#EDEDED"/>
<path d="M118.294 293L121.892 283.06H123.46L127.058 293H125.77L124.776 290.158H120.576L119.582 293H118.294ZM120.982 289.01H124.37L122.676 284.096L120.982 289.01ZM136.262 289.864C135.898 291.81 134.526 293.224 132.258 293.224C129.402 293.224 127.764 290.942 127.764 288.044C127.764 285.132 129.388 282.836 132.258 282.836C134.344 282.836 135.744 284.152 136.178 285.972L134.946 286.056C134.624 284.824 133.7 283.984 132.258 283.984C129.99 283.984 128.996 285.86 128.996 288.044C128.996 290.214 130.004 292.076 132.258 292.076C133.77 292.076 134.722 291.124 135.002 289.78L136.262 289.864ZM138.032 283.06H139.67L142.876 291.712L146.082 283.06H147.72V293H146.544V285.398L143.66 293H142.092L139.208 285.398V293H138.032V283.06ZM150.091 283.06H156.321V284.208H151.267V287.456H156.153V288.576H151.267V291.852H156.433V293H150.091V283.06ZM162.783 289.752C163.035 291.096 163.987 292.02 165.569 292.02C166.857 292.02 167.725 291.488 167.725 290.494C167.725 289.486 166.857 288.87 164.855 288.352C163.203 287.932 161.761 287.148 161.761 285.552C161.761 283.886 163.105 282.836 165.009 282.836C167.137 282.836 168.551 284.166 168.747 285.986L167.515 286.07C167.347 284.824 166.381 283.984 164.995 283.984C163.833 283.984 162.993 284.586 162.993 285.552C162.993 286.77 164.407 287.106 165.709 287.47C167.543 287.974 168.957 288.87 168.957 290.382C168.957 292.202 167.277 293.168 165.485 293.168C163.301 293.168 161.705 291.824 161.551 289.836L162.783 289.752ZM170.706 285.58H171.854V293H170.706V285.58ZM170.678 284.418V283.088H171.882V284.418H170.678ZM174.428 283.9H175.576V285.58H177.55V286.602H175.576V291.04C175.576 291.67 175.884 291.978 176.472 291.978H177.536V293H176.472C175.156 293 174.428 292.3 174.428 291.04V286.602H173.336V285.58H174.428V283.9ZM178.472 289.29C178.472 286.938 179.802 285.412 181.86 285.412C183.512 285.412 184.954 286.518 185.08 289.136L185.094 289.654H179.69C179.802 291.18 180.572 292.076 181.86 292.076C182.672 292.076 183.4 291.6 183.736 290.816L184.968 290.9C184.534 292.3 183.288 293.168 181.86 293.168C179.802 293.168 178.472 291.642 178.472 289.29ZM179.718 288.632H183.834C183.624 287.064 182.784 286.504 181.86 286.504C180.67 286.504 179.9 287.288 179.718 288.632Z" fill="#EDEDED"/>
<mask id="path-31-outside-2_1433_1353" maskUnits="userSpaceOnUse" x="215" y="272" width="33" height="32" fill="black">
<rect fill="white" x="215" y="272" width="33" height="32"/>
<path d="M216 272H242C245.314 272 248 274.686 248 278V298C248 301.314 245.314 304 242 304H216V272Z"/>
</mask>
<path d="M216 272H248H216ZM248 304H216H248ZM215 304V272H217V304H215ZM248 272V304V272Z" fill="white" fill-opacity="0.145" mask="url(#path-31-outside-2_1433_1353)"/>
<path d="M235.561 285.5L233.061 288L235.561 290.5L234.5 291.56L232 289.06L229.5 291.56L228.439 290.5L230.939 288L228.439 285.5L229.5 284.439L232 286.939L234.5 284.439L235.561 285.5Z" fill="#8F8F8F"/>
<defs>
<clipPath id="clip0_1433_1353">
<rect width="16" height="16" fill="white" transform="translate(24 56)"/>
</clipPath>
<clipPath id="clip1_1433_1353">
<rect width="16" height="16" fill="white" transform="translate(24 96)"/>
</clipPath>
<clipPath id="clip2_1433_1353">
<rect width="16" height="16" fill="white" transform="translate(24 136)"/>
</clipPath>
</defs>
</svg>
